<svg width="480" height="480" viewBox="0 0 480 480" fill="none" xmlns="http://www.w3.org/2000/svg">
  <rect width="480" height="480" rx="48" fill="#FBF7F0"/>
  <rect x="36" y="36" width="408" height="408" rx="36" fill="url(#wash)" stroke="rgba(208,194,170,0.5)"/>
  <defs>
    <radialGradient id="wash" cx="0" cy="0" r="1" gradientUnits="userSpaceOnUse" gradientTransform="translate(164 102) rotate(52) scale(352 352)">
      <stop stop-color="rgba(255,255,255,0.9)"/>
      <stop offset="1" stop-color="rgba(242,233,221,0.96)"/>
    </radialGradient>
  </defs>
  
    <path d="M136 318C136 242 155 184 192 144C209 125 225 114 240 112C255 114 271 125 288 144C325 184 344 242 344 318" stroke="rgba(121,111,97,0.18)" stroke-width="1.4"/>
    <path d="M160 318C160 258 174 212 201 180C212 167 225 159 240 156C255 159 268 167 279 180C306 212 320 258 320 318" stroke="#5A7F88" stroke-opacity="0.22" stroke-width="1.15"/>
    <path d="M240 144V338" stroke="#A7775C" stroke-width="2.2" stroke-linecap="round"/>
    <path d="M208 202C217 194 228 190 240 190C252 190 263 194 272 202C281 211 286 223 286 238C286 253 281 265 272 274C263 282 252 286 240 286C228 286 217 282 208 274C199 265 194 253 194 238C194 223 199 211 208 202Z" stroke="#201E22" stroke-width="2.45" stroke-linejoin="round"/>
    <path d="M218 322C226 304 233 294 240 294C247 294 254 304 262 322" stroke="#5A7F88" stroke-opacity="0.9" stroke-width="1.8" stroke-linecap="round"/>
    <path d="M174 326H306" stroke="#201E22" stroke-opacity="0.3" stroke-width="1.6" stroke-linecap="round"/>
  
</svg>