<svg width="480" height="480" viewBox="0 0 480 480" fill="none" xmlns="http://www.w3.org/2000/svg">
    <rect width="480" height="480" rx="48" fill="#FBF7F0"/>
    <rect x="36" y="36" width="408" height="408" rx="36" fill="rgba(255,252,247,0.88)" stroke="rgba(205,189,165,0.46)"/>
    
    <circle cx="240" cy="166" r="78" fill="rgba(255,252,247,0.96)" stroke="rgba(205,189,165,0.5)"/>
    
    <path d="M240 116C202 116 172 128 152 152C132 176 124 206 126 244C128 282 142 316 168 346C188 368 212 388 240 404C268 388 292 368 312 346C338 316 352 282 354 244C356 206 348 176 328 152C308 128 278 116 240 116Z" transform="translate(0 -30)" stroke="rgba(31,31,29,0.84)" stroke-width="2.2" fill="none"/>
    <path d="M240 128C230 156 226 190 228 230C230 270 234 312 240 356" transform="translate(0 -30)" stroke="#C59B5E" stroke-width="1.7" fill="none" stroke-linecap="round"/>
    <path d="M204 168C178 162 158 170 144 192" transform="translate(0 -30)" stroke="rgba(84,112,120,0.52)" stroke-width="1.5" fill="none" stroke-linecap="round"/>
    <path d="M204 224C178 224 160 234 148 254" transform="translate(0 -30)" stroke="rgba(84,112,120,0.48)" stroke-width="1.42" fill="none" stroke-linecap="round"/>
    <path d="M276 168C302 162 322 170 336 192" transform="translate(0 -30)" stroke="rgba(84,112,120,0.52)" stroke-width="1.5" fill="none" stroke-linecap="round"/>
    <path d="M276 224C302 224 320 234 332 254" transform="translate(0 -30)" stroke="rgba(84,112,120,0.48)" stroke-width="1.42" fill="none" stroke-linecap="round"/>
  
    <text x="240" y="308" fill="#1F1F21" text-anchor="middle" font-family="'Source Serif 4', Georgia, serif" font-size="60" font-weight="600" letter-spacing="-2.4">ChapAI</text>
    <text x="240" y="350" fill="#766D61" text-anchor="middle" font-family="'DM Sans', Arial, sans-serif" font-size="14" font-weight="700" letter-spacing="4">CORTICAL SEAL</text>
  
  </svg>