<svg width="1600" height="960" viewBox="0 0 1600 960" fill="none" xmlns="http://www.w3.org/2000/svg">
  <rect width="1600" height="960" fill="#FBF7F0"/>
  <defs>
    <radialGradient id="paper-wash" cx="0" cy="0" r="1" gradientUnits="userSpaceOnUse" gradientTransform="translate(1216 326.40000000000003) rotate(90) scale(422.4 422.4)">
      <stop offset="0" stop-color="#fffdf7"/>
      <stop offset="0.5" stop-color="#F3EBDD"/>
      <stop offset="1" stop-color="#FBF7F0"/>
    </radialGradient>
    <radialGradient id="bleed-wash" cx="0" cy="0" r="1" gradientUnits="userSpaceOnUse" gradientTransform="translate(1200 364.8) rotate(90) scale(249.60000000000002 249.60000000000002)">
      <stop offset="0" stop-color="#fffaf1" stop-opacity="0.95"/>
      <stop offset="0.5" stop-color="#E9DCCA" stop-opacity="0.58"/>
      <stop offset="1" stop-color="#E9DCCA" stop-opacity="0"/>
    </radialGradient>
  </defs>
  <rect x="26" y="26" width="1548" height="908" rx="28" fill="url(#paper-wash)" stroke="rgba(203,188,164,0.38)"/>
  
    
    <rect x="110" y="70" width="1380" height="82" rx="41" fill="rgba(255,252,247,0.84)" stroke="rgba(212,197,173,0.52)"/>
    <text x="182" y="120" fill="#1F1F21" font-family="'Source Serif 4', Georgia, serif" font-size="38" font-weight="600" letter-spacing="-2">ChapAI</text>
    <text x="1106" y="120" fill="#7A7064" font-family="'DM Sans', Arial, sans-serif" font-size="20" font-weight="600">CCRN</text>
    <text x="1190" y="120" fill="#7A7064" font-family="'DM Sans', Arial, sans-serif" font-size="20" font-weight="600">NCLEX</text>
    <text x="1284" y="120" fill="#7A7064" font-family="'DM Sans', Arial, sans-serif" font-size="20" font-weight="600">PLANS</text>
    <rect x="1348" y="90" width="114" height="44" rx="22" fill="rgba(255,250,243,0.96)" stroke="rgba(212,197,173,0.54)"/>
    <text x="1383" y="118" fill="#1F1F21" font-family="'DM Sans', Arial, sans-serif" font-size="20" font-weight="700">SPRINT</text>
  
    
    <text x="154" y="192" fill="#7A7064" font-family="'DM Sans', Arial, sans-serif" font-size="15" font-weight="700" letter-spacing="5">NEURAL CANOPY / PREMIUM MEDICAL SURFACE</text>
    <text x="154" y="282" fill="#1F1F21" font-family="'DM Sans', Arial, sans-serif" font-size="94" font-weight="500" letter-spacing="-7">A calmer, more</text>
    <text x="154" y="372" fill="#1F1F21" font-family="'DM Sans', Arial, sans-serif" font-size="94" font-weight="500" letter-spacing="-7">intelligent way</text>
    <text x="154" y="462" fill="#1F1F21" font-family="'DM Sans', Arial, sans-serif" font-size="94" font-weight="500" letter-spacing="-7">to prepare.</text>
    <text x="154" y="546" fill="#7A7064" font-family="'DM Sans', Arial, sans-serif" font-size="30">Original questions, elite rationale, and a direct path into the right plan.</text>
    <rect x="154" y="610" width="232" height="64" rx="32" fill="#587E87"/>
    <text x="194" y="650" fill="#fff" font-family="'DM Sans', Arial, sans-serif" font-size="25" font-weight="700">Start the $10 sprint</text>
    <rect x="404" y="610" width="196" height="64" rx="32" fill="rgba(255,252,247,0.88)" stroke="rgba(194,178,154,0.62)"/>
    <text x="454" y="650" fill="#1F1F21" font-family="'DM Sans', Arial, sans-serif" font-size="24" font-weight="600">See plans</text>
    <text x="154" y="738" fill="#7A7064" font-family="'DM Sans', Arial, sans-serif" font-size="14" font-weight="700" letter-spacing="4">AI TUTOR + VISUAL RATIONALE + CLEAN CLINICAL FLOW</text>
    <path d="M154 766H654" stroke="rgba(212,197,173,0.62)"/>
  
    
    <path d="M760 212C902 134 1044 100 1188 108C1324 116 1456 154 1584 224C1668 270 1732 322 1778 380" stroke="rgba(88,126,135,0.2)" stroke-width="1.4" fill="none" stroke-linecap="round"/>
    <path d="M724 420C874 334 1030 296 1194 304C1360 312 1514 354 1656 436C1742 486 1810 544 1858 608" stroke="rgba(88,126,135,0.12)" stroke-width="1.1" fill="none" stroke-linecap="round"/>
    <path d="M814 684C946 632 1074 610 1200 618C1328 626 1450 664 1566 732C1642 776 1702 826 1746 884" stroke="rgba(88,126,135,0.18)" stroke-width="1.34" fill="none" stroke-linecap="round"/>
    <path d="M1046 84C1052 234 1064 390 1076 548C1088 706 1110 844 1142 952" stroke="rgba(88,126,135,0.1)" stroke-width="1.1" fill="none" stroke-linecap="round"/>
    <path d="M1214 66C1218 226 1228 384 1242 542C1256 700 1282 838 1318 946" stroke="rgba(88,126,135,0.18)" stroke-width="1.22" fill="none" stroke-linecap="round"/>
    <path d="M1388 88C1358 214 1328 348 1298 490C1270 632 1246 780 1228 948" stroke="rgba(88,126,135,0.1)" stroke-width="1.04" fill="none" stroke-linecap="round"/>
  
    
    <path d="M970.48 237.04000000000002C1068 178.16 1193.12 152.4 1345.8400000000001 157.92000000000002C1489.3600000000001 163.44 1599.76 209.44 1675.2 290.4C1746.96 365.84000000000003 1781.92 454.16 1778.24 555.36C1774.56 656.5600000000001 1737.76 743.0400000000001 1667.8400000000001 812.96C1597.92 882.88 1515.12 923.36 1419.44 934.4000000000001C1327.44 945.44 1240.96 934.4000000000001 1160 895.76C1079.04 857.12 1014.64 800.08 968.64 726.48C922.64 652.88 902.4 566.4000000000001 907.92 467.04C913.44 367.68 933.68 290.4 970.48 237.04000000000002Z" fill="url(#bleed-wash)" opacity="0.92"/>
    <path d="M1007.28 266.48C1101.12 220.48000000000002 1213.3600000000001 202.07999999999998 1344 207.60000000000002C1469.12 213.12 1564.8000000000002 249.92000000000002 1631.04 312.48C1695.44 375.04 1726.72 452.32 1724.88 544.3199999999999C1723.04 636.32 1689.92 715.44 1625.52 778C1561.12 840.5600000000001 1485.68 877.36 1397.3600000000001 890.24" stroke="rgba(31,31,29,0.86)" stroke-width="2.4840000000000004" fill="none" stroke-linecap="round" stroke-linejoin="round"/>
    <path d="M1064.32 312.48C1112.16 275.68 1167.3600000000001 257.28 1229.92 259.12C1292.48 260.96000000000004 1344 283.04 1386.32 323.52" stroke="rgba(31,31,29,0.76)" stroke-width="1.9320000000000002" fill="none" stroke-linecap="round"/>
    <path d="M1147.12 413.68C1194.96 373.20000000000005 1252 354.8 1316.4 358.48C1382.64 362.15999999999997 1439.68 389.76 1487.52 443.12" stroke="rgba(31,31,29,0.74)" stroke-width="1.8952000000000002" fill="none" stroke-linecap="round"/>
    <path d="M1222.56 520.4000000000001C1255.68 638.1600000000001 1279.6 752.24 1296.16 862.64" stroke="#C59858" stroke-width="1.8032000000000001" fill="none" stroke-linecap="round"/>
    <path d="M1296.16 638.1600000000001C1253.8400000000001 689.6800000000001 1222.56 748.5600000000001 1202.32 814.8000000000001" stroke="#587E87" stroke-width="1.6192" fill="none" stroke-linecap="round"/>
    <path d="M1316.4 656.5600000000001C1362.4 697.0400000000001 1402.88 750.4 1439.68 818.48" stroke="#587E87" stroke-width="1.6192" fill="none" stroke-linecap="round"/>
    <path d="M1404.72 529.6C1445.2 487.28000000000003 1498.56 461.52000000000004 1564.8000000000002 452.32C1629.2 443.12 1684.4 456 1732.24 490.96000000000004" stroke="#C59858" stroke-width="1.8032000000000001" fill="none" stroke-linecap="round"/>
    <path d="M1813.2 737.52H2162.8" stroke="rgba(88,126,135,0.12)" stroke-width="1.104" fill="none" stroke-linecap="round"/>
  
    <text x="154" y="842" fill="#7A7064" font-family="'DM Sans', Arial, sans-serif" font-size="14" font-weight="700" letter-spacing="4">CURRENT ANGLE</text>
    <text x="154" y="888" fill="#1F1F21" font-family="'Source Serif 4', Georgia, serif" font-size="38" font-weight="600">Neural canopy</text>
  
</svg>