<svg width="1600" height="1024" viewBox="0 0 1600 1024" fill="none" xmlns="http://www.w3.org/2000/svg">
  <rect width="1600" height="1024" fill="#F5EFE5"/>
  <style>
    .shell { fill: none; stroke-linecap: round; stroke-linejoin: round; }
    .shell.main { stroke: rgba(122,113,99,0.18); stroke-width: 1.45; }
    .shell.soft { stroke: rgba(122,113,99,0.09); stroke-width: 1.06; }
    .shell.faint { stroke: rgba(122,113,99,0.055); stroke-width: 1.01; }
    .figure { fill: none; stroke: rgba(50,45,40,0.31); stroke-width: 2.2; stroke-linecap: round; stroke-linejoin: round; }
    .detail { fill: none; stroke: rgba(104,93,79,0.14); stroke-width: 1.35; stroke-linecap: round; stroke-linejoin: round; }
    .organ { fill: none; stroke: rgba(194,154,86,0.38); stroke-width: 1.9; stroke-linecap: round; stroke-linejoin: round; }
    .accent { fill: none; stroke: rgba(93,133,144,0.88); stroke-width: 2.15; stroke-linecap: round; stroke-linejoin: round; }
  </style>
  <rect x="262" y="74" width="1076" height="72" rx="36" fill="rgba(255,252,247,0.74)" stroke="rgba(218,206,188,0.62)"/>
  <circle cx="301" cy="110" r="21" fill="rgba(255,252,247,0.98)" stroke="rgba(218,206,188,0.74)"/>
  <path d="M301 96V126" stroke="#C39A61" stroke-width="1.5" stroke-linecap="round"/>
  <path d="M289 106C294 101 300 99 306 99C312 99 318 101 322 106C326 110 329 116 330 122" stroke="#1F2024" stroke-width="1.8" stroke-linecap="round"/>
  <text x="336" y="111" fill="#1F2024" font-family="'DM Sans', Arial, sans-serif" font-size="22" font-weight="600">ChapAI</text>
  <text x="336" y="136" fill="#776B5A" font-family="'DM Sans', Arial, sans-serif" font-size="12" letter-spacing="3">NCLEX + CCRN</text>
  <text x="1130" y="117" fill="#776B5A" font-family="'DM Sans', Arial, sans-serif" font-size="15" letter-spacing="2">CCRN</text>
  <text x="1183" y="117" fill="#776B5A" font-family="'DM Sans', Arial, sans-serif" font-size="15" letter-spacing="2">NCLEX</text>
  <text x="1248" y="117" fill="#776B5A" font-family="'DM Sans', Arial, sans-serif" font-size="15" letter-spacing="2">PLANS</text>
  <rect x="1298" y="88" width="72" height="44" rx="22" fill="rgba(255,252,247,0.96)" stroke="rgba(218,206,188,0.72)"/>
  <text x="1320" y="116" fill="#1F2024" font-family="'DM Sans', Arial, sans-serif" font-size="16" font-weight="700">START</text>
  <text x="300" y="212" fill="#776B5A" font-family="'DM Sans', Arial, sans-serif" font-size="13" font-weight="700" letter-spacing="4">APRIL DESIGN PASS</text>
  <text x="300" y="340" fill="#1F2024" font-family="'DM Sans', Arial, sans-serif" font-size="106" font-weight="500" letter-spacing="-7">Clinical prep with one clearer visual idea.</text>
  <text x="300" y="638" fill="#776B5A" font-family="'DM Sans', Arial, sans-serif" font-size="22">Open space, stronger linework, and a more premium silhouette.</text>
  <rect x="300" y="692" width="188" height="54" rx="27" fill="#5D8590"/>
  <text x="338" y="726" fill="#FBF7F0" font-family="'DM Sans', Arial, sans-serif" font-size="22" font-weight="700">Choose plan</text>
  <rect x="502" y="692" width="168" height="54" rx="27" fill="rgba(255,252,247,0.94)" stroke="rgba(218,206,188,0.64)"/>
  <text x="544" y="726" fill="#1F2024" font-family="'DM Sans', Arial, sans-serif" font-size="22" font-weight="600">Try free</text>
  <path d="M300 792H840" stroke="rgba(214,203,188,0.72)"/>
  <text x="300" y="822" fill="#776B5A" font-family="'DM Sans', Arial, sans-serif" font-size="13" letter-spacing="4">ANATOMY GLOBE + CLEANER RATIONALE</text>
  <text x="300" y="906" fill="#1F2024" font-family="'DM Sans', Arial, sans-serif" font-size="34" font-weight="700">435 live CCRN questions</text>
  <text x="614" y="906" fill="#1F2024" font-family="'DM Sans', Arial, sans-serif" font-size="34" font-weight="700">Free / Plus / Pro</text>
  
    <circle cx="1046" cy="500" r="378" class="shell main"/>
    <ellipse cx="1046" cy="500" rx="262" ry="378" class="shell soft"/>
    <ellipse cx="1092" cy="500" rx="178" ry="378" class="shell soft"/>
    <path d="M1046 122V878" class="shell faint"/>
    <path d="M786 364C881 328 968 310 1046 310C1125 310 1212 328 1300 364" class="shell faint"/>
    <path d="M760 516C860 482 955 466 1046 466C1138 466 1234 482 1326 516" class="shell faint"/>
    <path d="M778 670C868 642 958 628 1048 628C1138 628 1226 642 1314 670" class="shell faint"/>
    <ellipse cx="1086" cy="500" rx="164" ry="346" fill="rgba(255,249,241,0.88)"/>
  
  
    <path d="M1096 170V854" class="accent"/>
    <path d="M1048 212C1014 232 983 264 956 308C929 351 912 397 904 446C896 494 900 544 918 596" class="figure"/>
    <path d="M1146 212C1180 232 1211 264 1238 308C1265 351 1282 397 1290 446C1298 494 1294 544 1276 596" class="figure"/>
    <path d="M1060 336C1082 322 1105 315 1128 316C1151 317 1171 327 1188 348" class="organ"/>
    <path d="M1024 412C1057 392 1091 384 1127 389C1162 394 1193 411 1218 440" class="organ"/>
    <path d="M1134 336C1111 324 1088 322 1065 328C1041 334 1019 347 998 366" class="detail"/>
  
</svg>