<svg width="1600" height="520" viewBox="0 0 1600 520" fill="none" xmlns="http://www.w3.org/2000/svg"><defs><radialGradient id="paper-wash" cx="0" cy="0" r="1" gradientUnits="userSpaceOnUse" gradientTransform="translate(1184 197.6) rotate(90) scale(249.6 249.6)"><stop offset="0" stop-color="#fffdf8"/><stop offset="0.5" stop-color="#F1E8D9"/><stop offset="1" stop-color="#FBF7F0"/></radialGradient><radialGradient id="core-wash" cx="0" cy="0" r="1" gradientUnits="userSpaceOnUse" gradientTransform="translate(1248 218.4) rotate(90) scale(135.20000000000002 135.20000000000002)"><stop offset="0" stop-color="#FFFDF8" stop-opacity="0.96"/><stop offset="0.56" stop-color="#E7D8C1" stop-opacity="0.52"/><stop offset="1" stop-color="#E7D8C1" stop-opacity="0"/></radialGradient></defs><rect width="1600" height="520" fill="#FBF7F0"/><rect x="24" y="24" width="1552" height="472" rx="28" fill="url(#paper-wash)" stroke="rgba(210,193,170,0.4)"/><rect x="42" y="42" width="1516" height="434" rx="34" fill="rgba(255,252,247,0.9)" stroke="rgba(212,197,173,0.52)"/><text x="112" y="164" fill="#1F1F21" font-family="'Source Serif 4', Georgia, serif" font-size="70" font-weight="600" letter-spacing="-3">ChapAI</text><text x="112" y="226" fill="#756B60" font-family="'DM Sans', Arial, sans-serif" font-size="18" font-weight="700" letter-spacing="5">NCLEX + CCRN / CLEANER CLINICAL PREP</text><text x="112" y="298" fill="#1F1F21" font-family="'DM Sans', Arial, sans-serif" font-size="48" font-weight="500" letter-spacing="-3">Original questions. Sharper clinical review.</text><text x="112" y="354" fill="#756B60" font-family="'DM Sans', Arial, sans-serif" font-size="25">AI tutor, visual rationale, and a faster route into the right plan.</text><path d="M706 184C862 132 1012 110 1156 118C1318 126 1462 172 1588 256C1674 312 1744 380 1798 460" stroke="rgba(101,120,126,0.18)" stroke-width="1.24" fill="none" stroke-linecap="round"/><path d="M690 336C842 286 994 266 1146 276C1308 286 1456 332 1592 414C1676 466 1744 530 1796 608" stroke="rgba(101,120,126,0.1)" stroke-width="1.06" fill="none" stroke-linecap="round"/><path d="M714 514C862 476 1008 462 1152 472C1300 482 1438 520 1566 586C1652 630 1720 688 1772 760" stroke="rgba(101,120,126,0.18)" stroke-width="1.18" fill="none" stroke-linecap="round"/><path d="M1018 86C1036 222 1054 362 1072 506C1090 650 1122 800 1168 954" stroke="rgba(101,120,126,0.08)" stroke-width="1.02" fill="none" stroke-linecap="round"/><path d="M1184 72C1190 212 1202 354 1220 500C1238 648 1270 800 1316 956" stroke="rgba(101,120,126,0.16)" stroke-width="1.12" fill="none" stroke-linecap="round"/><path d="M980 70C1104 26 1242 22 1392 60C1518 92 1612 160 1674 264C1736 368 1748 480 1710 600C1672 720 1592 814 1470 882C1348 950 1218 968 1080 936C970 910 888 854 834 768C780 682 756 588 762 486C770 384 804 298 866 228C900 188 938 136 980 70Z" fill="url(#core-wash)" opacity="0.8"/><path d="M1128 74C1040 80 972 114 924 176C878 236 858 314 866 410C874 506 908 592 968 668C1022 736 1096 786 1190 818C1286 786 1362 732 1418 654C1478 572 1510 484 1514 390C1518 296 1498 222 1454 168C1410 114 1346 82 1262 72C1212 66 1168 66 1128 74Z" stroke="rgba(31,31,29,0.88)" stroke-width="2.9" fill="none" stroke-linecap="round" stroke-linejoin="round"/><path d="M1192 92C1180 154 1174 216 1174 278C1174 342 1182 408 1196 476C1210 546 1218 614 1218 680C1218 742 1210 804 1192 866" stroke="#C89B5B" stroke-width="2.04" fill="none" stroke-linecap="round"/><path d="M1018 206C948 148 892 106 850 80C808 54 758 36 700 26" stroke="rgba(31,31,29,0.4)" stroke-width="1.42" fill="none" stroke-linecap="round"/><path d="M1454 190C1512 150 1568 114 1622 82C1676 50 1736 28 1802 16" stroke="rgba(31,31,29,0.4)" stroke-width="1.42" fill="none" stroke-linecap="round"/><circle cx="716" cy="118" r="5.2" fill="rgba(92,112,118,0.28)"/><circle cx="790" cy="144" r="4.8" fill="rgba(92,112,118,0.28)"/><circle cx="850" cy="176" r="4.4" fill="rgba(92,112,118,0.28)"/><circle cx="1766" cy="154" r="4.5" fill="rgba(92,112,118,0.28)"/><circle cx="1686" cy="196" r="4.1" fill="rgba(92,112,118,0.28)"/><circle cx="1710" cy="1148" r="5.2" fill="rgba(92,112,118,0.28)"/></svg>