<svg width="1600" height="520" viewBox="0 0 1600 520" fill="none" xmlns="http://www.w3.org/2000/svg"><defs><radialGradient id="paper-wash" cx="0" cy="0" r="1" gradientUnits="userSpaceOnUse" gradientTransform="translate(1184 197.6) rotate(90) scale(249.6 249.6)"><stop offset="0" stop-color="#fffdf8"/><stop offset="0.5" stop-color="#F1E8D9"/><stop offset="1" stop-color="#FBF7F0"/></radialGradient><radialGradient id="core-wash" cx="0" cy="0" r="1" gradientUnits="userSpaceOnUse" gradientTransform="translate(1248 218.4) rotate(90) scale(135.20000000000002 135.20000000000002)"><stop offset="0" stop-color="#FFFDF8" stop-opacity="0.96"/><stop offset="0.56" stop-color="#E7D8C1" stop-opacity="0.52"/><stop offset="1" stop-color="#E7D8C1" stop-opacity="0"/></radialGradient></defs><rect width="1600" height="520" fill="#FBF7F0"/><rect x="24" y="24" width="1552" height="472" rx="28" fill="url(#paper-wash)" stroke="rgba(210,193,170,0.4)"/><rect x="42" y="42" width="1516" height="434" rx="34" fill="rgba(255,252,247,0.9)" stroke="rgba(212,197,173,0.52)"/><text x="112" y="164" fill="#1F1F21" font-family="'Source Serif 4', Georgia, serif" font-size="70" font-weight="600" letter-spacing="-3">ChapAI</text><text x="112" y="226" fill="#756B60" font-family="'DM Sans', Arial, sans-serif" font-size="18" font-weight="700" letter-spacing="5">NCLEX + CCRN / CLEANER CLINICAL PREP</text><text x="112" y="298" fill="#1F1F21" font-family="'DM Sans', Arial, sans-serif" font-size="48" font-weight="500" letter-spacing="-3">Original questions. Sharper clinical review.</text><text x="112" y="354" fill="#756B60" font-family="'DM Sans', Arial, sans-serif" font-size="25">AI tutor, visual rationale, and a faster route into the right plan.</text><path d="M706 184C862 132 1012 110 1156 118C1318 126 1462 172 1588 256C1674 312 1744 380 1798 460" stroke="rgba(101,120,126,0.18)" stroke-width="1.24" fill="none" stroke-linecap="round"/><path d="M690 336C842 286 994 266 1146 276C1308 286 1456 332 1592 414C1676 466 1744 530 1796 608" stroke="rgba(101,120,126,0.1)" stroke-width="1.06" fill="none" stroke-linecap="round"/><path d="M714 514C862 476 1008 462 1152 472C1300 482 1438 520 1566 586C1652 630 1720 688 1772 760" stroke="rgba(101,120,126,0.18)" stroke-width="1.18" fill="none" stroke-linecap="round"/><path d="M1018 86C1036 222 1054 362 1072 506C1090 650 1122 800 1168 954" stroke="rgba(101,120,126,0.08)" stroke-width="1.02" fill="none" stroke-linecap="round"/><path d="M1184 72C1190 212 1202 354 1220 500C1238 648 1270 800 1316 956" stroke="rgba(101,120,126,0.16)" stroke-width="1.12" fill="none" stroke-linecap="round"/><path d="M990 50C1106 12 1230 6 1362 32C1478 56 1568 110 1632 194C1696 278 1724 378 1716 494C1708 608 1666 702 1590 776C1514 850 1412 900 1284 926C1156 952 1044 946 948 908C852 870 780 808 732 722C684 636 664 536 672 422C680 308 714 218 774 150C834 82 906 48 990 50Z" fill="url(#core-wash)" opacity="0.82"/><path d="M1186 64C1082 70 1000 112 940 190C880 268 856 362 868 472C880 580 922 666 994 730C1066 794 1162 834 1282 850C1402 826 1498 778 1570 706C1642 634 1680 548 1684 448C1688 350 1660 266 1600 196C1540 126 1458 80 1354 60C1298 50 1242 52 1186 64Z" stroke="rgba(31,31,29,0.88)" stroke-width="2.9" fill="none" stroke-linecap="round" stroke-linejoin="round"/><path d="M1274 74C1260 142 1254 210 1256 278C1258 348 1268 422 1284 500C1300 580 1308 654 1308 722C1308 788 1298 852 1278 912" stroke="#C89B5B" stroke-width="2.06" fill="none" stroke-linecap="round"/><path d="M1110 128C1036 128 980 158 942 218C906 276 894 346 906 428C918 506 950 574 1002 632" stroke="rgba(73,96,102,0.58)" stroke-width="1.68" fill="none" stroke-linecap="round"/><path d="M1154 282C1102 294 1068 324 1052 372C1038 418 1044 468 1070 522C1096 574 1130 614 1172 642" stroke="rgba(73,96,102,0.58)" stroke-width="1.68" fill="none" stroke-linecap="round"/><path d="M1446 128C1520 128 1576 158 1614 218C1650 276 1662 346 1650 428C1638 506 1606 574 1554 632" stroke="rgba(73,96,102,0.58)" stroke-width="1.68" fill="none" stroke-linecap="round"/><path d="M1278 490C1352 462 1418 414 1476 346C1534 276 1576 200 1602 118" stroke="#5E818A" stroke-width="1.82" fill="none" stroke-linecap="round"/><path d="M1278 490C1204 462 1138 414 1080 346C1022 276 980 200 954 118" stroke="#5E818A" stroke-width="1.82" fill="none" stroke-linecap="round"/></svg>