<svg width="1600" height="520" viewBox="0 0 1600 520" fill="none" xmlns="http://www.w3.org/2000/svg"><defs><radialGradient id="paper-wash" cx="0" cy="0" r="1" gradientUnits="userSpaceOnUse" gradientTransform="translate(1184 197.6) rotate(90) scale(249.6 249.6)"><stop offset="0" stop-color="#fffdf8"/><stop offset="0.5" stop-color="#F1E8D9"/><stop offset="1" stop-color="#FBF7F0"/></radialGradient><radialGradient id="core-wash" cx="0" cy="0" r="1" gradientUnits="userSpaceOnUse" gradientTransform="translate(1248 218.4) rotate(90) scale(135.20000000000002 135.20000000000002)"><stop offset="0" stop-color="#FFFDF8" stop-opacity="0.96"/><stop offset="0.56" stop-color="#E7D8C1" stop-opacity="0.52"/><stop offset="1" stop-color="#E7D8C1" stop-opacity="0"/></radialGradient></defs><rect width="1600" height="520" fill="#FBF7F0"/><rect x="24" y="24" width="1552" height="472" rx="28" fill="url(#paper-wash)" stroke="rgba(210,193,170,0.4)"/><rect x="42" y="42" width="1516" height="434" rx="34" fill="rgba(255,252,247,0.9)" stroke="rgba(212,197,173,0.52)"/><text x="112" y="164" fill="#1F1F21" font-family="'Source Serif 4', Georgia, serif" font-size="70" font-weight="600" letter-spacing="-3">ChapAI</text><text x="112" y="226" fill="#756B60" font-family="'DM Sans', Arial, sans-serif" font-size="18" font-weight="700" letter-spacing="5">NCLEX + CCRN / CLEANER CLINICAL PREP</text><text x="112" y="298" fill="#1F1F21" font-family="'DM Sans', Arial, sans-serif" font-size="48" font-weight="500" letter-spacing="-3">Original questions. Sharper clinical review.</text><text x="112" y="354" fill="#756B60" font-family="'DM Sans', Arial, sans-serif" font-size="25">AI tutor, visual rationale, and a faster route into the right plan.</text><path d="M706 184C862 132 1012 110 1156 118C1318 126 1462 172 1588 256C1674 312 1744 380 1798 460" stroke="rgba(101,120,126,0.18)" stroke-width="1.24" fill="none" stroke-linecap="round"/><path d="M690 336C842 286 994 266 1146 276C1308 286 1456 332 1592 414C1676 466 1744 530 1796 608" stroke="rgba(101,120,126,0.1)" stroke-width="1.06" fill="none" stroke-linecap="round"/><path d="M714 514C862 476 1008 462 1152 472C1300 482 1438 520 1566 586C1652 630 1720 688 1772 760" stroke="rgba(101,120,126,0.18)" stroke-width="1.18" fill="none" stroke-linecap="round"/><path d="M1018 86C1036 222 1054 362 1072 506C1090 650 1122 800 1168 954" stroke="rgba(101,120,126,0.08)" stroke-width="1.02" fill="none" stroke-linecap="round"/><path d="M1184 72C1190 212 1202 354 1220 500C1238 648 1270 800 1316 956" stroke="rgba(101,120,126,0.16)" stroke-width="1.12" fill="none" stroke-linecap="round"/><path d="M1016 86C932 86 860 118 800 182C740 244 710 330 710 440C710 564 758 668 854 752C950 836 1044 908 1136 968C1214 916 1302 844 1400 752C1498 658 1558 556 1580 446C1602 336 1578 244 1508 170C1438 96 1354 68 1256 86C1192 98 1138 136 1096 200C1050 136 992 98 922 86Z" fill="url(#core-wash)" opacity="0.82"/><path d="M1038 108C962 108 898 136 846 192C796 248 772 320 774 408C776 498 814 584 888 666C954 740 1028 810 1110 878C1178 828 1254 758 1338 668C1422 576 1470 486 1482 398C1494 310 1472 240 1416 188C1360 136 1296 114 1224 122C1170 128 1124 164 1086 230C1046 160 996 120 936 114Z" stroke="rgba(31,31,29,0.88)" stroke-width="2.9" fill="none" stroke-linejoin="round"/><path d="M1086 160C1084 250 1088 340 1098 430C1108 522 1114 612 1114 702" stroke="#C89B5B" stroke-width="2.04" fill="none" stroke-linecap="round"/><path d="M1092 276C1028 280 976 302 936 342" stroke="#C89B5B" stroke-width="1.72" fill="none" stroke-linecap="round"/><path d="M1104 276C1172 274 1230 298 1278 348" stroke="#C89B5B" stroke-width="1.72" fill="none" stroke-linecap="round"/><path d="M954 724H1294" stroke="rgba(101,120,126,0.1)" stroke-width="1.12" fill="none" stroke-linecap="round"/><path d="M954 724H1018L1058 674L1090 788L1134 614L1170 744L1206 704H1294" stroke="#B98169" stroke-width="2.12" fill="none" stroke-linecap="round" stroke-linejoin="round"/></svg>