<svg width="480" height="480" viewBox="0 0 480 480" fill="none" xmlns="http://www.w3.org/2000/svg">
    <rect width="480" height="480" rx="48" fill="#FBF7F0"/>
    <rect x="36" y="36" width="408" height="408" rx="36" fill="rgba(255,252,247,0.88)" stroke="rgba(205,189,165,0.46)"/>
    
    <circle cx="240" cy="166" r="78" fill="rgba(255,252,247,0.96)" stroke="rgba(205,189,165,0.5)"/>
    
    <circle cx="240" cy="140" r="18" fill="#F7F1E8" stroke="rgba(31,31,29,0.18)" stroke-width="1.1"/>
    <path d="M240 140C220.16 135.2 195.36 111.2 178 100" stroke="#7C8D79" stroke-width="1.58" fill="none" stroke-linecap="round"/><path d="M240 140C216.96 141.44 188.16 148.64 168 152" stroke="rgba(31,31,29,0.72)" stroke-width="1.42" fill="none" stroke-linecap="round"/><path d="M240 140C226.56 146.96 209.76 181.76 198 198" stroke="#7C8D79" stroke-width="1.58" fill="none" stroke-linecap="round"/><path d="M240 140C241.28 130.64 242.88 83.84 244 62" stroke="rgba(31,31,29,0.72)" stroke-width="1.42" fill="none" stroke-linecap="round"/><path d="M240 140C255.36 133.76 274.56 102.56 288 88" stroke="#7C8D79" stroke-width="1.58" fill="none" stroke-linecap="round"/><path d="M240 140C263.68 140 293.28 140 314 140" stroke="rgba(31,31,29,0.72)" stroke-width="1.42" fill="none" stroke-linecap="round"/><path d="M240 140C256.64 146.72 277.44 180.32 292 196" stroke="#7C8D79" stroke-width="1.58" fill="none" stroke-linecap="round"/>
  
    <text x="240" y="308" fill="#1F1F21" text-anchor="middle" font-family="'Source Serif 4', Georgia, serif" font-size="60" font-weight="600" letter-spacing="-2.4">ChapAI</text>
    <text x="240" y="350" fill="#766D61" text-anchor="middle" font-family="'DM Sans', Arial, sans-serif" font-size="14" font-weight="700" letter-spacing="4">NEURAL NODE</text>
  
  </svg>