<svg width="480" height="480" viewBox="0 0 480 480" fill="none" xmlns="http://www.w3.org/2000/svg">
  <rect width="480" height="480" rx="48" fill="#FBF7F0"/>
  <rect x="36" y="36" width="408" height="408" rx="36" fill="url(#wash)" stroke="rgba(208,194,170,0.5)"/>
  <defs>
    <radialGradient id="wash" cx="0" cy="0" r="1" gradientUnits="userSpaceOnUse" gradientTransform="translate(164 102) rotate(52) scale(352 352)">
      <stop stop-color="rgba(255,255,255,0.9)"/>
      <stop offset="1" stop-color="rgba(242,233,221,0.96)"/>
    </radialGradient>
  </defs>
  
    <rect x="108" y="108" width="264" height="264" rx="44" stroke="rgba(121,111,97,0.14)" stroke-width="1.4"/>
    <circle cx="240" cy="240" r="106" stroke="#75866F" stroke-opacity="0.2" stroke-width="1.1"/>
    <path d="M240 138V342" stroke="#201E22" stroke-width="2.5" stroke-linecap="round"/>
    <path d="M180 198C196 182 216 174 240 174C264 174 284 182 300 198C316 214 324 234 324 258C324 282 316 302 300 318C284 334 264 342 240 342C216 342 196 334 180 318C164 302 156 282 156 258C156 234 164 214 180 198Z" stroke="#C19A56" stroke-width="1.9"/>
    <path d="M196 258H284" stroke="#75866F" stroke-opacity="0.76" stroke-width="1.7" stroke-linecap="round"/>
    <text x="166" y="396" fill="#201E22" font-family="'DM Sans', Arial, sans-serif" font-size="20" font-weight="700" letter-spacing="5">CHAPAI</text>
  
</svg>