<svg width="1600" height="980" viewBox="0 0 1600 980" fill="none" xmlns="http://www.w3.org/2000/svg">
  <rect width="1600" height="980" fill="#FBF7F0"/>
  <rect x="28" y="28" width="1544" height="924" rx="36" fill="url(#heroWash)" stroke="rgba(208,196,177,0.56)"/>
  <defs>
    <radialGradient id="heroWash" cx="0" cy="0" r="1" gradientUnits="userSpaceOnUse" gradientTransform="translate(1060 182) rotate(118) scale(980 980)">
      <stop offset="0" stop-color="#fffdf8" stop-opacity="0.98"/>
      <stop offset="0.55" stop-color="#f4ebdb" stop-opacity="0.82"/>
      <stop offset="1" stop-color="#efe4d3" stop-opacity="0.92"/>
    </radialGradient>
  </defs>
  <rect x="96" y="74" width="1408" height="72" rx="32" fill="rgba(255,252,247,0.78)" stroke="rgba(213,202,184,0.58)"/>
  <text x="144" y="118" fill="#1E222B" font-family="Source Serif 4, Georgia, serif" font-size="34" font-weight="600">ChapAI</text>
  <text x="144" y="146" fill="#746A5D" font-family="DM Sans, Arial, sans-serif" font-size="15" letter-spacing="4">NCLEX + CCRN</text>
  <text x="1118" y="118" fill="#746A5D" font-family="DM Sans, Arial, sans-serif" font-size="16" letter-spacing="2">CCRN</text>
  <text x="1188" y="118" fill="#746A5D" font-family="DM Sans, Arial, sans-serif" font-size="16" letter-spacing="2">NCLEX</text>
  <text x="1265" y="118" fill="#746A5D" font-family="DM Sans, Arial, sans-serif" font-size="16" letter-spacing="2">PLANS</text>
  <rect x="1378" y="92" width="106" height="42" rx="20" fill="rgba(255,252,247,0.88)" stroke="rgba(213,202,184,0.68)"/>
  <text x="1414" y="118" fill="#1E222B" font-family="DM Sans, Arial, sans-serif" font-size="18" font-weight="600">START</text>

  <text x="130" y="224" fill="#746A5D" font-family="DM Sans, Arial, sans-serif" font-size="14" letter-spacing="5">ADULT CRITICAL CARE PREP</text>
  <rect x="476" y="196" width="64" height="34" rx="17" fill="rgba(255,252,247,0.74)" stroke="rgba(213,202,184,0.62)"/>
  <text x="497" y="218" fill="#1E222B" font-family="DM Sans, Arial, sans-serif" font-size="15" font-weight="600">CCRN</text>

  <text x="130" y="360" fill="#1E222B" font-family="DM Sans, Arial, sans-serif" font-size="120" font-weight="500" letter-spacing="-8">A</text>
  <text x="186" y="360" fill="#1E222B" font-family="DM Sans, Arial, sans-serif" font-size="116" font-weight="500" letter-spacing="-8"> calmer way to prepare for CCRN.</text>
  <text x="130" y="418" fill="#746A5D" font-family="Source Serif 4, Georgia, serif" font-size="22">More signal on the right, less noise everywhere else.</text>
  <text x="130" y="468" fill="#746A5D" font-family="Source Serif 4, Georgia, serif" font-size="20">The linework is the identity now, not filler.</text>
  <rect x="130" y="520" width="208" height="52" rx="26" fill="#537985"/>
  <text x="154" y="553" fill="white" font-family="DM Sans, Arial, sans-serif" font-size="22" font-weight="700">Choose CCRN plan</text>
  <rect x="354" y="520" width="166" height="52" rx="26" fill="rgba(255,252,247,0.86)" stroke="rgba(213,202,184,0.62)"/>
  <text x="396" y="553" fill="#1E222B" font-family="DM Sans, Arial, sans-serif" font-size="22" font-weight="600">See plans</text>

  <text x="130" y="620" fill="#746A5D" font-family="DM Sans, Arial, sans-serif" font-size="13" letter-spacing="4">AI REVIEW + VISUAL RATIONALE</text>
  <path d="M130 654H486" stroke="rgba(213,202,184,0.68)"/>
  <text x="130" y="700" fill="#746A5D" font-family="DM Sans, Arial, sans-serif" font-size="12" letter-spacing="3">CURRENT BUILD</text>
  <text x="130" y="730" fill="#1E222B" font-family="DM Sans, Arial, sans-serif" font-size="18" font-weight="700">486 live CCRN questions</text>
  <text x="392" y="700" fill="#746A5D" font-family="DM Sans, Arial, sans-serif" font-size="12" letter-spacing="3">REVIEW STYLE</text>
  <text x="392" y="730" fill="#1E222B" font-family="DM Sans, Arial, sans-serif" font-size="18" font-weight="700">Pattern-first bedside reasoning</text>

  
    <circle cx="1178" cy="518" r="412" stroke="#1E222B" stroke-opacity="0.22" stroke-width="1.8"/>
    <ellipse cx="1178" cy="518" rx="321" ry="412" stroke="#537985" stroke-opacity="0.26" stroke-width="1.5"/>
    <ellipse cx="1178" cy="518" rx="239" ry="412" stroke="#537985" stroke-opacity="0.18" stroke-width="1.3"/>
    <ellipse cx="1178" cy="518" rx="371" ry="412" stroke="#537985" stroke-opacity="0.13" stroke-width="1.2"/>
    <path d="M1178 106V930" stroke="#537985" stroke-opacity="0.22" stroke-width="1.3"/>
    <path d="M814 237.83999999999997C1048 196.64 1308 196.64 1542 237.83999999999997" stroke="#537985" stroke-opacity="0.18" stroke-width="1.18"/>
    <path d="M788 402.64C1036 353.2 1320 353.2 1568 402.64" stroke="#537985" stroke-opacity="0.22" stroke-width="1.18"/>
    <path d="M784 567.44C1022 530.36 1334 530.36 1572 567.44" stroke="#537985" stroke-opacity="0.2" stroke-width="1.18"/>
    <path d="M810 715.76C1042 691.04 1314 691.04 1546 715.76" stroke="#537985" stroke-opacity="0.16" stroke-width="1.16"/>
    <ellipse cx="1178" cy="518" rx="384" ry="412" stroke="#C49B59" stroke-opacity="0.08" stroke-width="1.1" stroke-dasharray="1 12"/>
  
      <path d="M980 522C1040 494 1106 480 1178 480C1250 480 1318 494 1382 522" stroke="rgba(83,121,133,0.28)" stroke-width="2"/>
      <path d="M1000 606C1060 588 1120 580 1178 580C1236 580 1296 588 1356 606" stroke="rgba(83,121,133,0.22)" stroke-width="2"/>
      <path d="M1130 338C1156 320 1184 312 1212 314C1240 316 1263 330 1280 356C1296 382 1302 412 1298 446C1294 480 1280 512 1256 544C1230 578 1198 624 1160 682C1122 624 1090 578 1064 544C1040 512 1026 480 1022 446C1018 412 1024 382 1040 356C1058 330 1081 316 1108 314C1136 312 1163 320 1188 338" stroke="rgba(196,155,89,0.88)" stroke-width="2.6"/>
</svg>