<svg width="1500" height="560" viewBox="0 0 1500 560" fill="none" xmlns="http://www.w3.org/2000/svg">
  <rect width="1500" height="560" fill="#FBF7F0"/>
  <rect x="22" y="22" width="1456" height="516" rx="32" fill="url(#headerWash)" stroke="rgba(208,196,177,0.58)"/>
  <defs>
    <radialGradient id="headerWash" cx="0" cy="0" r="1" gradientUnits="userSpaceOnUse" gradientTransform="translate(1040 120) rotate(120) scale(860 860)">
      <stop offset="0" stop-color="#fffdf8" stop-opacity="0.98"/>
      <stop offset="0.62" stop-color="#f4ebdb" stop-opacity="0.84"/>
      <stop offset="1" stop-color="#efe4d3" stop-opacity="0.92"/>
    </radialGradient>
  </defs>
  <text x="96" y="116" fill="#1F2328" font-family="Source Serif 4, Georgia, serif" font-size="34" font-weight="600">ChapAI</text>
  <text x="96" y="144" fill="#6F665A" font-family="DM Sans, Arial, sans-serif" font-size="14" letter-spacing="4">NCLEX + CCRN</text>
  <rect x="96" y="182" width="146" height="34" rx="17" fill="rgba(255,252,247,0.74)" stroke="rgba(213,202,184,0.62)"/>
  <text x="120" y="205" fill="#6F665A" font-family="DM Sans, Arial, sans-serif" font-size="13" font-weight="700" letter-spacing="2">FOUNDER ACCESS</text>
  <text x="96" y="292" fill="#1F2328" font-family="Source Serif 4, Georgia, serif" font-size="72" font-weight="600" letter-spacing="-3">CCRN prep should feel sharper, calmer, and more clinical.</text>
  <text x="96" y="344" fill="#6F665A" font-family="Source Serif 4, Georgia, serif" font-size="24">Original questions, clearer rationales, and a faster route into the right plan.</text>
  <rect x="96" y="390" width="220" height="50" rx="24" fill="#567A84"/>
  <text x="142" y="422" fill="white" font-family="DM Sans, Arial, sans-serif" font-size="22" font-weight="700">Try the $10 sprint</text>
  
    <circle cx="1160" cy="284" r="208" stroke="#1F2328" stroke-opacity="0.2" stroke-width="1.8"/>
    <ellipse cx="1160" cy="284" rx="162" ry="208" stroke="#567A84" stroke-opacity="0.24" stroke-width="1.36"/>
    <ellipse cx="1160" cy="284" rx="121" ry="208" stroke="#567A84" stroke-opacity="0.16" stroke-width="1.18"/>
    <path d="M1160 76V492" stroke="#567A84" stroke-opacity="0.18" stroke-width="1.16"/>
    <path d="M976 213.28C1064 188.32 1256 188.32 1344 213.28" stroke="#567A84" stroke-opacity="0.17" stroke-width="1.1"/>
    <path d="M970 300.64C1054 282 1266 282 1350 300.64" stroke="#567A84" stroke-opacity="0.18" stroke-width="1.1"/>
    <path d="M990 371.36C1064 358.88 1256 358.88 1330 371.36" stroke="#567A84" stroke-opacity="0.15" stroke-width="1.06"/>
  
    <g transform="translate(1160 284) scale(0.46) translate(-120 -120)">
      <path d="M112 34C142 20 174 18 208 26C242 34 272 50 296 74C320 98 334 126 338 158C342 190 336 220 320 248C304 276 280 298 248 314C216 330 180 336 142 332C104 328 72 312 46 284C20 256 8 224 10 188C12 152 24 122 46 98C68 74 92 54 120 40" stroke="#1F2328" stroke-width="4.5" stroke-linecap="round" stroke-linejoin="round"/>
      <path d="M116 88C136 74 160 68 188 70C214 72 236 82 254 100" stroke="#C39A63" stroke-width="2.8" stroke-linecap="round"/>
      <path d="M96 128C126 110 158 102 194 104C230 106 260 118 286 140" stroke="#567A84" stroke-width="2.2" stroke-linecap="round"/>
      <path d="M88 174C122 154 160 144 202 144C244 144 280 156 308 180" stroke="#567A84" stroke-width="2.2" stroke-linecap="round"/>
      <path d="M98 220C132 200 166 192 202 194C238 196 270 208 296 230" stroke="#567A84" stroke-width="2.1" stroke-linecap="round"/>
      <path d="M126 262C154 248 182 242 210 244C238 246 262 256 282 274" stroke="#C39A63" stroke-width="2.4" stroke-linecap="round"/>
      <path d="M206 310C206 336 214 360 230 384C246 408 268 428 296 442" stroke="#567A84" stroke-width="2.6" stroke-linecap="round"/>
    </g>
  
</svg>