<svg width="1600" height="960" viewBox="0 0 1600 960" fill="none" xmlns="http://www.w3.org/2000/svg">
  <defs>
    <radialGradient id="paper-wash" cx="0" cy="0" r="1" gradientUnits="userSpaceOnUse" gradientTransform="translate(1232 345.59999999999997) rotate(90) scale(480 480)">
      <stop offset="0" stop-color="#fffdf8"/>
      <stop offset="0.48" stop-color="#F2EBDD"/>
      <stop offset="1" stop-color="#FBF7F0"/>
    </radialGradient>
    <radialGradient id="bleed-wash" cx="0" cy="0" r="1" gradientUnits="userSpaceOnUse" gradientTransform="translate(1248 384) rotate(90) scale(268.8 268.8)">
      <stop offset="0" stop-color="#fffaf2" stop-opacity="0.96"/>
      <stop offset="0.52" stop-color="#E8DBC7" stop-opacity="0.58"/>
      <stop offset="1" stop-color="#E8DBC7" stop-opacity="0"/>
    </radialGradient>
  </defs>
  <rect width="1600" height="960" fill="#FBF7F0"/>
  <rect x="24" y="24" width="1552" height="912" rx="28" fill="url(#paper-wash)" stroke="rgba(208,192,168,0.38)"/>
  
    
    <rect x="110" y="70" width="1380" height="82" rx="41" fill="rgba(255,252,247,0.84)" stroke="rgba(212,197,173,0.52)"/>
    <text x="186" y="120" fill="#1F1F21" font-family="'Source Serif 4', Georgia, serif" font-size="38" font-weight="600" letter-spacing="-2">ChapAI</text>
    <text x="1106" y="120" fill="#766D61" font-family="'DM Sans', Arial, sans-serif" font-size="20" font-weight="600">CCRN</text>
    <text x="1190" y="120" fill="#766D61" font-family="'DM Sans', Arial, sans-serif" font-size="20" font-weight="600">NCLEX</text>
    <text x="1284" y="120" fill="#766D61" font-family="'DM Sans', Arial, sans-serif" font-size="20" font-weight="600">PLANS</text>
    <rect x="1348" y="90" width="114" height="44" rx="22" fill="rgba(255,250,243,0.96)" stroke="rgba(212,197,173,0.54)"/>
    <text x="1384" y="118" fill="#1F1F21" font-family="'DM Sans', Arial, sans-serif" font-size="20" font-weight="700">SPRINT</text>
  
    
    <text x="150" y="188" fill="#766D61" font-family="'DM Sans', Arial, sans-serif" font-size="15" font-weight="700" letter-spacing="5">CORTICAL ATLAS / PREMIUM MEDICAL HERO</text>
    <text x="150" y="286" fill="#1F1F21" font-family="'DM Sans', Arial, sans-serif" font-size="96" font-weight="500" letter-spacing="-7">Medical prep,</text>
    <text x="150" y="376" fill="#1F1F21" font-family="'DM Sans', Arial, sans-serif" font-size="96" font-weight="500" letter-spacing="-7">made crisp</text>
    <text x="150" y="466" fill="#1F1F21" font-family="'DM Sans', Arial, sans-serif" font-size="96" font-weight="500" letter-spacing="-7">and spatial.</text>
    <text x="150" y="548" fill="#766D61" font-family="'DM Sans', Arial, sans-serif" font-size="30">Original questions, elite rationale, and a direct path into the right plan.</text>
    <rect x="150" y="614" width="232" height="64" rx="32" fill="#5A7F88"/>
    <text x="192" y="654" fill="#fff" font-family="'DM Sans', Arial, sans-serif" font-size="25" font-weight="700">Start the $10 sprint</text>
    <rect x="400" y="614" width="196" height="64" rx="32" fill="rgba(255,252,247,0.88)" stroke="rgba(194,178,154,0.62)"/>
    <text x="454" y="654" fill="#1F1F21" font-family="'DM Sans', Arial, sans-serif" font-size="24" font-weight="600">See plans</text>
    <text x="150" y="738" fill="#766D61" font-family="'DM Sans', Arial, sans-serif" font-size="14" font-weight="700" letter-spacing="4">AI TUTOR + VISUAL RATIONALE + CLEAN CLINICAL FLOW</text>
    <path d="M150 766H676" stroke="rgba(212,197,173,0.62)"/>
  
    
    <path d="M760 210C906 132 1056 98 1210 106C1352 114 1488 154 1618 226C1702 272 1768 326 1816 388" stroke="rgba(90,112,120,0.14)" stroke-width="1.4" fill="none" stroke-linecap="round"/>
    <path d="M722 422C874 336 1036 298 1208 306C1378 314 1538 356 1688 440C1776 488 1846 548 1896 616" stroke="rgba(90,112,120,0.08)" stroke-width="1.1" fill="none" stroke-linecap="round"/>
    <path d="M806 694C944 640 1080 616 1214 624C1350 632 1478 670 1598 738C1678 784 1742 836 1788 896" stroke="rgba(90,112,120,0.14)" stroke-width="1.28" fill="none" stroke-linecap="round"/>
    <path d="M1048 74C1054 234 1066 394 1078 554C1090 712 1114 850 1148 956" stroke="rgba(90,112,120,0.08)" stroke-width="1.1" fill="none" stroke-linecap="round"/>
    <path d="M1220 60C1224 222 1236 384 1248 548C1262 710 1288 846 1324 954" stroke="rgba(90,112,120,0.14)" stroke-width="1.18" fill="none" stroke-linecap="round"/>
    <path d="M1394 82C1360 220 1328 360 1298 500C1270 642 1248 792 1230 952" stroke="rgba(90,112,120,0.08)" stroke-width="1.04" fill="none" stroke-linecap="round"/>
  
    
    <ellipse cx="1256" cy="520" rx="432" ry="482" fill="url(#bleed-wash)" opacity="0.88"/>
    <ellipse cx="1256" cy="520" rx="442" ry="492" stroke="rgba(90,112,120,0.2)" stroke-width="2.1"/>
    <ellipse cx="1256" cy="520" rx="404" ry="454" stroke="rgba(90,112,120,0.1)" stroke-width="1.14"/>
    <ellipse cx="1256" cy="520" rx="442" ry="108" stroke="rgba(90,112,120,0.14)" stroke-width="1.12"/>
    <ellipse cx="1256" cy="520" rx="442" ry="192" stroke="rgba(90,112,120,0.08)" stroke-width="1"/>
    <ellipse cx="1256" cy="520" rx="442" ry="292" stroke="rgba(90,112,120,0.08)" stroke-width="1"/>
    <ellipse cx="1256" cy="520" rx="492" ry="406" transform="rotate(18 1256 520)" stroke="rgba(90,112,120,0.08)" stroke-width="1"/>
    <ellipse cx="1256" cy="520" rx="492" ry="406" transform="rotate(-18 1256 520)" stroke="rgba(90,112,120,0.08)" stroke-width="1"/>
    <path d="M1244 168C1148 168 1090 180 1042 208C996 236 960 274 934 324C910 374 900 430 904 492C908 554 928 616 964 680C1000 744 1048 800 1108 846C1162 886 1202 910 1228 918C1260 910 1300 886 1350 846C1410 800 1458 744 1494 680C1530 616 1550 554 1554 492C1558 430 1548 374 1524 324C1498 274 1462 236 1416 208C1368 180 1310 168 1244 168" stroke="rgba(31,31,29,0.86)" stroke-width="2.82" fill="none" stroke-linecap="round" stroke-linejoin="round"/>
    <path d="M1256 184C1212 232 1206 284 1208 342C1210 402 1218 470 1228 548C1238 626 1244 692 1244 746C1244 804 1238 862 1228 918" stroke="#C59B5E" stroke-width="2" fill="none" stroke-linecap="round"/>
    <path d="M1158 264C1082 254 1044 270 1016 308C990 346 978 392 980 448C982 500 998 554 1028 610" stroke="rgba(84,112,120,0.56)" stroke-width="1.72" fill="none" stroke-linecap="round"/>
    <path d="M1180 326C1106 320 1070 336 1044 370C1022 402 1014 444 1018 496C1022 544 1038 592 1068 640" stroke="rgba(84,112,120,0.52)" stroke-width="1.64" fill="none" stroke-linecap="round"/>
    <path d="M1204 390C1130 390 1096 404 1074 434C1056 462 1052 498 1060 542C1070 586 1090 624 1120 658" stroke="rgba(84,112,120,0.5)" stroke-width="1.62" fill="none" stroke-linecap="round"/>
    <path d="M1196 468C1130 474 1104 490 1092 518C1082 546 1086 576 1104 610C1122 644 1148 670 1182 688" stroke="rgba(84,112,120,0.48)" stroke-width="1.58" fill="none" stroke-linecap="round"/>
    <path d="M1354 264C1374 254 1412 270 1440 308C1466 346 1478 392 1476 448C1474 500 1458 554 1428 610" stroke="rgba(84,112,120,0.56)" stroke-width="1.72" fill="none" stroke-linecap="round"/>
    <path d="M1332 326C1350 320 1386 336 1412 370C1434 402 1442 444 1438 496C1434 544 1418 592 1388 640" stroke="rgba(84,112,120,0.52)" stroke-width="1.64" fill="none" stroke-linecap="round"/>
    <path d="M1308 390C1326 390 1360 404 1382 434C1400 462 1404 498 1396 542C1386 586 1366 624 1336 658" stroke="rgba(84,112,120,0.5)" stroke-width="1.62" fill="none" stroke-linecap="round"/>
    <path d="M1316 468C1326 474 1352 490 1364 518C1374 546 1370 576 1352 610C1334 644 1308 670 1274 688" stroke="rgba(84,112,120,0.48)" stroke-width="1.58" fill="none" stroke-linecap="round"/>
    <path d="M1256 552C1286 532 1334 500 1374 454C1414 410 1442 360 1458 306" stroke="#5A7F88" stroke-width="1.86" fill="none" stroke-linecap="round"/>
    <path d="M1256 552C1170 532 1122 500 1082 454C1042 410 1014 360 998 306" stroke="#5A7F88" stroke-width="1.86" fill="none" stroke-linecap="round"/>
    <path d="M1256 760C1268 794 1300 834 1324 882C1348 930 1362 978 1366 1026" stroke="#C59B5E" stroke-width="1.82" fill="none" stroke-linecap="round"/>
    <path d="M1256 760C1188 794 1156 834 1132 882C1108 930 1094 978 1090 1026" stroke="#C59B5E" stroke-width="1.82" fill="none" stroke-linecap="round"/>
  
    <text x="150" y="842" fill="#766D61" font-family="'DM Sans', Arial, sans-serif" font-size="14" font-weight="700" letter-spacing="4">CURRENT ANGLE</text>
    <text x="150" y="888" fill="#1F1F21" font-family="'Source Serif 4', Georgia, serif" font-size="38" font-weight="600">Cortical atlas</text>
  
</svg>