<svg width="1600" height="960" viewBox="0 0 1600 960" fill="none" xmlns="http://www.w3.org/2000/svg">
  <defs>
    <radialGradient id="paper-wash" cx="0" cy="0" r="1" gradientUnits="userSpaceOnUse" gradientTransform="translate(1232 345.59999999999997) rotate(90) scale(480 480)">
      <stop offset="0" stop-color="#fffdf8"/>
      <stop offset="0.48" stop-color="#F2EBDD"/>
      <stop offset="1" stop-color="#FBF7F0"/>
    </radialGradient>
    <radialGradient id="bleed-wash" cx="0" cy="0" r="1" gradientUnits="userSpaceOnUse" gradientTransform="translate(1248 384) rotate(90) scale(268.8 268.8)">
      <stop offset="0" stop-color="#fffaf2" stop-opacity="0.96"/>
      <stop offset="0.52" stop-color="#E8DBC7" stop-opacity="0.58"/>
      <stop offset="1" stop-color="#E8DBC7" stop-opacity="0"/>
    </radialGradient>
  </defs>
  <rect width="1600" height="960" fill="#FBF7F0"/>
  <rect x="24" y="24" width="1552" height="912" rx="28" fill="url(#paper-wash)" stroke="rgba(208,192,168,0.38)"/>
  
    
    <rect x="110" y="70" width="1380" height="82" rx="41" fill="rgba(255,252,247,0.84)" stroke="rgba(212,197,173,0.52)"/>
    <text x="186" y="120" fill="#1F1F21" font-family="'Source Serif 4', Georgia, serif" font-size="38" font-weight="600" letter-spacing="-2">ChapAI</text>
    <text x="1106" y="120" fill="#766D61" font-family="'DM Sans', Arial, sans-serif" font-size="20" font-weight="600">CCRN</text>
    <text x="1190" y="120" fill="#766D61" font-family="'DM Sans', Arial, sans-serif" font-size="20" font-weight="600">NCLEX</text>
    <text x="1284" y="120" fill="#766D61" font-family="'DM Sans', Arial, sans-serif" font-size="20" font-weight="600">PLANS</text>
    <rect x="1348" y="90" width="114" height="44" rx="22" fill="rgba(255,250,243,0.96)" stroke="rgba(212,197,173,0.54)"/>
    <text x="1384" y="118" fill="#1F1F21" font-family="'DM Sans', Arial, sans-serif" font-size="20" font-weight="700">SPRINT</text>
  
    
    <text x="150" y="188" fill="#766D61" font-family="'DM Sans', Arial, sans-serif" font-size="15" font-weight="700" letter-spacing="5">CORONARY SCRIPT / PREMIUM MEDICAL HERO</text>
    <text x="150" y="286" fill="#1F1F21" font-family="'DM Sans', Arial, sans-serif" font-size="96" font-weight="500" letter-spacing="-7">Signal-first</text>
    <text x="150" y="376" fill="#1F1F21" font-family="'DM Sans', Arial, sans-serif" font-size="96" font-weight="500" letter-spacing="-7">study flow</text>
    <text x="150" y="466" fill="#1F1F21" font-family="'DM Sans', Arial, sans-serif" font-size="96" font-weight="500" letter-spacing="-7">for nurses.</text>
    <text x="150" y="548" fill="#766D61" font-family="'DM Sans', Arial, sans-serif" font-size="30">Original questions, elite rationale, and a direct path into the right plan.</text>
    <rect x="150" y="614" width="232" height="64" rx="32" fill="#5A7F88"/>
    <text x="192" y="654" fill="#fff" font-family="'DM Sans', Arial, sans-serif" font-size="25" font-weight="700">Start the $10 sprint</text>
    <rect x="400" y="614" width="196" height="64" rx="32" fill="rgba(255,252,247,0.88)" stroke="rgba(194,178,154,0.62)"/>
    <text x="454" y="654" fill="#1F1F21" font-family="'DM Sans', Arial, sans-serif" font-size="24" font-weight="600">See plans</text>
    <text x="150" y="738" fill="#766D61" font-family="'DM Sans', Arial, sans-serif" font-size="14" font-weight="700" letter-spacing="4">AI TUTOR + VISUAL RATIONALE + CLEAN CLINICAL FLOW</text>
    <path d="M150 766H676" stroke="rgba(212,197,173,0.62)"/>
  
    
    <path d="M760 210C906 132 1056 98 1210 106C1352 114 1488 154 1618 226C1702 272 1768 326 1816 388" stroke="rgba(90,112,120,0.14)" stroke-width="1.4" fill="none" stroke-linecap="round"/>
    <path d="M722 422C874 336 1036 298 1208 306C1378 314 1538 356 1688 440C1776 488 1846 548 1896 616" stroke="rgba(90,112,120,0.08)" stroke-width="1.1" fill="none" stroke-linecap="round"/>
    <path d="M806 694C944 640 1080 616 1214 624C1350 632 1478 670 1598 738C1678 784 1742 836 1788 896" stroke="rgba(90,112,120,0.14)" stroke-width="1.28" fill="none" stroke-linecap="round"/>
    <path d="M1048 74C1054 234 1066 394 1078 554C1090 712 1114 850 1148 956" stroke="rgba(90,112,120,0.08)" stroke-width="1.1" fill="none" stroke-linecap="round"/>
    <path d="M1220 60C1224 222 1236 384 1248 548C1262 710 1288 846 1324 954" stroke="rgba(90,112,120,0.14)" stroke-width="1.18" fill="none" stroke-linecap="round"/>
    <path d="M1394 82C1360 220 1328 360 1298 500C1270 642 1248 792 1230 952" stroke="rgba(90,112,120,0.08)" stroke-width="1.04" fill="none" stroke-linecap="round"/>
  
    
    <path d="M1062 190C1028 132 976 104 906 112C838 120 790 162 764 224C740 286 744 356 776 434C808 512 866 590 950 666C1032 742 1092 792 1130 818C1172 790 1234 742 1316 674C1398 606 1456 532 1490 452C1524 372 1532 300 1514 236C1494 170 1450 124 1382 116C1312 108 1256 136 1216 200C1170 144 1110 140 1062 190Z" fill="url(#bleed-wash)" opacity="0.9"/>
    <path d="M1062 210C1030 162 984 140 924 146C864 152 822 188 802 240C782 292 788 352 818 420C848 488 906 556 992 626C1062 682 1110 722 1134 742C1164 718 1212 678 1278 620C1348 560 1398 496 1428 426C1460 352 1466 290 1452 238C1438 186 1406 152 1358 146C1306 140 1260 166 1222 226C1174 180 1116 174 1062 210Z" stroke="rgba(31,31,29,0.86)" stroke-width="2.8" fill="none" stroke-linejoin="round"/>
    <path d="M1134 220V760" stroke="#C59B5E" stroke-width="1.94" fill="none" stroke-linecap="round"/>
    <path d="M1134 262C1072 248 1018 254 970 280" stroke="#5A7F88" stroke-width="1.72" fill="none" stroke-linecap="round"/>
    <path d="M1134 262C1198 246 1256 252 1310 284" stroke="#5A7F88" stroke-width="1.72" fill="none" stroke-linecap="round"/>
    <path d="M1134 368C1072 394 1022 432 984 482" stroke="#C59B5E" stroke-width="1.72" fill="none" stroke-linecap="round"/>
    <path d="M1134 368C1198 394 1248 434 1286 486" stroke="#C59B5E" stroke-width="1.72" fill="none" stroke-linecap="round"/>
    <path d="M1134 510C1098 560 1072 618 1056 684" stroke="#5A7F88" stroke-width="1.68" fill="none" stroke-linecap="round"/>
    <path d="M1134 510C1172 558 1200 614 1218 680" stroke="#5A7F88" stroke-width="1.68" fill="none" stroke-linecap="round"/>
    <path d="M960 818H1364" stroke="rgba(90,112,120,0.08)" stroke-width="1.2" fill="none" stroke-linecap="round"/>
    <path d="M1004 818H1032L1058 780L1090 876L1132 714L1166 830L1196 798H1272" stroke="#B67F67" stroke-width="2.14" fill="none" stroke-linecap="round" stroke-linejoin="round"/>
  
    <text x="150" y="842" fill="#766D61" font-family="'DM Sans', Arial, sans-serif" font-size="14" font-weight="700" letter-spacing="4">CURRENT ANGLE</text>
    <text x="150" y="888" fill="#1F1F21" font-family="'Source Serif 4', Georgia, serif" font-size="38" font-weight="600">Coronary script</text>
  
</svg>