<svg width="1600" height="960" viewBox="0 0 1600 960" fill="none" xmlns="http://www.w3.org/2000/svg">
  <rect width="1600" height="960" fill="#FBF7F0"/>
  <rect x="26" y="26" width="1548" height="908" rx="28" fill="url(#page-wash)" stroke="rgba(195,178,154,0.36)"/>
  <defs>
    <radialGradient id="page-wash" cx="0" cy="0" r="1" gradientUnits="userSpaceOnUse" gradientTransform="translate(1088 307.2) rotate(90) scale(460.79999999999995 460.79999999999995)">
      <stop offset="0" stop-color="#fffdf8"/>
      <stop offset="0.68" stop-color="#F4EEE3"/>
      <stop offset="1" stop-color="#F4EEE3"/>
    </radialGradient>
    <radialGradient id="bleed" cx="0" cy="0" r="1" gradientUnits="userSpaceOnUse" gradientTransform="translate(1216 364.8) rotate(90) scale(326.40000000000003 326.40000000000003)">
      <stop offset="0" stop-color="rgba(255,253,248,0.96)"/>
      <stop offset="0.62" stop-color="rgba(239,226,206,0.56)"/>
      <stop offset="1" stop-color="rgba(239,226,206,0)"/>
    </radialGradient>
  </defs>
  
    
    <rect x="112" y="72" width="1376" height="82" rx="41" fill="rgba(255,252,247,0.86)" stroke="rgba(212,197,173,0.54)"/>
    <text x="188" y="122" fill="#201F21" font-family="'Source Serif 4', Georgia, serif" font-size="38" font-weight="600" letter-spacing="-2">ChapAI</text>
    <text x="1106" y="122" fill="#7D705F" font-family="'DM Sans', Arial, sans-serif" font-size="20" font-weight="600">CCRN</text>
    <text x="1186" y="122" fill="#7D705F" font-family="'DM Sans', Arial, sans-serif" font-size="20" font-weight="600">NCLEX</text>
    <text x="1276" y="122" fill="#7D705F" font-family="'DM Sans', Arial, sans-serif" font-size="20" font-weight="600">PLANS</text>
    <rect x="1348" y="92" width="114" height="44" rx="22" fill="rgba(255,250,243,0.96)" stroke="rgba(212,197,173,0.54)"/>
    <text x="1385" y="120" fill="#201F21" font-family="'DM Sans', Arial, sans-serif" font-size="20" font-weight="700">SPRINT</text>
  
    
    <text x="154" y="180" fill="#7D705F" font-family="'DM Sans', Arial, sans-serif" font-size="15" font-weight="700" letter-spacing="5">NEURAL CANOPY / PREMIUM STUDY SURFACE</text>
    <text x="154" y="268" fill="#201F21" font-family="'DM Sans', Arial, sans-serif" font-size="94" font-weight="500" letter-spacing="-7">A calmer, more</text>
    <text x="154" y="360" fill="#201F21" font-family="'DM Sans', Arial, sans-serif" font-size="94" font-weight="500" letter-spacing="-7">intelligent way</text>
    <text x="154" y="452" fill="#201F21" font-family="'DM Sans', Arial, sans-serif" font-size="94" font-weight="500" letter-spacing="-7">to prepare.</text>
    <text x="154" y="548" fill="#7D705F" font-family="'DM Sans', Arial, sans-serif" font-size="30">Original questions, elite rationale, and a faster path into the right plan.</text>
    <rect x="154" y="612" width="220" height="64" rx="32" fill="#567C85"/>
    <text x="196" y="652" fill="#fff" font-family="'DM Sans', Arial, sans-serif" font-size="25" font-weight="700">Start the $10 sprint</text>
    <rect x="392" y="612" width="204" height="64" rx="32" fill="rgba(255,252,247,0.86)" stroke="rgba(194,178,154,0.7)"/>
    <text x="446" y="652" fill="#201F21" font-family="'DM Sans', Arial, sans-serif" font-size="24" font-weight="600">See full plans</text>
  
    <text x="154" y="744" fill="#7D705F" font-family="'DM Sans', Arial, sans-serif" font-size="14" font-weight="700" letter-spacing="4">VISUAL RATIONALE + CLEANER CLINICAL FLOW</text>
    <path d="M154 770H594" stroke="rgba(212,197,173,0.62)"/>
    <text x="154" y="846" fill="#7D705F" font-family="'DM Sans', Arial, sans-serif" font-size="14" font-weight="700" letter-spacing="4">CURRENT BUILD</text>
    <text x="154" y="888" fill="#201F21" font-family="'DM Sans', Arial, sans-serif" font-size="34" font-weight="700">Premium question + tutor path</text>
    <text x="486" y="846" fill="#7D705F" font-family="'DM Sans', Arial, sans-serif" font-size="14" font-weight="700" letter-spacing="4">ANGLE</text>
    <text x="486" y="888" fill="#201F21" font-family="'DM Sans', Arial, sans-serif" font-size="34" font-weight="700">Neural canopy</text>
    
    <path d="M900 126C964.8 82.8 1047.6 59.39999999999999 1148.4 61.2C1252.8 64.8 1337.4 104.4 1398.6 178.2C1458 250.2 1488.6 342 1488.6 451.8C1488.6 529.2 1470.6 601.2 1434.6 667.8000000000001C1398.6 734.4 1350 788.4 1290.6 829.8000000000001C1229.4 871.2 1161 891 1085.4 887.4C1008 882 943.2 856.8000000000001 892.8 808.2C844.2 759.6 817.2 696.6 813.6 619.2C810 540 824.4 471.6 855 415.8C883.8 360 907.2 313.20000000000005 927 275.4C946.8 237.60000000000002 943.2 207 900 126Z" fill="url(#bleed)" opacity="0.9"/>
    <path d="M914.4 145.8C988.2 104.4 1078.2 84.6 1184.4 88.19999999999999C1287 91.8 1368 127.8 1427.4 196.2C1486.8000000000002 262.8 1517.4 347.4 1519.2 451.8C1519.2 556.2 1488.6 644.4 1431 714.6C1373.4 784.8000000000001 1297.8 833.4 1202.4 858.6C1108.8 883.8000000000001 1027.8 883.8000000000001 959.4 860.4" stroke="rgba(86,124,133,0.62)" stroke-width="2.3400000000000003" fill="none" stroke-linecap="round" stroke-linejoin="round"/>
    <path d="M995.4 235.8C1049.4 205.2 1112.4 190.8 1186.2 192.60000000000002C1267.2 194.4 1332 223.2 1380.6 279C1429.2 333 1454.4 403.2 1458 489.6C1458 576 1431 649.8000000000001 1377 711C1321.2 772.2 1252.8 811.8000000000001 1170 828" stroke="rgba(86,124,133,0.44)" stroke-width="1.62" fill="none" stroke-linecap="round" stroke-linejoin="round"/>
    <path d="M982.8 309.6C1042.2 282.6 1105.2 273.6 1173.6 277.20000000000005C1251 280.8 1315.8 307.8 1368 358.20000000000005C1420.2 406.8 1445.4 469.8 1441.8000000000002 549" stroke="rgba(31,31,29,0.84)" stroke-width="2.16" fill="none" stroke-linecap="round" stroke-linejoin="round"/>
    <path d="M1020.6 412.2C1071 378 1126.8 361.8 1188 361.8C1252.8 361.8 1308.6 383.40000000000003 1355.4 426.6" stroke="rgba(31,31,29,0.76)" stroke-width="1.9800000000000002" fill="none" stroke-linecap="round" stroke-linejoin="round"/>
    <path d="M1123.2 513C1089 471.6 1054.8 435.6 1020.6 406.8" stroke="#567C85" stroke-width="1.71" fill="none" stroke-linecap="round"/>
    <path d="M1179 522C1195.2 471.6 1225.8 423 1272.6 376.20000000000005" stroke="#C49758" stroke-width="1.71" fill="none" stroke-linecap="round"/>
    <path d="M1170 594C1123.2 624.6 1085.4 666 1058.4 716.4" stroke="#567C85" stroke-width="1.62" fill="none" stroke-linecap="round"/>
    <path d="M1191.6 594C1245.6 615.6 1287 653.4 1315.8 707.4" stroke="#C49758" stroke-width="1.62" fill="none" stroke-linecap="round"/>
    <circle cx="1123.2" cy="513" r="6.3" fill="#FBF7F0" stroke="#567C85" stroke-width="1.08"/>
    <circle cx="1191.6" cy="594" r="6.3" fill="#FBF7F0" stroke="#C49758" stroke-width="1.08"/>
  
  
</svg>