<svg width="1600" height="960" viewBox="0 0 1600 960" fill="none" xmlns="http://www.w3.org/2000/svg"><defs><radialGradient id="paper-wash" cx="0" cy="0" r="1" gradientUnits="userSpaceOnUse" gradientTransform="translate(1184 364.8) rotate(90) scale(460.79999999999995 460.79999999999995)"><stop offset="0" stop-color="#fffdf8"/><stop offset="0.5" stop-color="#F1E8D9"/><stop offset="1" stop-color="#FBF7F0"/></radialGradient><radialGradient id="core-wash" cx="0" cy="0" r="1" gradientUnits="userSpaceOnUse" gradientTransform="translate(1248 403.2) rotate(90) scale(249.60000000000002 249.60000000000002)"><stop offset="0" stop-color="#FFFDF8" stop-opacity="0.96"/><stop offset="0.56" stop-color="#E7D8C1" stop-opacity="0.52"/><stop offset="1" stop-color="#E7D8C1" stop-opacity="0"/></radialGradient></defs><rect width="1600" height="960" fill="#FBF7F0"/><rect x="24" y="24" width="1552" height="912" rx="28" fill="url(#paper-wash)" stroke="rgba(210,193,170,0.4)"/><rect x="110" y="70" width="1380" height="82" rx="41" fill="rgba(255,252,247,0.84)" stroke="rgba(212,197,173,0.52)"/><text x="186" y="120" fill="#1F1F21" font-family="'Source Serif 4', Georgia, serif" font-size="38" font-weight="600" letter-spacing="-2">ChapAI</text><text x="1106" y="120" fill="#756B60" font-family="'DM Sans', Arial, sans-serif" font-size="20" font-weight="600">CCRN</text><text x="1190" y="120" fill="#756B60" font-family="'DM Sans', Arial, sans-serif" font-size="20" font-weight="600">NCLEX</text><text x="1284" y="120" fill="#756B60" font-family="'DM Sans', Arial, sans-serif" font-size="20" font-weight="600">PLANS</text><rect x="1350" y="90" width="112" height="44" rx="22" fill="rgba(255,252,247,0.96)" stroke="rgba(212,197,173,0.54)"/><text x="1386" y="118" fill="#1F1F21" font-family="'DM Sans', Arial, sans-serif" font-size="20" font-weight="700">SPRINT</text><text x="150" y="188" fill="#756B60" font-family="'DM Sans', Arial, sans-serif" font-size="15" font-weight="700" letter-spacing="5">CORTICAL ATLAS / PREMIUM MEDICAL HERO</text><text x="150" y="286" fill="#1F1F21" font-family="'DM Sans', Arial, sans-serif" font-size="94" font-weight="500" letter-spacing="-7">A calmer, more</text><text x="150" y="374" fill="#1F1F21" font-family="'DM Sans', Arial, sans-serif" font-size="94" font-weight="500" letter-spacing="-7">intelligent way</text><text x="150" y="462" fill="#1F1F21" font-family="'DM Sans', Arial, sans-serif" font-size="94" font-weight="500" letter-spacing="-7">to prepare.</text><text x="150" y="544" fill="#756B60" font-family="'DM Sans', Arial, sans-serif" font-size="30">Original questions, elite rationale, and a direct path into the right plan.</text><rect x="150" y="610" width="236" height="64" rx="32" fill="#5E818A"/><text x="193" y="650" fill="#fff" font-family="'DM Sans', Arial, sans-serif" font-size="25" font-weight="700">Start the $10 sprint</text><rect x="402" y="610" width="196" height="64" rx="32" fill="rgba(255,252,247,0.92)" stroke="rgba(194,178,154,0.6)"/><text x="456" y="650" fill="#1F1F21" font-family="'DM Sans', Arial, sans-serif" font-size="24" font-weight="600">See plans</text><text x="150" y="736" fill="#756B60" font-family="'DM Sans', Arial, sans-serif" font-size="14" font-weight="700" letter-spacing="4">AI TUTOR + VISUAL RATIONALE + CLEAN CLINICAL FLOW</text><path d="M150 764H672" stroke="rgba(212,197,173,0.6)"/><path d="M706 184C862 132 1012 110 1156 118C1318 126 1462 172 1588 256C1674 312 1744 380 1798 460" stroke="rgba(101,120,126,0.18)" stroke-width="1.24" fill="none" stroke-linecap="round"/><path d="M690 336C842 286 994 266 1146 276C1308 286 1456 332 1592 414C1676 466 1744 530 1796 608" stroke="rgba(101,120,126,0.1)" stroke-width="1.06" fill="none" stroke-linecap="round"/><path d="M714 514C862 476 1008 462 1152 472C1300 482 1438 520 1566 586C1652 630 1720 688 1772 760" stroke="rgba(101,120,126,0.18)" stroke-width="1.18" fill="none" stroke-linecap="round"/><path d="M1018 86C1036 222 1054 362 1072 506C1090 650 1122 800 1168 954" stroke="rgba(101,120,126,0.08)" stroke-width="1.02" fill="none" stroke-linecap="round"/><path d="M1184 72C1190 212 1202 354 1220 500C1238 648 1270 800 1316 956" stroke="rgba(101,120,126,0.16)" stroke-width="1.12" fill="none" stroke-linecap="round"/><path d="M990 170C1106 132 1230 126 1362 152C1478 176 1568 230 1632 314C1696 398 1724 498 1716 614C1708 728 1666 822 1590 896C1514 970 1412 1020 1284 1046C1156 1072 1044 1066 948 1028C852 990 780 928 732 842C684 756 664 656 672 542C680 428 714 338 774 270C834 202 906 168 990 170Z" fill="url(#core-wash)" opacity="0.82"/><path d="M1186 184C1082 190 1000 232 940 310C880 388 856 482 868 592C880 700 922 786 994 850C1066 914 1162 954 1282 970C1402 946 1498 898 1570 826C1642 754 1680 668 1684 568C1688 470 1660 386 1600 316C1540 246 1458 200 1354 180C1298 170 1242 172 1186 184Z" stroke="rgba(31,31,29,0.88)" stroke-width="2.9" fill="none" stroke-linecap="round" stroke-linejoin="round"/><path d="M1274 194C1260 262 1254 330 1256 398C1258 468 1268 542 1284 620C1300 700 1308 774 1308 842C1308 908 1298 972 1278 1032" stroke="#C89B5B" stroke-width="2.06" fill="none" stroke-linecap="round"/><path d="M1110 248C1036 248 980 278 942 338C906 396 894 466 906 548C918 626 950 694 1002 752" stroke="rgba(73,96,102,0.58)" stroke-width="1.68" fill="none" stroke-linecap="round"/><path d="M1154 402C1102 414 1068 444 1052 492C1038 538 1044 588 1070 642C1096 694 1130 734 1172 762" stroke="rgba(73,96,102,0.58)" stroke-width="1.68" fill="none" stroke-linecap="round"/><path d="M1446 248C1520 248 1576 278 1614 338C1650 396 1662 466 1650 548C1638 626 1606 694 1554 752" stroke="rgba(73,96,102,0.58)" stroke-width="1.68" fill="none" stroke-linecap="round"/><path d="M1278 610C1352 582 1418 534 1476 466C1534 396 1576 320 1602 238" stroke="#5E818A" stroke-width="1.82" fill="none" stroke-linecap="round"/><path d="M1278 610C1204 582 1138 534 1080 466C1022 396 980 320 954 238" stroke="#5E818A" stroke-width="1.82" fill="none" stroke-linecap="round"/><text x="150" y="842" fill="#756B60" font-family="'DM Sans', Arial, sans-serif" font-size="14" font-weight="700" letter-spacing="4">CURRENT ANGLE</text><text x="150" y="888" fill="#1F1F21" font-family="'Source Serif 4', Georgia, serif" font-size="38" font-weight="600">Cortical atlas</text></svg>