<svg width="1600" height="520" viewBox="0 0 1600 520" fill="none" xmlns="http://www.w3.org/2000/svg">
  <rect width="1600" height="520" fill="#FBF7F0"/>
  <defs>
    <radialGradient id="page-wash" cx="0" cy="0" r="1" gradientUnits="userSpaceOnUse" gradientTransform="translate(1216 187.2) rotate(90) scale(218.4 218.4)">
      <stop offset="0" stop-color="#fffdf8"/>
      <stop offset="0.62" stop-color="#F3EBDD"/>
      <stop offset="1" stop-color="#F3EBDD"/>
    </radialGradient>
    <radialGradient id="medical-bleed" cx="0" cy="0" r="1" gradientUnits="userSpaceOnUse" gradientTransform="translate(1184 176.8) rotate(90) scale(145.60000000000002 145.60000000000002)">
      <stop offset="0" stop-color="rgba(255,253,248,0.96)"/>
      <stop offset="0.58" stop-color="rgba(233,220,199,0.52)"/>
      <stop offset="1" stop-color="rgba(233,220,199,0)"/>
    </radialGradient>
  </defs>
  <rect x="26" y="26" width="1548" height="468" rx="28" fill="url(#page-wash)" stroke="rgba(199,184,160,0.36)"/>
  
    <rect x="42" y="42" width="1516" height="434" rx="34" fill="rgba(255,252,247,0.88)" stroke="rgba(212,197,173,0.52)"/>
    <text x="116" y="174" fill="#201F21" font-family="'Source Serif 4', Georgia, serif" font-size="72" font-weight="600" letter-spacing="-3">ChapAI</text>
    <text x="116" y="234" fill="#7A7064" font-family="'DM Sans', Arial, sans-serif" font-size="18" font-weight="700" letter-spacing="5">NCLEX + CCRN / CLEANER CLINICAL PREP</text>
    <text x="116" y="312" fill="#201F21" font-family="'DM Sans', Arial, sans-serif" font-size="50" font-weight="500" letter-spacing="-3">Original questions. Elite rationale.</text>
    <text x="116" y="368" fill="#7A7064" font-family="'DM Sans', Arial, sans-serif" font-size="26">AI tutor, visual guidance, and a faster path into the right plan.</text>
    
    <ellipse cx="1042.32" cy="237.88000000000002" rx="95.04" ry="136.08" fill="url(#medical-bleed)" opacity="0.6"/>
    <ellipse cx="1193.52" cy="237.88000000000002" rx="95.04" ry="136.08" fill="url(#medical-bleed)" opacity="0.6"/>
    <ellipse cx="1042.32" cy="242.20000000000002" rx="97.2" ry="138.24" stroke="rgba(31,31,29,0.84)" stroke-width="1.296"/>
    <ellipse cx="1193.52" cy="242.20000000000002" rx="97.2" ry="138.24" stroke="rgba(31,31,29,0.84)" stroke-width="1.296"/>
    <path d="M1117.92 103.96000000000001V397.72" stroke="#C49758" stroke-width="1.1340000000000001" stroke-linecap="round"/>
    <path d="M1117.92 134.2C1092 150.4 1072.56 169.84 1058.52 194.68" stroke="#7F8F79" stroke-width="1.08" stroke-linecap="round"/>
    <path d="M1117.92 134.2C1143.84 150.4 1163.28 169.84 1177.32 194.68" stroke="#7F8F79" stroke-width="1.08" stroke-linecap="round"/>
    <path d="M1058.52 194.68C1032.6 208.72 1012.08 227.08 996.96 250.84" stroke="#C49758" stroke-width="0.9720000000000001" stroke-linecap="round"/>
    <path d="M1058.52 194.68C1043.4 223.84 1031.52 256.24 1025.04 291.88" stroke="#C49758" stroke-width="0.9720000000000001" stroke-linecap="round"/>
    <path d="M1177.32 194.68C1203.24 208.72 1223.76 227.08 1238.88 250.84" stroke="#C49758" stroke-width="0.9720000000000001" stroke-linecap="round"/>
    <path d="M1177.32 194.68C1192.44 223.84 1204.32 256.24 1210.8 291.88" stroke="#C49758" stroke-width="0.9720000000000001" stroke-linecap="round"/>
    <path d="M1117.92 191.44C1101.72 237.88000000000002 1095.24 288.64 1098.48 343.72" stroke="rgba(31,31,29,0.66)" stroke-width="1.026" stroke-linecap="round"/>
    <path d="M1117.92 191.44C1134.12 237.88000000000002 1140.6 288.64 1137.3600000000001 343.72" stroke="rgba(31,31,29,0.66)" stroke-width="1.026" stroke-linecap="round"/>
  
  
</svg>