<svg width="1600" height="520" viewBox="0 0 1600 520" fill="none" xmlns="http://www.w3.org/2000/svg">
  <rect width="1600" height="520" fill="#FBF7F0"/>
  <defs>
    <radialGradient id="paper-wash" cx="0" cy="0" r="1" gradientUnits="userSpaceOnUse" gradientTransform="translate(1216 176.8) rotate(90) scale(228.8 228.8)">
      <stop offset="0" stop-color="#fffdf7"/>
      <stop offset="0.5" stop-color="#F3EBDD"/>
      <stop offset="1" stop-color="#FBF7F0"/>
    </radialGradient>
    <radialGradient id="bleed-wash" cx="0" cy="0" r="1" gradientUnits="userSpaceOnUse" gradientTransform="translate(1200 197.6) rotate(90) scale(135.20000000000002 135.20000000000002)">
      <stop offset="0" stop-color="#fffaf1" stop-opacity="0.95"/>
      <stop offset="0.5" stop-color="#E9DCCA" stop-opacity="0.58"/>
      <stop offset="1" stop-color="#E9DCCA" stop-opacity="0"/>
    </radialGradient>
  </defs>
  <rect x="26" y="26" width="1548" height="468" rx="28" fill="url(#paper-wash)" stroke="rgba(203,188,164,0.38)"/>
  
    <rect x="42" y="42" width="1516" height="434" rx="34" fill="rgba(255,252,247,0.88)" stroke="rgba(212,197,173,0.52)"/>
    <text x="116" y="170" fill="#1F1F21" font-family="'Source Serif 4', Georgia, serif" font-size="72" font-weight="600" letter-spacing="-3">ChapAI</text>
    <text x="116" y="230" fill="#7A7064" font-family="'DM Sans', Arial, sans-serif" font-size="18" font-weight="700" letter-spacing="5">NCLEX + CCRN / CLEANER CLINICAL PREP</text>
    <text x="116" y="304" fill="#1F1F21" font-family="'DM Sans', Arial, sans-serif" font-size="50" font-weight="500" letter-spacing="-3">Original questions. Elite rationale.</text>
    <text x="116" y="362" fill="#7A7064" font-family="'DM Sans', Arial, sans-serif" font-size="26">AI tutor, visual guidance, and a faster path into the right plan.</text>
    
    <path d="M760 212C902 134 1044 100 1188 108C1324 116 1456 154 1584 224C1668 270 1732 322 1778 380" stroke="rgba(88,126,135,0.2)" stroke-width="1.4" fill="none" stroke-linecap="round"/>
    <path d="M724 420C874 334 1030 296 1194 304C1360 312 1514 354 1656 436C1742 486 1810 544 1858 608" stroke="rgba(88,126,135,0.12)" stroke-width="1.1" fill="none" stroke-linecap="round"/>
    <path d="M814 684C946 632 1074 610 1200 618C1328 626 1450 664 1566 732C1642 776 1702 826 1746 884" stroke="rgba(88,126,135,0.18)" stroke-width="1.34" fill="none" stroke-linecap="round"/>
    <path d="M1046 84C1052 234 1064 390 1076 548C1088 706 1110 844 1142 952" stroke="rgba(88,126,135,0.1)" stroke-width="1.1" fill="none" stroke-linecap="round"/>
    <path d="M1214 66C1218 226 1228 384 1242 542C1256 700 1282 838 1318 946" stroke="rgba(88,126,135,0.18)" stroke-width="1.22" fill="none" stroke-linecap="round"/>
    <path d="M1388 88C1358 214 1328 348 1298 490C1270 632 1246 780 1228 948" stroke="rgba(88,126,135,0.1)" stroke-width="1.04" fill="none" stroke-linecap="round"/>
  
    
    <path d="M1097 100C1079 70 1049 55 1011 57C973 60 945 83 930 117C916 151 919 190 939 234C959 278 992 322 1038 365C1082 406 1114 434 1135 449C1155 436 1187 411 1230 372C1273 333 1301 293 1313 252C1326 210 1324 172 1306 138C1288 104 1258 80 1216 70C1174 60 1134 70 1097 100Z" fill="url(#bleed-wash)" opacity="0.88"/>
    <path d="M1096 111C1079 90 1055 80 1024 82C993 84 971 101 959 127C948 154 950 185 966 219C981 253 1012 289 1058 328C1097 361 1124 384 1140 398C1158 387 1186 364 1224 327C1262 290 1285 255 1295 222C1305 189 1304 160 1290 133C1275 106 1250 87 1216 81C1182 75 1142 85 1096 111Z" stroke="rgba(31,31,29,0.86)" stroke-width="1.25" fill="none" stroke-linejoin="round"/>
    <path d="M1140 114V372" stroke="#C59858" stroke-width="0.95" stroke-linecap="round"/>
    <path d="M1140 136C1113 128 1088 130 1065 143" stroke="#587E87" stroke-width="0.85" fill="none" stroke-linecap="round"/>
    <path d="M1140 136C1168 128 1194 131 1218 146" stroke="#587E87" stroke-width="0.85" fill="none" stroke-linecap="round"/>
    <path d="M1140 182C1104 194 1075 213 1053 239" stroke="#C59858" stroke-width="0.87" fill="none" stroke-linecap="round"/>
    <path d="M1140 182C1176 194 1207 214 1232 244" stroke="#C59858" stroke-width="0.87" fill="none" stroke-linecap="round"/>
    <path d="M1140 243C1113 271 1094 301 1084 334" stroke="#587E87" stroke-width="0.85" fill="none" stroke-linecap="round"/>
    <path d="M1140 243C1168 271 1189 301 1205 334" stroke="#587E87" stroke-width="0.85" fill="none" stroke-linecap="round"/>
    <circle cx="1140" cy="182" r="3.6" fill="#FBF7F0" stroke="#C59858" stroke-width="0.55"/>
  
  
</svg>