<svg width="1600" height="520" viewBox="0 0 1600 520" fill="none" xmlns="http://www.w3.org/2000/svg">
  <defs>
    <radialGradient id="paper-wash" cx="0" cy="0" r="1" gradientUnits="userSpaceOnUse" gradientTransform="translate(1232 187.2) rotate(90) scale(260 260)">
      <stop offset="0" stop-color="#fffdf8"/>
      <stop offset="0.48" stop-color="#F2EBDD"/>
      <stop offset="1" stop-color="#FBF7F0"/>
    </radialGradient>
    <radialGradient id="bleed-wash" cx="0" cy="0" r="1" gradientUnits="userSpaceOnUse" gradientTransform="translate(1248 208) rotate(90) scale(145.60000000000002 145.60000000000002)">
      <stop offset="0" stop-color="#fffaf2" stop-opacity="0.96"/>
      <stop offset="0.52" stop-color="#E8DBC7" stop-opacity="0.58"/>
      <stop offset="1" stop-color="#E8DBC7" stop-opacity="0"/>
    </radialGradient>
  </defs>
  <rect width="1600" height="520" fill="#FBF7F0"/>
  <rect x="24" y="24" width="1552" height="472" rx="28" fill="url(#paper-wash)" stroke="rgba(208,192,168,0.38)"/>
  
    <rect x="42" y="42" width="1516" height="434" rx="34" fill="rgba(255,252,247,0.9)" stroke="rgba(212,197,173,0.52)"/>
    <text x="112" y="164" fill="#1F1F21" font-family="'Source Serif 4', Georgia, serif" font-size="70" font-weight="600" letter-spacing="-3">ChapAI</text>
    <text x="112" y="226" fill="#766D61" font-family="'DM Sans', Arial, sans-serif" font-size="18" font-weight="700" letter-spacing="5">NCLEX + CCRN / CLEANER CLINICAL PREP</text>
    <text x="112" y="298" fill="#1F1F21" font-family="'DM Sans', Arial, sans-serif" font-size="48" font-weight="500" letter-spacing="-3">Original questions. Sharper clinical review.</text>
    <text x="112" y="354" fill="#766D61" font-family="'DM Sans', Arial, sans-serif" font-size="25">AI tutor, visual rationale, and a faster path into the right plan.</text>
    
    <path d="M760 210C906 132 1056 98 1210 106C1352 114 1488 154 1618 226C1702 272 1768 326 1816 388" stroke="rgba(90,112,120,0.14)" stroke-width="1.4" fill="none" stroke-linecap="round"/>
    <path d="M722 422C874 336 1036 298 1208 306C1378 314 1538 356 1688 440C1776 488 1846 548 1896 616" stroke="rgba(90,112,120,0.08)" stroke-width="1.1" fill="none" stroke-linecap="round"/>
    <path d="M806 694C944 640 1080 616 1214 624C1350 632 1478 670 1598 738C1678 784 1742 836 1788 896" stroke="rgba(90,112,120,0.14)" stroke-width="1.28" fill="none" stroke-linecap="round"/>
    <path d="M1048 74C1054 234 1066 394 1078 554C1090 712 1114 850 1148 956" stroke="rgba(90,112,120,0.08)" stroke-width="1.1" fill="none" stroke-linecap="round"/>
    <path d="M1220 60C1224 222 1236 384 1248 548C1262 710 1288 846 1324 954" stroke="rgba(90,112,120,0.14)" stroke-width="1.18" fill="none" stroke-linecap="round"/>
    <path d="M1394 82C1360 220 1328 360 1298 500C1270 642 1248 792 1230 952" stroke="rgba(90,112,120,0.08)" stroke-width="1.04" fill="none" stroke-linecap="round"/>
  
    
    <path d="M1038 190C1004 132 952 104 882 112C814 120 766 162 740 224C716 286 720 356 752 434C784 512 842 590 926 666C1008 742 1068 792 1106 818C1148 790 1210 742 1292 674C1374 606 1432 532 1466 452C1500 372 1508 300 1490 236C1470 170 1426 124 1358 116C1288 108 1232 136 1192 200C1146 144 1086 140 1038 190Z" fill="url(#bleed-wash)" opacity="0.9"/>
    <path d="M1038 210C1006 162 960 140 900 146C840 152 798 188 778 240C758 292 764 352 794 420C824 488 882 556 968 626C1038 682 1086 722 1110 742C1140 718 1188 678 1254 620C1324 560 1374 496 1404 426C1436 352 1442 290 1428 238C1414 186 1382 152 1334 146C1282 140 1236 166 1198 226C1150 180 1092 174 1038 210Z" stroke="rgba(31,31,29,0.86)" stroke-width="2.8" fill="none" stroke-linejoin="round"/>
    <path d="M1110 220V760" stroke="#C59B5E" stroke-width="1.94" fill="none" stroke-linecap="round"/>
    <path d="M1110 262C1048 248 994 254 946 280" stroke="#5A7F88" stroke-width="1.72" fill="none" stroke-linecap="round"/>
    <path d="M1110 262C1174 246 1232 252 1286 284" stroke="#5A7F88" stroke-width="1.72" fill="none" stroke-linecap="round"/>
    <path d="M1110 368C1048 394 998 432 960 482" stroke="#C59B5E" stroke-width="1.72" fill="none" stroke-linecap="round"/>
    <path d="M1110 368C1174 394 1224 434 1262 486" stroke="#C59B5E" stroke-width="1.72" fill="none" stroke-linecap="round"/>
    <path d="M1110 510C1074 560 1048 618 1032 684" stroke="#5A7F88" stroke-width="1.68" fill="none" stroke-linecap="round"/>
    <path d="M1110 510C1148 558 1176 614 1194 680" stroke="#5A7F88" stroke-width="1.68" fill="none" stroke-linecap="round"/>
    <path d="M936 818H1364" stroke="rgba(90,112,120,0.08)" stroke-width="1.2" fill="none" stroke-linecap="round"/>
    <path d="M980 818H1032L1058 780L1090 876L1132 714L1166 830L1196 798H1272" stroke="#B67F67" stroke-width="2.14" fill="none" stroke-linecap="round" stroke-linejoin="round"/>
  
  
</svg>