<svg width="1600" height="900" viewBox="0 0 1600 900" fill="none" xmlns="http://www.w3.org/2000/svg">
  <defs>
    <linearGradient id="bg" x1="132" y1="80" x2="1420" y2="832" gradientUnits="userSpaceOnUse">
      <stop stop-color="#FBFAF6"/>
      <stop offset="1" stop-color="#EEE9DE"/>
    </linearGradient>
    <radialGradient id="halo" cx="0" cy="0" r="1" gradientUnits="userSpaceOnUse" gradientTransform="translate(1118 312) rotate(90) scale(340 340)">
      <stop stop-color="#D6E5E8" stop-opacity="0.78"/>
      <stop offset="1" stop-color="#D6E5E8" stop-opacity="0"/>
    </radialGradient>
  </defs>
  <rect width="1600" height="900" rx="40" fill="url(#bg)"/>
  <g opacity="0.7">
    <circle cx="1142" cy="416" r="332" stroke="#B7C0BA" stroke-opacity="0.22" stroke-width="2"/>
    <circle cx="1142" cy="416" r="270" stroke="#BCC9CC" stroke-opacity="0.22" stroke-width="2"/>
    <circle cx="1142" cy="416" r="210" stroke="#C9B78E" stroke-opacity="0.18" stroke-width="2"/>
    <path d="M864 416H1388" stroke="#AAB8BC" stroke-opacity="0.16" stroke-width="2"/>
    <path d="M1142 134V698" stroke="#AAB8BC" stroke-opacity="0.16" stroke-width="2"/>
    <path d="M910 282C992 234 1082 214 1164 224C1242 234 1316 270 1374 340" stroke="#AAB8BC" stroke-opacity="0.25" stroke-width="2"/>
    <path d="M878 470H1020L1074 354L1120 530L1182 418H1328" stroke="#5A7F88" stroke-width="16" stroke-linecap="round" stroke-linejoin="round"/>
    <circle cx="1142" cy="416" r="340" fill="url(#halo)"/>
  </g>
  <rect x="110" y="108" width="140" height="42" rx="21" fill="#FFFDF8" stroke="#DDD8CC"/>
  <text x="180" y="135" text-anchor="middle" fill="#657278" font-size="18" font-family="DM Sans, Arial" letter-spacing="3">CCRN</text>
  <text x="110" y="262" fill="#1F262B" font-size="96" font-family="'Source Serif 4', Georgia, serif" font-weight="600">Premium CCRN</text>
  <text x="110" y="352" fill="#1F262B" font-size="96" font-family="'Source Serif 4', Georgia, serif" font-weight="600">prep for ICU nurses.</text>
  <text x="110" y="430" fill="#657278" font-size="31" font-family="DM Sans, Arial">Original critical-care scenarios, AI rationale, and a calmer bedside review flow.</text>
  <text x="110" y="514" fill="#1F262B" font-size="28" font-family="DM Sans, Arial">Hemodynamics. Shock. Vents. Cardiac support.</text>
  <rect x="110" y="586" width="304" height="72" rx="36" fill="#5A7F88"/>
  <text x="262" y="631" text-anchor="middle" fill="white" font-size="28" font-family="DM Sans, Arial" font-weight="700">Choose CCRN package</text>
  <text x="110" y="760" fill="#657278" font-size="24" font-family="DM Sans, Arial">clarityccrn.chapaisolutions.com/upgrade</text>
</svg>
