<svg width="1200" height="420" viewBox="0 0 1200 420" fill="none" xmlns="http://www.w3.org/2000/svg">
  <rect width="1200" height="420" rx="42" fill="#F5F1E8"/>
  <rect x="22" y="22" width="1156" height="376" rx="30" fill="#FBF9F2" stroke="#E1DBCF"/>
  <g transform="translate(68 66)">
    <rect width="286" height="286" rx="60" fill="url(#markBg)"/>
    <circle cx="143" cy="143" r="99" stroke="url(#markRing)" stroke-width="10" opacity="0.26"/>
    <circle cx="143" cy="143" r="78" stroke="url(#markRing)" stroke-width="4" opacity="0.12" stroke-dasharray="4 8"/>
    <ellipse cx="143" cy="110" rx="88" ry="62" fill="url(#markGlow)" opacity="0.62"/>
    <path d="M197 82C178.6 66.067 156.067 58.1 127.9 58.1C80.433 58.1 48.5 91.867 48.5 136.6C48.5 182 79.467 214.3 125.95 214.3C156.383 214.3 180.133 204.067 199 187.2" stroke="url(#markRing)" stroke-width="17" stroke-linecap="round"/>
    <path d="M88 146H113L129 115L151 185L174 95L193 145H231" stroke="#1F262B" stroke-width="14" stroke-linecap="round" stroke-linejoin="round"/>
    <path d="M203 183V200" stroke="#C29A56" stroke-width="7" stroke-linecap="round"/>
    <path d="M194.5 191.5H211.5" stroke="#C29A56" stroke-width="7" stroke-linecap="round"/>
    <circle cx="203" cy="191.5" r="7.5" fill="#C29A56"/>
  </g>
  <g transform="translate(404 116)">
    <text x="0" y="86" fill="#1F262B" font-family="DM Sans, Arial, sans-serif" font-size="94" font-weight="700">ChapAI</text>
    <text x="4" y="132" fill="#657278" font-family="DM Sans, Arial, sans-serif" font-size="24" letter-spacing="7">C C R N   +   N C L E X</text>
    <text x="0" y="224" fill="#1F262B" font-family="Source Serif 4, Georgia, serif" font-size="48">Cleaner clinical prep for nurses.</text>
    <text x="0" y="280" fill="#657278" font-family="Source Serif 4, Georgia, serif" font-size="28">Original questions, AI review, and a calmer premium product shell.</text>
  </g>
  <defs>
    <linearGradient id="markRing" x1="42" y1="42" x2="236" y2="236" gradientUnits="userSpaceOnUse">
      <stop stop-color="#5A7F88"/>
      <stop offset="1" stop-color="#C29A56"/>
    </linearGradient>
    <linearGradient id="markBg" x1="0" y1="0" x2="286" y2="286" gradientUnits="userSpaceOnUse">
      <stop stop-color="#FCFAF5"/>
      <stop offset="1" stop-color="#EFE5D2"/>
    </linearGradient>
    <radialGradient id="markGlow" cx="0" cy="0" r="1" gradientUnits="userSpaceOnUse" gradientTransform="translate(143 104) rotate(90) scale(72 104)">
      <stop stop-color="#FFFFFF" stop-opacity="0.92"/>
      <stop offset="1" stop-color="#FFFFFF" stop-opacity="0"/>
    </radialGradient>
  </defs>
</svg>
