<svg width="1600" height="1024" viewBox="0 0 1600 1024" fill="none" xmlns="http://www.w3.org/2000/svg">
  <rect width="1600" height="1024" fill="#F5EFE5"/>
  <style>
    .shell { fill: none; stroke-linecap: round; stroke-linejoin: round; }
    .shell.main { stroke: rgba(122,113,99,0.18); stroke-width: 1.45; }
    .shell.soft { stroke: rgba(122,113,99,0.09); stroke-width: 1.06; }
    .shell.faint { stroke: rgba(122,113,99,0.055); stroke-width: 1.01; }
    .figure { fill: none; stroke: rgba(50,45,40,0.31); stroke-width: 2.2; stroke-linecap: round; stroke-linejoin: round; }
    .detail { fill: none; stroke: rgba(104,93,79,0.14); stroke-width: 1.35; stroke-linecap: round; stroke-linejoin: round; }
    .organ { fill: none; stroke: rgba(194,154,86,0.38); stroke-width: 1.9; stroke-linecap: round; stroke-linejoin: round; }
    .accent { fill: none; stroke: rgba(93,133,144,0.88); stroke-width: 2.15; stroke-linecap: round; stroke-linejoin: round; }
  </style>
  <rect x="262" y="74" width="1076" height="72" rx="36" fill="rgba(255,252,247,0.74)" stroke="rgba(218,206,188,0.62)"/>
  <circle cx="301" cy="110" r="21" fill="rgba(255,252,247,0.98)" stroke="rgba(218,206,188,0.74)"/>
  <path d="M301 96V126" stroke="#C39A61" stroke-width="1.5" stroke-linecap="round"/>
  <path d="M289 106C294 101 300 99 306 99C312 99 318 101 322 106C326 110 329 116 330 122" stroke="#1F2024" stroke-width="1.8" stroke-linecap="round"/>
  <text x="336" y="111" fill="#1F2024" font-family="'DM Sans', Arial, sans-serif" font-size="22" font-weight="600">ChapAI</text>
  <text x="336" y="136" fill="#776B5A" font-family="'DM Sans', Arial, sans-serif" font-size="12" letter-spacing="3">NCLEX + CCRN</text>
  <text x="1130" y="117" fill="#776B5A" font-family="'DM Sans', Arial, sans-serif" font-size="15" letter-spacing="2">CCRN</text>
  <text x="1183" y="117" fill="#776B5A" font-family="'DM Sans', Arial, sans-serif" font-size="15" letter-spacing="2">NCLEX</text>
  <text x="1248" y="117" fill="#776B5A" font-family="'DM Sans', Arial, sans-serif" font-size="15" letter-spacing="2">PLANS</text>
  <rect x="1298" y="88" width="72" height="44" rx="22" fill="rgba(255,252,247,0.96)" stroke="rgba(218,206,188,0.72)"/>
  <text x="1320" y="116" fill="#1F2024" font-family="'DM Sans', Arial, sans-serif" font-size="16" font-weight="700">START</text>
  <text x="300" y="212" fill="#776B5A" font-family="'DM Sans', Arial, sans-serif" font-size="13" font-weight="700" letter-spacing="4">APRIL DESIGN PASS</text>
  <text x="300" y="340" fill="#1F2024" font-family="'DM Sans', Arial, sans-serif" font-size="106" font-weight="500" letter-spacing="-7">A bolder anatomy field for serious buyers.</text>
  <text x="300" y="638" fill="#776B5A" font-family="'DM Sans', Arial, sans-serif" font-size="22">More presence on the right, less noise everywhere else.</text>
  <rect x="300" y="692" width="188" height="54" rx="27" fill="#5D8590"/>
  <text x="338" y="726" fill="#FBF7F0" font-family="'DM Sans', Arial, sans-serif" font-size="22" font-weight="700">Choose plan</text>
  <rect x="502" y="692" width="168" height="54" rx="27" fill="rgba(255,252,247,0.94)" stroke="rgba(218,206,188,0.64)"/>
  <text x="544" y="726" fill="#1F2024" font-family="'DM Sans', Arial, sans-serif" font-size="22" font-weight="600">Try free</text>
  <path d="M300 792H840" stroke="rgba(214,203,188,0.72)"/>
  <text x="300" y="822" fill="#776B5A" font-family="'DM Sans', Arial, sans-serif" font-size="13" letter-spacing="4">ANATOMY GLOBE + CLEANER RATIONALE</text>
  <text x="300" y="906" fill="#1F2024" font-family="'DM Sans', Arial, sans-serif" font-size="34" font-weight="700">435 live CCRN questions</text>
  <text x="614" y="906" fill="#1F2024" font-family="'DM Sans', Arial, sans-serif" font-size="34" font-weight="700">Free / Plus / Pro</text>
  
    <circle cx="1092" cy="492" r="420" class="shell main"/>
    <ellipse cx="1092" cy="492" rx="308" ry="420" class="shell soft"/>
    <ellipse cx="1126" cy="492" rx="222" ry="420" class="shell soft"/>
    <path d="M1092 72V912" class="shell faint"/>
    <path d="M794 332C902 292 1000 272 1092 272C1184 272 1282 292 1390 332" class="shell faint"/>
    <path d="M760 482C874 444 984 425 1092 425C1202 425 1314 444 1424 482" class="shell faint"/>
    <path d="M778 650C886 614 992 596 1096 596C1200 596 1306 614 1412 650" class="shell faint"/>
    <ellipse cx="1124" cy="492" rx="178" ry="392" fill="rgba(255,249,241,0.84)"/>
  
  
    <path d="M1092 176C1117 174 1139 183 1156 203C1172 223 1179 248 1177 279C1174 309 1163 334 1144 354C1125 375 1112 403 1106 438" class="figure"/>
    <path d="M1098 176V840" class="accent"/>
    <path d="M1094 280C1123 257 1152 246 1182 248C1212 251 1236 264 1254 288C1272 312 1280 339 1278 370C1275 401 1263 430 1240 456C1217 483 1187 523 1148 578C1109 523 1079 483 1057 456C1034 430 1021 401 1018 370C1016 339 1024 312 1042 288C1060 264 1084 251 1114 248C1143 246 1170 257 1194 280" class="figure"/>
    <path d="M1120 476C1156 502 1194 523 1236 540" class="detail"/>
    <path d="M1084 476C1052 501 1017 521 980 538" class="detail"/>
  
</svg>