<svg width="1600" height="980" viewBox="0 0 1600 980" fill="none" xmlns="http://www.w3.org/2000/svg">
  <rect width="1600" height="980" fill="#FBF7F0"/>
  <rect x="28" y="28" width="1544" height="924" rx="36" fill="url(#heroWash)" stroke="rgba(208,196,177,0.56)"/>
  <defs>
    <radialGradient id="heroWash" cx="0" cy="0" r="1" gradientUnits="userSpaceOnUse" gradientTransform="translate(1060 182) rotate(118) scale(980 980)">
      <stop offset="0" stop-color="#fffdf8" stop-opacity="0.98"/>
      <stop offset="0.55" stop-color="#f4ebdb" stop-opacity="0.82"/>
      <stop offset="1" stop-color="#efe4d3" stop-opacity="0.92"/>
    </radialGradient>
  </defs>
  <rect x="96" y="74" width="1408" height="72" rx="32" fill="rgba(255,252,247,0.78)" stroke="rgba(213,202,184,0.58)"/>
  <text x="144" y="118" fill="#1E222B" font-family="Source Serif 4, Georgia, serif" font-size="34" font-weight="600">ChapAI</text>
  <text x="144" y="146" fill="#746A5D" font-family="DM Sans, Arial, sans-serif" font-size="15" letter-spacing="4">NCLEX + CCRN</text>
  <text x="1118" y="118" fill="#746A5D" font-family="DM Sans, Arial, sans-serif" font-size="16" letter-spacing="2">CCRN</text>
  <text x="1188" y="118" fill="#746A5D" font-family="DM Sans, Arial, sans-serif" font-size="16" letter-spacing="2">NCLEX</text>
  <text x="1265" y="118" fill="#746A5D" font-family="DM Sans, Arial, sans-serif" font-size="16" letter-spacing="2">PLANS</text>
  <rect x="1378" y="92" width="106" height="42" rx="20" fill="rgba(255,252,247,0.88)" stroke="rgba(213,202,184,0.68)"/>
  <text x="1414" y="118" fill="#1E222B" font-family="DM Sans, Arial, sans-serif" font-size="18" font-weight="600">START</text>

  <text x="130" y="224" fill="#746A5D" font-family="DM Sans, Arial, sans-serif" font-size="14" letter-spacing="5">ADULT CRITICAL CARE PREP</text>
  <rect x="476" y="196" width="64" height="34" rx="17" fill="rgba(255,252,247,0.74)" stroke="rgba(213,202,184,0.62)"/>
  <text x="497" y="218" fill="#1E222B" font-family="DM Sans, Arial, sans-serif" font-size="15" font-weight="600">CCRN</text>

  <text x="130" y="360" fill="#1E222B" font-family="DM Sans, Arial, sans-serif" font-size="120" font-weight="500" letter-spacing="-8">A</text>
  <text x="186" y="360" fill="#1E222B" font-family="DM Sans, Arial, sans-serif" font-size="116" font-weight="500" letter-spacing="-8"> calmer way to prepare for CCRN.</text>
  <text x="130" y="418" fill="#746A5D" font-family="Source Serif 4, Georgia, serif" font-size="22">The hero should look like a clinical object, not a template.</text>
  <text x="130" y="468" fill="#746A5D" font-family="Source Serif 4, Georgia, serif" font-size="20">Original questions, AI-guided rationale, and a sharper path.</text>
  <rect x="130" y="520" width="208" height="52" rx="26" fill="#537985"/>
  <text x="154" y="553" fill="white" font-family="DM Sans, Arial, sans-serif" font-size="22" font-weight="700">Choose CCRN plan</text>
  <rect x="354" y="520" width="166" height="52" rx="26" fill="rgba(255,252,247,0.86)" stroke="rgba(213,202,184,0.62)"/>
  <text x="396" y="553" fill="#1E222B" font-family="DM Sans, Arial, sans-serif" font-size="22" font-weight="600">See plans</text>

  <text x="130" y="620" fill="#746A5D" font-family="DM Sans, Arial, sans-serif" font-size="13" letter-spacing="4">AI REVIEW + VISUAL RATIONALE</text>
  <path d="M130 654H486" stroke="rgba(213,202,184,0.68)"/>
  <text x="130" y="700" fill="#746A5D" font-family="DM Sans, Arial, sans-serif" font-size="12" letter-spacing="3">CURRENT BUILD</text>
  <text x="130" y="730" fill="#1E222B" font-family="DM Sans, Arial, sans-serif" font-size="18" font-weight="700">486 live CCRN questions</text>
  <text x="392" y="700" fill="#746A5D" font-family="DM Sans, Arial, sans-serif" font-size="12" letter-spacing="3">REVIEW STYLE</text>
  <text x="392" y="730" fill="#1E222B" font-family="DM Sans, Arial, sans-serif" font-size="18" font-weight="700">Pattern-first bedside reasoning</text>

  
    <circle cx="1174" cy="520" r="410" stroke="#1E222B" stroke-opacity="0.22" stroke-width="1.8"/>
    <ellipse cx="1174" cy="520" rx="320" ry="410" stroke="#708370" stroke-opacity="0.26" stroke-width="1.5"/>
    <ellipse cx="1174" cy="520" rx="238" ry="410" stroke="#708370" stroke-opacity="0.18" stroke-width="1.3"/>
    <ellipse cx="1174" cy="520" rx="369" ry="410" stroke="#708370" stroke-opacity="0.13" stroke-width="1.2"/>
    <path d="M1174 110V930" stroke="#708370" stroke-opacity="0.22" stroke-width="1.3"/>
    <path d="M812 241.2C1044 200.2 1304 200.2 1536 241.2" stroke="#708370" stroke-opacity="0.18" stroke-width="1.18"/>
    <path d="M786 405.2C1032 356 1316 356 1562 405.2" stroke="#708370" stroke-opacity="0.22" stroke-width="1.18"/>
    <path d="M782 569.2C1018 532.3 1330 532.3 1566 569.2" stroke="#708370" stroke-opacity="0.2" stroke-width="1.18"/>
    <path d="M808 716.8C1038 692.2 1310 692.2 1540 716.8" stroke="#708370" stroke-opacity="0.16" stroke-width="1.16"/>
    <ellipse cx="1174" cy="520" rx="382" ry="410" stroke="#C49B59" stroke-opacity="0.08" stroke-width="1.1" stroke-dasharray="1 12"/>
  
      <g opacity="0.96">
        <path d="M1106 258V814" stroke="rgba(83,121,133,0.92)" stroke-width="3"/>
        <path d="M1040 286C998 312 964 354 938 410C912 466 900 526 902 588C904 650 918 708 944 760" stroke="rgba(30,34,43,0.7)" stroke-width="3"/>
        <path d="M1172 286C1214 312 1248 354 1274 410C1300 466 1312 526 1310 588C1308 650 1294 708 1268 760" stroke="rgba(30,34,43,0.7)" stroke-width="3"/>
        <path d="M1116 334C1140 318 1165 311 1192 314C1218 317 1240 330 1256 354" stroke="rgba(196,155,89,0.9)" stroke-width="2.4"/>
        <path d="M1096 392C1136 374 1176 368 1218 374C1260 380 1292 402 1312 440" stroke="rgba(196,155,89,0.72)" stroke-width="2.4"/>
      </g>
</svg>