<svg width="1600" height="520" viewBox="0 0 1600 520" fill="none" xmlns="http://www.w3.org/2000/svg">
  <defs>
    <radialGradient id="paper-wash" cx="0" cy="0" r="1" gradientUnits="userSpaceOnUse" gradientTransform="translate(1232 187.2) rotate(90) scale(260 260)">
      <stop offset="0" stop-color="#fffdf8"/>
      <stop offset="0.48" stop-color="#F2EBDD"/>
      <stop offset="1" stop-color="#FBF7F0"/>
    </radialGradient>
    <radialGradient id="bleed-wash" cx="0" cy="0" r="1" gradientUnits="userSpaceOnUse" gradientTransform="translate(1248 208) rotate(90) scale(145.60000000000002 145.60000000000002)">
      <stop offset="0" stop-color="#fffaf2" stop-opacity="0.96"/>
      <stop offset="0.52" stop-color="#E8DBC7" stop-opacity="0.58"/>
      <stop offset="1" stop-color="#E8DBC7" stop-opacity="0"/>
    </radialGradient>
  </defs>
  <rect width="1600" height="520" fill="#FBF7F0"/>
  <rect x="24" y="24" width="1552" height="472" rx="28" fill="url(#paper-wash)" stroke="rgba(208,192,168,0.38)"/>
  
    <rect x="42" y="42" width="1516" height="434" rx="34" fill="rgba(255,252,247,0.9)" stroke="rgba(212,197,173,0.52)"/>
    <text x="112" y="164" fill="#1F1F21" font-family="'Source Serif 4', Georgia, serif" font-size="70" font-weight="600" letter-spacing="-3">ChapAI</text>
    <text x="112" y="226" fill="#766D61" font-family="'DM Sans', Arial, sans-serif" font-size="18" font-weight="700" letter-spacing="5">NCLEX + CCRN / CLEANER CLINICAL PREP</text>
    <text x="112" y="298" fill="#1F1F21" font-family="'DM Sans', Arial, sans-serif" font-size="48" font-weight="500" letter-spacing="-3">Original questions. Sharper clinical review.</text>
    <text x="112" y="354" fill="#766D61" font-family="'DM Sans', Arial, sans-serif" font-size="25">AI tutor, visual rationale, and a faster path into the right plan.</text>
    
    <path d="M760 210C906 132 1056 98 1210 106C1352 114 1488 154 1618 226C1702 272 1768 326 1816 388" stroke="rgba(90,112,120,0.14)" stroke-width="1.4" fill="none" stroke-linecap="round"/>
    <path d="M722 422C874 336 1036 298 1208 306C1378 314 1538 356 1688 440C1776 488 1846 548 1896 616" stroke="rgba(90,112,120,0.08)" stroke-width="1.1" fill="none" stroke-linecap="round"/>
    <path d="M806 694C944 640 1080 616 1214 624C1350 632 1478 670 1598 738C1678 784 1742 836 1788 896" stroke="rgba(90,112,120,0.14)" stroke-width="1.28" fill="none" stroke-linecap="round"/>
    <path d="M1048 74C1054 234 1066 394 1078 554C1090 712 1114 850 1148 956" stroke="rgba(90,112,120,0.08)" stroke-width="1.1" fill="none" stroke-linecap="round"/>
    <path d="M1220 60C1224 222 1236 384 1248 548C1262 710 1288 846 1324 954" stroke="rgba(90,112,120,0.14)" stroke-width="1.18" fill="none" stroke-linecap="round"/>
    <path d="M1394 82C1360 220 1328 360 1298 500C1270 642 1248 792 1230 952" stroke="rgba(90,112,120,0.08)" stroke-width="1.04" fill="none" stroke-linecap="round"/>
  
    
    <circle cx="1270" cy="478" r="306" fill="url(#bleed-wash)" opacity="0.82"/>
    <circle cx="1270" cy="478" r="314" stroke="rgba(90,112,120,0.18)" stroke-width="2.06"/>
    <circle cx="1270" cy="478" r="272" stroke="rgba(90,112,120,0.08)" stroke-width="1.1"/>
    <path d="M1270 748C1264 676 1262 612 1266 556C1270 500 1282 444 1302 388C1322 332 1352 274 1392 214" stroke="rgba(31,31,29,0.86)" stroke-width="2.9" fill="none" stroke-linecap="round"/>
    <path d="M1294 380C1346 362 1398 360 1450 374C1502 388 1546 412 1582 446" stroke="#5A7F88" stroke-width="1.82" fill="none" stroke-linecap="round"/>
    <path d="M1290 416C1344 418 1392 438 1434 474C1476 510 1510 556 1538 612" stroke="#C59B5E" stroke-width="1.82" fill="none" stroke-linecap="round"/>
    <path d="M1272 460C1228 436 1190 432 1158 446C1126 460 1094 490 1062 536" stroke="#5A7F88" stroke-width="1.74" fill="none" stroke-linecap="round"/>
    <path d="M1260 512C1206 520 1160 546 1122 590C1084 634 1056 686 1040 746" stroke="#C59B5E" stroke-width="1.74" fill="none" stroke-linecap="round"/>
    <path d="M1302 340C1326 286 1342 236 1350 190" stroke="rgba(31,31,29,0.72)" stroke-width="1.82" fill="none" stroke-linecap="round"/>
    <path d="M1320 332C1370 294 1414 244 1452 182" stroke="rgba(31,31,29,0.54)" stroke-width="1.46" fill="none" stroke-linecap="round"/>
    <circle cx="1104.0" cy="250.0" r="5.2" fill="rgba(90,112,120,0.28)"/><circle cx="1152.6" cy="221.6" r="3.8" fill="rgba(90,112,120,0.28)"/><circle cx="1205.9" cy="203.4" r="3.8" fill="rgba(90,112,120,0.28)"/><circle cx="1261.8" cy="196.1" r="3.8" fill="rgba(90,112,120,0.28)"/><circle cx="1317.9" cy="200.1" r="5.2" fill="rgba(90,112,120,0.28)"/><circle cx="1372.2" cy="215.2" r="3.8" fill="rgba(90,112,120,0.28)"/><circle cx="1422.4" cy="240.7" r="3.8" fill="rgba(90,112,120,0.28)"/><circle cx="1466.5" cy="275.7" r="3.8" fill="rgba(90,112,120,0.28)"/><circle cx="1502.7" cy="318.8" r="5.2" fill="rgba(90,112,120,0.28)"/><circle cx="1529.7" cy="368.2" r="3.8" fill="rgba(90,112,120,0.28)"/><circle cx="1546.4" cy="422.0" r="3.8" fill="rgba(90,112,120,0.28)"/><circle cx="1552.0" cy="478.0" r="3.8" fill="rgba(90,112,120,0.28)"/><circle cx="1546.4" cy="534.0" r="5.2" fill="rgba(90,112,120,0.28)"/><circle cx="1529.7" cy="587.8" r="3.8" fill="rgba(90,112,120,0.28)"/><circle cx="1502.7" cy="637.2" r="3.8" fill="rgba(90,112,120,0.28)"/><circle cx="1466.5" cy="680.3" r="3.8" fill="rgba(90,112,120,0.28)"/><circle cx="1422.4" cy="715.3" r="5.2" fill="rgba(90,112,120,0.28)"/><circle cx="1372.2" cy="740.8" r="3.8" fill="rgba(90,112,120,0.28)"/><circle cx="1317.9" cy="755.9" r="3.8" fill="rgba(90,112,120,0.28)"/><circle cx="1261.8" cy="759.9" r="3.8" fill="rgba(90,112,120,0.28)"/><circle cx="1205.9" cy="752.6" r="5.2" fill="rgba(90,112,120,0.28)"/><circle cx="1152.6" cy="734.4" r="3.8" fill="rgba(90,112,120,0.28)"/>
  
  
</svg>