<svg width="1600" height="520" viewBox="0 0 1600 520" fill="none" xmlns="http://www.w3.org/2000/svg">
  <rect width="1600" height="520" fill="#FBF7F0"/>
  <defs>
    <radialGradient id="paper-wash" cx="0" cy="0" r="1" gradientUnits="userSpaceOnUse" gradientTransform="translate(1216 176.8) rotate(90) scale(228.8 228.8)">
      <stop offset="0" stop-color="#fffdf7"/>
      <stop offset="0.5" stop-color="#F3EBDD"/>
      <stop offset="1" stop-color="#FBF7F0"/>
    </radialGradient>
    <radialGradient id="bleed-wash" cx="0" cy="0" r="1" gradientUnits="userSpaceOnUse" gradientTransform="translate(1200 197.6) rotate(90) scale(135.20000000000002 135.20000000000002)">
      <stop offset="0" stop-color="#fffaf1" stop-opacity="0.95"/>
      <stop offset="0.5" stop-color="#E9DCCA" stop-opacity="0.58"/>
      <stop offset="1" stop-color="#E9DCCA" stop-opacity="0"/>
    </radialGradient>
  </defs>
  <rect x="26" y="26" width="1548" height="468" rx="28" fill="url(#paper-wash)" stroke="rgba(203,188,164,0.38)"/>
  
    <rect x="42" y="42" width="1516" height="434" rx="34" fill="rgba(255,252,247,0.88)" stroke="rgba(212,197,173,0.52)"/>
    <text x="116" y="170" fill="#1F1F21" font-family="'Source Serif 4', Georgia, serif" font-size="72" font-weight="600" letter-spacing="-3">ChapAI</text>
    <text x="116" y="230" fill="#7A7064" font-family="'DM Sans', Arial, sans-serif" font-size="18" font-weight="700" letter-spacing="5">NCLEX + CCRN / CLEANER CLINICAL PREP</text>
    <text x="116" y="304" fill="#1F1F21" font-family="'DM Sans', Arial, sans-serif" font-size="50" font-weight="500" letter-spacing="-3">Original questions. Elite rationale.</text>
    <text x="116" y="362" fill="#7A7064" font-family="'DM Sans', Arial, sans-serif" font-size="26">AI tutor, visual guidance, and a faster path into the right plan.</text>
    
    <path d="M760 212C902 134 1044 100 1188 108C1324 116 1456 154 1584 224C1668 270 1732 322 1778 380" stroke="rgba(88,126,135,0.2)" stroke-width="1.4" fill="none" stroke-linecap="round"/>
    <path d="M724 420C874 334 1030 296 1194 304C1360 312 1514 354 1656 436C1742 486 1810 544 1858 608" stroke="rgba(88,126,135,0.12)" stroke-width="1.1" fill="none" stroke-linecap="round"/>
    <path d="M814 684C946 632 1074 610 1200 618C1328 626 1450 664 1566 732C1642 776 1702 826 1746 884" stroke="rgba(88,126,135,0.18)" stroke-width="1.34" fill="none" stroke-linecap="round"/>
    <path d="M1046 84C1052 234 1064 390 1076 548C1088 706 1110 844 1142 952" stroke="rgba(88,126,135,0.1)" stroke-width="1.1" fill="none" stroke-linecap="round"/>
    <path d="M1214 66C1218 226 1228 384 1242 542C1256 700 1282 838 1318 946" stroke="rgba(88,126,135,0.18)" stroke-width="1.22" fill="none" stroke-linecap="round"/>
    <path d="M1388 88C1358 214 1328 348 1298 490C1270 632 1246 780 1228 948" stroke="rgba(88,126,135,0.1)" stroke-width="1.04" fill="none" stroke-linecap="round"/>
  
    
    <ellipse cx="1079" cy="215" rx="88" ry="128" fill="url(#bleed-wash)" opacity="0.58"/>
    <ellipse cx="1223" cy="215" rx="88" ry="128" fill="url(#bleed-wash)" opacity="0.58"/>
    <ellipse cx="1079" cy="217" rx="90" ry="129" stroke="rgba(31,31,29,0.84)" stroke-width="1.18"/>
    <ellipse cx="1223" cy="217" rx="90" ry="129" stroke="rgba(31,31,29,0.84)" stroke-width="1.18"/>
    <path d="M1151 102V373" stroke="#C59858" stroke-width="0.98" stroke-linecap="round"/>
    <path d="M1151 121C1123 138 1100 158 1083 183" stroke="#587E87" stroke-width="0.93" fill="none" stroke-linecap="round"/>
    <path d="M1151 121C1179 138 1202 158 1219 183" stroke="#587E87" stroke-width="0.93" fill="none" stroke-linecap="round"/>
    <path d="M1083 183C1059 201 1042 222 1032 246" stroke="#C59858" stroke-width="0.85" fill="none" stroke-linecap="round"/>
    <path d="M1083 183C1070 212 1061 243 1057 278" stroke="#C59858" stroke-width="0.85" fill="none" stroke-linecap="round"/>
    <path d="M1219 183C1243 201 1260 222 1270 246" stroke="#C59858" stroke-width="0.85" fill="none" stroke-linecap="round"/>
    <path d="M1219 183C1232 212 1241 243 1245 278" stroke="#C59858" stroke-width="0.85" fill="none" stroke-linecap="round"/>
    <path d="M1128 377H1174" stroke="rgba(31,31,29,0.18)" stroke-width="0.55" stroke-dasharray="3 5"/>
  
  
</svg>