<svg width="1600" height="1024" viewBox="0 0 1600 1024" fill="none" xmlns="http://www.w3.org/2000/svg">
  <rect width="1600" height="1024" fill="#F7F1E7"/>
  <style>
    .shell { stroke: rgba(127,117,102,0.16); stroke-width: 1.5; fill: none; }
    .orbit { stroke: rgba(127,117,102,0.08); stroke-width: 1.15; fill: none; }
    .orbit.soft, .latitude.soft { stroke-opacity: 0.58; }
    .axis, .latitude { stroke: rgba(127,117,102,0.05); stroke-width: 1; fill: none; }
    .focus { fill: rgba(255,249,241,0.74); }
    .figure, .detail, .organ, .accent { fill: none; stroke-linecap: round; stroke-linejoin: round; }
    .figure { stroke: rgba(49,42,35,0.3); stroke-width: 2.2; }
    .detail { stroke: rgba(105,93,78,0.12); stroke-width: 1.4; }
    .organ { stroke: rgba(193,154,86,0.22); stroke-width: 1.7; }
    .accent { stroke: rgba(193,154,86,0.84); stroke-width: 2; }
  </style>
  <rect x="264" y="78" width="1072" height="70" rx="35" fill="rgba(255,252,247,0.65)" stroke="rgba(218,206,188,0.62)"/>
  <circle cx="302" cy="113" r="21" fill="rgba(255,252,247,0.96)" stroke="rgba(218,206,188,0.72)"/>
  <path d="M302 97V129" stroke="#C19A56" stroke-width="1.5" stroke-linecap="round"/>
  <path d="M290 107C295 102 301 100 307 100C313 100 318 102 322 107C326 111 329 116 330 122" stroke="#201E22" stroke-width="1.8" stroke-linecap="round"/>
  <text x="336" y="112" fill="#201E22" font-family="'DM Sans', Arial, sans-serif" font-size="22" font-weight="600">ChapAI</text>
  <text x="336" y="136" fill="#786C5C" font-family="'DM Sans', Arial, sans-serif" font-size="12" letter-spacing="3">NCLEX + CCRN</text>
  <text x="1126" y="117" fill="#786C5C" font-family="'DM Sans', Arial, sans-serif" font-size="15" letter-spacing="2">CCRN</text>
  <text x="1178" y="117" fill="#786C5C" font-family="'DM Sans', Arial, sans-serif" font-size="15" letter-spacing="2">NCLEX</text>
  <text x="1242" y="117" fill="#786C5C" font-family="'DM Sans', Arial, sans-serif" font-size="15" letter-spacing="2">PLANS</text>
  <rect x="1294" y="90" width="74" height="44" rx="22" fill="rgba(255,252,247,0.95)" stroke="rgba(218,206,188,0.72)"/>
  <text x="1317" y="117" fill="#201E22" font-family="'DM Sans', Arial, sans-serif" font-size="16" font-weight="700">START</text>

  <text x="300" y="206" fill="#786C5C" font-family="'DM Sans', Arial, sans-serif" font-size="14" font-weight="700" letter-spacing="4">HERO CONCEPT 27</text>
  <text x="300" y="336" fill="#201E22" font-family="Georgia, 'Times New Roman', serif" font-size="96" letter-spacing="-4">An anatomy-led hero with less clutter and more confidence.</text>
  <text x="300" y="644" fill="#786C5C" font-family="'DM Sans', Arial, sans-serif" font-size="22">Original questions, AI rationale, and a cleaner clinical path for nurses.</text>
  <rect x="300" y="694" width="184" height="54" rx="27" fill="#5A7F88"/>
  <text x="336" y="728" fill="#F7F1E6" font-family="'DM Sans', Arial, sans-serif" font-size="22" font-weight="700">Choose plan</text>
  <rect x="498" y="694" width="168" height="54" rx="27" fill="rgba(255,252,247,0.92)" stroke="rgba(218,206,188,0.62)"/>
  <text x="539" y="728" fill="#201E22" font-family="'DM Sans', Arial, sans-serif" font-size="22" font-weight="600">Try free</text>
  <path d="M300 792H836" stroke="rgba(214,203,188,0.72)"/>
  <text x="300" y="822" fill="#786C5C" font-family="'DM Sans', Arial, sans-serif" font-size="13" letter-spacing="4">AI REVIEW + ORIGINAL QUESTIONS</text>
  <text x="564" y="822" fill="rgba(102,113,118,0.78)" font-family="'DM Sans', Arial, sans-serif" font-size="13">Cleaner rationale, better visuals, direct package paths.</text>
  <text x="300" y="904" fill="#786C5C" font-family="'DM Sans', Arial, sans-serif" font-size="14" letter-spacing="3">CURRENT BUILD</text>
  <text x="300" y="938" fill="#201E22" font-family="'DM Sans', Arial, sans-serif" font-size="34" font-weight="700">435 live CCRN questions</text>
  <text x="594" y="904" fill="#786C5C" font-family="'DM Sans', Arial, sans-serif" font-size="14" letter-spacing="3">REVIEW STYLE</text>
  <text x="594" y="938" fill="#201E22" font-family="'DM Sans', Arial, sans-serif" font-size="34" font-weight="700">Trend-first bedside reasoning</text>
  
      <circle cx="1042" cy="500" r="340" class="shell"/>
      <circle cx="1042" cy="500" r="284" class="orbit"/>
      <circle cx="1042" cy="500" r="228" class="orbit soft"/>
      <path d="M1042 160V840" class="axis"/>
      <path d="M820 412C899 384 972 370 1042 370C1113 370 1187 384 1264 412" class="latitude"/>
      <path d="M820 588C899 560 972 546 1042 546C1113 546 1187 560 1264 588" class="latitude soft"/>
    
  <ellipse cx="1068" cy="500" rx="214" ry="432" class="focus"/>
  
      <path d="M1064 176C1090 175 1112 184 1129 203C1146 222 1153 245 1150 272C1147 299 1135 321 1113 338C1091 356 1076 379 1068 408C1059 437 1054 471 1052 511" class="figure"/>
      <path d="M1060 176V742" class="accent"/>
      <path d="M1060 286C1090 292 1118 305 1144 328" class="detail"/>
      <path d="M1056 338C1090 349 1120 367 1146 392" class="detail"/>
      <path d="M1050 391C1082 403 1110 421 1136 448" class="detail"/>
      <path d="M1054 282C1030 297 1008 317 989 344" class="organ"/>
      <path d="M1047 334C1020 352 996 375 977 404" class="organ"/>
      <path d="M1038 390C1012 408 991 430 975 458" class="organ"/>
    
</svg>