<svg width="1600" height="520" viewBox="0 0 1600 520" fill="none" xmlns="http://www.w3.org/2000/svg">
  <defs>
    <radialGradient id="paper-wash" cx="0" cy="0" r="1" gradientUnits="userSpaceOnUse" gradientTransform="translate(1180 404) rotate(90) scale(420 420)">
      <stop offset="0" stop-color="#FFFDF8" />
      <stop offset="0.46" stop-color="#F2EBDD" />
      <stop offset="1" stop-color="#FBF7F0" />
    </radialGradient>
    <radialGradient id="bleed-wash" cx="0" cy="0" r="1" gradientUnits="userSpaceOnUse" gradientTransform="translate(1260 430) rotate(90) scale(340 340)">
      <stop offset="0" stop-color="#fffaf2" stop-opacity="0.98" />
      <stop offset="0.5" stop-color="#E9DBC7" stop-opacity="0.56" />
      <stop offset="1" stop-color="#E9DBC7" stop-opacity="0" />
    </radialGradient>
  </defs>
  <rect width="1600" height="520" fill="#FBF7F0" />
  
    <rect x="42" y="42" width="1516" height="434" rx="34" fill="rgba(255,252,247,0.9)" stroke="rgba(212,197,173,0.52)"/>
    <text x="112" y="164" fill="#1F1F21" font-family="'Source Serif 4', Georgia, serif" font-size="70" font-weight="600" letter-spacing="-3">ChapAI</text>
    <text x="112" y="224" fill="#766D61" font-family="'DM Sans', Arial, sans-serif" font-size="18" font-weight="700" letter-spacing="5">NCLEX + CCRN / CLEANER CLINICAL PREP</text>
    <text x="112" y="294" fill="#1F1F21" font-family="'DM Sans', Arial, sans-serif" font-size="48" font-weight="500" letter-spacing="-3">Original questions. Better bedside reasoning.</text>
    <text x="112" y="350" fill="#766D61" font-family="'DM Sans', Arial, sans-serif" font-size="25">AI tutor, visual rationale, and a calmer package path.</text>
    
    <path d="M786 174C920 130 1066 112 1224 122C1372 132 1514 174 1650 248C1734 294 1810 356 1878 434" stroke="rgba(96,110,114,0.16)" stroke-width="1.24" fill="none" stroke-linecap="round"/>
    <path d="M742 338C882 306 1018 298 1152 312C1290 326 1420 362 1542 420C1658 476 1764 560 1860 672" stroke="rgba(96,110,114,0.1)" stroke-width="1.06" fill="none" stroke-linecap="round"/>
    <path d="M770 574C910 544 1046 540 1178 554C1312 568 1440 604 1562 662C1676 716 1782 802 1880 922" stroke="rgba(96,110,114,0.14)" stroke-width="1.16" fill="none" stroke-linecap="round"/>
    <path d="M1028 92C1062 250 1088 410 1106 572C1120 734 1126 892 1122 1048" stroke="rgba(96,110,114,0.08)" stroke-width="1.02" fill="none" stroke-linecap="round"/>
    <path d="M1224 82C1224 238 1228 398 1236 560C1246 722 1264 886 1290 1048" stroke="rgba(96,110,114,0.14)" stroke-width="1.04" fill="none" stroke-linecap="round"/>
    <path d="M1466 132C1424 292 1384 446 1346 594C1308 744 1282 896 1268 1048" stroke="rgba(96,110,114,0.08)" stroke-width="1.02" fill="none" stroke-linecap="round"/>
  
    
    <path d="M1012 168C952 176 900 210 856 270C814 330 792 402 790 486C790 568 810 644 850 714C892 784 950 850 1024 912C1098 974 1170 1026 1240 1068C1310 1028 1380 976 1450 912C1528 840 1588 762 1630 678C1674 592 1694 512 1690 438C1688 362 1668 300 1630 252C1590 202 1540 168 1480 152C1422 136 1364 138 1306 158C1248 178 1192 220 1138 284C1094 220 1052 182 1012 168Z" fill="url(#bleed-wash)" opacity="0.92"/>
    <path d="M1028 208C982 180 934 168 884 172C832 176 792 206 764 262C736 318 730 386 746 466C762 548 798 626 854 700C910 774 988 854 1088 938" stroke="rgba(24,22,20,0.9)" stroke-width="2.86" fill="none" stroke-linecap="round" stroke-linejoin="round"/>
    <path d="M1138 284C1186 216 1238 174 1294 158C1352 142 1410 144 1468 164C1528 186 1576 224 1612 278C1648 332 1666 394 1666 464C1664 534 1640 608 1594 686C1548 764 1484 842 1402 918C1344 972 1288 1020 1236 1060" stroke="rgba(24,22,20,0.9)" stroke-width="2.86" fill="none" stroke-linecap="round" stroke-linejoin="round"/>
    <path d="M1152 270C1152 366 1160 458 1174 546C1188 634 1194 724 1190 818" stroke="#C59B5E" stroke-width="2.02" fill="none" stroke-linecap="round"/>
    <path d="M1074 308C1026 298 986 306 954 332" stroke="#5A7F88" stroke-width="1.78" fill="none" stroke-linecap="round"/>
    <path d="M1092 386C1032 410 984 448 948 500" stroke="#C59B5E" stroke-width="1.76" fill="none" stroke-linecap="round"/>
    <path d="M1098 488C1056 538 1026 594 1008 656" stroke="#5A7F88" stroke-width="1.72" fill="none" stroke-linecap="round"/>
    <path d="M1162 300C1218 286 1268 292 1312 318" stroke="#5A7F88" stroke-width="1.78" fill="none" stroke-linecap="round"/>
    <path d="M1180 390C1240 392 1296 416 1348 462" stroke="#C59B5E" stroke-width="1.76" fill="none" stroke-linecap="round"/>
    <path d="M1188 500C1238 542 1276 590 1302 644" stroke="#5A7F88" stroke-width="1.72" fill="none" stroke-linecap="round"/>
    <path d="M936 1022H1018L1062 972L1116 1118L1170 872L1212 1040L1252 998H1350" stroke="#B67F67" stroke-width="2.16" fill="none" stroke-linecap="round" stroke-linejoin="round"/>
  
  
</svg>