<svg width="1600" height="960" viewBox="0 0 1600 960" fill="none" xmlns="http://www.w3.org/2000/svg">
  <defs>
    <radialGradient id="paper-wash" cx="0" cy="0" r="1" gradientUnits="userSpaceOnUse" gradientTransform="translate(1232 345.59999999999997) rotate(90) scale(480 480)">
      <stop offset="0" stop-color="#fffdf8"/>
      <stop offset="0.48" stop-color="#F2EBDD"/>
      <stop offset="1" stop-color="#FBF7F0"/>
    </radialGradient>
    <radialGradient id="bleed-wash" cx="0" cy="0" r="1" gradientUnits="userSpaceOnUse" gradientTransform="translate(1248 384) rotate(90) scale(268.8 268.8)">
      <stop offset="0" stop-color="#fffaf2" stop-opacity="0.96"/>
      <stop offset="0.52" stop-color="#E8DBC7" stop-opacity="0.58"/>
      <stop offset="1" stop-color="#E8DBC7" stop-opacity="0"/>
    </radialGradient>
  </defs>
  <rect width="1600" height="960" fill="#FBF7F0"/>
  <rect x="24" y="24" width="1552" height="912" rx="28" fill="url(#paper-wash)" stroke="rgba(208,192,168,0.38)"/>
  
    
    <rect x="110" y="70" width="1380" height="82" rx="41" fill="rgba(255,252,247,0.84)" stroke="rgba(212,197,173,0.52)"/>
    <text x="186" y="120" fill="#1F1F21" font-family="'Source Serif 4', Georgia, serif" font-size="38" font-weight="600" letter-spacing="-2">ChapAI</text>
    <text x="1106" y="120" fill="#766D61" font-family="'DM Sans', Arial, sans-serif" font-size="20" font-weight="600">CCRN</text>
    <text x="1190" y="120" fill="#766D61" font-family="'DM Sans', Arial, sans-serif" font-size="20" font-weight="600">NCLEX</text>
    <text x="1284" y="120" fill="#766D61" font-family="'DM Sans', Arial, sans-serif" font-size="20" font-weight="600">PLANS</text>
    <rect x="1348" y="90" width="114" height="44" rx="22" fill="rgba(255,250,243,0.96)" stroke="rgba(212,197,173,0.54)"/>
    <text x="1384" y="118" fill="#1F1F21" font-family="'DM Sans', Arial, sans-serif" font-size="20" font-weight="700">SPRINT</text>
  
    
    <text x="150" y="188" fill="#766D61" font-family="'DM Sans', Arial, sans-serif" font-size="15" font-weight="700" letter-spacing="5">ANGIOGRAM DISC / PREMIUM MEDICAL HERO</text>
    <text x="150" y="286" fill="#1F1F21" font-family="'DM Sans', Arial, sans-serif" font-size="96" font-weight="500" letter-spacing="-7">Bedside signal,</text>
    <text x="150" y="376" fill="#1F1F21" font-family="'DM Sans', Arial, sans-serif" font-size="96" font-weight="500" letter-spacing="-7">without the</text>
    <text x="150" y="466" fill="#1F1F21" font-family="'DM Sans', Arial, sans-serif" font-size="96" font-weight="500" letter-spacing="-7">qbank noise.</text>
    <text x="150" y="548" fill="#766D61" font-family="'DM Sans', Arial, sans-serif" font-size="30">Original questions, elite rationale, and a direct path into the right plan.</text>
    <rect x="150" y="614" width="232" height="64" rx="32" fill="#5A7F88"/>
    <text x="192" y="654" fill="#fff" font-family="'DM Sans', Arial, sans-serif" font-size="25" font-weight="700">Start the $10 sprint</text>
    <rect x="400" y="614" width="196" height="64" rx="32" fill="rgba(255,252,247,0.88)" stroke="rgba(194,178,154,0.62)"/>
    <text x="454" y="654" fill="#1F1F21" font-family="'DM Sans', Arial, sans-serif" font-size="24" font-weight="600">See plans</text>
    <text x="150" y="738" fill="#766D61" font-family="'DM Sans', Arial, sans-serif" font-size="14" font-weight="700" letter-spacing="4">AI TUTOR + VISUAL RATIONALE + CLEAN CLINICAL FLOW</text>
    <path d="M150 766H676" stroke="rgba(212,197,173,0.62)"/>
  
    
    <path d="M760 210C906 132 1056 98 1210 106C1352 114 1488 154 1618 226C1702 272 1768 326 1816 388" stroke="rgba(90,112,120,0.14)" stroke-width="1.4" fill="none" stroke-linecap="round"/>
    <path d="M722 422C874 336 1036 298 1208 306C1378 314 1538 356 1688 440C1776 488 1846 548 1896 616" stroke="rgba(90,112,120,0.08)" stroke-width="1.1" fill="none" stroke-linecap="round"/>
    <path d="M806 694C944 640 1080 616 1214 624C1350 632 1478 670 1598 738C1678 784 1742 836 1788 896" stroke="rgba(90,112,120,0.14)" stroke-width="1.28" fill="none" stroke-linecap="round"/>
    <path d="M1048 74C1054 234 1066 394 1078 554C1090 712 1114 850 1148 956" stroke="rgba(90,112,120,0.08)" stroke-width="1.1" fill="none" stroke-linecap="round"/>
    <path d="M1220 60C1224 222 1236 384 1248 548C1262 710 1288 846 1324 954" stroke="rgba(90,112,120,0.14)" stroke-width="1.18" fill="none" stroke-linecap="round"/>
    <path d="M1394 82C1360 220 1328 360 1298 500C1270 642 1248 792 1230 952" stroke="rgba(90,112,120,0.08)" stroke-width="1.04" fill="none" stroke-linecap="round"/>
  
    
    <circle cx="1248" cy="478" r="306" fill="url(#bleed-wash)" opacity="0.82"/>
    <circle cx="1248" cy="478" r="314" stroke="rgba(90,112,120,0.18)" stroke-width="2.06"/>
    <circle cx="1248" cy="478" r="272" stroke="rgba(90,112,120,0.08)" stroke-width="1.1"/>
    <path d="M1248 748C1242 676 1240 612 1244 556C1248 500 1260 444 1280 388C1300 332 1330 274 1370 214" stroke="rgba(31,31,29,0.86)" stroke-width="2.9" fill="none" stroke-linecap="round"/>
    <path d="M1272 380C1324 362 1376 360 1428 374C1480 388 1524 412 1560 446" stroke="#5A7F88" stroke-width="1.82" fill="none" stroke-linecap="round"/>
    <path d="M1268 416C1322 418 1370 438 1412 474C1454 510 1488 556 1516 612" stroke="#C59B5E" stroke-width="1.82" fill="none" stroke-linecap="round"/>
    <path d="M1250 460C1206 436 1168 432 1136 446C1104 460 1072 490 1040 536" stroke="#5A7F88" stroke-width="1.74" fill="none" stroke-linecap="round"/>
    <path d="M1238 512C1184 520 1138 546 1100 590C1062 634 1034 686 1018 746" stroke="#C59B5E" stroke-width="1.74" fill="none" stroke-linecap="round"/>
    <path d="M1280 340C1304 286 1320 236 1328 190" stroke="rgba(31,31,29,0.72)" stroke-width="1.82" fill="none" stroke-linecap="round"/>
    <path d="M1298 332C1348 294 1392 244 1430 182" stroke="rgba(31,31,29,0.54)" stroke-width="1.46" fill="none" stroke-linecap="round"/>
    <circle cx="1082.0" cy="250.0" r="5.2" fill="rgba(90,112,120,0.28)"/><circle cx="1130.6" cy="221.6" r="3.8" fill="rgba(90,112,120,0.28)"/><circle cx="1183.9" cy="203.4" r="3.8" fill="rgba(90,112,120,0.28)"/><circle cx="1239.8" cy="196.1" r="3.8" fill="rgba(90,112,120,0.28)"/><circle cx="1295.9" cy="200.1" r="5.2" fill="rgba(90,112,120,0.28)"/><circle cx="1350.2" cy="215.2" r="3.8" fill="rgba(90,112,120,0.28)"/><circle cx="1400.4" cy="240.7" r="3.8" fill="rgba(90,112,120,0.28)"/><circle cx="1444.5" cy="275.7" r="3.8" fill="rgba(90,112,120,0.28)"/><circle cx="1480.7" cy="318.8" r="5.2" fill="rgba(90,112,120,0.28)"/><circle cx="1507.7" cy="368.2" r="3.8" fill="rgba(90,112,120,0.28)"/><circle cx="1524.4" cy="422.0" r="3.8" fill="rgba(90,112,120,0.28)"/><circle cx="1530.0" cy="478.0" r="3.8" fill="rgba(90,112,120,0.28)"/><circle cx="1524.4" cy="534.0" r="5.2" fill="rgba(90,112,120,0.28)"/><circle cx="1507.7" cy="587.8" r="3.8" fill="rgba(90,112,120,0.28)"/><circle cx="1480.7" cy="637.2" r="3.8" fill="rgba(90,112,120,0.28)"/><circle cx="1444.5" cy="680.3" r="3.8" fill="rgba(90,112,120,0.28)"/><circle cx="1400.4" cy="715.3" r="5.2" fill="rgba(90,112,120,0.28)"/><circle cx="1350.2" cy="740.8" r="3.8" fill="rgba(90,112,120,0.28)"/><circle cx="1295.9" cy="755.9" r="3.8" fill="rgba(90,112,120,0.28)"/><circle cx="1239.8" cy="759.9" r="3.8" fill="rgba(90,112,120,0.28)"/><circle cx="1183.9" cy="752.6" r="5.2" fill="rgba(90,112,120,0.28)"/><circle cx="1130.6" cy="734.4" r="3.8" fill="rgba(90,112,120,0.28)"/>
  
    <text x="150" y="842" fill="#766D61" font-family="'DM Sans', Arial, sans-serif" font-size="14" font-weight="700" letter-spacing="4">CURRENT ANGLE</text>
    <text x="150" y="888" fill="#1F1F21" font-family="'Source Serif 4', Georgia, serif" font-size="38" font-weight="600">Angiogram disc</text>
  
</svg>