<svg width="1600" height="1024" viewBox="0 0 1600 1024" fill="none" xmlns="http://www.w3.org/2000/svg">
  <rect width="1600" height="1024" fill="#F4ECDE"/>
  <defs>
    <radialGradient id="wash-7" cx="0" cy="0" r="1" gradientUnits="userSpaceOnUse" gradientTransform="translate(1132 458) rotate(90) scale(402 402)">
      <stop stop-color="#fffaf2" stop-opacity="0.96"/>
      <stop offset="1" stop-color="#fffaf2" stop-opacity="0"/>
    </radialGradient>
  </defs>
  <style>
    .shell { fill: none; stroke-linecap: round; stroke-linejoin: round; }
    .shell.main { stroke: rgba(122,113,99,0.28); stroke-width: 1.64; }
    .shell.soft { stroke: rgba(122,113,99,0.15); stroke-width: 1.18; }
    .shell.faint { stroke: rgba(122,113,99,0.1); stroke-width: 1.04; }
    .figure { fill: none; stroke: rgba(47,42,37,0.34); stroke-width: 2.26; stroke-linecap: round; stroke-linejoin: round; }
    .detail { fill: none; stroke: rgba(104,93,79,0.18); stroke-width: 1.34; stroke-linecap: round; stroke-linejoin: round; }
    .organ { fill: none; stroke: rgba(194,154,86,0.42); stroke-width: 1.92; stroke-linecap: round; stroke-linejoin: round; }
    .accent { fill: none; stroke: rgba(93,133,144,0.9); stroke-width: 2.16; stroke-linecap: round; stroke-linejoin: round; }
  </style>
  <rect x="264" y="74" width="1072" height="72" rx="36" fill="rgba(255,252,247,0.74)" stroke="rgba(218,206,188,0.62)"/>
  <circle cx="304" cy="110" r="21" fill="rgba(255,252,247,0.98)" stroke="rgba(218,206,188,0.74)"/>
  <path d="M304 96V126" stroke="#C39A61" stroke-width="1.45" stroke-linecap="round"/>
  <path d="M293 108C297 102 301 99 304 99C307 99 311 102 315 108" stroke="#1F2024" stroke-width="1.75" stroke-linecap="round"/>
  <path d="M292 116C297 110 301 107 304 107C307 107 311 110 316 116" stroke="#5D8590" stroke-width="1.35" stroke-linecap="round"/>
  <text x="338" y="111" fill="#1F2024" font-family="'DM Sans', Arial, sans-serif" font-size="22" font-weight="600">ChapAI</text>
  <text x="338" y="136" fill="#74685A" font-family="'DM Sans', Arial, sans-serif" font-size="12" letter-spacing="3">NCLEX + CCRN</text>
  <text x="1126" y="117" fill="#74685A" font-family="'DM Sans', Arial, sans-serif" font-size="15" letter-spacing="2">CCRN</text>
  <text x="1179" y="117" fill="#74685A" font-family="'DM Sans', Arial, sans-serif" font-size="15" letter-spacing="2">NCLEX</text>
  <text x="1244" y="117" fill="#74685A" font-family="'DM Sans', Arial, sans-serif" font-size="15" letter-spacing="2">PLANS</text>
  <rect x="1298" y="88" width="72" height="44" rx="22" fill="rgba(255,252,247,0.96)" stroke="rgba(218,206,188,0.72)"/>
  <text x="1320" y="116" fill="#1F2024" font-family="'DM Sans', Arial, sans-serif" font-size="16" font-weight="700">START</text>
  <text x="300" y="214" fill="#74685A" font-family="'DM Sans', Arial, sans-serif" font-size="13" font-weight="700" letter-spacing="4">ANATOMY GLOBE / PREMIUM CLINICAL PREP</text>
  <text x="300" y="340" fill="#1F2024" font-family="'DM Sans', Arial, sans-serif" font-size="106" font-weight="500" letter-spacing="-7">A cleaner, bolder way to study.</text>
  <text x="300" y="640" fill="#74685A" font-family="'DM Sans', Arial, sans-serif" font-size="22">The anatomy field becomes the signature instead of a background afterthought.</text>
  <rect x="300" y="694" width="188" height="54" rx="27" fill="#5D8590"/>
  <text x="338" y="728" fill="#FBF7F0" font-family="'DM Sans', Arial, sans-serif" font-size="22" font-weight="700">Choose plan</text>
  <rect x="502" y="694" width="168" height="54" rx="27" fill="rgba(255,252,247,0.94)" stroke="rgba(218,206,188,0.64)"/>
  <text x="544" y="728" fill="#1F2024" font-family="'DM Sans', Arial, sans-serif" font-size="22" font-weight="600">Try free</text>
  <path d="M300 792H852" stroke="rgba(214,203,188,0.72)"/>
  <text x="300" y="822" fill="#74685A" font-family="'DM Sans', Arial, sans-serif" font-size="13" letter-spacing="4">ONE DISTINCT HERO OBJECT / CLEANER QUESTION BANK / FASTER BUYING PATH</text>
  <text x="300" y="906" fill="#1F2024" font-family="'DM Sans', Arial, sans-serif" font-size="34" font-weight="700">463 live CCRN questions</text>
  <text x="622" y="906" fill="#1F2024" font-family="'DM Sans', Arial, sans-serif" font-size="34" font-weight="700">Free / Plus / Pro</text>
  <ellipse cx="1068" cy="512" rx="394" ry="394" fill="url(#wash-7)"/>
  
      <circle cx="1044" cy="512" r="392" class="shell main"/>
      <ellipse cx="1044" cy="512" rx="280" ry="392" class="shell soft"/>
      <ellipse cx="1090" cy="512" rx="194" ry="392" class="shell soft"/>
      <path d="M1044 120V904" class="shell faint"/>
      <path d="M676 340C806 300 928 280 1044 280C1160 280 1284 300 1410 340" class="shell main"/>
      <path d="M664 492C796 458 922 442 1044 442C1168 442 1294 458 1422 492" class="shell faint"/>
      <path d="M680 648C804 620 928 606 1046 606C1166 606 1288 620 1406 648" class="shell faint"/>
      <path d="M760 184C846 258 916 356 970 474C1022 592 1068 706 1110 816" class="shell main"/>
      <path d="M1278 178C1204 264 1144 362 1098 472C1052 582 1014 694 986 806" class="shell soft"/>
    
  
        <path d="M1116 188V888" class="accent"/>
        <path d="M1058 230C1020 260 988 302 962 356C936 410 924 462 926 512C928 562 944 608 974 650" class="figure"/>
        <path d="M1174 230C1212 260 1244 302 1270 356C1296 410 1308 462 1306 512C1304 562 1288 608 1258 650" class="figure"/>
        <path d="M1072 320C1102 300 1130 292 1158 294C1188 296 1214 312 1238 342" class="organ"/>
        <path d="M1032 406C1074 384 1114 374 1156 378C1198 382 1234 402 1264 438" class="organ"/>
        <path d="M1090 498C1118 600 1128 704 1122 810" class="figure"/>
        <path d="M1160 496C1186 590 1228 676 1286 752" class="figure"/>
      
</svg>