<svg width="1600" height="960" viewBox="0 0 1600 960" fill="none" xmlns="http://www.w3.org/2000/svg"><defs><radialGradient id="paper-wash" cx="0" cy="0" r="1" gradientUnits="userSpaceOnUse" gradientTransform="translate(1184 364.8) rotate(90) scale(460.79999999999995 460.79999999999995)"><stop offset="0" stop-color="#fffdf8"/><stop offset="0.5" stop-color="#F1E8D9"/><stop offset="1" stop-color="#FBF7F0"/></radialGradient><radialGradient id="core-wash" cx="0" cy="0" r="1" gradientUnits="userSpaceOnUse" gradientTransform="translate(1248 403.2) rotate(90) scale(249.60000000000002 249.60000000000002)"><stop offset="0" stop-color="#FFFDF8" stop-opacity="0.96"/><stop offset="0.56" stop-color="#E7D8C1" stop-opacity="0.52"/><stop offset="1" stop-color="#E7D8C1" stop-opacity="0"/></radialGradient></defs><rect width="1600" height="960" fill="#FBF7F0"/><rect x="24" y="24" width="1552" height="912" rx="28" fill="url(#paper-wash)" stroke="rgba(210,193,170,0.4)"/><rect x="110" y="70" width="1380" height="82" rx="41" fill="rgba(255,252,247,0.84)" stroke="rgba(212,197,173,0.52)"/><text x="186" y="120" fill="#1F1F21" font-family="'Source Serif 4', Georgia, serif" font-size="38" font-weight="600" letter-spacing="-2">ChapAI</text><text x="1106" y="120" fill="#756B60" font-family="'DM Sans', Arial, sans-serif" font-size="20" font-weight="600">CCRN</text><text x="1190" y="120" fill="#756B60" font-family="'DM Sans', Arial, sans-serif" font-size="20" font-weight="600">NCLEX</text><text x="1284" y="120" fill="#756B60" font-family="'DM Sans', Arial, sans-serif" font-size="20" font-weight="600">PLANS</text><rect x="1350" y="90" width="112" height="44" rx="22" fill="rgba(255,252,247,0.96)" stroke="rgba(212,197,173,0.54)"/><text x="1386" y="118" fill="#1F1F21" font-family="'DM Sans', Arial, sans-serif" font-size="20" font-weight="700">SPRINT</text><text x="150" y="188" fill="#756B60" font-family="'DM Sans', Arial, sans-serif" font-size="15" font-weight="700" letter-spacing="5">NEURAL ATLAS / PREMIUM MEDICAL HERO</text><text x="150" y="286" fill="#1F1F21" font-family="'DM Sans', Arial, sans-serif" font-size="94" font-weight="500" letter-spacing="-7">Study with</text><text x="150" y="374" fill="#1F1F21" font-family="'DM Sans', Arial, sans-serif" font-size="94" font-weight="500" letter-spacing="-7">more signal,</text><text x="150" y="462" fill="#1F1F21" font-family="'DM Sans', Arial, sans-serif" font-size="94" font-weight="500" letter-spacing="-7">less clutter.</text><text x="150" y="544" fill="#756B60" font-family="'DM Sans', Arial, sans-serif" font-size="30">Original questions, elite rationale, and a direct path into the right plan.</text><rect x="150" y="610" width="236" height="64" rx="32" fill="#5E818A"/><text x="193" y="650" fill="#fff" font-family="'DM Sans', Arial, sans-serif" font-size="25" font-weight="700">Start the $10 sprint</text><rect x="402" y="610" width="196" height="64" rx="32" fill="rgba(255,252,247,0.92)" stroke="rgba(194,178,154,0.6)"/><text x="456" y="650" fill="#1F1F21" font-family="'DM Sans', Arial, sans-serif" font-size="24" font-weight="600">See plans</text><text x="150" y="736" fill="#756B60" font-family="'DM Sans', Arial, sans-serif" font-size="14" font-weight="700" letter-spacing="4">AI TUTOR + VISUAL RATIONALE + CLEAN CLINICAL FLOW</text><path d="M150 764H672" stroke="rgba(212,197,173,0.6)"/><path d="M706 184C862 132 1012 110 1156 118C1318 126 1462 172 1588 256C1674 312 1744 380 1798 460" stroke="rgba(101,120,126,0.18)" stroke-width="1.24" fill="none" stroke-linecap="round"/><path d="M690 336C842 286 994 266 1146 276C1308 286 1456 332 1592 414C1676 466 1744 530 1796 608" stroke="rgba(101,120,126,0.1)" stroke-width="1.06" fill="none" stroke-linecap="round"/><path d="M714 514C862 476 1008 462 1152 472C1300 482 1438 520 1566 586C1652 630 1720 688 1772 760" stroke="rgba(101,120,126,0.18)" stroke-width="1.18" fill="none" stroke-linecap="round"/><path d="M1018 86C1036 222 1054 362 1072 506C1090 650 1122 800 1168 954" stroke="rgba(101,120,126,0.08)" stroke-width="1.02" fill="none" stroke-linecap="round"/><path d="M1184 72C1190 212 1202 354 1220 500C1238 648 1270 800 1316 956" stroke="rgba(101,120,126,0.16)" stroke-width="1.12" fill="none" stroke-linecap="round"/><path d="M980 184C1104 140 1242 136 1392 174C1518 206 1612 274 1674 378C1736 482 1748 594 1710 714C1672 834 1592 928 1470 996C1348 1064 1218 1082 1080 1050C970 1024 888 968 834 882C780 796 756 702 762 600C770 498 804 412 866 342C900 302 938 250 980 184Z" fill="url(#core-wash)" opacity="0.8"/><path d="M1128 188C1040 194 972 228 924 290C878 350 858 428 866 524C874 620 908 706 968 782C1022 850 1096 900 1190 932C1286 900 1362 846 1418 768C1478 686 1510 598 1514 504C1518 410 1498 336 1454 282C1410 228 1346 196 1262 186C1212 180 1168 180 1128 188Z" stroke="rgba(31,31,29,0.88)" stroke-width="2.9" fill="none" stroke-linecap="round" stroke-linejoin="round"/><path d="M1192 206C1180 268 1174 330 1174 392C1174 456 1182 522 1196 590C1210 660 1218 728 1218 794C1218 856 1210 918 1192 980" stroke="#C89B5B" stroke-width="2.04" fill="none" stroke-linecap="round"/><path d="M1018 320C948 262 892 220 850 194C808 168 758 150 700 140" stroke="rgba(31,31,29,0.4)" stroke-width="1.42" fill="none" stroke-linecap="round"/><path d="M1454 304C1512 264 1568 228 1622 196C1676 164 1736 142 1802 130" stroke="rgba(31,31,29,0.4)" stroke-width="1.42" fill="none" stroke-linecap="round"/><circle cx="716" cy="118" r="5.2" fill="rgba(92,112,118,0.28)"/><circle cx="790" cy="144" r="4.8" fill="rgba(92,112,118,0.28)"/><circle cx="850" cy="176" r="4.4" fill="rgba(92,112,118,0.28)"/><circle cx="1766" cy="154" r="4.5" fill="rgba(92,112,118,0.28)"/><circle cx="1686" cy="196" r="4.1" fill="rgba(92,112,118,0.28)"/><circle cx="1710" cy="1148" r="5.2" fill="rgba(92,112,118,0.28)"/><text x="150" y="842" fill="#756B60" font-family="'DM Sans', Arial, sans-serif" font-size="14" font-weight="700" letter-spacing="4">CURRENT ANGLE</text><text x="150" y="888" fill="#1F1F21" font-family="'Source Serif 4', Georgia, serif" font-size="38" font-weight="600">Neural atlas</text></svg>