<svg width="480" height="480" viewBox="0 0 480 480" fill="none" xmlns="http://www.w3.org/2000/svg">
    <rect width="480" height="480" rx="48" fill="#FBF7F0"/>
    <rect x="36" y="36" width="408" height="408" rx="36" fill="rgba(255,252,247,0.88)" stroke="rgba(205,189,165,0.46)"/>
    
    <circle cx="240" cy="166" r="78" fill="rgba(255,252,247,0.96)" stroke="rgba(205,189,165,0.5)"/>
    
    <path d="M184 136C202 118 224 110 250 110C274 110 294 118 312 136" stroke="rgba(31,31,29,0.84)" stroke-width="2.14" fill="none" stroke-linecap="round"/>
    <path d="M196 224C172 198 160 170 160 140C160 112 170 90 192 74C212 60 236 54 266 56" stroke="#7C8D79" stroke-width="1.74" fill="none" stroke-linecap="round"/>
    <path d="M286 86C304 104 314 126 316 152C318 178 312 204 296 230C280 256 258 274 230 284" stroke="rgba(31,31,29,0.72)" stroke-width="1.74" fill="none" stroke-linecap="round"/>
  
    <text x="240" y="308" fill="#1F1F21" text-anchor="middle" font-family="'Source Serif 4', Georgia, serif" font-size="60" font-weight="600" letter-spacing="-2.4">ChapAI</text>
    <text x="240" y="350" fill="#766D61" text-anchor="middle" font-family="'DM Sans', Arial, sans-serif" font-size="14" font-weight="700" letter-spacing="4">WIRE MONOGRAM</text>
  
  </svg>