<svg width="480" height="480" viewBox="0 0 480 480" fill="none" xmlns="http://www.w3.org/2000/svg"><rect width="480" height="480" rx="48" fill="#FBF7F0"/><rect x="36" y="36" width="408" height="408" rx="36" fill="rgba(255,252,247,0.88)" stroke="rgba(205,189,165,0.46)"/><circle cx="240" cy="166" r="78" fill="rgba(255,252,247,0.96)" stroke="rgba(205,189,165,0.5)"/><circle cx="240" cy="166" r="16" fill="#FFFDF8" stroke="rgba(31,31,29,0.18)" stroke-width="1.02"/><path d="M240) 166)C240-30) 166-26) 240-58) 166-52) 240-84) 166-80)" fill="none" stroke="rgba(31,31,29,0.78)" stroke-width="1.58" stroke-linecap="round"/><path d="M240) 166)C240+36) 166-20) 240+66) 166-40) 240+92) 166-68)" fill="none" stroke="rgba(31,31,29,0.78)" stroke-width="1.58" stroke-linecap="round"/><path d="M240) 166)C240-24) 166+34) 240-46) 166+64) 240-66) 166+92)" fill="none" stroke="#5E818A" stroke-width="1.58" stroke-linecap="round"/><text x="240" y="308" fill="#1F1F21" text-anchor="middle" font-family="'Source Serif 4', Georgia, serif" font-size="60" font-weight="600" letter-spacing="-2.4">ChapAI</text><text x="240" y="350" fill="#756B60" text-anchor="middle" font-family="'DM Sans', Arial, sans-serif" font-size="14" font-weight="700" letter-spacing="4">NEURAL THREAD</text></svg>