<svg width="480" height="480" viewBox="0 0 480 480" fill="none" xmlns="http://www.w3.org/2000/svg">
  <rect width="480" height="480" rx="44" fill="#FBF7F0"/>
  <rect x="34" y="34" width="412" height="412" rx="34" fill="url(#wash)" stroke="rgba(214,201,181,0.62)"/>
  <defs>
    <radialGradient id="wash" cx="0" cy="0" r="1" gradientUnits="userSpaceOnUse" gradientTransform="translate(150 94) rotate(50) scale(334 334)">
      <stop stop-color="rgba(255,255,255,0.92)"/>
      <stop offset="1" stop-color="rgba(242,233,220,0.94)"/>
    </radialGradient>
  </defs>
  
    <path d="M240 118C269 136 292 161 308 194C323 226 331 262 331 302C331 342 323 377 308 406C292 435 269 459 240 478C211 459 188 435 172 406C157 377 149 342 149 302C149 262 157 226 172 194C188 161 211 136 240 118Z" stroke="rgba(120,112,99,0.18)" stroke-width="1.35"/>
    <path d="M240 144V382" stroke="#C39A61" stroke-width="2.25" stroke-linecap="round"/>
    <path d="M196 194C210 182 225 176 240 176C255 176 270 182 284 194" stroke="#1F2024" stroke-width="2.3" stroke-linecap="round"/>
    <path d="M186 236C204 224 222 218 240 218C258 218 276 224 294 236" stroke="#5D8590" stroke-opacity="0.8" stroke-width="2" stroke-linecap="round"/>
    <path d="M180 280C200 270 220 265 240 265C260 265 280 270 300 280" stroke="#C39A61" stroke-opacity="0.74" stroke-width="1.85" stroke-linecap="round"/>
    <path d="M184 326C202 318 221 314 240 314C259 314 278 318 296 326" stroke="#1F2024" stroke-opacity="0.4" stroke-width="1.7" stroke-linecap="round"/>
  
</svg>