<svg width="220" height="72" viewBox="0 0 220 72" fill="none" xmlns="http://www.w3.org/2000/svg">
  <rect width="220" height="72" rx="20" fill="#F7F1E7"/>
  <g transform="translate(18 12)">
    <circle cx="24" cy="24" r="19.5" stroke="#D7CEC0" stroke-width="0.9"/>
    <path d="M24 7.5C31.7 7.5 37.8 13.7 37.8 21.3C37.8 25.7 35.7 29.8 32.4 32.4C34.4 34.9 35.7 38 36.1 41.6" stroke="#20282D" stroke-width="1.15" stroke-linecap="round"/>
    <path d="M24 7.5C16.3 7.5 10.2 13.7 10.2 21.3C10.2 25.7 12.3 29.8 15.6 32.4C13.6 34.9 12.3 38 11.9 41.6" stroke="#5A7F88" stroke-width="1.15" stroke-linecap="round"/>
    <path d="M20.4 18.8C20.9 16.4 22.3 15 24.2 15C26.7 15 28.2 17 28.2 19.2C28.2 22.9 25.5 25.2 23.1 27.1C20.7 25.4 18 23 18 19.4C18 18.6 18.2 17.6 18.7 16.8" stroke="#C29A56" stroke-width="0.95" stroke-linecap="round" stroke-linejoin="round"/>
  </g>
  <path d="M72 24C91 13 116 13 136 24" stroke="#D8CEBE" stroke-width="0.9" stroke-linecap="round"/>
  <path d="M72 48C91 59 116 59 136 48" stroke="#D8CEBE" stroke-width="0.9" stroke-linecap="round"/>
  <text x="72" y="35" fill="#20282D" font-family="'Times New Roman', serif" font-size="24" letter-spacing="0.04em">ChapAI</text>
  <text x="73" y="51" fill="#6D7378" font-family="DM Sans, Arial, sans-serif" font-size="9" letter-spacing="0.28em">CLINICAL STUDY SYSTEM</text>
</svg>
