<svg width="1600" height="1024" viewBox="0 0 1600 1024" fill="none" xmlns="http://www.w3.org/2000/svg">
  <rect width="1600" height="1024" fill="#F7F1E7"/>
  <style>
    .shell { stroke: rgba(127,117,102,0.18); stroke-width: 1.45; fill: none; }
    .orbit { stroke: rgba(127,117,102,0.085); stroke-width: 1.08; fill: none; }
    .orbit.soft, .latitude.soft { stroke-opacity: 0.58; }
    .axis, .latitude { stroke: rgba(127,117,102,0.052); stroke-width: 1; fill: none; }
    .focus { fill: rgba(255,249,241,0.82); }
    .figure, .detail, .organ, .accent { fill: none; stroke-linecap: round; stroke-linejoin: round; }
    .figure { stroke: rgba(49,42,35,0.3); stroke-width: 2.15; }
    .detail { stroke: rgba(105,93,78,0.12); stroke-width: 1.35; }
    .organ { stroke: rgba(193,154,86,0.24); stroke-width: 1.7; }
    .accent { stroke: rgba(90,127,136,0.84); stroke-width: 2.1; }
  </style>
  <rect x="266" y="74" width="1070" height="72" rx="36" fill="rgba(255,252,247,0.74)" stroke="rgba(218,206,188,0.62)"/>
  <circle cx="304" cy="110" r="21" fill="rgba(255,252,247,0.98)" stroke="rgba(218,206,188,0.74)"/>
  <path d="M304 92C310 98 313 104 313 112C313 120 310 126 304 132C298 126 295 120 295 112C295 104 298 98 304 92Z" stroke="#201E22" stroke-width="1.5" stroke-linejoin="round"/>
  <text x="340" y="111" fill="#201E22" font-family="'DM Sans', Arial, sans-serif" font-size="22" font-weight="600">ChapAI</text>
  <text x="340" y="136" fill="#786C5C" font-family="'DM Sans', Arial, sans-serif" font-size="12" letter-spacing="3">NCLEX + CCRN</text>
  <text x="1126" y="117" fill="#786C5C" font-family="'DM Sans', Arial, sans-serif" font-size="15" letter-spacing="2">CCRN</text>
  <text x="1181" y="117" fill="#786C5C" font-family="'DM Sans', Arial, sans-serif" font-size="15" letter-spacing="2">NCLEX</text>
  <text x="1245" y="117" fill="#786C5C" font-family="'DM Sans', Arial, sans-serif" font-size="15" letter-spacing="2">PLANS</text>
  <rect x="1296" y="88" width="72" height="44" rx="22" fill="rgba(255,252,247,0.96)" stroke="rgba(218,206,188,0.72)"/>
  <text x="1318" y="116" fill="#201E22" font-family="'DM Sans', Arial, sans-serif" font-size="16" font-weight="700">START</text>

  <text x="300" y="214" fill="#786C5C" font-family="'DM Sans', Arial, sans-serif" font-size="13" font-weight="700" letter-spacing="4">FRONT PAGE 38</text>
  <text x="300" y="348" fill="#201E22" font-family="Georgia, 'Times New Roman', serif" font-size="102" letter-spacing="-4.5">One anatomy globe. One sharper clinical story.</text>
  <text x="300" y="642" fill="#786C5C" font-family="'DM Sans', Arial, sans-serif" font-size="22">Premium questions, clearer rationale, and a cleaner clinical buying path.</text>
  <rect x="300" y="690" width="194" height="54" rx="27" fill="#5A7F88"/>
  <text x="332" y="724" fill="#F7F1E6" font-family="'DM Sans', Arial, sans-serif" font-size="22" font-weight="700">Choose package</text>
  <rect x="508" y="690" width="170" height="54" rx="27" fill="rgba(255,252,247,0.94)" stroke="rgba(218,206,188,0.64)"/>
  <text x="548" y="724" fill="#201E22" font-family="'DM Sans', Arial, sans-serif" font-size="22" font-weight="600">Try free</text>
  <path d="M300 792H834" stroke="rgba(214,203,188,0.72)"/>
  <text x="300" y="826" fill="#786C5C" font-family="'DM Sans', Arial, sans-serif" font-size="13" letter-spacing="4">CALMER CLINICAL STANDARD</text>
  <text x="300" y="906" fill="#201E22" font-family="'DM Sans', Arial, sans-serif" font-size="34" font-weight="700">435 live CCRN questions</text>
  <text x="612" y="906" fill="#201E22" font-family="'DM Sans', Arial, sans-serif" font-size="34" font-weight="700">Free / Plus / Pro</text>
  
      <circle cx="1128" cy="504" r="432" class="shell"/>
      <ellipse cx="1128" cy="504" rx="322" ry="432" class="orbit"/>
      <ellipse cx="1166" cy="504" rx="228" ry="432" class="orbit soft"/>
      <path d="M1128 74V934" class="axis"/>
      <path d="M812 374C926 330 1032 308 1128 308C1225 308 1328 330 1434 374" class="latitude"/>
      <path d="M780 552C892 512 1008 492 1128 492C1248 492 1362 512 1472 552" class="latitude soft"/>
      <path d="M808 742C920 704 1028 686 1136 686C1244 686 1350 704 1454 742" class="latitude soft"/>
    
  <ellipse cx="1122" cy="506" rx="218" ry="438" class="focus"/>
  
      <path d="M1102 158V786" class="accent"/>
      <path d="M1054 198C1018 216 986 245 958 284C930 323 912 366 904 412C896 458 900 507 916 558" class="figure"/>
      <path d="M1152 198C1187 216 1220 245 1248 284C1276 323 1294 366 1302 412C1310 458 1306 507 1290 558" class="figure"/>
      <path d="M1072 330C1090 318 1108 312 1126 313C1144 314 1159 323 1171 340" class="organ"/>
      <path d="M1038 400C1068 386 1098 381 1128 387C1158 393 1182 408 1198 433" class="organ"/>
      <path d="M1140 332C1118 321 1096 319 1074 325C1051 331 1031 343 1012 362" class="detail"/>
    
</svg>