<svg width="1600" height="960" viewBox="0 0 1600 960" fill="none" xmlns="http://www.w3.org/2000/svg">
    <defs>
      <radialGradient id="paper-wash" cx="0" cy="0" r="1" gradientUnits="userSpaceOnUse" gradientTransform="translate(1180 420) rotate(90) scale(420 420)">
        <stop offset="0" stop-color="#FFFDF8" />
        <stop offset="0.4" stop-color="#F2EBDD" />
        <stop offset="1" stop-color="#FBF7F0" />
      </radialGradient>
      <radialGradient id="bleed-wash" cx="0" cy="0" r="1" gradientUnits="userSpaceOnUse" gradientTransform="translate(1260 446) rotate(90) scale(360 360)">
        <stop offset="0" stop-color="#fffaf2" stop-opacity="0.98" />
        <stop offset="0.52" stop-color="#E9DBC7" stop-opacity="0.56" />
        <stop offset="1" stop-color="#E9DBC7" stop-opacity="0" />
      </radialGradient>
    </defs>
    <rect width="1600" height="960" fill="#FBF7F0" />
    
    
    <rect x="108" y="68" width="1388" height="84" rx="42" fill="rgba(255,252,247,0.9)" stroke="rgba(213,198,175,0.56)"/>
    <text x="156" y="122" fill="#1F1F21" font-family="'Source Serif 4', Georgia, serif" font-size="38" font-weight="600" letter-spacing="-2">ChapAI</text>
    <text x="1170" y="120" fill="#766D61" font-family="'DM Sans', Arial, sans-serif" font-size="20" font-weight="600">CCRN</text>
    <text x="1252" y="120" fill="#766D61" font-family="'DM Sans', Arial, sans-serif" font-size="20" font-weight="600">NCLEX</text>
    <text x="1340" y="120" fill="#766D61" font-family="'DM Sans', Arial, sans-serif" font-size="20" font-weight="600">PLANS</text>
    <rect x="1388" y="88" width="102" height="44" rx="22" fill="rgba(255,250,243,0.96)" stroke="rgba(212,197,173,0.56)"/>
    <text x="1420" y="117" fill="#1F1F21" font-family="'DM Sans', Arial, sans-serif" font-size="20" font-weight="700">SPRINT</text>
  
    
    <text x="148" y="194" fill="#766D61" font-family="'DM Sans', Arial, sans-serif" font-size="15" font-weight="700" letter-spacing="4">PREMIUM MEDICAL PREP</text>
    <text x="148" y="292" fill="#1F1F21" font-family="'DM Sans', Arial, sans-serif" font-size="96" font-weight="500" letter-spacing="-7">Shock, vents,</text>
    <text x="148" y="382" fill="#1F1F21" font-family="'DM Sans', Arial, sans-serif" font-size="96" font-weight="500" letter-spacing="-7">oxygen, and</text>
    <text x="148" y="472" fill="#1F1F21" font-family="'DM Sans', Arial, sans-serif" font-size="96" font-weight="500" letter-spacing="-7">clearer review.</text>
    <text x="148" y="556" fill="#766D61" font-family="'DM Sans', Arial, sans-serif" font-size="30">Original questions, AI tutor guidance, and cleaner clinical review.</text>
    <rect x="148" y="620" width="236" height="64" rx="32" fill="#5A7F88"/>
    <text x="192" y="660" fill="#fff" font-family="'DM Sans', Arial, sans-serif" font-size="25" font-weight="700">Start the $10 sprint</text>
    <rect x="402" y="620" width="190" height="64" rx="32" fill="rgba(255,252,247,0.92)" stroke="rgba(203,187,162,0.62)"/>
    <text x="454" y="660" fill="#1F1F21" font-family="'DM Sans', Arial, sans-serif" font-size="24" font-weight="600">See plans</text>
    <text x="148" y="742" fill="#766D61" font-family="'DM Sans', Arial, sans-serif" font-size="14" font-weight="700" letter-spacing="4">AI TUTOR + LIVE BANK + VISUAL RATIONALE</text>
    <path d="M148 770H660" stroke="rgba(209,194,170,0.62)"/>
  
    
    <path d="M786 152C910 130 1044 128 1188 144C1334 160 1472 196 1602 252C1718 302 1824 372 1920 462" stroke="rgba(92,104,110,0.15)" stroke-width="1.18" fill="none" stroke-linecap="round"/>
    <path d="M748 324C882 300 1018 302 1156 320C1296 338 1430 374 1558 432C1680 488 1794 572 1900 682" stroke="rgba(92,104,110,0.1)" stroke-width="1.08" fill="none" stroke-linecap="round"/>
    <path d="M764 548C906 520 1050 522 1196 542C1340 562 1478 602 1610 666C1728 722 1840 810 1946 932" stroke="rgba(92,104,110,0.12)" stroke-width="1.12" fill="none" stroke-linecap="round"/>
    <path d="M1000 92C1034 236 1060 386 1078 542C1094 704 1102 862 1102 1014" stroke="rgba(92,104,110,0.08)" stroke-width="1.04" fill="none" stroke-linecap="round"/>
    <path d="M1214 86C1216 236 1222 386 1232 538C1244 690 1262 850 1286 1014" stroke="rgba(92,104,110,0.14)" stroke-width="1.04" fill="none" stroke-linecap="round"/>
  
    
    <path d="M982 236C928 292 894 356 880 428C866 500 874 586 904 686C936 784 980 870 1038 944C1090 892 1128 842 1154 792C1180 742 1196 658 1202 540C1208 420 1196 328 1166 266C1134 204 1072 194 982 236Z" fill="url(#bleed-wash)" opacity="0.9"/>
    <path d="M1534 236C1588 292 1622 356 1636 428C1650 500 1642 586 1612 686C1580 784 1536 870 1478 944C1426 892 1388 842 1362 792C1336 742 1320 658 1314 540C1308 420 1320 328 1350 266C1382 204 1444 194 1534 236Z" fill="url(#bleed-wash)" opacity="0.9"/>
    <path d="M982 236C928 292 894 356 880 428C866 500 874 586 904 686C936 784 980 870 1038 944" stroke="rgba(24,22,20,0.9)" stroke-width="2.76" fill="none"/>
    <path d="M1534 236C1588 292 1622 356 1636 428C1650 500 1642 586 1612 686C1580 784 1536 870 1478 944" stroke="rgba(24,22,20,0.9)" stroke-width="2.76" fill="none"/>
    <path d="M1258 198V912" stroke="#C59B5E" stroke-width="2" stroke-linecap="round"/>
    <path d="M1258 252C1200 296 1150 348 1108 406" stroke="#5A7F88" stroke-width="1.8" fill="none" stroke-linecap="round"/>
    <path d="M1258 252C1316 296 1366 348 1408 406" stroke="#5A7F88" stroke-width="1.8" fill="none" stroke-linecap="round"/>
    <path d="M1108 406C1060 454 1026 510 1006 574" stroke="#C59B5E" stroke-width="1.72" fill="none" stroke-linecap="round"/>
    <path d="M1408 406C1456 454 1490 510 1510 574" stroke="#C59B5E" stroke-width="1.72" fill="none" stroke-linecap="round"/>
    <path d="M1258 470C1232 528 1212 590 1200 656" stroke="#5A7F88" stroke-width="1.66" fill="none" stroke-linecap="round"/>
    <path d="M1258 470C1284 528 1304 590 1316 656" stroke="#5A7F88" stroke-width="1.66" fill="none" stroke-linecap="round"/>
  
    <text x="148" y="840" fill="#766D61" font-family="'DM Sans', Arial, sans-serif" font-size="14" font-weight="700" letter-spacing="4">CURRENT ANGLE</text>
    <text x="148" y="886" fill="#1F1F21" font-family="'Source Serif 4', Georgia, serif" font-size="38" font-weight="600">Pulmonary atlas</text>
  
  </svg>