<svg width="520" height="520" viewBox="0 0 520 520" fill="none" xmlns="http://www.w3.org/2000/svg">
  <rect width="520" height="520" rx="52" fill="#FBF7F0"/>
  <rect x="36" y="36" width="448" height="448" rx="40" fill="url(#wash)" stroke="rgba(208,196,177,0.58)"/>
  <defs>
    <radialGradient id="wash" cx="0" cy="0" r="1" gradientUnits="userSpaceOnUse" gradientTransform="translate(338 118) rotate(120) scale(420 420)">
      <stop offset="0" stop-color="#fffdf8" stop-opacity="0.94"/>
      <stop offset="0.64" stop-color="#f3eadb" stop-opacity="0.86"/>
      <stop offset="1" stop-color="#efe5d5" stop-opacity="0.96"/>
    </radialGradient>
  </defs>
  
      <rect x="108" y="122" width="304" height="250" rx="30" fill="rgba(255,252,246,0.84)" stroke="rgba(208,196,177,0.7)"/>
      
    <circle cx="330" cy="246" r="88" stroke="#1E222B" stroke-opacity="0.22" stroke-width="1.8"/>
    <ellipse cx="330" cy="246" rx="69" ry="88" stroke="#C49B59" stroke-opacity="0.26" stroke-width="1.5"/>
    <ellipse cx="330" cy="246" rx="51" ry="88" stroke="#C49B59" stroke-opacity="0.18" stroke-width="1.3"/>
    <ellipse cx="330" cy="246" rx="79" ry="88" stroke="#C49B59" stroke-opacity="0.13" stroke-width="1.2"/>
    <path d="M330 158V334" stroke="#C49B59" stroke-opacity="0.22" stroke-width="1.3"/>
    <path d="M290 186.16C200 177.36 460 177.36 370 186.16" stroke="#C49B59" stroke-opacity="0.18" stroke-width="1.18"/>
    <path d="M264 221.36C188 210.8 472 210.8 396 221.36" stroke="#C49B59" stroke-opacity="0.22" stroke-width="1.18"/>
    <path d="M260 256.56C174 248.64 486 248.64 400 256.56" stroke="#C49B59" stroke-opacity="0.2" stroke-width="1.18"/>
    <path d="M286 288.24C194 282.96 466 282.96 374 288.24" stroke="#C49B59" stroke-opacity="0.16" stroke-width="1.16"/>
    <ellipse cx="330" cy="246" rx="60" ry="88" stroke="#708370" stroke-opacity="0.08" stroke-width="1.1" stroke-dasharray="1 12"/>
  
      
    <g transform="translate(330 246) scale(0.28) translate(-240 -260)">
      <path d="M240 78V420" stroke="#C49B59" stroke-opacity="0.96" stroke-width="2.4" stroke-linecap="round"/>
      <path d="M182 110C152 124 126 149 104 187C82 225 70 269 68 319C66 369 74 412 94 448C114 484 142 511 178 528" stroke="#1E222B" stroke-opacity="0.72" stroke-width="3" stroke-linecap="round" stroke-linejoin="round"/>
      <path d="M298 110C328 124 354 149 376 187C398 225 410 269 412 319C414 369 406 412 386 448C366 484 338 511 302 528" stroke="#1E222B" stroke-opacity="0.72" stroke-width="3" stroke-linecap="round" stroke-linejoin="round"/>
      <path d="M198 164C170 176 146 198 127 228C108 258 98 293 96 332C94 371 100 407 116 440C132 473 155 498 186 516" stroke="#708370" stroke-opacity="0.78" stroke-width="2.4" stroke-linecap="round"/>
      <path d="M282 164C310 176 334 198 353 228C372 258 382 293 384 332C386 371 380 407 364 440C348 473 325 498 294 516" stroke="#708370" stroke-opacity="0.78" stroke-width="2.4" stroke-linecap="round"/>
      <path d="M240 156C258 142 278 135 300 136C322 138 339 148 352 167C365 186 371 208 369 232C367 256 358 278 341 300C324 321 297 355 260 402C223 355 196 321 179 300C162 278 153 256 151 232C149 208 155 186 168 167C181 148 198 138 220 136C242 135 262 142 280 156" stroke="#708370" stroke-opacity="0.92" stroke-width="2.6" stroke-linecap="round" stroke-linejoin="round"/>
      <path d="M182 214C198 202 217 194 240 192C263 190 282 196 298 210" stroke="#C49B59" stroke-opacity="0.38" stroke-width="1.8" stroke-linecap="round"/>
      <path d="M160 262C186 248 212 242 240 242C268 242 294 248 320 262" stroke="#C49B59" stroke-opacity="0.42" stroke-width="1.8" stroke-linecap="round"/>
      <path d="M146 314C178 300 210 294 240 294C270 294 302 300 334 314" stroke="#C49B59" stroke-opacity="0.44" stroke-width="1.8" stroke-linecap="round"/>
      <path d="M148 366C178 355 209 350 240 350C271 350 302 355 332 366" stroke="#C49B59" stroke-opacity="0.38" stroke-width="1.7" stroke-linecap="round"/>
      <path d="M236 104C216 98 197 90 178 80C159 70 140 56 122 40" stroke="#C49B59" stroke-opacity="0.3" stroke-width="1.4" stroke-linecap="round"/>
      <path d="M248 104C272 96 295 84 316 68C337 52 357 34 376 14" stroke="#C49B59" stroke-opacity="0.3" stroke-width="1.4" stroke-linecap="round"/>
      <path d="M310 158H476" stroke="#C49B59" stroke-opacity="0.24" stroke-width="1.5" stroke-linecap="round"/>
      <path d="M336 300H500" stroke="#C49B59" stroke-opacity="0.22" stroke-width="1.5" stroke-linecap="round"/>
      <path d="M316 470H482" stroke="#C49B59" stroke-opacity="0.2" stroke-width="1.5" stroke-linecap="round"/>
      <circle cx="478" cy="158" r="7" fill="#FBF7F0" stroke="#708370" stroke-opacity="0.64" stroke-width="1.1"/>
      <circle cx="502" cy="300" r="7" fill="#FBF7F0" stroke="#708370" stroke-opacity="0.64" stroke-width="1.1"/>
      <circle cx="484" cy="470" r="7" fill="#FBF7F0" stroke="#C49B59" stroke-opacity="0.54" stroke-width="1.1"/>
    </g>
  
      <text x="136" y="240" fill="#1E222B" font-family="Source Serif 4, Georgia, serif" font-size="46" font-weight="600">ChapAI</text>
      <text x="136" y="274" fill="#746A5D" font-family="DM Sans, Arial, sans-serif" font-size="13" letter-spacing="4">SHARPER NURSING PREP</text>
      <path d="M136 304H290" stroke="#C49B59" stroke-opacity="0.28" stroke-width="1.3"/>
      <text x="136" y="338" fill="#1E222B" font-family="DM Sans, Arial, sans-serif" font-size="16" font-weight="600">quiet clinical confidence</text>
    
</svg>