<svg width="480" height="480" viewBox="0 0 480 480" fill="none" xmlns="http://www.w3.org/2000/svg">
  <rect width="480" height="480" rx="48" fill="#FBF7F0"/>
  <rect x="36" y="36" width="408" height="408" rx="36" fill="url(#wash)" stroke="rgba(208,194,170,0.5)"/>
  <defs>
    <radialGradient id="wash" cx="0" cy="0" r="1" gradientUnits="userSpaceOnUse" gradientTransform="translate(164 102) rotate(52) scale(352 352)">
      <stop stop-color="rgba(255,255,255,0.9)"/>
      <stop offset="1" stop-color="rgba(242,233,221,0.96)"/>
    </radialGradient>
  </defs>
  
    <circle cx="240" cy="240" r="132" stroke="rgba(121,111,97,0.16)" stroke-width="1.4"/>
    <circle cx="240" cy="240" r="64" stroke="#75866F" stroke-opacity="0.18" stroke-width="1.15"/>
    <path d="M240 136C252 164 260 189 264 212C268 189 276 164 288 136" stroke="#201E22" stroke-width="2.2" stroke-linecap="round"/>
    <path d="M344 240C316 252 291 260 268 264C291 268 316 276 344 288" stroke="#201E22" stroke-width="2.2" stroke-linecap="round"/>
    <path d="M240 344C228 316 220 291 216 268C212 291 204 316 192 344" stroke="#201E22" stroke-width="2.2" stroke-linecap="round"/>
    <path d="M136 240C164 228 189 220 212 216C189 212 164 204 136 192" stroke="#201E22" stroke-width="2.2" stroke-linecap="round"/>
    <circle cx="240" cy="240" r="18" fill="#FBF7F0" stroke="#C19A56" stroke-width="1.4"/>
    <path d="M240 164V316" stroke="#C19A56" stroke-opacity="0.76" stroke-width="1.8" stroke-linecap="round"/>
    <path d="M164 240H316" stroke="#75866F" stroke-opacity="0.76" stroke-width="1.8" stroke-linecap="round"/>
  
</svg>