<svg width="560" height="340" viewBox="0 0 560 340" fill="none" xmlns="http://www.w3.org/2000/svg">
    <rect width="560" height="340" rx="34" fill="#FBF7F0"/>
    <rect x="18" y="18" width="524" height="304" rx="26" fill="rgba(255,252,247,0.94)" stroke="rgba(205,189,165,0.46)"/>
    
    <g transform="translate(48 62)">
      
        <path d="M96 20C138 12 170 22 192 50C214 78 220 110 210 146C200 182 178 210 144 230C110 248 76 252 42 242C18 234 0 218 -12 194" stroke="rgba(24,22,20,0.92)" stroke-width="2.8" fill="none" stroke-linecap="round"/>
        <path d="M136 28C126 76 124 120 130 160C136 200 138 224 136 234" stroke="#7C8D79" stroke-width="1.96" fill="none" stroke-linecap="round"/>
        <path d="M88 60C64 62 48 74 40 96" stroke="rgba(46,42,38,0.56)" stroke-width="1.54" fill="none" stroke-linecap="round"/>
        <path d="M100 104C72 108 52 126 40 158" stroke="rgba(46,42,38,0.52)" stroke-width="1.48" fill="none" stroke-linecap="round"/>
        <path d="M172 60C196 66 212 78 220 98" stroke="rgba(46,42,38,0.56)" stroke-width="1.54" fill="none" stroke-linecap="round"/>
        <path d="M162 104C192 108 212 126 224 158" stroke="rgba(46,42,38,0.52)" stroke-width="1.48" fill="none" stroke-linecap="round"/>
      
      <text x="164" y="110" fill="#1F1F21" font-family="'Source Serif 4', Georgia, serif" font-size="80" font-weight="600" letter-spacing="-3">ChapAI</text>
      <text x="166" y="150" fill="#766D61" font-family="'DM Sans', Arial, sans-serif" font-size="14" font-weight="700" letter-spacing="4">NCLEX + CCRN</text>
      <text x="166" y="176" fill="#766D61" font-family="'DM Sans', Arial, sans-serif" font-size="11" font-weight="700" letter-spacing="3">CORTICAL WORDMARK</text>
      <text x="166" y="206" fill="#1F1F21" font-family="'DM Sans', Arial, sans-serif" font-size="18" font-weight="500">Cortical editorial wordmark</text>
    </g>
  
  </svg>