<svg width="480" height="480" viewBox="0 0 480 480" fill="none" xmlns="http://www.w3.org/2000/svg">
    <rect width="480" height="480" rx="48" fill="#FBF7F0"/>
    <rect x="36" y="36" width="408" height="408" rx="36" fill="rgba(255,252,247,0.84)" stroke="rgba(205,189,165,0.46)"/>
    
    <circle cx="240" cy="166" r="76" fill="rgba(255,252,247,0.96)" stroke="rgba(205,189,165,0.54)"/>
    
    <circle cx="240" cy="166" r="48" stroke="rgba(32,31,33,0.18)" stroke-width="1.2"/>
    <path d="M240 124C214 124 196 142 196 166C196 180 202 192 214 204" stroke="rgba(32,31,33,0.86)" stroke-width="2.2" fill="none" stroke-linecap="round"/>
    <path d="M240 124C266 124 284 142 284 166C284 180 278 192 266 204" stroke="rgba(32,31,33,0.86)" stroke-width="2.2" fill="none" stroke-linecap="round"/>
    <path d="M218 142C224 136 232 132 240 132C248 132 256 136 262 142" stroke="#82927E" stroke-width="1.7" fill="none" stroke-linecap="round"/>
    <path d="M240 166V216" stroke="#82927E" stroke-width="1.8" fill="none" stroke-linecap="round"/>
    <path d="M240 186C228 194 220 204 216 218" stroke="#82927E" stroke-width="1.5" fill="none" stroke-linecap="round"/>
    <path d="M240 186C252 194 260 204 264 218" stroke="#82927E" stroke-width="1.5" fill="none" stroke-linecap="round"/>
  
    <text x="240" y="308" fill="#1F1F21" text-anchor="middle" font-family="'Source Serif 4', Georgia, serif" font-size="60" font-weight="600" letter-spacing="-2.4">ChapAI</text>
    <text x="240" y="350" fill="#7A7064" text-anchor="middle" font-family="'DM Sans', Arial, sans-serif" font-size="14" font-weight="700" letter-spacing="4">CORTICAL HALO</text>
  
  </svg>