<svg width="480" height="480" viewBox="0 0 480 480" fill="none" xmlns="http://www.w3.org/2000/svg">
  <rect width="480" height="480" rx="48" fill="#F7F2EA"/>
  <circle cx="240" cy="240" r="170" stroke="#D8CEBF" stroke-width="1.9"/>
  <path d="M240 92V388" stroke="#C89D60" stroke-width="2.4" stroke-linecap="round"/>
  <path d="M168 174C185 162 204 156 225 156C245 156 263 161 279 171C295 182 307 196 315 214" stroke="#20262B" stroke-width="3" stroke-linecap="round"/>
  <path d="M171 246C188 235 206 230 225 230C243 230 260 234 275 243C290 252 302 265 311 282" stroke="#5B7D87" stroke-width="2.7" stroke-linecap="round"/>
  <path d="M179 314C194 307 209 304 226 304C242 304 256 307 269 313" stroke="#C89D60" stroke-width="2.2" stroke-linecap="round"/>
  <path d="M324 148C307 128 286 112 261 102" stroke="#20262B" stroke-width="2.2" stroke-linecap="round"/>
  <circle cx="324" cy="148" r="6.6" fill="#C89D60"/>
</svg>
