<svg width="512" height="512" viewBox="0 0 512 512" fill="none" xmlns="http://www.w3.org/2000/svg">
  <rect width="512" height="512" rx="128" fill="#FBFAF6"/>
  <circle cx="256" cy="256" r="154" stroke="#D8D2C6" stroke-width="4"/>
  <path d="M206 141C231 127 260 120 290 120C350 120 397 154 420 210" stroke="#C29A56" stroke-width="18" stroke-linecap="round"/>
  <path d="M334 372C309 386 282 392 252 392C170 392 114 334 114 256C114 179 170 120 250 120C279 120 305 126 328 138" stroke="#1F262B" stroke-width="26" stroke-linecap="round"/>
  <path d="M177 256H232L254 218L287 308L320 244H361" stroke="#5A7F88" stroke-width="18" stroke-linecap="round" stroke-linejoin="round"/>
  <circle cx="362" cy="244" r="20" fill="#C29A56"/>
  <circle cx="362" cy="244" r="7" fill="white"/>
</svg>
