<svg width="480" height="480" viewBox="0 0 480 480" fill="none" xmlns="http://www.w3.org/2000/svg">
  <rect width="480" height="480" rx="48" fill="#FBF7F0"/>
  <rect x="36" y="36" width="408" height="408" rx="36" fill="url(#wash)" stroke="rgba(208,194,170,0.5)"/>
  <defs>
    <radialGradient id="wash" cx="0" cy="0" r="1" gradientUnits="userSpaceOnUse" gradientTransform="translate(164 102) rotate(52) scale(352 352)">
      <stop stop-color="rgba(255,255,255,0.9)"/>
      <stop offset="1" stop-color="rgba(242,233,221,0.96)"/>
    </radialGradient>
  </defs>
  
    <ellipse cx="240" cy="236" rx="118" ry="148" stroke="rgba(120,111,97,0.16)" stroke-width="1.4"/>
    <ellipse cx="240" cy="236" rx="97" ry="148" stroke="#5A7F88" stroke-opacity="0.18" stroke-width="1.15"/>
    <path d="M240 126V352" stroke="#A7775C" stroke-width="2.2" stroke-linecap="round"/>
    <path d="M208 156C217 146 228 141 240 141C252 141 263 146 272 156C281 166 286 178 286 192C286 206 281 218 272 228C263 238 252 244 240 246C228 244 217 238 208 228C199 218 194 206 194 192C194 178 199 166 208 156Z" stroke="#201E22" stroke-width="2.6" stroke-linejoin="round"/>
    <path d="M218 182C225 176 232 173 240 173C248 173 255 176 262 182" stroke="#A7775C" stroke-opacity="0.68" stroke-width="1.8" stroke-linecap="round"/>
    <path d="M226 268H254" stroke="#201E22" stroke-width="2.1" stroke-linecap="round"/>
    <path d="M214 298H266" stroke="#5A7F88" stroke-opacity="0.82" stroke-width="2" stroke-linecap="round"/>
    <path d="M200 332H280" stroke="#201E22" stroke-opacity="0.36" stroke-width="1.8" stroke-linecap="round"/>
  
</svg>