<svg width="512" height="512" viewBox="0 0 512 512" fill="none" xmlns="http://www.w3.org/2000/svg">
  <rect width="512" height="512" rx="112" fill="#FBF7F0"/>
  <ellipse cx="256" cy="256" rx="138" ry="176" stroke="#D2B790" stroke-width="8"/>
  <path d="M256 102V410" stroke="#D2B790" stroke-width="6" stroke-linecap="round"/>
  <path d="M332 128C307 107 278 96 246 96C170 96 118 150 118 228C118 305 171 360 246 360C277 360 305 350 328 332" stroke="#23282C" stroke-width="15" stroke-linecap="round"/>
  <path d="M214 188C224 181 237 178 251 178C265 178 277 181 287 188" stroke="#5E8791" stroke-width="10" stroke-linecap="round"/>
  <path d="M212 252C224 246 238 243 252 243C267 243 280 246 292 252" stroke="#5E8791" stroke-width="10" stroke-linecap="round"/>
  <path d="M220 316C229 312 240 310 252 310C264 310 274 312 283 316" stroke="#C29A56" stroke-width="9" stroke-linecap="round"/>
</svg>
