<svg width="480" height="480" viewBox="0 0 480 480" fill="none" xmlns="http://www.w3.org/2000/svg">
  <rect width="480" height="480" rx="48" fill="#FBF7F0"/>
  <rect x="36" y="36" width="408" height="408" rx="36" fill="url(#wash)" stroke="rgba(208,194,170,0.5)"/>
  <defs>
    <radialGradient id="wash" cx="0" cy="0" r="1" gradientUnits="userSpaceOnUse" gradientTransform="translate(164 102) rotate(52) scale(352 352)">
      <stop stop-color="rgba(255,255,255,0.9)"/>
      <stop offset="1" stop-color="rgba(242,233,221,0.96)"/>
    </radialGradient>
  </defs>
  
    <ellipse cx="216" cy="240" rx="94" ry="148" stroke="#5A7F88" stroke-opacity="0.24" stroke-width="1.2"/>
    <ellipse cx="264" cy="240" rx="94" ry="148" stroke="#A7775C" stroke-opacity="0.36" stroke-width="1.2"/>
    <path d="M240 122V346" stroke="#201E22" stroke-width="2.6" stroke-linecap="round"/>
    <path d="M204 164C215 154 227 149 240 149C253 149 265 154 276 164C286 174 291 187 291 202C291 217 286 230 276 240C265 250 253 255 240 255C227 255 215 250 204 240C194 230 189 217 189 202C189 187 194 174 204 164Z" stroke="#201E22" stroke-width="2.2"/>
    <path d="M214 284C223 277 232 273 242 273C252 273 262 277 271 284" stroke="#A7775C" stroke-opacity="0.86" stroke-width="1.8" stroke-linecap="round"/>
  
</svg>