<svg width="240" height="240" viewBox="0 0 240 240" fill="none" xmlns="http://www.w3.org/2000/svg">
  <rect width="240" height="240" rx="48" fill="#F7F3EA"/>
  <circle cx="120" cy="120" r="66" stroke="#D8D1C4" stroke-width="1.2"/>
  <path d="M120 70C141.4 70 158 86.6 158 108C158 123.6 147.8 137 133.6 142.8C135.8 148 136.8 153.4 136.8 159C136.8 168.8 132.6 177.2 125 183C137.8 181.8 149 177 158.2 168.4" stroke="#1F262B" stroke-width="2.5" stroke-linecap="round" stroke-linejoin="round"/>
  <path d="M120 70C98.6 70 82 86.6 82 108C82 123.6 92.2 137 106.4 142.8C104.2 148 103.2 153.4 103.2 159C103.2 168.8 107.4 177.2 115 183C102.2 181.8 91 177 81.8 168.4" stroke="#5E8791" stroke-width="2.5" stroke-linecap="round" stroke-linejoin="round"/>
  <path d="M120 90V170" stroke="#C4A060" stroke-width="1.8" stroke-linecap="round"/>
  <path d="M109 117C113.8 113.2 117.8 111.4 120 111.4C122.2 111.4 126.2 113.2 131 117" stroke="#C4A060" stroke-width="1.5" stroke-linecap="round"/>
  <path d="M95 126H106" stroke="#D8D1C4" stroke-width="1.2" stroke-linecap="round"/>
  <path d="M134 126H145" stroke="#D8D1C4" stroke-width="1.2" stroke-linecap="round"/>
</svg>
