<svg width="480" height="480" viewBox="0 0 480 480" fill="none" xmlns="http://www.w3.org/2000/svg">
  <rect width="480" height="480" rx="48" fill="#FBF7F0"/>
  <rect x="36" y="36" width="408" height="408" rx="36" fill="url(#wash)" stroke="rgba(208,194,170,0.5)"/>
  <defs>
    <radialGradient id="wash" cx="0" cy="0" r="1" gradientUnits="userSpaceOnUse" gradientTransform="translate(164 102) rotate(52) scale(352 352)">
      <stop stop-color="rgba(255,255,255,0.9)"/>
      <stop offset="1" stop-color="rgba(242,233,221,0.96)"/>
    </radialGradient>
  </defs>
  
    <path d="M112 250C132 222 155 204 181 196C207 188 231 192 254 208C277 224 295 252 310 291C321 319 334 339 350 351" stroke="#201E22" stroke-width="2.8" stroke-linecap="round"/>
    <path d="M146 318C168 308 188 303 206 303C225 303 243 309 261 321C278 333 292 350 302 374" stroke="#5A7F88" stroke-width="2.1" stroke-linecap="round"/>
    <path d="M126 208H344" stroke="#A7775C" stroke-opacity="0.24" stroke-width="1.2"/>
    <text x="124" y="156" fill="#786C5C" font-family="'DM Sans', Arial, sans-serif" font-size="15" letter-spacing="5">CHAPAI</text>
    <text x="124" y="398" fill="#201E22" font-family="Georgia, 'Times New Roman', serif" font-size="42" letter-spacing="-1">clinical intelligence</text>
  
</svg>