<svg width="480" height="480" viewBox="0 0 480 480" fill="none" xmlns="http://www.w3.org/2000/svg">
  <rect width="480" height="480" rx="48" fill="#FBF7F0"/>
  <rect x="36" y="36" width="408" height="408" rx="36" fill="url(#wash)" stroke="rgba(208,194,170,0.5)"/>
  <defs>
    <radialGradient id="wash" cx="0" cy="0" r="1" gradientUnits="userSpaceOnUse" gradientTransform="translate(164 102) rotate(52) scale(352 352)">
      <stop stop-color="rgba(255,255,255,0.9)"/>
      <stop offset="1" stop-color="rgba(242,233,221,0.96)"/>
    </radialGradient>
  </defs>
  
    <circle cx="236" cy="240" r="136" stroke="rgba(121,111,97,0.18)" stroke-width="1.4"/>
    <ellipse cx="236" cy="240" rx="104" ry="136" stroke="#5A7F88" stroke-opacity="0.22" stroke-width="1.2"/>
    <path d="M236 108V350" stroke="#C19A56" stroke-width="2.2" stroke-linecap="round"/>
    <circle cx="236" cy="132" r="8" fill="#FBF7F0" stroke="#C19A56" stroke-width="1.2"/>
    <path d="M208 178C222 164 238 157 256 157C274 157 290 164 304 178" stroke="#201E22" stroke-width="2.6" stroke-linecap="round"/>
    <path d="M214 222C228 212 244 207 260 207C278 207 294 214 308 226" stroke="#5A7F88" stroke-opacity="0.72" stroke-width="2.1" stroke-linecap="round"/>
    <path d="M222 268C236 258 250 254 266 254C279 254 291 258 301 266" stroke="#C19A56" stroke-opacity="0.68" stroke-width="1.8" stroke-linecap="round"/>
    <path d="M230 314C246 304 260 300 274 300C288 300 301 304 312 312" stroke="#201E22" stroke-opacity="0.38" stroke-width="1.7" stroke-linecap="round"/>
  
</svg>