<svg width="480" height="480" viewBox="0 0 480 480" fill="none" xmlns="http://www.w3.org/2000/svg">
  <rect width="480" height="480" rx="48" fill="#F6F1E7"/>
  <circle cx="240" cy="240" r="168" stroke="#D8CEBF" stroke-width="2"/>
  <ellipse cx="240" cy="240" rx="118" ry="168" stroke="#E6DDD0" stroke-width="1.6"/>
  <path d="M240 92V388" stroke="#C79B5C" stroke-width="2.4" stroke-linecap="round"/>
  <path d="M170 167C188 155 208 149 230 149C249 149 266 154 281 165C296 176 308 191 316 210" stroke="#2A2F33" stroke-width="3.2" stroke-linecap="round"/>
  <path d="M174 244C190 233 208 228 228 228C247 228 264 233 279 243C294 253 306 267 315 285" stroke="#5E7E87" stroke-width="2.8" stroke-linecap="round"/>
  <path d="M182 314C197 307 214 304 232 304C248 304 262 307 275 313" stroke="#C79B5C" stroke-width="2.4" stroke-linecap="round"/>
  <path d="M338 142C321 123 301 108 278 96" stroke="#2A2F33" stroke-width="2.6" stroke-linecap="round"/>
  <circle cx="338" cy="142" r="7" fill="#C79B5C"/>
</svg>
