<svg width="480" height="480" viewBox="0 0 480 480" fill="none" xmlns="http://www.w3.org/2000/svg">
  <rect width="480" height="480" rx="44" fill="#FBF7F0"/>
  <rect x="34" y="34" width="412" height="412" rx="34" fill="#F4ECDE" stroke="rgba(214,201,181,0.6)"/>
  
    <circle cx="246" cy="218" r="112" stroke="rgba(118,108,93,0.18)" stroke-width="1.45"/>
    <ellipse cx="262" cy="218" rx="78" ry="112" stroke="#C39A61" stroke-opacity="0.34" stroke-width="1.18"/>
    <path d="M246 122V336" stroke="#5D8590" stroke-width="2.2" stroke-linecap="round"/>
    <path d="M226 154C239 142 252 136 266 136C281 136 294 142 306 154C318 166 324 181 324 200C324 219 318 234 306 246C294 258 281 264 266 264C252 264 239 258 226 246C214 234 208 219 208 200C208 181 214 166 226 154Z" stroke="#1F2024" stroke-width="2.35"/>
    <path d="M196 280C224 262 240 252 246 250C252 252 268 262 296 280" stroke="#C39A61" stroke-opacity="0.82" stroke-width="1.7" stroke-linecap="round"/>
    <path d="M220 322C232 304 240 292 246 288C252 292 260 304 272 322" stroke="#5D8590" stroke-opacity="0.76" stroke-width="1.75" stroke-linecap="round"/>
  
</svg>