<svg width="520" height="520" viewBox="0 0 520 520" fill="none" xmlns="http://www.w3.org/2000/svg">
    <defs>
      <radialGradient id="wash" cx="0" cy="0" r="1" gradientUnits="userSpaceOnUse" gradientTransform="translate(344 112) rotate(122) scale(430 430)">
        <stop offset="0" stop-color="#fffdf8" stop-opacity="0.98"/>
        <stop offset="0.64" stop-color="#f4ebdb" stop-opacity="0.88"/>
        <stop offset="1" stop-color="#eee4d4" stop-opacity="0.96"/>
      </radialGradient>
    </defs>
    <rect width="520" height="520" rx="54" fill="#FBF7F0"/>
    <rect x="34" y="34" width="452" height="452" rx="40" fill="url(#wash)" stroke="rgba(210,198,179,0.62)"/>
  
      <rect x="96" y="106" width="328" height="96" rx="26" fill="rgba(255,252,247,0.84)" stroke="rgba(208,196,177,0.62)"/>
      <text x="122" y="166" fill="#1F2328" font-family="Source Serif 4, Georgia, serif" font-size="48" font-weight="600" letter-spacing="-2">ChapAI</text>
      <text x="124" y="192" fill="#6F665A" font-family="DM Sans, Arial, sans-serif" font-size="13" letter-spacing="4">SMARTER REVIEW</text>
      
    <g transform="translate(334 282) scale(0.32) translate(-120 -120)">
      <path d="M146 42V98" stroke="#C39A63" stroke-width="3" stroke-linecap="round"/>
      <path d="M146 42C160 28 176 18 194 12" stroke="#C39A63" stroke-width="2.4" stroke-linecap="round"/>
      <path d="M134 42C120 28 106 18 92 12" stroke="#C39A63" stroke-width="2.4" stroke-linecap="round"/>
      <path d="M150 72C176 54 204 46 232 48C260 50 282 64 298 90C314 116 320 144 314 174C308 204 292 228 266 246C240 264 214 286 188 312C166 288 142 268 116 250C90 232 72 210 62 184C52 158 52 132 62 106C72 80 90 62 116 52C142 42 170 48 200 70" stroke="#1F2328" stroke-width="4.4" stroke-linecap="round" stroke-linejoin="round"/>
      <path d="M98 174C120 166 142 160 166 158C190 156 214 160 238 170" stroke="#567A84" stroke-width="2.2" stroke-linecap="round"/>
      <path d="M118 218C142 208 166 204 192 206C218 208 242 218 264 236" stroke="#C39A63" stroke-width="2.1" stroke-linecap="round"/>
    </g>
  
      <path d="M118 344H404" stroke="#C39A63" stroke-opacity="0.28" stroke-width="1.4"/>
      <text x="126" y="384" fill="#6F665A" font-family="DM Sans, Arial, sans-serif" font-size="13" letter-spacing="4">NCLEX + CCRN</text></svg>