<?xml version="1.0" encoding="UTF-8"?>
<svg width="840" height="320" viewBox="0 0 840 320" fill="none" xmlns="http://www.w3.org/2000/svg">
  <rect width="840" height="320" rx="34" fill="#F7F2E8"/>
  <rect x="18" y="18" width="804" height="284" rx="28" fill="#FBF8F2" stroke="#DCCFBD"/>
  <circle cx="128" cy="160" r="108" fill="rgba(255,255,255,0.46)"/>
  <circle cx="128" cy="160" r="92" fill="none" stroke="rgba(195,176,150,0.44)" stroke-width="1.2"/>
  <g transform="translate(32 36)">
    <rect x="0" y="0" width="220" height="248" rx="30" fill="rgba(255,252,247,0.92)" stroke="rgba(210,196,174,0.82)"/>
    <g transform="translate(6 12)">
      
      <path d="M191 64C171 46 149 37 128 37C90 37 58 69 58 117C58 165 90 197 128 197C149 197 171 188 191 170" fill="none" stroke="rgba(28, 26, 23, 0.94)" stroke-width="4.4" stroke-linecap="round"/>
      <path d="M79 87C94 93 110 101 128 117C144 131 160 145 178 158" fill="none" stroke="#B9875A" stroke-width="3" stroke-linecap="round"/>
      <path d="M78 145C98 138 116 132 130 125C147 116 164 103 179 87" fill="none" stroke="#7A9AA1" stroke-width="2.2" stroke-linecap="round"/>
      <circle cx="128" cy="117" r="5" fill="#FFF9F1" stroke="#B9875A" stroke-width="1.6"/>
    
    </g>
  </g>
  <g transform="translate(300 76)">
    <text x="0" y="20" fill="rgba(111, 98, 83, 0.78)" font-family="'DM Sans', Arial, sans-serif" font-size="13" font-weight="700" letter-spacing="4">CHAPAI CLARITY</text>
    <text x="0" y="90" fill="rgba(28, 26, 23, 0.94)" font-family="'Source Serif 4', Georgia, serif" font-size="82" font-weight="600" letter-spacing="-4">ChapAI</text>
    <text x="2" y="132" fill="rgba(111, 98, 83, 0.78)" font-family="'DM Sans', Arial, sans-serif" font-size="16" font-weight="700" letter-spacing="4">NCLEX + CCRN</text>
    <path d="M0 154H224" stroke="rgba(202,188,168,0.7)" stroke-width="1.4"/>
    <text x="0" y="188" fill="#A86F56" font-family="'DM Sans', Arial, sans-serif" font-size="12" font-weight="800" letter-spacing="3">VESSEL</text>
    <text x="0" y="218" fill="rgba(28, 26, 23, 0.94)" font-family="'DM Sans', Arial, sans-serif" font-size="21" font-weight="500">Vessel editorial wordmark</text>
    <text x="0" y="248" fill="rgba(111, 98, 83, 0.78)" font-family="'DM Sans', Arial, sans-serif" font-size="15" font-weight="500">C-shaped vessel network</text>
  </g>
</svg>