<svg width="1600" height="960" viewBox="0 0 1600 960" fill="none" xmlns="http://www.w3.org/2000/svg">
    <defs>
      <radialGradient id="paper-wash" cx="0" cy="0" r="1" gradientUnits="userSpaceOnUse" gradientTransform="translate(1180 420) rotate(90) scale(420 420)">
        <stop offset="0" stop-color="#FFFDF8" />
        <stop offset="0.4" stop-color="#F2EBDD" />
        <stop offset="1" stop-color="#FBF7F0" />
      </radialGradient>
      <radialGradient id="bleed-wash" cx="0" cy="0" r="1" gradientUnits="userSpaceOnUse" gradientTransform="translate(1260 446) rotate(90) scale(360 360)">
        <stop offset="0" stop-color="#fffaf2" stop-opacity="0.98" />
        <stop offset="0.52" stop-color="#E9DBC7" stop-opacity="0.56" />
        <stop offset="1" stop-color="#E9DBC7" stop-opacity="0" />
      </radialGradient>
    </defs>
    <rect width="1600" height="960" fill="#FBF7F0" />
    
    
    <rect x="108" y="68" width="1388" height="84" rx="42" fill="rgba(255,252,247,0.9)" stroke="rgba(213,198,175,0.56)"/>
    <text x="156" y="122" fill="#1F1F21" font-family="'Source Serif 4', Georgia, serif" font-size="38" font-weight="600" letter-spacing="-2">ChapAI</text>
    <text x="1170" y="120" fill="#766D61" font-family="'DM Sans', Arial, sans-serif" font-size="20" font-weight="600">CCRN</text>
    <text x="1252" y="120" fill="#766D61" font-family="'DM Sans', Arial, sans-serif" font-size="20" font-weight="600">NCLEX</text>
    <text x="1340" y="120" fill="#766D61" font-family="'DM Sans', Arial, sans-serif" font-size="20" font-weight="600">PLANS</text>
    <rect x="1388" y="88" width="102" height="44" rx="22" fill="rgba(255,250,243,0.96)" stroke="rgba(212,197,173,0.56)"/>
    <text x="1420" y="117" fill="#1F1F21" font-family="'DM Sans', Arial, sans-serif" font-size="20" font-weight="700">SPRINT</text>
  
    
    <text x="148" y="194" fill="#766D61" font-family="'DM Sans', Arial, sans-serif" font-size="15" font-weight="700" letter-spacing="4">PREMIUM MEDICAL PREP</text>
    <text x="148" y="292" fill="#1F1F21" font-family="'DM Sans', Arial, sans-serif" font-size="96" font-weight="500" letter-spacing="-7">Clinical prep</text>
    <text x="148" y="382" fill="#1F1F21" font-family="'DM Sans', Arial, sans-serif" font-size="96" font-weight="500" letter-spacing="-7">with a steadier</text>
    <text x="148" y="472" fill="#1F1F21" font-family="'DM Sans', Arial, sans-serif" font-size="96" font-weight="500" letter-spacing="-7">pulse.</text>
    <text x="148" y="556" fill="#766D61" font-family="'DM Sans', Arial, sans-serif" font-size="30">Original questions, AI tutor guidance, and cleaner clinical review.</text>
    <rect x="148" y="620" width="236" height="64" rx="32" fill="#5A7F88"/>
    <text x="192" y="660" fill="#fff" font-family="'DM Sans', Arial, sans-serif" font-size="25" font-weight="700">Start the $10 sprint</text>
    <rect x="402" y="620" width="190" height="64" rx="32" fill="rgba(255,252,247,0.92)" stroke="rgba(203,187,162,0.62)"/>
    <text x="454" y="660" fill="#1F1F21" font-family="'DM Sans', Arial, sans-serif" font-size="24" font-weight="600">See plans</text>
    <text x="148" y="742" fill="#766D61" font-family="'DM Sans', Arial, sans-serif" font-size="14" font-weight="700" letter-spacing="4">AI TUTOR + LIVE BANK + VISUAL RATIONALE</text>
    <path d="M148 770H660" stroke="rgba(209,194,170,0.62)"/>
  
    
    <path d="M786 152C910 130 1044 128 1188 144C1334 160 1472 196 1602 252C1718 302 1824 372 1920 462" stroke="rgba(92,104,110,0.15)" stroke-width="1.18" fill="none" stroke-linecap="round"/>
    <path d="M748 324C882 300 1018 302 1156 320C1296 338 1430 374 1558 432C1680 488 1794 572 1900 682" stroke="rgba(92,104,110,0.1)" stroke-width="1.08" fill="none" stroke-linecap="round"/>
    <path d="M764 548C906 520 1050 522 1196 542C1340 562 1478 602 1610 666C1728 722 1840 810 1946 932" stroke="rgba(92,104,110,0.12)" stroke-width="1.12" fill="none" stroke-linecap="round"/>
    <path d="M1000 92C1034 236 1060 386 1078 542C1094 704 1102 862 1102 1014" stroke="rgba(92,104,110,0.08)" stroke-width="1.04" fill="none" stroke-linecap="round"/>
    <path d="M1214 86C1216 236 1222 386 1232 538C1244 690 1262 850 1286 1014" stroke="rgba(92,104,110,0.14)" stroke-width="1.04" fill="none" stroke-linecap="round"/>
  
    
    <path d="M714 612H936L980 566L1038 684L1106 438L1154 632L1204 596H1392" stroke="#5A7F88" stroke-width="2.34" fill="none" stroke-linecap="round" stroke-linejoin="round"/>
    <path d="M1008 176C952 186 904 216 862 266C822 316 798 378 790 452C784 526 794 598 820 668C846 738 888 804 946 866C1004 928 1068 984 1138 1034C1210 998 1282 948 1354 884C1428 818 1488 748 1534 674C1582 598 1608 520 1612 440C1616 364 1600 302 1564 254C1528 206 1482 174 1426 158C1370 142 1310 148 1246 176C1184 204 1126 256 1070 332C1034 256 998 204 960 176" fill="url(#bleed-wash)" opacity="0.94"/>
    <path d="M1032 214C986 188 938 178 888 182C836 186 796 216 768 272C740 328 734 396 748 476C764 556 800 632 856 704C912 776 990 856 1090 944" stroke="rgba(24,22,20,0.92)" stroke-width="2.86" fill="none" stroke-linecap="round" stroke-linejoin="round"/>
    <path d="M1070 332C1118 258 1170 210 1228 188C1288 166 1348 170 1408 196C1468 222 1516 264 1552 322C1590 380 1608 446 1606 520C1604 596 1580 668 1534 736C1488 806 1424 878 1340 948C1280 1000 1214 1044 1142 1080" stroke="rgba(24,22,20,0.92)" stroke-width="2.86" fill="none" stroke-linecap="round" stroke-linejoin="round"/>
    <path d="M1138 256C1138 346 1148 432 1164 516C1180 600 1186 684 1180 770" stroke="#C59B5E" stroke-width="2" fill="none" stroke-linecap="round"/>
    <path d="M1052 308C1002 300 956 308 914 336" stroke="#B67F67" stroke-width="1.76" fill="none" stroke-linecap="round"/>
    <path d="M1078 392C1024 414 978 452 940 506" stroke="#C59B5E" stroke-width="1.72" fill="none" stroke-linecap="round"/>
    <path d="M1096 486C1052 532 1020 586 1000 648" stroke="#5A7F88" stroke-width="1.68" fill="none" stroke-linecap="round"/>
    <path d="M1154 308C1206 296 1254 304 1298 332" stroke="#B67F67" stroke-width="1.76" fill="none" stroke-linecap="round"/>
    <path d="M1170 392C1224 392 1276 416 1326 462" stroke="#C59B5E" stroke-width="1.72" fill="none" stroke-linecap="round"/>
    <path d="M1180 484C1228 522 1268 570 1300 628" stroke="#5A7F88" stroke-width="1.68" fill="none" stroke-linecap="round"/>
  
    <text x="148" y="840" fill="#766D61" font-family="'DM Sans', Arial, sans-serif" font-size="14" font-weight="700" letter-spacing="4">CURRENT ANGLE</text>
    <text x="148" y="886" fill="#1F1F21" font-family="'Source Serif 4', Georgia, serif" font-size="38" font-weight="600">Coronary continuum</text>
  
  </svg>