<svg width="512" height="512" viewBox="0 0 512 512" fill="none" xmlns="http://www.w3.org/2000/svg">
  <rect width="512" height="512" rx="112" fill="#FAF5EE"/>
  <circle cx="256" cy="256" r="166" stroke="#D3B892" stroke-width="8"/>
  <path d="M256 90V422" stroke="#D3B892" stroke-width="6" stroke-linecap="round"/>
  <g transform="translate(224 120)">
    <path d="M50 13C59 9 67 10 74 16C80 22 83 30 82 39C81 47 76 53 68 58C60 63 51 64 43 61C35 57 30 52 27 44C24 36 24 28 28 21C32 16 39 13 50 13Z" stroke="#22282C" stroke-width="10" stroke-linecap="round"/>
    <path d="M63 61C71 69 76 79 79 91C82 104 82 117 78 132C72 158 69 184 69 212C69 241 73 268 82 294" stroke="#22282C" stroke-width="10" stroke-linecap="round"/>
    <path d="M58 74C50 93 40 109 29 123C18 138 7 151 -4 163" stroke="#22282C" stroke-width="10" stroke-linecap="round"/>
    <path d="M70 79C86 73 102 64 120 51C134 41 147 31 158 21" stroke="#22282C" stroke-width="10" stroke-linecap="round"/>
    <path d="M72 132C81 136 89 142 96 151C103 160 108 169 111 181" stroke="#5E8791" stroke-width="7" stroke-linecap="round"/>
    <path d="M72 157C81 161 88 168 95 178C101 188 106 198 109 210" stroke="#5E8791" stroke-width="7" stroke-linecap="round"/>
    <path d="M69 295C63 322 54 350 43 380" stroke="#22282C" stroke-width="10" stroke-linecap="round"/>
    <path d="M82 293C93 322 105 350 118 379" stroke="#22282C" stroke-width="10" stroke-linecap="round"/>
  </g>
  <path d="M168 154H90" stroke="#C29A56" stroke-width="7" stroke-linecap="round"/>
  <path d="M177 214H82" stroke="#C29A56" stroke-width="6" stroke-linecap="round"/>
  <path d="M185 308H100" stroke="#C29A56" stroke-width="6" stroke-linecap="round"/>
</svg>
