<svg width="480" height="480" viewBox="0 0 480 480" fill="none" xmlns="http://www.w3.org/2000/svg">
  <rect width="480" height="480" rx="48" fill="#FBF7F0"/>
  <rect x="36" y="36" width="408" height="408" rx="36" fill="url(#wash)" stroke="rgba(208,194,170,0.5)"/>
  <defs>
    <radialGradient id="wash" cx="0" cy="0" r="1" gradientUnits="userSpaceOnUse" gradientTransform="translate(164 102) rotate(52) scale(352 352)">
      <stop stop-color="rgba(255,255,255,0.9)"/>
      <stop offset="1" stop-color="rgba(242,233,221,0.96)"/>
    </radialGradient>
  </defs>
  
    <path d="M236 118C258 118 276 125 290 140C303 155 310 173 310 195C310 217 303 235 290 250C276 265 259 272 240 272C221 272 204 265 191 251C178 237 171 220 171 200C171 180 177 163 190 148C203 133 219 123 236 118Z" stroke="#201E22" stroke-width="2.3"/>
    <path d="M242 270C258 296 267 324 268 355C269 386 264 420 252 457C240 494 233 532 232 573C231 615 236 656 248 696" stroke="#201E22" stroke-width="2.3" stroke-linecap="round"/>
    <path d="M238 292C212 315 190 343 171 375C152 407 138 440 130 474" stroke="#5A7F88" stroke-opacity="0.82" stroke-width="1.8" stroke-linecap="round"/>
    <path d="M252 286C280 301 305 322 328 349C351 376 369 404 384 435" stroke="#C19A56" stroke-opacity="0.84" stroke-width="1.8" stroke-linecap="round"/>
    <path d="M214 192C224 180 234 174 246 174C258 174 269 180 280 192" stroke="#C19A56" stroke-width="1.7" stroke-linecap="round"/>
    <path d="M122 414H380" stroke="rgba(121,111,97,0.16)" stroke-width="1.1"/>
  
</svg>