<svg width="512" height="512" viewBox="0 0 512 512" fill="none" xmlns="http://www.w3.org/2000/svg">
  <rect width="512" height="512" rx="112" fill="#FCF8F1"/>
  <ellipse cx="256" cy="256" rx="148" ry="172" stroke="#C9B08A" stroke-width="8"/>
  <path d="M256 92V420" stroke="#C9B08A" stroke-width="6" stroke-linecap="round"/>
  <path d="M346 126C319 103 287 92 250 92C169 92 112 150 112 230C112 306 165 362 238 362C278 362 313 350 342 325" stroke="#212529" stroke-width="16" stroke-linecap="round"/>
  <path d="M203 180C218 169 235 164 253 164C270 164 286 169 299 180C313 191 323 207 329 228" stroke="#5E8791" stroke-width="12" stroke-linecap="round"/>
  <path d="M210 258C223 247 238 242 255 242C271 242 285 246 297 256C308 265 317 278 323 294" stroke="#5E8791" stroke-width="12" stroke-linecap="round"/>
  <path d="M219 328C230 321 243 318 258 318C272 318 284 321 295 327" stroke="#C29A56" stroke-width="10" stroke-linecap="round"/>
</svg>
