<svg width="1600" height="960" viewBox="0 0 1600 960" fill="none" xmlns="http://www.w3.org/2000/svg">
  <rect width="1600" height="960" fill="#FBF7F0"/>
  <defs>
    <radialGradient id="paper-wash" cx="0" cy="0" r="1" gradientUnits="userSpaceOnUse" gradientTransform="translate(1216 326.40000000000003) rotate(90) scale(422.4 422.4)">
      <stop offset="0" stop-color="#fffdf7"/>
      <stop offset="0.5" stop-color="#F3EBDD"/>
      <stop offset="1" stop-color="#FBF7F0"/>
    </radialGradient>
    <radialGradient id="bleed-wash" cx="0" cy="0" r="1" gradientUnits="userSpaceOnUse" gradientTransform="translate(1200 364.8) rotate(90) scale(249.60000000000002 249.60000000000002)">
      <stop offset="0" stop-color="#fffaf1" stop-opacity="0.95"/>
      <stop offset="0.5" stop-color="#E9DCCA" stop-opacity="0.58"/>
      <stop offset="1" stop-color="#E9DCCA" stop-opacity="0"/>
    </radialGradient>
  </defs>
  <rect x="26" y="26" width="1548" height="908" rx="28" fill="url(#paper-wash)" stroke="rgba(203,188,164,0.38)"/>
  
    
    <rect x="110" y="70" width="1380" height="82" rx="41" fill="rgba(255,252,247,0.84)" stroke="rgba(212,197,173,0.52)"/>
    <text x="182" y="120" fill="#1F1F21" font-family="'Source Serif 4', Georgia, serif" font-size="38" font-weight="600" letter-spacing="-2">ChapAI</text>
    <text x="1106" y="120" fill="#7A7064" font-family="'DM Sans', Arial, sans-serif" font-size="20" font-weight="600">CCRN</text>
    <text x="1190" y="120" fill="#7A7064" font-family="'DM Sans', Arial, sans-serif" font-size="20" font-weight="600">NCLEX</text>
    <text x="1284" y="120" fill="#7A7064" font-family="'DM Sans', Arial, sans-serif" font-size="20" font-weight="600">PLANS</text>
    <rect x="1348" y="90" width="114" height="44" rx="22" fill="rgba(255,250,243,0.96)" stroke="rgba(212,197,173,0.54)"/>
    <text x="1383" y="118" fill="#1F1F21" font-family="'DM Sans', Arial, sans-serif" font-size="20" font-weight="700">SPRINT</text>
  
    
    <text x="154" y="192" fill="#7A7064" font-family="'DM Sans', Arial, sans-serif" font-size="15" font-weight="700" letter-spacing="5">CORONARY ATLAS / PREMIUM MEDICAL SURFACE</text>
    <text x="154" y="282" fill="#1F1F21" font-family="'DM Sans', Arial, sans-serif" font-size="94" font-weight="500" letter-spacing="-7">Premium prep</text>
    <text x="154" y="372" fill="#1F1F21" font-family="'DM Sans', Arial, sans-serif" font-size="94" font-weight="500" letter-spacing="-7">with clearer</text>
    <text x="154" y="462" fill="#1F1F21" font-family="'DM Sans', Arial, sans-serif" font-size="94" font-weight="500" letter-spacing="-7">clinical signals.</text>
    <text x="154" y="546" fill="#7A7064" font-family="'DM Sans', Arial, sans-serif" font-size="30">Original questions, elite rationale, and a direct path into the right plan.</text>
    <rect x="154" y="610" width="232" height="64" rx="32" fill="#587E87"/>
    <text x="194" y="650" fill="#fff" font-family="'DM Sans', Arial, sans-serif" font-size="25" font-weight="700">Start the $10 sprint</text>
    <rect x="404" y="610" width="196" height="64" rx="32" fill="rgba(255,252,247,0.88)" stroke="rgba(194,178,154,0.62)"/>
    <text x="454" y="650" fill="#1F1F21" font-family="'DM Sans', Arial, sans-serif" font-size="24" font-weight="600">See plans</text>
    <text x="154" y="738" fill="#7A7064" font-family="'DM Sans', Arial, sans-serif" font-size="14" font-weight="700" letter-spacing="4">AI TUTOR + VISUAL RATIONALE + CLEAN CLINICAL FLOW</text>
    <path d="M154 766H654" stroke="rgba(212,197,173,0.62)"/>
  
    
    <path d="M760 212C902 134 1044 100 1188 108C1324 116 1456 154 1584 224C1668 270 1732 322 1778 380" stroke="rgba(88,126,135,0.2)" stroke-width="1.4" fill="none" stroke-linecap="round"/>
    <path d="M724 420C874 334 1030 296 1194 304C1360 312 1514 354 1656 436C1742 486 1810 544 1858 608" stroke="rgba(88,126,135,0.12)" stroke-width="1.1" fill="none" stroke-linecap="round"/>
    <path d="M814 684C946 632 1074 610 1200 618C1328 626 1450 664 1566 732C1642 776 1702 826 1746 884" stroke="rgba(88,126,135,0.18)" stroke-width="1.34" fill="none" stroke-linecap="round"/>
    <path d="M1046 84C1052 234 1064 390 1076 548C1088 706 1110 844 1142 952" stroke="rgba(88,126,135,0.1)" stroke-width="1.1" fill="none" stroke-linecap="round"/>
    <path d="M1214 66C1218 226 1228 384 1242 542C1256 700 1282 838 1318 946" stroke="rgba(88,126,135,0.18)" stroke-width="1.22" fill="none" stroke-linecap="round"/>
    <path d="M1388 88C1358 214 1328 348 1298 490C1270 632 1246 780 1228 948" stroke="rgba(88,126,135,0.1)" stroke-width="1.04" fill="none" stroke-linecap="round"/>
  
    
    <path d="M1256 267.84000000000003C1221.44 210.24 1163.84 181.44 1090.88 185.28C1017.92 191.04 964.16 235.2 935.36 300.48C908.48 365.76 914.24 440.64 952.64 525.12C991.04 609.5999999999999 1054.4 694.0799999999999 1142.72 776.64C1227.2 855.36 1288.6399999999999 909.12 1328.96 937.92C1367.3600000000001 912.9599999999999 1428.8 864.9599999999999 1511.36 790.0799999999999C1593.92 715.1999999999999 1647.6799999999998 638.4 1670.72 559.6800000000001C1695.6799999999998 479.03999999999996 1691.84 406.08 1657.28 340.79999999999995C1622.72 275.52 1565.12 229.44 1484.48 210.24C1403.84 191.04 1327.04 210.24 1256 267.84000000000003Z" fill="url(#bleed-wash)" opacity="0.88"/>
    <path d="M1254.08 288.96C1221.44 248.64 1175.36 229.44 1115.84 233.28C1056.32 237.12 1014.08 269.76 991.04 319.68C969.92 371.52 973.76 431.03999999999996 1004.48 496.32C1033.28 561.5999999999999 1092.8 630.72 1181.12 705.6C1256 768.9599999999999 1307.84 813.12 1338.56 840C1373.12 818.88 1426.88 774.72 1499.84 703.68C1572.8 632.64 1616.96 565.44 1636.1599999999999 502.08C1655.3600000000001 438.71999999999997 1653.44 383.03999999999996 1626.56 331.2C1597.76 279.36 1549.76 242.88 1484.48 231.36C1419.2 219.84 1342.4 239.04 1254.08 288.96Z" stroke="rgba(31,31,29,0.86)" stroke-width="2.4" fill="none" stroke-linejoin="round"/>
    <path d="M1338.56 294.72V790.0799999999999" stroke="#C59858" stroke-width="1.8239999999999998" stroke-linecap="round"/>
    <path d="M1338.56 336.96C1286.72 321.6 1238.72 325.44 1194.56 350.4" stroke="#587E87" stroke-width="1.632" fill="none" stroke-linecap="round"/>
    <path d="M1338.56 336.96C1392.32 321.6 1442.24 327.36 1488.32 356.15999999999997" stroke="#587E87" stroke-width="1.632" fill="none" stroke-linecap="round"/>
    <path d="M1338.56 425.28C1269.44 448.32 1213.76 484.8 1171.52 534.72" stroke="#C59858" stroke-width="1.6703999999999999" fill="none" stroke-linecap="round"/>
    <path d="M1338.56 425.28C1407.68 448.32 1467.2 486.71999999999997 1515.2 544.3199999999999" stroke="#C59858" stroke-width="1.6703999999999999" fill="none" stroke-linecap="round"/>
    <path d="M1338.56 542.4C1286.72 596.16 1250.24 653.76 1231.04 717.12" stroke="#587E87" stroke-width="1.632" fill="none" stroke-linecap="round"/>
    <path d="M1338.56 542.4C1392.32 596.16 1432.6399999999999 653.76 1463.36 717.12" stroke="#587E87" stroke-width="1.632" fill="none" stroke-linecap="round"/>
    <circle cx="1338.56" cy="425.28" r="6.912" fill="#FBF7F0" stroke="#C59858" stroke-width="1.056"/>
  
    <text x="154" y="842" fill="#7A7064" font-family="'DM Sans', Arial, sans-serif" font-size="14" font-weight="700" letter-spacing="4">CURRENT ANGLE</text>
    <text x="154" y="888" fill="#1F1F21" font-family="'Source Serif 4', Georgia, serif" font-size="38" font-weight="600">Coronary atlas</text>
  
</svg>