<svg width="1600" height="520" viewBox="0 0 1600 520" fill="none" xmlns="http://www.w3.org/2000/svg">
    <defs>
      <radialGradient id="paper-wash" cx="0" cy="0" r="1" gradientUnits="userSpaceOnUse" gradientTransform="translate(1180 420) rotate(90) scale(420 420)">
        <stop offset="0" stop-color="#FFFDF8" />
        <stop offset="0.4" stop-color="#F2EBDD" />
        <stop offset="1" stop-color="#FBF7F0" />
      </radialGradient>
      <radialGradient id="bleed-wash" cx="0" cy="0" r="1" gradientUnits="userSpaceOnUse" gradientTransform="translate(1260 446) rotate(90) scale(360 360)">
        <stop offset="0" stop-color="#fffaf2" stop-opacity="0.98" />
        <stop offset="0.52" stop-color="#E9DBC7" stop-opacity="0.56" />
        <stop offset="1" stop-color="#E9DBC7" stop-opacity="0" />
      </radialGradient>
    </defs>
    <rect width="1600" height="520" fill="#FBF7F0" />
    
    <rect x="42" y="42" width="1516" height="434" rx="34" fill="rgba(255,252,247,0.9)" stroke="rgba(212,197,173,0.52)"/>
    <text x="112" y="164" fill="#1F1F21" font-family="'Source Serif 4', Georgia, serif" font-size="70" font-weight="600" letter-spacing="-3">ChapAI</text>
    <text x="112" y="224" fill="#766D61" font-family="'DM Sans', Arial, sans-serif" font-size="18" font-weight="700" letter-spacing="5">NCLEX + CCRN / CLEANER CLINICAL PREP</text>
    <text x="112" y="294" fill="#1F1F21" font-family="'DM Sans', Arial, sans-serif" font-size="48" font-weight="500" letter-spacing="-3">Original questions. Better bedside reasoning.</text>
    <text x="112" y="350" fill="#766D61" font-family="'DM Sans', Arial, sans-serif" font-size="25">AI tutor, visual rationale, and a calmer package path.</text>
    
    <path d="M786 152C910 130 1044 128 1188 144C1334 160 1472 196 1602 252C1718 302 1824 372 1920 462" stroke="rgba(92,104,110,0.15)" stroke-width="1.18" fill="none" stroke-linecap="round"/>
    <path d="M748 324C882 300 1018 302 1156 320C1296 338 1430 374 1558 432C1680 488 1794 572 1900 682" stroke="rgba(92,104,110,0.1)" stroke-width="1.08" fill="none" stroke-linecap="round"/>
    <path d="M764 548C906 520 1050 522 1196 542C1340 562 1478 602 1610 666C1728 722 1840 810 1946 932" stroke="rgba(92,104,110,0.12)" stroke-width="1.12" fill="none" stroke-linecap="round"/>
    <path d="M1000 92C1034 236 1060 386 1078 542C1094 704 1102 862 1102 1014" stroke="rgba(92,104,110,0.08)" stroke-width="1.04" fill="none" stroke-linecap="round"/>
    <path d="M1214 86C1216 236 1222 386 1232 538C1244 690 1262 850 1286 1014" stroke="rgba(92,104,110,0.14)" stroke-width="1.04" fill="none" stroke-linecap="round"/>
  
    
    <path d="M982 236C928 292 894 356 880 428C866 500 874 586 904 686C936 784 980 870 1038 944C1090 892 1128 842 1154 792C1180 742 1196 658 1202 540C1208 420 1196 328 1166 266C1134 204 1072 194 982 236Z" fill="url(#bleed-wash)" opacity="0.9"/>
    <path d="M1534 236C1588 292 1622 356 1636 428C1650 500 1642 586 1612 686C1580 784 1536 870 1478 944C1426 892 1388 842 1362 792C1336 742 1320 658 1314 540C1308 420 1320 328 1350 266C1382 204 1444 194 1534 236Z" fill="url(#bleed-wash)" opacity="0.9"/>
    <path d="M982 236C928 292 894 356 880 428C866 500 874 586 904 686C936 784 980 870 1038 944" stroke="rgba(24,22,20,0.9)" stroke-width="2.76" fill="none"/>
    <path d="M1534 236C1588 292 1622 356 1636 428C1650 500 1642 586 1612 686C1580 784 1536 870 1478 944" stroke="rgba(24,22,20,0.9)" stroke-width="2.76" fill="none"/>
    <path d="M1276 198V912" stroke="#C59B5E" stroke-width="2" stroke-linecap="round"/>
    <path d="M1276 252C1218 296 1168 348 1126 406" stroke="#5A7F88" stroke-width="1.8" fill="none" stroke-linecap="round"/>
    <path d="M1276 252C1334 296 1384 348 1426 406" stroke="#5A7F88" stroke-width="1.8" fill="none" stroke-linecap="round"/>
    <path d="M1126 406C1078 454 1044 510 1024 574" stroke="#C59B5E" stroke-width="1.72" fill="none" stroke-linecap="round"/>
    <path d="M1426 406C1474 454 1508 510 1528 574" stroke="#C59B5E" stroke-width="1.72" fill="none" stroke-linecap="round"/>
    <path d="M1276 470C1250 528 1230 590 1218 656" stroke="#5A7F88" stroke-width="1.66" fill="none" stroke-linecap="round"/>
    <path d="M1276 470C1302 528 1322 590 1334 656" stroke="#5A7F88" stroke-width="1.66" fill="none" stroke-linecap="round"/>
  
  
  </svg>