<svg width="1600" height="520" viewBox="0 0 1600 520" fill="none" xmlns="http://www.w3.org/2000/svg">
  <rect width="1600" height="520" fill="#FBF7F0"/>
  <rect x="26" y="26" width="1548" height="468" rx="28" fill="url(#page-wash)" stroke="rgba(195,178,154,0.36)"/>
  <defs>
    <radialGradient id="page-wash" cx="0" cy="0" r="1" gradientUnits="userSpaceOnUse" gradientTransform="translate(1088 166.4) rotate(90) scale(249.6 249.6)">
      <stop offset="0" stop-color="#fffdf8"/>
      <stop offset="0.68" stop-color="#F4EEE3"/>
      <stop offset="1" stop-color="#F4EEE3"/>
    </radialGradient>
    <radialGradient id="bleed" cx="0" cy="0" r="1" gradientUnits="userSpaceOnUse" gradientTransform="translate(1216 197.6) rotate(90) scale(176.8 176.8)">
      <stop offset="0" stop-color="rgba(255,253,248,0.96)"/>
      <stop offset="0.62" stop-color="rgba(239,226,206,0.56)"/>
      <stop offset="1" stop-color="rgba(239,226,206,0)"/>
    </radialGradient>
  </defs>
  
    <rect x="46" y="46" width="1508" height="428" rx="34" fill="rgba(255,252,247,0.88)" stroke="rgba(212,197,173,0.52)"/>
    <text x="118" y="180" fill="#201F21" font-family="'Source Serif 4', Georgia, serif" font-size="72" font-weight="600" letter-spacing="-3">ChapAI</text>
    <text x="118" y="240" fill="#7D705F" font-family="'DM Sans', Arial, sans-serif" font-size="18" font-weight="700" letter-spacing="5">NCLEX + CCRN / CLEANER CLINICAL PREP</text>
    <text x="118" y="318" fill="#201F21" font-family="'DM Sans', Arial, sans-serif" font-size="50" font-weight="500" letter-spacing="-3">Original questions. Elite rationale.</text>
    <text x="118" y="374" fill="#7D705F" font-family="'DM Sans', Arial, sans-serif" font-size="26">AI tutor, visual guidance, and a faster path into the right plan.</text>
    
    <ellipse cx="1001.9200000000001" cy="249.36" rx="91.84" ry="134.4" fill="url(#bleed)" opacity="0.58"/>
    <ellipse cx="1147.52" cy="249.36" rx="91.84" ry="134.4" fill="url(#bleed)" opacity="0.58"/>
    <ellipse cx="1001.9200000000001" cy="254.96" rx="94.08000000000001" ry="136.64000000000001" stroke="rgba(31,31,29,0.82)" stroke-width="1.344"/>
    <ellipse cx="1147.52" cy="254.96" rx="94.08000000000001" ry="136.64000000000001" stroke="rgba(31,31,29,0.82)" stroke-width="1.344"/>
    <path d="M1074.72 112.72V418.48" stroke="#C49758" stroke-width="1.2320000000000002" stroke-linecap="round"/>
    <path d="M1074.72 144.08C1046.72 159.76 1025.44 179.92000000000002 1010.88 205.68" stroke="#7F8F79" stroke-width="1.12" stroke-linecap="round"/>
    <path d="M1074.72 144.08C1102.72 159.76 1124 179.92000000000002 1138.56 205.68" stroke="#7F8F79" stroke-width="1.12" stroke-linecap="round"/>
    <path d="M1010.88 205.68C985.12 216.88000000000002 966.08 233.68 952.64 256.08000000000004" stroke="#C49758" stroke-width="1.0080000000000002" stroke-linecap="round"/>
    <path d="M1010.88 205.68C994.08 233.68 981.76 265.04 973.92 298.64" stroke="#C49758" stroke-width="1.0080000000000002" stroke-linecap="round"/>
    <path d="M1138.56 205.68C1164.3200000000002 216.88000000000002 1183.3600000000001 233.68 1196.8 256.08000000000004" stroke="#C49758" stroke-width="1.0080000000000002" stroke-linecap="round"/>
    <path d="M1138.56 205.68C1155.3600000000001 233.68 1167.68 265.04 1175.52 298.64" stroke="#C49758" stroke-width="1.0080000000000002" stroke-linecap="round"/>
    <path d="M1074.72 202.32C1056.8 248.24 1048.96 298.64 1051.2 353.52000000000004" stroke="rgba(31,31,29,0.68)" stroke-width="1.12" stroke-linecap="round"/>
    <path d="M1074.72 202.32C1092.64 248.24 1100.48 298.64 1098.24 353.52000000000004" stroke="rgba(31,31,29,0.68)" stroke-width="1.12" stroke-linecap="round"/>
  
  
</svg>