<svg width="480" height="480" viewBox="0 0 480 480" fill="none" xmlns="http://www.w3.org/2000/svg">
  <rect width="480" height="480" rx="48" fill="#FBF7F0"/>
  <rect x="36" y="36" width="408" height="408" rx="36" fill="url(#wash)" stroke="rgba(208,194,170,0.5)"/>
  <defs>
    <radialGradient id="wash" cx="0" cy="0" r="1" gradientUnits="userSpaceOnUse" gradientTransform="translate(164 102) rotate(52) scale(352 352)">
      <stop stop-color="rgba(255,255,255,0.9)"/>
      <stop offset="1" stop-color="rgba(242,233,221,0.96)"/>
    </radialGradient>
  </defs>
  
    <circle cx="240" cy="240" r="132" stroke="rgba(121,111,97,0.16)" stroke-width="1.4"/>
    <ellipse cx="240" cy="240" rx="110" ry="132" stroke="#5A7F88" stroke-opacity="0.2" stroke-width="1.15"/>
    <path d="M190 170C205 156 222 149 240 149C258 149 275 156 290 170C306 185 314 202 314 223C314 244 306 261 290 276C275 291 258 299 240 299C222 299 205 291 190 276C174 261 166 244 166 223C166 202 174 185 190 170Z" stroke="#201E22" stroke-width="2.5" stroke-linejoin="round"/>
    <path d="M214 212C223 201 232 195 240 195C248 195 257 201 266 212C274 223 278 235 278 249C278 263 274 275 266 286" stroke="#C19A56" stroke-width="2" stroke-linecap="round"/>
    <path d="M214 286C206 275 202 263 202 249C202 235 206 223 214 212" stroke="#C19A56" stroke-width="2" stroke-linecap="round"/>
    <path d="M240 126V356" stroke="#5A7F88" stroke-opacity="0.66" stroke-width="1.9" stroke-linecap="round"/>
  
</svg>