<svg width="480" height="480" viewBox="0 0 480 480" fill="none" xmlns="http://www.w3.org/2000/svg">
  <rect width="480" height="480" rx="48" fill="#FBF7F0"/>
  <rect x="36" y="36" width="408" height="408" rx="36" fill="url(#wash)" stroke="rgba(208,194,170,0.5)"/>
  <defs>
    <radialGradient id="wash" cx="0" cy="0" r="1" gradientUnits="userSpaceOnUse" gradientTransform="translate(164 102) rotate(52) scale(352 352)">
      <stop stop-color="rgba(255,255,255,0.9)"/>
      <stop offset="1" stop-color="rgba(242,233,221,0.96)"/>
    </radialGradient>
  </defs>
  
    <circle cx="240" cy="240" r="138" stroke="rgba(121,111,97,0.14)" stroke-width="1.4"/>
    <path d="M116 252H178L198 220L226 290L248 198L272 252H362" stroke="#201E22" stroke-width="2.9" stroke-linecap="round" stroke-linejoin="round"/>
    <path d="M208 176C220 160 235 152 252 152C269 152 283 159 296 173C308 186 314 201 314 218C314 235 308 249 296 261C284 273 269 279 252 280C235 280 220 274 208 262C196 250 190 235 190 218C190 201 196 187 208 176Z" stroke="#5A7F88" stroke-width="1.9"/>
    <path d="M206 314C223 302 240 296 258 296C276 296 293 302 310 314" stroke="#C19A56" stroke-opacity="0.76" stroke-width="1.7" stroke-linecap="round"/>
  
</svg>