<svg width="480" height="480" viewBox="0 0 480 480" fill="none" xmlns="http://www.w3.org/2000/svg"><rect width="480" height="480" rx="48" fill="#FBF7F0"/><rect x="36" y="36" width="408" height="408" rx="36" fill="rgba(255,252,247,0.88)" stroke="rgba(205,189,165,0.46)"/><circle cx="240" cy="166" r="78" fill="rgba(255,252,247,0.96)" stroke="rgba(205,189,165,0.5)"/><path d="M240-42) 166-8)C240-54) 166-42) 240-34) 166-70) 240+2) 166-76)C240+38) 166-82) 240+70) 166-66) 240+88) 166-34)C240+106) 166-2) 240+110) 166+36) 240+98) 166+80)C240+82) 166+128) 240+50) 166+164) 240+2) 166+188)C240-52) 166+164) 240-88) 166+124) 240-106) 166+68)C240-124) 166+12) 240-122) 166-34) 240-98) 166-70)Z" fill="none" stroke="rgba(31,31,29,0.86)" stroke-width="2.1" stroke-linecap="round" stroke-linejoin="round"/><path d="M240+2) 166-62)C240-10) 166-26) 240-12) 166+18) 240) 166+72)C240+8) 166+108) 240+10) 166+140) 240+4) 166+170)" fill="none" stroke="#C89B5B" stroke-width="1.62" stroke-linecap="round"/><path d="M240-40) 166-22)C240-66) 166-20) 240-82) 166-8) 240-88) 166+14)" fill="none" stroke="rgba(83,118,127,0.52)" stroke-width="1.42" stroke-linecap="round"/><text x="240" y="308" fill="#1F1F21" text-anchor="middle" font-family="'Source Serif 4', Georgia, serif" font-size="60" font-weight="600" letter-spacing="-2.4">ChapAI</text><text x="240" y="350" fill="#756B60" text-anchor="middle" font-family="'DM Sans', Arial, sans-serif" font-size="14" font-weight="700" letter-spacing="4">CORTICAL SEAL</text></svg>