<svg width="220" height="72" viewBox="0 0 220 72" fill="none" xmlns="http://www.w3.org/2000/svg">
  <rect width="220" height="72" rx="20" fill="#F6F0E6"/>
  <g transform="translate(18 12)">
    <circle cx="24" cy="24" r="19.2" stroke="#DDD4C8" stroke-width="0.9"/>
    <path d="M15 34.8C17.1 39.5 20.1 42 24 42C27.9 42 30.9 39.5 33 34.8" stroke="#20282D" stroke-width="1.1" stroke-linecap="round"/>
    <path d="M24 12.2V36.8" stroke="#5A7F88" stroke-width="1.05" stroke-linecap="round"/>
    <path d="M16.8 16.8C14.7 13.7 14.5 10.6 16.1 8.6C18.1 6.1 21.7 6.2 24 8.1C26.3 6.2 29.9 6.1 31.9 8.6C33.5 10.6 33.3 13.7 31.2 16.8" stroke="#C29A56" stroke-width="0.95" stroke-linecap="round" stroke-linejoin="round"/>
    <path d="M24 42C24 38.6 21.6 35.8 18.5 34.9C19.7 31.1 22 28.4 24 26.5C26 28.4 28.3 31.1 29.5 34.9C26.4 35.8 24 38.6 24 42Z" stroke="#20282D" stroke-width="1.05" stroke-linecap="round" stroke-linejoin="round"/>
  </g>
  <path d="M72 20.5H136" stroke="#DED5C8" stroke-width="0.9"/>
  <path d="M72 51.5H136" stroke="#DED5C8" stroke-width="0.9"/>
  <text x="72" y="35" fill="#20282D" font-family="'Times New Roman', serif" font-size="24" letter-spacing="0.03em">ChapAI</text>
  <text x="73" y="51" fill="#6D7378" font-family="DM Sans, Arial, sans-serif" font-size="9" letter-spacing="0.28em">NCLEX · CCRN</text>
</svg>
