<svg width="560" height="340" viewBox="0 0 560 340" fill="none" xmlns="http://www.w3.org/2000/svg">
    <rect width="560" height="340" rx="34" fill="#FBF7F0"/>
    <rect x="18" y="18" width="524" height="304" rx="26" fill="rgba(255,252,247,0.92)" stroke="rgba(205,189,165,0.46)"/>
    
    <g transform="translate(48 64)">
      
        <path d="M92 26C76 18 60 18 44 26C28 34 18 50 16 74C14 96 20 118 34 140C48 162 68 182 94 200C120 184 142 162 158 136C174 110 180 86 178 64C176 44 166 30 148 22C130 14 112 18 92 34C84 24 78 18 72 16" stroke="rgba(24,22,20,0.9)" stroke-width="2.8" fill="none" stroke-linecap="round" stroke-linejoin="round"/>
        <path d="M94 38V86" stroke="#7C8D79" stroke-width="1.9" stroke-linecap="round"/>
        <path d="M72 110H100L112 96L126 142L142 84L154 116H176" stroke="#7C8D79" stroke-width="2" fill="none" stroke-linecap="round" stroke-linejoin="round"/>
      
      <text x="168" y="108" fill="#1F1F21" font-family="'Source Serif 4', Georgia, serif" font-size="78" font-weight="600" letter-spacing="-3.2">ChapAI</text>
      <text x="170" y="150" fill="#766D61" font-family="'DM Sans', Arial, sans-serif" font-size="14" font-weight="700" letter-spacing="4">NCLEX + CCRN</text>
      <text x="170" y="178" fill="#766D61" font-family="'DM Sans', Arial, sans-serif" font-size="11" font-weight="700" letter-spacing="3">CORONARY WORDMARK</text>
    </g>
  
  </svg>