<svg width="1600" height="960" viewBox="0 0 1600 960" fill="none" xmlns="http://www.w3.org/2000/svg">
  <rect width="1600" height="960" fill="#FBF7F0"/>
  <rect x="26" y="26" width="1548" height="908" rx="28" fill="url(#page-wash)" stroke="rgba(195,178,154,0.36)"/>
  <defs>
    <radialGradient id="page-wash" cx="0" cy="0" r="1" gradientUnits="userSpaceOnUse" gradientTransform="translate(1088 307.2) rotate(90) scale(460.79999999999995 460.79999999999995)">
      <stop offset="0" stop-color="#fffdf8"/>
      <stop offset="0.68" stop-color="#F4EEE3"/>
      <stop offset="1" stop-color="#F4EEE3"/>
    </radialGradient>
    <radialGradient id="bleed" cx="0" cy="0" r="1" gradientUnits="userSpaceOnUse" gradientTransform="translate(1216 364.8) rotate(90) scale(326.40000000000003 326.40000000000003)">
      <stop offset="0" stop-color="rgba(255,253,248,0.96)"/>
      <stop offset="0.62" stop-color="rgba(239,226,206,0.56)"/>
      <stop offset="1" stop-color="rgba(239,226,206,0)"/>
    </radialGradient>
  </defs>
  
    
    <rect x="112" y="72" width="1376" height="82" rx="41" fill="rgba(255,252,247,0.86)" stroke="rgba(212,197,173,0.54)"/>
    <text x="188" y="122" fill="#201F21" font-family="'Source Serif 4', Georgia, serif" font-size="38" font-weight="600" letter-spacing="-2">ChapAI</text>
    <text x="1106" y="122" fill="#7D705F" font-family="'DM Sans', Arial, sans-serif" font-size="20" font-weight="600">CCRN</text>
    <text x="1186" y="122" fill="#7D705F" font-family="'DM Sans', Arial, sans-serif" font-size="20" font-weight="600">NCLEX</text>
    <text x="1276" y="122" fill="#7D705F" font-family="'DM Sans', Arial, sans-serif" font-size="20" font-weight="600">PLANS</text>
    <rect x="1348" y="92" width="114" height="44" rx="22" fill="rgba(255,250,243,0.96)" stroke="rgba(212,197,173,0.54)"/>
    <text x="1385" y="120" fill="#201F21" font-family="'DM Sans', Arial, sans-serif" font-size="20" font-weight="700">SPRINT</text>
  
    
    <text x="154" y="180" fill="#7D705F" font-family="'DM Sans', Arial, sans-serif" font-size="15" font-weight="700" letter-spacing="5">CORONARY ATLAS / PREMIUM STUDY SURFACE</text>
    <text x="154" y="268" fill="#201F21" font-family="'DM Sans', Arial, sans-serif" font-size="94" font-weight="500" letter-spacing="-7">Sharper answers.</text>
    <text x="154" y="360" fill="#201F21" font-family="'DM Sans', Arial, sans-serif" font-size="94" font-weight="500" letter-spacing="-7">Better clinical</text>
    <text x="154" y="452" fill="#201F21" font-family="'DM Sans', Arial, sans-serif" font-size="94" font-weight="500" letter-spacing="-7">instincts.</text>
    <text x="154" y="548" fill="#7D705F" font-family="'DM Sans', Arial, sans-serif" font-size="30">Original questions, elite rationale, and a faster path into the right plan.</text>
    <rect x="154" y="612" width="220" height="64" rx="32" fill="#567C85"/>
    <text x="196" y="652" fill="#fff" font-family="'DM Sans', Arial, sans-serif" font-size="25" font-weight="700">Start the $10 sprint</text>
    <rect x="392" y="612" width="204" height="64" rx="32" fill="rgba(255,252,247,0.86)" stroke="rgba(194,178,154,0.7)"/>
    <text x="446" y="652" fill="#201F21" font-family="'DM Sans', Arial, sans-serif" font-size="24" font-weight="600">See full plans</text>
  
    <text x="154" y="744" fill="#7D705F" font-family="'DM Sans', Arial, sans-serif" font-size="14" font-weight="700" letter-spacing="4">VISUAL RATIONALE + CLEANER CLINICAL FLOW</text>
    <path d="M154 770H594" stroke="rgba(212,197,173,0.62)"/>
    <text x="154" y="846" fill="#7D705F" font-family="'DM Sans', Arial, sans-serif" font-size="14" font-weight="700" letter-spacing="4">CURRENT BUILD</text>
    <text x="154" y="888" fill="#201F21" font-family="'DM Sans', Arial, sans-serif" font-size="34" font-weight="700">Premium question + tutor path</text>
    <text x="486" y="846" fill="#7D705F" font-family="'DM Sans', Arial, sans-serif" font-size="14" font-weight="700" letter-spacing="4">ANGLE</text>
    <text x="486" y="888" fill="#201F21" font-family="'DM Sans', Arial, sans-serif" font-size="34" font-weight="700">Coronary atlas</text>
    
    <path d="M1119.6 217.8C1076.4 162 1013.4 135 943.2 142.2C876.6 147.6 820.8 187.2 793.8 248.4C768.6 306 766.8 369 788.4 437.40000000000003C810 505.8 858.6 570.6 932.4 628.2C1006.2 685.8000000000001 1071 732.6 1126.8 770.4C1177.2 741.6 1242 696.6 1321.2 635.4000000000001C1400.4 574.2 1450.8000000000002 509.40000000000003 1472.4 441C1494 370.8 1492.2 306 1465.2 246.60000000000002C1436.4 185.4 1378.8 145.8 1308.6 142.2C1238.4 138.6 1177.2 165.6 1119.6 217.8Z" fill="url(#bleed)" opacity="0.86"/>
    <path d="M1123.2 234C1083.6 183.6 1029.6 160.2 964.8 165.6C903.6 171 855 208.8 831.6 264.6C810 318.6 810 378 829.8 439.2C849.6 500.40000000000003 892.8 556.2 959.4 606.6C1027.8 657 1081.8 698.4 1125 730.8000000000001C1164.6 705.6 1218.6 666 1287 613.8C1357.2 561.6 1400.4 505.8 1420.2 446.40000000000003C1440 387 1440 329.4 1416.6 273.6C1389.6 216 1341 176.4 1279.8 171C1218.6 165.6 1166.4 187.2 1123.2 234Z" stroke="rgba(31,31,29,0.86)" stroke-width="2.3400000000000003" fill="none" stroke-linecap="round" stroke-linejoin="round"/>
    <path d="M1126.8 257.4V648" stroke="#567C85" stroke-width="1.9800000000000002" stroke-linecap="round"/>
    <path d="M1126.8 284.4C1094.4 264.6 1062 259.20000000000005 1027.8 270" stroke="#C49758" stroke-width="1.71" stroke-linecap="round"/>
    <path d="M1126.8 284.4C1159.2 264.6 1195.2 255.6 1236.6 261" stroke="#C49758" stroke-width="1.71" stroke-linecap="round"/>
    <path d="M1126.8 352.8C1071 360 1020.6 379.8 975.6 414" stroke="#567C85" stroke-width="1.62" stroke-linecap="round"/>
    <path d="M1126.8 352.8C1182.6 363.6 1234.8 387 1285.2 426.6" stroke="#567C85" stroke-width="1.62" stroke-linecap="round"/>
    <path d="M1126.8 450C1085.4 489.6 1054.8 536.4000000000001 1035 594" stroke="#C49758" stroke-width="1.62" stroke-linecap="round"/>
    <path d="M1126.8 450C1166.4 489.6 1198.8 534.6 1225.8 590.4000000000001" stroke="#C49758" stroke-width="1.62" stroke-linecap="round"/>
    <circle cx="1126.8" cy="352.8" r="7.2" fill="#FBF7F0" stroke="#567C85" stroke-width="1.08"/>
  
  
</svg>