<svg width="1600" height="520" viewBox="0 0 1600 520" fill="none" xmlns="http://www.w3.org/2000/svg">
  <defs>
    <radialGradient id="paper-wash" cx="0" cy="0" r="1" gradientUnits="userSpaceOnUse" gradientTransform="translate(1180 404) rotate(90) scale(420 420)">
      <stop offset="0" stop-color="#FFFDF8" />
      <stop offset="0.46" stop-color="#F2EBDD" />
      <stop offset="1" stop-color="#FBF7F0" />
    </radialGradient>
    <radialGradient id="bleed-wash" cx="0" cy="0" r="1" gradientUnits="userSpaceOnUse" gradientTransform="translate(1260 430) rotate(90) scale(340 340)">
      <stop offset="0" stop-color="#fffaf2" stop-opacity="0.98" />
      <stop offset="0.5" stop-color="#E9DBC7" stop-opacity="0.56" />
      <stop offset="1" stop-color="#E9DBC7" stop-opacity="0" />
    </radialGradient>
  </defs>
  <rect width="1600" height="520" fill="#FBF7F0" />
  
    <rect x="42" y="42" width="1516" height="434" rx="34" fill="rgba(255,252,247,0.9)" stroke="rgba(212,197,173,0.52)"/>
    <text x="112" y="164" fill="#1F1F21" font-family="'Source Serif 4', Georgia, serif" font-size="70" font-weight="600" letter-spacing="-3">ChapAI</text>
    <text x="112" y="224" fill="#766D61" font-family="'DM Sans', Arial, sans-serif" font-size="18" font-weight="700" letter-spacing="5">NCLEX + CCRN / CLEANER CLINICAL PREP</text>
    <text x="112" y="294" fill="#1F1F21" font-family="'DM Sans', Arial, sans-serif" font-size="48" font-weight="500" letter-spacing="-3">Original questions. Better bedside reasoning.</text>
    <text x="112" y="350" fill="#766D61" font-family="'DM Sans', Arial, sans-serif" font-size="25">AI tutor, visual rationale, and a calmer package path.</text>
    
    <path d="M786 174C920 130 1066 112 1224 122C1372 132 1514 174 1650 248C1734 294 1810 356 1878 434" stroke="rgba(96,110,114,0.16)" stroke-width="1.24" fill="none" stroke-linecap="round"/>
    <path d="M742 338C882 306 1018 298 1152 312C1290 326 1420 362 1542 420C1658 476 1764 560 1860 672" stroke="rgba(96,110,114,0.1)" stroke-width="1.06" fill="none" stroke-linecap="round"/>
    <path d="M770 574C910 544 1046 540 1178 554C1312 568 1440 604 1562 662C1676 716 1782 802 1880 922" stroke="rgba(96,110,114,0.14)" stroke-width="1.16" fill="none" stroke-linecap="round"/>
    <path d="M1028 92C1062 250 1088 410 1106 572C1120 734 1126 892 1122 1048" stroke="rgba(96,110,114,0.08)" stroke-width="1.02" fill="none" stroke-linecap="round"/>
    <path d="M1224 82C1224 238 1228 398 1236 560C1246 722 1264 886 1290 1048" stroke="rgba(96,110,114,0.14)" stroke-width="1.04" fill="none" stroke-linecap="round"/>
    <path d="M1466 132C1424 292 1384 446 1346 594C1308 744 1282 896 1268 1048" stroke="rgba(96,110,114,0.08)" stroke-width="1.02" fill="none" stroke-linecap="round"/>
  
    
    <circle cx="1280" cy="496" r="312" fill="url(#bleed-wash)" opacity="0.9"/>
    <circle cx="1280" cy="496" r="322" stroke="rgba(90,112,120,0.18)" stroke-width="1.92"/>
    <path d="M1280 496C1226 426 1164 366 1094 316C1024 266 942 230 848 208" stroke="rgba(24,22,20,0.9)" stroke-width="2.78" fill="none" stroke-linecap="round"/>
    <path d="M1280 496C1334 426 1396 366 1466 316C1536 266 1618 230 1712 208" stroke="rgba(24,22,20,0.9)" stroke-width="2.78" fill="none" stroke-linecap="round"/>
    <path d="M1280 496C1224 564 1164 636 1100 712C1036 788 978 874 926 970" stroke="rgba(24,22,20,0.84)" stroke-width="2.42" fill="none" stroke-linecap="round"/>
    <path d="M1280 496C1336 564 1396 636 1460 712C1524 788 1582 874 1634 970" stroke="rgba(24,22,20,0.84)" stroke-width="2.42" fill="none" stroke-linecap="round"/>
    <path d="M1280 496C1280 422 1286 334 1296 232" stroke="#C59B5E" stroke-width="1.92" fill="none" stroke-linecap="round"/>
    <path d="M1280 496C1280 582 1280 674 1286 774" stroke="#C59B5E" stroke-width="1.92" fill="none" stroke-linecap="round"/>
    <circle cx="1280" cy="496" r="42" fill="#FFFDF8" stroke="rgba(24,22,20,0.18)" stroke-width="1.1"/>
  
  
</svg>