<svg width="1600" height="960" viewBox="0 0 1600 960" fill="none" xmlns="http://www.w3.org/2000/svg">
  <rect width="1600" height="960" fill="#FBF7F0"/>
  <rect x="26" y="26" width="1548" height="908" rx="28" fill="url(#page-wash)" stroke="rgba(195,178,154,0.36)"/>
  <defs>
    <radialGradient id="page-wash" cx="0" cy="0" r="1" gradientUnits="userSpaceOnUse" gradientTransform="translate(1088 307.2) rotate(90) scale(460.79999999999995 460.79999999999995)">
      <stop offset="0" stop-color="#fffdf8"/>
      <stop offset="0.68" stop-color="#F4EEE3"/>
      <stop offset="1" stop-color="#F4EEE3"/>
    </radialGradient>
    <radialGradient id="bleed" cx="0" cy="0" r="1" gradientUnits="userSpaceOnUse" gradientTransform="translate(1216 364.8) rotate(90) scale(326.40000000000003 326.40000000000003)">
      <stop offset="0" stop-color="rgba(255,253,248,0.96)"/>
      <stop offset="0.62" stop-color="rgba(239,226,206,0.56)"/>
      <stop offset="1" stop-color="rgba(239,226,206,0)"/>
    </radialGradient>
  </defs>
  
    
    <rect x="112" y="72" width="1376" height="82" rx="41" fill="rgba(255,252,247,0.86)" stroke="rgba(212,197,173,0.54)"/>
    <text x="188" y="122" fill="#201F21" font-family="'Source Serif 4', Georgia, serif" font-size="38" font-weight="600" letter-spacing="-2">ChapAI</text>
    <text x="1106" y="122" fill="#7D705F" font-family="'DM Sans', Arial, sans-serif" font-size="20" font-weight="600">CCRN</text>
    <text x="1186" y="122" fill="#7D705F" font-family="'DM Sans', Arial, sans-serif" font-size="20" font-weight="600">NCLEX</text>
    <text x="1276" y="122" fill="#7D705F" font-family="'DM Sans', Arial, sans-serif" font-size="20" font-weight="600">PLANS</text>
    <rect x="1348" y="92" width="114" height="44" rx="22" fill="rgba(255,250,243,0.96)" stroke="rgba(212,197,173,0.54)"/>
    <text x="1385" y="120" fill="#201F21" font-family="'DM Sans', Arial, sans-serif" font-size="20" font-weight="700">SPRINT</text>
  
    
    <text x="154" y="180" fill="#7D705F" font-family="'DM Sans', Arial, sans-serif" font-size="15" font-weight="700" letter-spacing="5">PULMONARY ARBOR / PREMIUM STUDY SURFACE</text>
    <text x="154" y="268" fill="#201F21" font-family="'DM Sans', Arial, sans-serif" font-size="94" font-weight="500" letter-spacing="-7">Respiratory, perfusion,</text>
    <text x="154" y="360" fill="#201F21" font-family="'DM Sans', Arial, sans-serif" font-size="94" font-weight="500" letter-spacing="-7">and priority</text>
    <text x="154" y="452" fill="#201F21" font-family="'DM Sans', Arial, sans-serif" font-size="94" font-weight="500" letter-spacing="-7">made cleaner.</text>
    <text x="154" y="548" fill="#7D705F" font-family="'DM Sans', Arial, sans-serif" font-size="30">Original questions, elite rationale, and a faster path into the right plan.</text>
    <rect x="154" y="612" width="220" height="64" rx="32" fill="#567C85"/>
    <text x="196" y="652" fill="#fff" font-family="'DM Sans', Arial, sans-serif" font-size="25" font-weight="700">Start the $10 sprint</text>
    <rect x="392" y="612" width="204" height="64" rx="32" fill="rgba(255,252,247,0.86)" stroke="rgba(194,178,154,0.7)"/>
    <text x="446" y="652" fill="#201F21" font-family="'DM Sans', Arial, sans-serif" font-size="24" font-weight="600">See full plans</text>
  
    <text x="154" y="744" fill="#7D705F" font-family="'DM Sans', Arial, sans-serif" font-size="14" font-weight="700" letter-spacing="4">VISUAL RATIONALE + CLEANER CLINICAL FLOW</text>
    <path d="M154 770H594" stroke="rgba(212,197,173,0.62)"/>
    <text x="154" y="846" fill="#7D705F" font-family="'DM Sans', Arial, sans-serif" font-size="14" font-weight="700" letter-spacing="4">CURRENT BUILD</text>
    <text x="154" y="888" fill="#201F21" font-family="'DM Sans', Arial, sans-serif" font-size="34" font-weight="700">Premium question + tutor path</text>
    <text x="486" y="846" fill="#7D705F" font-family="'DM Sans', Arial, sans-serif" font-size="14" font-weight="700" letter-spacing="4">ANGLE</text>
    <text x="486" y="888" fill="#201F21" font-family="'DM Sans', Arial, sans-serif" font-size="34" font-weight="700">Pulmonary arbor</text>
    
    <ellipse cx="1063.8" cy="401.40000000000003" rx="147.6" ry="216" fill="url(#bleed)" opacity="0.58"/>
    <ellipse cx="1297.8" cy="401.40000000000003" rx="147.6" ry="216" fill="url(#bleed)" opacity="0.58"/>
    <ellipse cx="1063.8" cy="410.40000000000003" rx="151.20000000000002" ry="219.6" stroke="rgba(31,31,29,0.82)" stroke-width="2.16"/>
    <ellipse cx="1297.8" cy="410.40000000000003" rx="151.20000000000002" ry="219.6" stroke="rgba(31,31,29,0.82)" stroke-width="2.16"/>
    <path d="M1180.8 181.8V673.2" stroke="#C49758" stroke-width="1.9800000000000002" stroke-linecap="round"/>
    <path d="M1180.8 232.2C1135.8 257.4 1101.6 289.8 1078.2 331.20000000000005" stroke="#7F8F79" stroke-width="1.8" stroke-linecap="round"/>
    <path d="M1180.8 232.2C1225.8 257.4 1260 289.8 1283.4 331.20000000000005" stroke="#7F8F79" stroke-width="1.8" stroke-linecap="round"/>
    <path d="M1078.2 331.20000000000005C1036.8 349.20000000000005 1006.2 376.20000000000005 984.6 412.2" stroke="#C49758" stroke-width="1.62" stroke-linecap="round"/>
    <path d="M1078.2 331.20000000000005C1051.2 376.20000000000005 1031.4 426.6 1018.8 480.6" stroke="#C49758" stroke-width="1.62" stroke-linecap="round"/>
    <path d="M1283.4 331.20000000000005C1324.8 349.20000000000005 1355.4 376.20000000000005 1377 412.2" stroke="#C49758" stroke-width="1.62" stroke-linecap="round"/>
    <path d="M1283.4 331.20000000000005C1310.4 376.20000000000005 1330.2 426.6 1342.8 480.6" stroke="#C49758" stroke-width="1.62" stroke-linecap="round"/>
    <path d="M1180.8 325.8C1152 399.6 1139.4 480.6 1143 568.8" stroke="rgba(31,31,29,0.68)" stroke-width="1.8" stroke-linecap="round"/>
    <path d="M1180.8 325.8C1209.6 399.6 1222.2 480.6 1218.6 568.8" stroke="rgba(31,31,29,0.68)" stroke-width="1.8" stroke-linecap="round"/>
  
  
</svg>