<svg width="1600" height="960" viewBox="0 0 1600 960" fill="none" xmlns="http://www.w3.org/2000/svg">
  <defs>
    <radialGradient id="paper-wash" cx="0" cy="0" r="1" gradientUnits="userSpaceOnUse" gradientTransform="translate(1232 345.59999999999997) rotate(90) scale(480 480)">
      <stop offset="0" stop-color="#fffdf8"/>
      <stop offset="0.48" stop-color="#F2EBDD"/>
      <stop offset="1" stop-color="#FBF7F0"/>
    </radialGradient>
    <radialGradient id="bleed-wash" cx="0" cy="0" r="1" gradientUnits="userSpaceOnUse" gradientTransform="translate(1248 384) rotate(90) scale(268.8 268.8)">
      <stop offset="0" stop-color="#fffaf2" stop-opacity="0.96"/>
      <stop offset="0.52" stop-color="#E8DBC7" stop-opacity="0.58"/>
      <stop offset="1" stop-color="#E8DBC7" stop-opacity="0"/>
    </radialGradient>
  </defs>
  <rect width="1600" height="960" fill="#FBF7F0"/>
  <rect x="24" y="24" width="1552" height="912" rx="28" fill="url(#paper-wash)" stroke="rgba(208,192,168,0.38)"/>
  
    
    <rect x="110" y="70" width="1380" height="82" rx="41" fill="rgba(255,252,247,0.84)" stroke="rgba(212,197,173,0.52)"/>
    <text x="186" y="120" fill="#1F1F21" font-family="'Source Serif 4', Georgia, serif" font-size="38" font-weight="600" letter-spacing="-2">ChapAI</text>
    <text x="1106" y="120" fill="#766D61" font-family="'DM Sans', Arial, sans-serif" font-size="20" font-weight="600">CCRN</text>
    <text x="1190" y="120" fill="#766D61" font-family="'DM Sans', Arial, sans-serif" font-size="20" font-weight="600">NCLEX</text>
    <text x="1284" y="120" fill="#766D61" font-family="'DM Sans', Arial, sans-serif" font-size="20" font-weight="600">PLANS</text>
    <rect x="1348" y="90" width="114" height="44" rx="22" fill="rgba(255,250,243,0.96)" stroke="rgba(212,197,173,0.54)"/>
    <text x="1384" y="118" fill="#1F1F21" font-family="'DM Sans', Arial, sans-serif" font-size="20" font-weight="700">SPRINT</text>
  
    
    <text x="150" y="188" fill="#766D61" font-family="'DM Sans', Arial, sans-serif" font-size="15" font-weight="700" letter-spacing="5">NEURON BLOOM / PREMIUM MEDICAL HERO</text>
    <text x="150" y="286" fill="#1F1F21" font-family="'DM Sans', Arial, sans-serif" font-size="96" font-weight="500" letter-spacing="-7">Study with</text>
    <text x="150" y="376" fill="#1F1F21" font-family="'DM Sans', Arial, sans-serif" font-size="96" font-weight="500" letter-spacing="-7">more signal,</text>
    <text x="150" y="466" fill="#1F1F21" font-family="'DM Sans', Arial, sans-serif" font-size="96" font-weight="500" letter-spacing="-7">less clutter.</text>
    <text x="150" y="548" fill="#766D61" font-family="'DM Sans', Arial, sans-serif" font-size="30">Original questions, elite rationale, and a direct path into the right plan.</text>
    <rect x="150" y="614" width="232" height="64" rx="32" fill="#5A7F88"/>
    <text x="192" y="654" fill="#fff" font-family="'DM Sans', Arial, sans-serif" font-size="25" font-weight="700">Start the $10 sprint</text>
    <rect x="400" y="614" width="196" height="64" rx="32" fill="rgba(255,252,247,0.88)" stroke="rgba(194,178,154,0.62)"/>
    <text x="454" y="654" fill="#1F1F21" font-family="'DM Sans', Arial, sans-serif" font-size="24" font-weight="600">See plans</text>
    <text x="150" y="738" fill="#766D61" font-family="'DM Sans', Arial, sans-serif" font-size="14" font-weight="700" letter-spacing="4">AI TUTOR + VISUAL RATIONALE + CLEAN CLINICAL FLOW</text>
    <path d="M150 766H676" stroke="rgba(212,197,173,0.62)"/>
  
    
    <path d="M760 210C906 132 1056 98 1210 106C1352 114 1488 154 1618 226C1702 272 1768 326 1816 388" stroke="rgba(90,112,120,0.14)" stroke-width="1.4" fill="none" stroke-linecap="round"/>
    <path d="M722 422C874 336 1036 298 1208 306C1378 314 1538 356 1688 440C1776 488 1846 548 1896 616" stroke="rgba(90,112,120,0.08)" stroke-width="1.1" fill="none" stroke-linecap="round"/>
    <path d="M806 694C944 640 1080 616 1214 624C1350 632 1478 670 1598 738C1678 784 1742 836 1788 896" stroke="rgba(90,112,120,0.14)" stroke-width="1.28" fill="none" stroke-linecap="round"/>
    <path d="M1048 74C1054 234 1066 394 1078 554C1090 712 1114 850 1148 956" stroke="rgba(90,112,120,0.08)" stroke-width="1.1" fill="none" stroke-linecap="round"/>
    <path d="M1220 60C1224 222 1236 384 1248 548C1262 710 1288 846 1324 954" stroke="rgba(90,112,120,0.14)" stroke-width="1.18" fill="none" stroke-linecap="round"/>
    <path d="M1394 82C1360 220 1328 360 1298 500C1270 642 1248 792 1230 952" stroke="rgba(90,112,120,0.08)" stroke-width="1.04" fill="none" stroke-linecap="round"/>
  
    
    <circle cx="1276" cy="482" r="316" fill="url(#bleed-wash)" opacity="0.88"/>
    <circle cx="1276" cy="482" r="326" stroke="rgba(90,112,120,0.22)" stroke-width="2"/>
    <circle cx="1276" cy="482" r="286" stroke="rgba(90,112,120,0.1)" stroke-width="1.1"/>
    <path d="M1274 480C1238 432 1204 390 1174 356C1144 322 1098 284 1036 242" stroke="rgba(31,31,29,0.86)" stroke-width="2.74" fill="none" stroke-linecap="round"/>
    <path d="M1274 480C1310 426 1344 380 1378 340C1412 300 1462 258 1528 212" stroke="rgba(31,31,29,0.86)" stroke-width="2.74" fill="none" stroke-linecap="round"/>
    <path d="M1274 480C1222 516 1176 552 1136 590C1096 628 1058 678 1022 742" stroke="rgba(31,31,29,0.82)" stroke-width="2.4" fill="none" stroke-linecap="round"/>
    <path d="M1274 480C1326 516 1372 552 1412 590C1452 628 1490 678 1526 742" stroke="rgba(31,31,29,0.82)" stroke-width="2.4" fill="none" stroke-linecap="round"/>
    <path d="M1274 480C1274 408 1274 334 1274 256" stroke="#C59B5E" stroke-width="1.94" fill="none" stroke-linecap="round"/>
    <path d="M1274 480C1274 560 1274 638 1274 728" stroke="#C59B5E" stroke-width="1.94" fill="none" stroke-linecap="round"/>
    <circle cx="1274" cy="480" r="36" fill="#F7F1E8" stroke="rgba(31,31,29,0.18)" stroke-width="1.1"/>
    <path d="M1274 480C1224 470 1180 470 1142 484" stroke="#5A7F88" stroke-width="1.78" fill="none" stroke-linecap="round"/>
    <path d="M1274 480C1324 470 1368 470 1406 484" stroke="#5A7F88" stroke-width="1.78" fill="none" stroke-linecap="round"/>
    <circle cx="1526.0" cy="482.0" r="5.6" fill="rgba(90,112,120,0.26)"/><circle cx="1510.9" cy="567.5" r="4.3" fill="rgba(90,112,120,0.26)"/><circle cx="1467.5" cy="642.7" r="4.3" fill="rgba(90,112,120,0.26)"/><circle cx="1401.0" cy="698.5" r="5.6" fill="rgba(90,112,120,0.26)"/><circle cx="1319.4" cy="728.2" r="4.3" fill="rgba(90,112,120,0.26)"/><circle cx="1232.6" cy="728.2" r="4.3" fill="rgba(90,112,120,0.26)"/><circle cx="1151.0" cy="698.5" r="5.6" fill="rgba(90,112,120,0.26)"/><circle cx="1084.5" cy="642.7" r="4.3" fill="rgba(90,112,120,0.26)"/><circle cx="1041.1" cy="567.5" r="4.3" fill="rgba(90,112,120,0.26)"/><circle cx="1026.0" cy="482.0" r="5.6" fill="rgba(90,112,120,0.26)"/><circle cx="1041.1" cy="396.5" r="4.3" fill="rgba(90,112,120,0.26)"/><circle cx="1084.5" cy="321.3" r="4.3" fill="rgba(90,112,120,0.26)"/><circle cx="1151.0" cy="265.5" r="5.6" fill="rgba(90,112,120,0.26)"/><circle cx="1232.6" cy="235.8" r="4.3" fill="rgba(90,112,120,0.26)"/><circle cx="1319.4" cy="235.8" r="4.3" fill="rgba(90,112,120,0.26)"/><circle cx="1401.0" cy="265.5" r="5.6" fill="rgba(90,112,120,0.26)"/><circle cx="1467.5" cy="321.3" r="4.3" fill="rgba(90,112,120,0.26)"/><circle cx="1510.9" cy="396.5" r="4.3" fill="rgba(90,112,120,0.26)"/>
  
    <text x="150" y="842" fill="#766D61" font-family="'DM Sans', Arial, sans-serif" font-size="14" font-weight="700" letter-spacing="4">CURRENT ANGLE</text>
    <text x="150" y="888" fill="#1F1F21" font-family="'Source Serif 4', Georgia, serif" font-size="38" font-weight="600">Neuron bloom</text>
  
</svg>