<svg width="1600" height="520" viewBox="0 0 1600 520" fill="none" xmlns="http://www.w3.org/2000/svg">
  <rect width="1600" height="520" fill="#FBF7F0"/>
  <defs>
    <radialGradient id="paper-wash" cx="0" cy="0" r="1" gradientUnits="userSpaceOnUse" gradientTransform="translate(1216 176.8) rotate(90) scale(228.8 228.8)">
      <stop offset="0" stop-color="#fffdf7"/>
      <stop offset="0.5" stop-color="#F3EBDD"/>
      <stop offset="1" stop-color="#FBF7F0"/>
    </radialGradient>
    <radialGradient id="bleed-wash" cx="0" cy="0" r="1" gradientUnits="userSpaceOnUse" gradientTransform="translate(1200 197.6) rotate(90) scale(135.20000000000002 135.20000000000002)">
      <stop offset="0" stop-color="#fffaf1" stop-opacity="0.95"/>
      <stop offset="0.5" stop-color="#E9DCCA" stop-opacity="0.58"/>
      <stop offset="1" stop-color="#E9DCCA" stop-opacity="0"/>
    </radialGradient>
  </defs>
  <rect x="26" y="26" width="1548" height="468" rx="28" fill="url(#paper-wash)" stroke="rgba(203,188,164,0.38)"/>
  
    <rect x="42" y="42" width="1516" height="434" rx="34" fill="rgba(255,252,247,0.88)" stroke="rgba(212,197,173,0.52)"/>
    <text x="116" y="170" fill="#1F1F21" font-family="'Source Serif 4', Georgia, serif" font-size="72" font-weight="600" letter-spacing="-3">ChapAI</text>
    <text x="116" y="230" fill="#7A7064" font-family="'DM Sans', Arial, sans-serif" font-size="18" font-weight="700" letter-spacing="5">NCLEX + CCRN / CLEANER CLINICAL PREP</text>
    <text x="116" y="304" fill="#1F1F21" font-family="'DM Sans', Arial, sans-serif" font-size="50" font-weight="500" letter-spacing="-3">Original questions. Elite rationale.</text>
    <text x="116" y="362" fill="#7A7064" font-family="'DM Sans', Arial, sans-serif" font-size="26">AI tutor, visual guidance, and a faster path into the right plan.</text>
    
    <path d="M760 212C902 134 1044 100 1188 108C1324 116 1456 154 1584 224C1668 270 1732 322 1778 380" stroke="rgba(88,126,135,0.2)" stroke-width="1.4" fill="none" stroke-linecap="round"/>
    <path d="M724 420C874 334 1030 296 1194 304C1360 312 1514 354 1656 436C1742 486 1810 544 1858 608" stroke="rgba(88,126,135,0.12)" stroke-width="1.1" fill="none" stroke-linecap="round"/>
    <path d="M814 684C946 632 1074 610 1200 618C1328 626 1450 664 1566 732C1642 776 1702 826 1746 884" stroke="rgba(88,126,135,0.18)" stroke-width="1.34" fill="none" stroke-linecap="round"/>
    <path d="M1046 84C1052 234 1064 390 1076 548C1088 706 1110 844 1142 952" stroke="rgba(88,126,135,0.1)" stroke-width="1.1" fill="none" stroke-linecap="round"/>
    <path d="M1214 66C1218 226 1228 384 1242 542C1256 700 1282 838 1318 946" stroke="rgba(88,126,135,0.18)" stroke-width="1.22" fill="none" stroke-linecap="round"/>
    <path d="M1388 88C1358 214 1328 348 1298 490C1270 632 1246 780 1228 948" stroke="rgba(88,126,135,0.1)" stroke-width="1.04" fill="none" stroke-linecap="round"/>
  
    
    <path d="M986 128C1046 90 1119 73 1206 77C1286 81 1346 102 1386 140" stroke="rgba(88,126,135,0.38)" stroke-width="1.05" fill="none" stroke-linecap="round"/>
    <path d="M1023 205H1329" stroke="rgba(31,31,29,0.14)" stroke-width="0.62" stroke-dasharray="3 5"/>
    <path d="M1035 282H1336" stroke="rgba(31,31,29,0.14)" stroke-width="0.62" stroke-dasharray="3 5"/>
    <path d="M1060 354H1343" stroke="rgba(31,31,29,0.14)" stroke-width="0.62" stroke-dasharray="3 5"/>
    <path d="M1085 159C1119 138 1161 128 1211 131C1263 134 1306 152 1340 188" stroke="rgba(31,31,29,0.84)" stroke-width="1.23" fill="none" stroke-linecap="round"/>
    <path d="M1215 126V394" stroke="#C59858" stroke-width="0.95" stroke-linecap="round"/>
    <path d="M1085 368H1115L1130 347L1148 406L1170 314L1185 367H1221" stroke="#B67D66" stroke-width="1.09" fill="none" stroke-linecap="round" stroke-linejoin="round"/>
    <path d="M1215 173C1247 168 1278 179 1310 204" stroke="#587E87" stroke-width="0.91" fill="none" stroke-linecap="round"/>
    <path d="M1215 223C1187 246 1164 275 1147 313" stroke="#587E87" stroke-width="0.91" fill="none" stroke-linecap="round"/>
    <circle cx="1130" cy="347" r="3.5" fill="#FBF7F0" stroke="#B67D66" stroke-width="0.55"/>
  
  
</svg>