<svg width="480" height="480" viewBox="0 0 480 480" fill="none" xmlns="http://www.w3.org/2000/svg">
    <rect width="480" height="480" rx="48" fill="#FBF7F0"/>
    <rect x="36" y="36" width="408" height="408" rx="36" fill="rgba(255,252,247,0.82)" stroke="rgba(205,189,165,0.46)"/>
    
    <path d="M240 122C202 76 148 54 86 62C28 70 -10 106 -24 170C-38 234 -22 302 24 372C70 442 142 494 240 530C330 490 400 438 446 374C492 308 510 242 498 176C486 110 450 72 390 62C330 52 280 72 240 122Z" transform="translate(2 -42) scale(0.86)" fill="rgba(238,226,206,0.52)"/>
    <path d="M240 138C204 94 156 74 96 80C42 86 6 118 -10 176C-24 232 -12 292 28 354C68 416 138 474 240 526C334 478 404 420 446 352C488 284 502 224 490 172C478 118 444 86 390 80C334 74 284 94 240 138Z" transform="translate(2 -42) scale(0.86)" stroke="#201F21" stroke-width="2.5" fill="none" stroke-linejoin="round"/>
    <path d="M240 136V324" stroke="#A87763" stroke-width="2.2" stroke-linecap="round"/>
    <path d="M240 178C206 164 178 164 156 178" stroke="#A87763" stroke-width="1.8" stroke-linecap="round"/>
    <path d="M240 178C274 164 302 164 324 178" stroke="#A87763" stroke-width="1.8" stroke-linecap="round"/>
    <path d="M240 242C196 258 164 286 146 326" stroke="#201F21" stroke-opacity="0.52" stroke-width="1.8" stroke-linecap="round"/>
    <path d="M240 242C284 258 316 286 334 326" stroke="#201F21" stroke-opacity="0.52" stroke-width="1.8" stroke-linecap="round"/>
  
  </svg>