<svg width="240" height="240" viewBox="0 0 240 240" fill="none" xmlns="http://www.w3.org/2000/svg">
  <rect width="240" height="240" rx="48" fill="#F7F3EA"/>
  <circle cx="120" cy="120" r="70" stroke="#D8D1C4" stroke-width="1.2"/>
  <path d="M83 128C83 95.4 104.4 74 136.8 74C150.6 74 162 78.8 171 86.6" stroke="#1F262B" stroke-width="2.5" stroke-linecap="round"/>
  <path d="M85 123C87.8 144.2 98.2 158.2 116.2 164.8C133.8 171.2 152.2 168.8 167.2 158.4" stroke="#5E8791" stroke-width="2.2" stroke-linecap="round"/>
  <path d="M121 79C109.8 86 103.2 95.2 101 106.4C98.8 117.8 101 129 107.6 138.6C114.4 148.8 125.2 155 138 156.2" stroke="#C4A060" stroke-width="2" stroke-linecap="round"/>
  <path d="M123 103C126 94.8 131 89.6 138 87.4C145.2 85 152.4 85.8 159.2 89.8" stroke="#5E8791" stroke-width="1.6" stroke-linecap="round"/>
  <path d="M138 87.4V63" stroke="#1F262B" stroke-width="1.6" stroke-linecap="round"/>
  <path d="M138 156.2V181" stroke="#1F262B" stroke-width="1.6" stroke-linecap="round"/>
</svg>
