<svg width="512" height="512" viewBox="0 0 512 512" fill="none" xmlns="http://www.w3.org/2000/svg">
  <rect width="512" height="512" rx="128" fill="#FBFAF6"/>
  <circle cx="256" cy="256" r="154" fill="url(#g1)" fill-opacity="0.34"/>
  <path d="M160 354V154H231C270 154 297 175 297 209C297 242 270 262 231 262H193V354H160Z" fill="#1F262B"/>
  <path d="M351 357L323 297H279L262 263H336C375 263 405 286 405 326C405 343 400 357 391 367C381 377 366 383 348 383C336 383 322 380 309 373V342C321 352 333 357 345 357H351Z" fill="#5A7F88"/>
  <path d="M190 239H236C252 239 263 228 263 212C263 197 252 186 236 186H193V239H190Z" fill="#C29A56"/>
  <defs>
    <radialGradient id="g1" cx="0" cy="0" r="1" gradientUnits="userSpaceOnUse" gradientTransform="translate(256 214) rotate(90) scale(196)">
      <stop stop-color="#D7E4E7"/>
      <stop offset="1" stop-color="#D7E4E7" stop-opacity="0"/>
    </radialGradient>
  </defs>
</svg>
