<svg width="1600" height="960" viewBox="0 0 1600 960" fill="none" xmlns="http://www.w3.org/2000/svg">
  <defs>
    <radialGradient id="paper-wash" cx="0" cy="0" r="1" gradientUnits="userSpaceOnUse" gradientTransform="translate(1180 404) rotate(90) scale(420 420)">
      <stop offset="0" stop-color="#FFFDF8" />
      <stop offset="0.46" stop-color="#F2EBDD" />
      <stop offset="1" stop-color="#FBF7F0" />
    </radialGradient>
    <radialGradient id="bleed-wash" cx="0" cy="0" r="1" gradientUnits="userSpaceOnUse" gradientTransform="translate(1260 430) rotate(90) scale(340 340)">
      <stop offset="0" stop-color="#fffaf2" stop-opacity="0.98" />
      <stop offset="0.5" stop-color="#E9DBC7" stop-opacity="0.56" />
      <stop offset="1" stop-color="#E9DBC7" stop-opacity="0" />
    </radialGradient>
  </defs>
  <rect width="1600" height="960" fill="#FBF7F0" />
  
    
    <rect x="108" y="68" width="1388" height="84" rx="42" fill="rgba(255,252,247,0.88)" stroke="rgba(213,198,175,0.56)"/>
    <text x="156" y="122" fill="#1F1F21" font-family="'Source Serif 4', Georgia, serif" font-size="38" font-weight="600" letter-spacing="-2">ChapAI</text>
    <text x="1170" y="120" fill="#766D61" font-family="'DM Sans', Arial, sans-serif" font-size="20" font-weight="600">CCRN</text>
    <text x="1252" y="120" fill="#766D61" font-family="'DM Sans', Arial, sans-serif" font-size="20" font-weight="600">NCLEX</text>
    <text x="1340" y="120" fill="#766D61" font-family="'DM Sans', Arial, sans-serif" font-size="20" font-weight="600">PLANS</text>
    <rect x="1388" y="88" width="102" height="44" rx="22" fill="rgba(255,250,243,0.96)" stroke="rgba(212,197,173,0.56)"/>
    <text x="1422" y="117" fill="#1F1F21" font-family="'DM Sans', Arial, sans-serif" font-size="20" font-weight="700">SPRINT</text>
  
    
    <text x="148" y="194" fill="#766D61" font-family="'DM Sans', Arial, sans-serif" font-size="15" font-weight="700" letter-spacing="4">PREMIUM MEDICAL PREP</text>
    <text x="148" y="292" fill="#1F1F21" font-family="'DM Sans', Arial, sans-serif" font-size="96" font-weight="500" letter-spacing="-7">Shock, vents,</text>
    <text x="148" y="382" fill="#1F1F21" font-family="'DM Sans', Arial, sans-serif" font-size="96" font-weight="500" letter-spacing="-7">oxygen, and</text>
    <text x="148" y="472" fill="#1F1F21" font-family="'DM Sans', Arial, sans-serif" font-size="96" font-weight="500" letter-spacing="-7">clearer review.</text>
    <text x="148" y="554" fill="#766D61" font-family="'DM Sans', Arial, sans-serif" font-size="30">Original questions, AI-guided rationale, and a faster path into the right plan.</text>
    <rect x="148" y="618" width="236" height="64" rx="32" fill="#5A7F88"/>
    <text x="192" y="658" fill="#fff" font-family="'DM Sans', Arial, sans-serif" font-size="25" font-weight="700">Start the $10 sprint</text>
    <rect x="402" y="618" width="190" height="64" rx="32" fill="rgba(255,252,247,0.92)" stroke="rgba(203,187,162,0.62)"/>
    <text x="454" y="658" fill="#1F1F21" font-family="'DM Sans', Arial, sans-serif" font-size="24" font-weight="600">See plans</text>
    <text x="148" y="744" fill="#766D61" font-family="'DM Sans', Arial, sans-serif" font-size="14" font-weight="700" letter-spacing="4">AI TUTOR + LIVE BANK + VISUAL RATIONALE</text>
    <path d="M148 770H664" stroke="rgba(209,194,170,0.62)"/>
  
    
    <path d="M786 174C920 130 1066 112 1224 122C1372 132 1514 174 1650 248C1734 294 1810 356 1878 434" stroke="rgba(96,110,114,0.16)" stroke-width="1.24" fill="none" stroke-linecap="round"/>
    <path d="M742 338C882 306 1018 298 1152 312C1290 326 1420 362 1542 420C1658 476 1764 560 1860 672" stroke="rgba(96,110,114,0.1)" stroke-width="1.06" fill="none" stroke-linecap="round"/>
    <path d="M770 574C910 544 1046 540 1178 554C1312 568 1440 604 1562 662C1676 716 1782 802 1880 922" stroke="rgba(96,110,114,0.14)" stroke-width="1.16" fill="none" stroke-linecap="round"/>
    <path d="M1028 92C1062 250 1088 410 1106 572C1120 734 1126 892 1122 1048" stroke="rgba(96,110,114,0.08)" stroke-width="1.02" fill="none" stroke-linecap="round"/>
    <path d="M1224 82C1224 238 1228 398 1236 560C1246 722 1264 886 1290 1048" stroke="rgba(96,110,114,0.14)" stroke-width="1.04" fill="none" stroke-linecap="round"/>
    <path d="M1466 132C1424 292 1384 446 1346 594C1308 744 1282 896 1268 1048" stroke="rgba(96,110,114,0.08)" stroke-width="1.02" fill="none" stroke-linecap="round"/>
  
    
    <path d="M982 252C926 306 892 368 880 438C868 508 876 590 904 684C932 776 976 864 1036 948C1092 900 1132 848 1156 792C1180 736 1194 652 1198 540C1202 420 1188 326 1156 258C1124 190 1066 188 982 252Z" fill="url(#bleed-wash)" opacity="0.84"/>
    <path d="M1542 252C1598 306 1632 368 1644 438C1656 508 1648 590 1620 684C1592 776 1548 864 1488 948C1432 900 1392 848 1368 792C1344 736 1330 652 1326 540C1322 420 1336 326 1368 258C1400 190 1458 188 1542 252Z" fill="url(#bleed-wash)" opacity="0.84"/>
    <path d="M982 252C926 306 892 368 880 438C868 508 876 590 904 684C932 776 976 864 1036 948" stroke="rgba(24,22,20,0.88)" stroke-width="2.72" fill="none"/>
    <path d="M1542 252C1598 306 1632 368 1644 438C1656 508 1648 590 1620 684C1592 776 1548 864 1488 948" stroke="rgba(24,22,20,0.88)" stroke-width="2.72" fill="none"/>
    <path d="M1248 206V902" stroke="#C59B5E" stroke-width="1.96" stroke-linecap="round"/>
    <path d="M1248 254C1194 292 1148 336 1110 386" stroke="#5A7F88" stroke-width="1.78" fill="none" stroke-linecap="round"/>
    <path d="M1248 254C1302 292 1348 336 1386 386" stroke="#5A7F88" stroke-width="1.78" fill="none" stroke-linecap="round"/>
    <path d="M1110 386C1062 432 1028 484 1008 542" stroke="#C59B5E" stroke-width="1.72" fill="none" stroke-linecap="round"/>
    <path d="M1386 386C1434 432 1468 484 1488 542" stroke="#C59B5E" stroke-width="1.72" fill="none" stroke-linecap="round"/>
    <path d="M1248 470C1218 522 1196 582 1182 650" stroke="#5A7F88" stroke-width="1.68" fill="none" stroke-linecap="round"/>
    <path d="M1248 470C1278 522 1300 582 1314 650" stroke="#5A7F88" stroke-width="1.68" fill="none" stroke-linecap="round"/>
  
    <text x="148" y="840" fill="#766D61" font-family="'DM Sans', Arial, sans-serif" font-size="14" font-weight="700" letter-spacing="4">CURRENT ANGLE</text>
    <text x="148" y="886" fill="#1F1F21" font-family="'Source Serif 4', Georgia, serif" font-size="38" font-weight="600">Pulmonary atlas</text>
  
</svg>