<svg width="560" height="340" viewBox="0 0 560 340" fill="none" xmlns="http://www.w3.org/2000/svg">
    <rect width="560" height="340" rx="34" fill="#FBF7F0"/>
    <rect x="18" y="18" width="524" height="304" rx="26" fill="rgba(255,252,247,0.92)" stroke="rgba(205,189,165,0.46)"/>
    
    <g transform="translate(48 64)">
      
        <path d="M82 20C124 12 156 22 178 50C200 78 206 110 196 146C186 182 164 210 130 230C96 248 62 252 28 242C4 234 -14 218 -26 194" transform="translate(22 0)" stroke="rgba(24,22,20,0.9)" stroke-width="2.8" fill="none" stroke-linecap="round"/>
        <path d="M122 30C112 78 110 122 116 164C122 206 124 230 122 238" transform="translate(22 0)" stroke="#7C8D79" stroke-width="1.94" fill="none" stroke-linecap="round"/>
        <path d="M74 60C50 62 34 74 26 96" transform="translate(22 0)" stroke="rgba(46,42,38,0.54)" stroke-width="1.54" fill="none" stroke-linecap="round"/>
        <path d="M86 102C56 106 36 124 26 156" transform="translate(22 0)" stroke="rgba(46,42,38,0.52)" stroke-width="1.48" fill="none" stroke-linecap="round"/>
        <path d="M160 62C184 66 200 78 208 98" transform="translate(22 0)" stroke="rgba(46,42,38,0.54)" stroke-width="1.54" fill="none" stroke-linecap="round"/>
        <path d="M150 102C182 106 202 124 212 156" transform="translate(22 0)" stroke="rgba(46,42,38,0.52)" stroke-width="1.48" fill="none" stroke-linecap="round"/>
      
      <text x="168" y="108" fill="#1F1F21" font-family="'Source Serif 4', Georgia, serif" font-size="78" font-weight="600" letter-spacing="-3.2">ChapAI</text>
      <text x="170" y="150" fill="#766D61" font-family="'DM Sans', Arial, sans-serif" font-size="14" font-weight="700" letter-spacing="4">NCLEX + CCRN</text>
      <text x="170" y="178" fill="#766D61" font-family="'DM Sans', Arial, sans-serif" font-size="11" font-weight="700" letter-spacing="3">CORTICAL WORDMARK</text>
    </g>
  
  </svg>