<svg width="480" height="480" viewBox="0 0 480 480" fill="none" xmlns="http://www.w3.org/2000/svg">
  <rect width="480" height="480" rx="44" fill="#FBF7F0"/>
  <rect x="34" y="34" width="412" height="412" rx="34" fill="url(#wash)" stroke="rgba(214,201,181,0.62)"/>
  <defs>
    <radialGradient id="wash" cx="0" cy="0" r="1" gradientUnits="userSpaceOnUse" gradientTransform="translate(150 94) rotate(50) scale(334 334)">
      <stop stop-color="rgba(255,255,255,0.92)"/>
      <stop offset="1" stop-color="rgba(242,233,220,0.94)"/>
    </radialGradient>
  </defs>
  
    <rect x="126" y="116" width="228" height="248" rx="112" stroke="rgba(120,112,99,0.18)" stroke-width="1.4"/>
    <path d="M240 136V344" stroke="#C39A61" stroke-width="2.2" stroke-linecap="round"/>
    <path d="M198 180C211 168 225 162 240 162C255 162 269 168 282 180C294 193 300 208 300 226C300 244 294 259 282 272C269 284 255 290 240 290C225 290 211 284 198 272C186 259 180 244 180 226C180 208 186 193 198 180Z" stroke="#1F2024" stroke-width="2.45"/>
    <path d="M212 320H268" stroke="#A27A62" stroke-opacity="0.82" stroke-width="1.9" stroke-linecap="round"/>
    <path d="M196 340H284" stroke="#1F2024" stroke-opacity="0.34" stroke-width="1.6" stroke-linecap="round"/>
  
</svg>