<svg width="480" height="480" viewBox="0 0 480 480" fill="none" xmlns="http://www.w3.org/2000/svg">
  <rect width="480" height="480" rx="48" fill="#FBF7F0"/>
  <rect x="36" y="36" width="408" height="408" rx="36" fill="url(#wash)" stroke="rgba(208,194,170,0.5)"/>
  <defs>
    <radialGradient id="wash" cx="0" cy="0" r="1" gradientUnits="userSpaceOnUse" gradientTransform="translate(164 102) rotate(52) scale(352 352)">
      <stop stop-color="rgba(255,255,255,0.9)"/>
      <stop offset="1" stop-color="rgba(242,233,221,0.96)"/>
    </radialGradient>
  </defs>
  
    <path d="M240 116C268 140 290 163 306 192C322 220 330 252 330 286C330 320 322 352 306 380C290 408 268 431 240 448C212 431 190 408 174 380C158 352 150 320 150 286C150 252 158 220 174 192C190 163 212 140 240 116Z" stroke="rgba(121,111,97,0.18)" stroke-width="1.4"/>
    <path d="M240 140V264" stroke="#5A7F88" stroke-width="2.25" stroke-linecap="round"/>
    <path d="M240 200C220 192 202 178 186 160" stroke="#201E22" stroke-width="2.2" stroke-linecap="round"/>
    <path d="M240 200C260 192 278 178 294 160" stroke="#201E22" stroke-width="2.2" stroke-linecap="round"/>
    <path d="M240 246C216 246 194 254 174 270" stroke="#C19A56" stroke-opacity="0.84" stroke-width="1.9" stroke-linecap="round"/>
    <path d="M240 246C264 246 286 254 306 270" stroke="#C19A56" stroke-opacity="0.84" stroke-width="1.9" stroke-linecap="round"/>
    <circle cx="240" cy="200" r="10" fill="#FBF7F0" stroke="#5A7F88" stroke-width="1.2"/>
  
</svg>