<svg width="240" height="240" viewBox="0 0 240 240" fill="none" xmlns="http://www.w3.org/2000/svg">
  <rect width="240" height="240" rx="48" fill="#F7F3EA"/>
  <path d="M121 60C150 60 170 81 170 111C170 148 146.5 176 122 176C100.2 176 88 157.6 88 138.8C88 122.6 97 110.6 110.8 107.6C122.6 105 132.6 109.2 139.4 116.8C145 123 148 131.8 148 141.2" stroke="#1F262B" stroke-width="2.4" stroke-linecap="round" stroke-linejoin="round"/>
  <path d="M120 60C91 60 71 81 71 111C71 148 94.5 176 119 176C140.8 176 153 157.6 153 138.8C153 122.6 144 110.6 130.2 107.6C118.4 105 108.4 109.2 101.6 116.8C96 123 93 131.8 93 141.2" stroke="#5E8791" stroke-width="2.4" stroke-linecap="round" stroke-linejoin="round"/>
  <path d="M120 82V160" stroke="#C4A060" stroke-width="1.6" stroke-linecap="round"/>
  <path d="M94 124C104.5 118.4 112.5 116 120 116C127.5 116 135.5 118.4 146 124" stroke="#C4A060" stroke-width="1.4" stroke-linecap="round"/>
  <path d="M82 102C91 96 100 93 110 93" stroke="#D8D1C4" stroke-width="1.2" stroke-linecap="round"/>
  <path d="M158 102C149 96 140 93 130 93" stroke="#D8D1C4" stroke-width="1.2" stroke-linecap="round"/>
</svg>
