<svg width="480" height="480" viewBox="0 0 480 480" fill="none" xmlns="http://www.w3.org/2000/svg">
  <rect width="480" height="480" rx="48" fill="#F5F0E6"/>
  <ellipse cx="240" cy="240" rx="162" ry="166" stroke="#D5CCBE" stroke-width="2"/>
  <path d="M241 96V386" stroke="#C59758" stroke-width="2.6" stroke-linecap="round"/>
  <path d="M153 172C173 158 195 151 219 151C243 151 264 157 282 170C300 183 313 201 320 224" stroke="#20262B" stroke-width="3.2" stroke-linecap="round"/>
  <path d="M157 244C177 231 198 225 221 225C242 225 260 229 277 238C294 247 308 260 317 278" stroke="#5B7D87" stroke-width="2.9" stroke-linecap="round"/>
  <path d="M166 314C182 307 200 304 220 304C239 304 256 307 271 314" stroke="#C59758" stroke-width="2.4" stroke-linecap="round"/>
  <path d="M112 240H130" stroke="#20262B" stroke-width="2.4" stroke-linecap="round"/>
  <path d="M350 240H368" stroke="#20262B" stroke-width="2.4" stroke-linecap="round"/>
  <path d="M369 238C383 232 395 223 406 210" stroke="#20262B" stroke-width="2.4" stroke-linecap="round"/>
</svg>
