<svg width="520" height="520" viewBox="0 0 520 520" fill="none" xmlns="http://www.w3.org/2000/svg">
    <defs>
      <radialGradient id="wash" cx="0" cy="0" r="1" gradientUnits="userSpaceOnUse" gradientTransform="translate(344 112) rotate(122) scale(430 430)">
        <stop offset="0" stop-color="#fffdf8" stop-opacity="0.98"/>
        <stop offset="0.64" stop-color="#f4ebdb" stop-opacity="0.88"/>
        <stop offset="1" stop-color="#eee4d4" stop-opacity="0.96"/>
      </radialGradient>
    </defs>
    <rect width="520" height="520" rx="54" fill="#FBF7F0"/>
    <rect x="34" y="34" width="452" height="452" rx="40" fill="url(#wash)" stroke="rgba(210,198,179,0.62)"/>
  
      
    <circle cx="318" cy="210" r="86" stroke="#1F2328" stroke-opacity="0.2" stroke-width="1.8"/>
    <ellipse cx="318" cy="210" rx="67" ry="86" stroke="#567A84" stroke-opacity="0.24" stroke-width="1.36"/>
    <ellipse cx="318" cy="210" rx="50" ry="86" stroke="#567A84" stroke-opacity="0.16" stroke-width="1.18"/>
    <path d="M318 124V296" stroke="#567A84" stroke-opacity="0.18" stroke-width="1.16"/>
    <path d="M256 180.76C222 170.44 414 170.44 380 180.76" stroke="#567A84" stroke-opacity="0.17" stroke-width="1.1"/>
    <path d="M250 216.88C212 208 424 208 386 216.88" stroke="#567A84" stroke-opacity="0.18" stroke-width="1.1"/>
    <path d="M270 246.12C222 240.96 414 240.96 366 246.12" stroke="#567A84" stroke-opacity="0.15" stroke-width="1.06"/>
  
      
    <g transform="translate(318 210) scale(0.28) translate(-120 -120)">
      <path d="M112 34C142 20 174 18 208 26C242 34 272 50 296 74C320 98 334 126 338 158C342 190 336 220 320 248C304 276 280 298 248 314C216 330 180 336 142 332C104 328 72 312 46 284C20 256 8 224 10 188C12 152 24 122 46 98C68 74 92 54 120 40" stroke="#1F2328" stroke-width="4.5" stroke-linecap="round" stroke-linejoin="round"/>
      <path d="M116 88C136 74 160 68 188 70C214 72 236 82 254 100" stroke="#B67C60" stroke-width="2.8" stroke-linecap="round"/>
      <path d="M96 128C126 110 158 102 194 104C230 106 260 118 286 140" stroke="#567A84" stroke-width="2.2" stroke-linecap="round"/>
      <path d="M88 174C122 154 160 144 202 144C244 144 280 156 308 180" stroke="#567A84" stroke-width="2.2" stroke-linecap="round"/>
      <path d="M98 220C132 200 166 192 202 194C238 196 270 208 296 230" stroke="#567A84" stroke-width="2.1" stroke-linecap="round"/>
      <path d="M126 262C154 248 182 242 210 244C238 246 262 256 282 274" stroke="#B67C60" stroke-width="2.4" stroke-linecap="round"/>
      <path d="M206 310C206 336 214 360 230 384C246 408 268 428 296 442" stroke="#567A84" stroke-width="2.6" stroke-linecap="round"/>
    </g>
  
      <path d="M108 144H232" stroke="#567A84" stroke-opacity="0.24" stroke-width="1.5"/>
      <text x="108" y="382" fill="#1F2328" font-family="Source Serif 4, Georgia, serif" font-size="64" font-weight="600" letter-spacing="-2">ChapAI</text>
      <text x="110" y="420" fill="#6F665A" font-family="DM Sans, Arial, sans-serif" font-size="14" letter-spacing="4">SHARPER NURSING QUESTIONS</text></svg>