<?xml version="1.0" encoding="UTF-8"?>
<svg width="840" height="320" viewBox="0 0 840 320" fill="none" xmlns="http://www.w3.org/2000/svg">
  <rect width="840" height="320" rx="34" fill="#F7F2E8"/>
  <rect x="18" y="18" width="804" height="284" rx="28" fill="#FBF8F2" stroke="#DCCFBD"/>
  <circle cx="128" cy="160" r="108" fill="rgba(255,255,255,0.46)"/>
  <circle cx="128" cy="160" r="92" fill="none" stroke="rgba(195,176,150,0.44)" stroke-width="1.2"/>
  <g transform="translate(32 36)">
    <rect x="0" y="0" width="220" height="248" rx="30" fill="rgba(255,252,247,0.92)" stroke="rgba(210,196,174,0.82)"/>
    <g transform="translate(6 12)">
      
      <path d="M61 114C76 95 93 79 113 67C133 56 154 50 176 50C199 50 219 55 237 66" fill="none" stroke="rgba(28, 26, 23, 0.94)" stroke-width="3.8" stroke-linecap="round"/>
      <path d="M68 134C86 127 104 123 123 123C143 123 160 126 175 132C190 139 205 148 220 161" fill="none" stroke="#B9875A" stroke-width="3" stroke-linecap="round"/>
      <path d="M74 161C88 149 103 141 119 136C135 131 152 129 171 131C189 133 205 138 219 146" fill="none" stroke="#7A9AA1" stroke-width="2.2" stroke-linecap="round"/>
      <path d="M111 78C117 92 121 109 122 129C123 149 121 169 115 189" fill="none" stroke="rgba(28, 26, 23, 0.94)" stroke-width="2" stroke-linecap="round"/>
      <circle cx="122" cy="129" r="33" fill="none" stroke="rgba(28, 26, 23, 0.94)" stroke-width="4"/>
      <path d="M122 96C140 105 152 118 158 135C164 152 165 170 160 187" fill="none" stroke="rgba(28, 26, 23, 0.94)" stroke-width="3.2" stroke-linecap="round"/>
      <path d="M101 154H143L156 142L166 168L182 136L195 154H226" fill="none" stroke="#B9875A" stroke-width="2.6" stroke-linecap="round" stroke-linejoin="round"/>
    
    </g>
  </g>
  <g transform="translate(300 76)">
    <text x="0" y="20" fill="rgba(111, 98, 83, 0.78)" font-family="'DM Sans', Arial, sans-serif" font-size="13" font-weight="700" letter-spacing="4">CHAPAI CLARITY</text>
    <text x="0" y="90" fill="rgba(28, 26, 23, 0.94)" font-family="'Source Serif 4', Georgia, serif" font-size="82" font-weight="600" letter-spacing="-4">ChapAI</text>
    <text x="2" y="132" fill="rgba(111, 98, 83, 0.78)" font-family="'DM Sans', Arial, sans-serif" font-size="16" font-weight="700" letter-spacing="4">NCLEX + CCRN</text>
    <path d="M0 154H224" stroke="rgba(202,188,168,0.7)" stroke-width="1.4"/>
    <text x="0" y="188" fill="#507D84" font-family="'DM Sans', Arial, sans-serif" font-size="12" font-weight="800" letter-spacing="3">ANGIO FIELD</text>
    <text x="0" y="218" fill="rgba(28, 26, 23, 0.94)" font-family="'DM Sans', Arial, sans-serif" font-size="21" font-weight="500">Angiogram editorial wordmark</text>
    <text x="0" y="248" fill="rgba(111, 98, 83, 0.78)" font-family="'DM Sans', Arial, sans-serif" font-size="15" font-weight="500">Cath-lab vessel geometry</text>
  </g>
</svg>