<svg width="480" height="480" viewBox="0 0 480 480" fill="none" xmlns="http://www.w3.org/2000/svg">
  <rect width="480" height="480" rx="48" fill="#F6F1E8"/>
  <circle cx="240" cy="240" r="168" stroke="#DCCFBD" stroke-width="1.9"/>
  <ellipse cx="240" cy="240" rx="116" ry="168" stroke="#5D7E87" stroke-opacity="0.14" stroke-width="1.5"/>
  <path d="M240 94V386" stroke="#C89D60" stroke-width="2.4" stroke-linecap="round"/>
  <path d="M168 172C186 160 205 154 226 154C246 154 263 159 278 170C293 181 305 196 313 216" stroke="#1F252B" stroke-width="3.1" stroke-linecap="round"/>
  <path d="M171 246C188 235 206 230 226 230C244 230 260 234 274 243C288 252 300 265 309 282" stroke="#5D7E87" stroke-width="2.7" stroke-linecap="round"/>
  <path d="M178 314C193 307 210 304 227 304C243 304 257 307 270 313" stroke="#C89D60" stroke-width="2.2" stroke-linecap="round"/>
  <path d="M334 144C315 124 293 109 268 98" stroke="#1F252B" stroke-width="2.4" stroke-linecap="round"/><circle cx="334" cy="144" r="6.3" fill="#C89D60"/>
</svg>