<svg width="480" height="480" viewBox="0 0 480 480" fill="none" xmlns="http://www.w3.org/2000/svg">
    <rect width="480" height="480" rx="48" fill="#FBF7F0"/>
    <rect x="36" y="36" width="408" height="408" rx="36" fill="rgba(255,252,247,0.88)" stroke="rgba(205,189,165,0.46)"/>
    
    <circle cx="240" cy="166" r="78" fill="rgba(255,252,247,0.96)" stroke="rgba(205,189,165,0.5)"/>
    
    <path d="M240 122C224 102 202 92 174 96C146 100 126 118 116 148C108 176 112 208 130 246C148 284 184 324 240 366C292 326 328 286 346 246C366 204 370 170 360 142C350 114 330 98 302 96C272 94 250 104 240 122Z" transform="translate(0 -30)" stroke="rgba(31,31,29,0.86)" stroke-width="2.2" fill="none" stroke-linejoin="round"/>
    <path d="M240 126V208" transform="translate(0 -30)" stroke="#5A7F88" stroke-width="1.72" fill="none" stroke-linecap="round"/>
    <path d="M240 152C226 144 212 144 198 152" transform="translate(0 -30)" stroke="#5A7F88" stroke-width="1.54" fill="none" stroke-linecap="round"/>
    <path d="M240 152C254 144 268 144 282 152" transform="translate(0 -30)" stroke="#5A7F88" stroke-width="1.54" fill="none" stroke-linecap="round"/>
  
    <text x="240" y="308" fill="#1F1F21" text-anchor="middle" font-family="'Source Serif 4', Georgia, serif" font-size="60" font-weight="600" letter-spacing="-2.4">ChapAI</text>
    <text x="240" y="350" fill="#766D61" text-anchor="middle" font-family="'DM Sans', Arial, sans-serif" font-size="14" font-weight="700" letter-spacing="4">CORONARY LINE</text>
  
  </svg>