<svg width="720" height="420" viewBox="0 0 720 420" fill="none" xmlns="http://www.w3.org/2000/svg">
  <rect width="720" height="420" rx="42" fill="#F6F1E8"/>
  <ellipse cx="176" cy="212" rx="102" ry="138" stroke="#D8CEBF" stroke-width="1.8"/>
  <path d="M178 94V326" stroke="#C89E63" stroke-width="2.2" stroke-linecap="round"/>
  <path d="M164 118C178 110 191 111 202 120C213 129 218 142 216 158C214 171 205 182 190 190C175 198 161 199 150 193C140 188 133 178 130 165C127 150 129 138 136 129C143 121 152 117 164 118Z" stroke="#252B30" stroke-width="2.5" stroke-linecap="round" stroke-linejoin="round"/>
  <path d="M175 192C183 201 189 211 193 223C197 237 197 252 193 270C189 289 188 308 190 327" stroke="#252B30" stroke-width="2.5" stroke-linecap="round"/>
  <path d="M168 195C161 210 153 224 142 237C131 249 117 262 101 277" stroke="#252B30" stroke-width="2.5" stroke-linecap="round"/>
  <path d="M184 204C203 197 220 187 236 173C252 159 266 146 279 132" stroke="#252B30" stroke-width="2.5" stroke-linecap="round"/>
  <path d="M194 289C205 315 217 341 230 367" stroke="#252B30" stroke-width="2.5" stroke-linecap="round"/>
  <path d="M182 289C175 313 166 338 155 364" stroke="#252B30" stroke-width="2.5" stroke-linecap="round"/>
  <text x="344" y="184" fill="#20262B" font-family="Georgia, 'Times New Roman', serif" font-size="70" letter-spacing="-2">ChapAI</text>
  <text x="348" y="230" fill="#6B7579" font-family="'DM Sans', Arial, sans-serif" font-size="19" letter-spacing="5">CALMER CLINICAL PREP</text>
  <path d="M514 124H652" stroke="#D8CEBF" stroke-width="1.6"/>
  <path d="M514 166H662" stroke="#E0D7CA" stroke-width="1.2"/>
  <path d="M514 208H644" stroke="#E0D7CA" stroke-width="1.2"/>
</svg>
