<?xml version="1.0" encoding="UTF-8"?>
<svg width="840" height="320" viewBox="0 0 840 320" fill="none" xmlns="http://www.w3.org/2000/svg">
  <rect width="840" height="320" rx="34" fill="#F7F2E8"/>
  <rect x="18" y="18" width="804" height="284" rx="28" fill="#FBF8F2" stroke="#DCCFBD"/>
  <circle cx="128" cy="160" r="108" fill="rgba(255,255,255,0.46)"/>
  <circle cx="128" cy="160" r="92" fill="none" stroke="rgba(195,176,150,0.44)" stroke-width="1.2"/>
  <g transform="translate(32 36)">
    <rect x="0" y="0" width="220" height="248" rx="30" fill="rgba(255,252,247,0.92)" stroke="rgba(210,196,174,0.82)"/>
    <g transform="translate(6 12)">
      
      <path d="M63 107C63 68 86 42 121 42C133 42 144 45 154 51C164 46 175 43 188 43C222 43 246 69 246 107C246 147 222 174 188 174C180 174 172 173 165 171C157 181 145 189 130 193C111 198 94 194 80 184C67 174 63 164 63 153C63 145 64 137 67 129C64 123 63 115 63 107Z" fill="none" stroke="rgba(28, 26, 23, 0.94)" stroke-width="4.2" stroke-linecap="round" stroke-linejoin="round"/>
      <path d="M88 64C101 58 117 56 136 58C153 60 168 66 181 76C193 86 202 101 206 119C209 137 207 155 199 171" fill="none" stroke="#B9875A" stroke-width="2.4" stroke-linecap="round"/>
      <path d="M84 77C95 74 105 76 112 82C118 88 121 97 120 109" fill="none" stroke="#7A9AA1" stroke-width="1.9" stroke-linecap="round"/>
      <path d="M132 62C130 76 132 89 138 100C144 111 148 122 149 134" fill="none" stroke="rgba(28, 26, 23, 0.94)" stroke-width="1.9" stroke-linecap="round" opacity="0.56"/>
      <path d="M157 67C160 80 166 92 174 101C182 110 188 121 190 133" fill="none" stroke="#7A9AA1" stroke-width="1.9" stroke-linecap="round"/>
      <circle cx="112" cy="95" r="4.2" fill="#FFF9F1" stroke="#B9875A" stroke-width="1.5"/>
      <circle cx="158" cy="96" r="4.2" fill="#FFF9F1" stroke="#B9875A" stroke-width="1.5"/>
      <circle cx="140" cy="120" r="4.2" fill="#FFF9F1" stroke="#B9875A" stroke-width="1.5"/>
    
    </g>
  </g>
  <g transform="translate(300 76)">
    <text x="0" y="20" fill="rgba(111, 98, 83, 0.78)" font-family="'DM Sans', Arial, sans-serif" font-size="13" font-weight="700" letter-spacing="4">CHAPAI CLARITY</text>
    <text x="0" y="90" fill="rgba(28, 26, 23, 0.94)" font-family="'Source Serif 4', Georgia, serif" font-size="82" font-weight="600" letter-spacing="-4">ChapAI</text>
    <text x="2" y="132" fill="rgba(111, 98, 83, 0.78)" font-family="'DM Sans', Arial, sans-serif" font-size="16" font-weight="700" letter-spacing="4">NCLEX + CCRN</text>
    <path d="M0 154H224" stroke="rgba(202,188,168,0.7)" stroke-width="1.4"/>
    <text x="0" y="188" fill="#647F71" font-family="'DM Sans', Arial, sans-serif" font-size="12" font-weight="800" letter-spacing="3">CORTICAL</text>
    <text x="0" y="218" fill="rgba(28, 26, 23, 0.94)" font-family="'DM Sans', Arial, sans-serif" font-size="21" font-weight="500">Cortical editorial wordmark</text>
    <text x="0" y="248" fill="rgba(111, 98, 83, 0.78)" font-family="'DM Sans', Arial, sans-serif" font-size="15" font-weight="500">Brain plate linework</text>
  </g>
</svg>