<svg width="520" height="520" viewBox="0 0 520 520" fill="none" xmlns="http://www.w3.org/2000/svg">
  <rect width="520" height="520" rx="52" fill="#FBF7F0"/>
  <rect x="36" y="36" width="448" height="448" rx="40" fill="url(#wash)" stroke="rgba(208,196,177,0.58)"/>
  <defs>
    <radialGradient id="wash" cx="0" cy="0" r="1" gradientUnits="userSpaceOnUse" gradientTransform="translate(338 118) rotate(120) scale(420 420)">
      <stop offset="0" stop-color="#fffdf8" stop-opacity="0.94"/>
      <stop offset="0.64" stop-color="#f3eadb" stop-opacity="0.86"/>
      <stop offset="1" stop-color="#efe5d5" stop-opacity="0.96"/>
    </radialGradient>
  </defs>
  
      <path d="M120 266H186L204 228L228 314L252 198L278 266H400" stroke="#1E222B" stroke-width="3.1" stroke-linecap="round" stroke-linejoin="round"/>
      <path d="M252 136C272 120 293 112 316 114C338 116 356 126 370 144C384 162 390 182 388 206C386 229 377 250 360 269C343 288 317 322 282 372C247 322 221 288 204 269C187 250 178 229 176 206C174 182 180 162 194 144C208 126 226 116 249 114C272 112 293 120 312 136" stroke="#C49B59" stroke-width="2.3" stroke-linecap="round" stroke-linejoin="round"/>
      <text x="132" y="434" fill="#1E222B" font-family="Source Serif 4, Georgia, serif" font-size="58" letter-spacing="-2">ChapAI</text>
    
</svg>