<svg width="1600" height="960" viewBox="0 0 1600 960" fill="none" xmlns="http://www.w3.org/2000/svg">
  <rect width="1600" height="960" fill="#FBF7F0"/>
  <defs>
    <radialGradient id="page-wash" cx="0" cy="0" r="1" gradientUnits="userSpaceOnUse" gradientTransform="translate(1216 345.59999999999997) rotate(90) scale(403.2 403.2)">
      <stop offset="0" stop-color="#fffdf8"/>
      <stop offset="0.62" stop-color="#F3EBDD"/>
      <stop offset="1" stop-color="#F3EBDD"/>
    </radialGradient>
    <radialGradient id="medical-bleed" cx="0" cy="0" r="1" gradientUnits="userSpaceOnUse" gradientTransform="translate(1184 326.40000000000003) rotate(90) scale(268.8 268.8)">
      <stop offset="0" stop-color="rgba(255,253,248,0.96)"/>
      <stop offset="0.58" stop-color="rgba(233,220,199,0.52)"/>
      <stop offset="1" stop-color="rgba(233,220,199,0)"/>
    </radialGradient>
  </defs>
  <rect x="26" y="26" width="1548" height="908" rx="28" fill="url(#page-wash)" stroke="rgba(199,184,160,0.36)"/>
  
    
    <rect x="110" y="70" width="1380" height="82" rx="41" fill="rgba(255,252,247,0.84)" stroke="rgba(212,197,173,0.52)"/>
    <text x="184" y="120" fill="#201F21" font-family="'Source Serif 4', Georgia, serif" font-size="38" font-weight="600" letter-spacing="-2">ChapAI</text>
    <text x="1110" y="120" fill="#7A7064" font-family="'DM Sans', Arial, sans-serif" font-size="20" font-weight="600">CCRN</text>
    <text x="1192" y="120" fill="#7A7064" font-family="'DM Sans', Arial, sans-serif" font-size="20" font-weight="600">NCLEX</text>
    <text x="1286" y="120" fill="#7A7064" font-family="'DM Sans', Arial, sans-serif" font-size="20" font-weight="600">PLANS</text>
    <rect x="1348" y="90" width="114" height="44" rx="22" fill="rgba(255,250,243,0.96)" stroke="rgba(212,197,173,0.54)"/>
    <text x="1384" y="118" fill="#201F21" font-family="'DM Sans', Arial, sans-serif" font-size="20" font-weight="700">SPRINT</text>
  
    
    <text x="154" y="190" fill="#7A7064" font-family="'DM Sans', Arial, sans-serif" font-size="15" font-weight="700" letter-spacing="5">BRONCHIAL SWEEP / PREMIUM MEDICAL SURFACE</text>
    <text x="154" y="280" fill="#201F21" font-family="'DM Sans', Arial, sans-serif" font-size="94" font-weight="500" letter-spacing="-7">Respiratory, perfusion,</text>
    <text x="154" y="370" fill="#201F21" font-family="'DM Sans', Arial, sans-serif" font-size="94" font-weight="500" letter-spacing="-7">and priority</text>
    <text x="154" y="460" fill="#201F21" font-family="'DM Sans', Arial, sans-serif" font-size="94" font-weight="500" letter-spacing="-7">made cleaner.</text>
    <text x="154" y="548" fill="#7A7064" font-family="'DM Sans', Arial, sans-serif" font-size="30">Original questions, elite rationale, and a cleaner route into the right plan.</text>
    <rect x="154" y="612" width="228" height="64" rx="32" fill="#567C85"/>
    <text x="194" y="652" fill="#fff" font-family="'DM Sans', Arial, sans-serif" font-size="25" font-weight="700">Start the $10 sprint</text>
    <rect x="402" y="612" width="196" height="64" rx="32" fill="rgba(255,252,247,0.88)" stroke="rgba(194,178,154,0.62)"/>
    <text x="452" y="652" fill="#201F21" font-family="'DM Sans', Arial, sans-serif" font-size="24" font-weight="600">See plans</text>
  
    <text x="154" y="744" fill="#7A7064" font-family="'DM Sans', Arial, sans-serif" font-size="14" font-weight="700" letter-spacing="4">AI TUTOR + VISUAL RATIONALE + CLEANER CLINICAL FLOW</text>
    <path d="M154 770H640" stroke="rgba(212,197,173,0.62)"/>
    <text x="154" y="842" fill="#7A7064" font-family="'DM Sans', Arial, sans-serif" font-size="14" font-weight="700" letter-spacing="4">ANGLE</text>
    <text x="154" y="886" fill="#201F21" font-family="'Source Serif 4', Georgia, serif" font-size="38" font-weight="600">Bronchial sweep</text>
    
    <ellipse cx="1063.04" cy="391.36" rx="154.88" ry="221.76" fill="url(#medical-bleed)" opacity="0.6"/>
    <ellipse cx="1309.44" cy="391.36" rx="154.88" ry="221.76" fill="url(#medical-bleed)" opacity="0.6"/>
    <ellipse cx="1063.04" cy="398.4" rx="158.4" ry="225.28" stroke="rgba(31,31,29,0.84)" stroke-width="2.112"/>
    <ellipse cx="1309.44" cy="398.4" rx="158.4" ry="225.28" stroke="rgba(31,31,29,0.84)" stroke-width="2.112"/>
    <path d="M1186.24 173.12V651.84" stroke="#C49758" stroke-width="1.848" stroke-linecap="round"/>
    <path d="M1186.24 222.4C1144 248.8 1112.32 280.48 1089.44 320.96000000000004" stroke="#7F8F79" stroke-width="1.76" stroke-linecap="round"/>
    <path d="M1186.24 222.4C1228.48 248.8 1260.16 280.48 1283.04 320.96000000000004" stroke="#7F8F79" stroke-width="1.76" stroke-linecap="round"/>
    <path d="M1089.44 320.96000000000004C1047.2 343.84000000000003 1013.76 373.76 989.12 412.48" stroke="#C49758" stroke-width="1.584" stroke-linecap="round"/>
    <path d="M1089.44 320.96000000000004C1064.8 368.48 1045.44 421.28000000000003 1034.88 479.36" stroke="#C49758" stroke-width="1.584" stroke-linecap="round"/>
    <path d="M1283.04 320.96000000000004C1325.28 343.84000000000003 1358.72 373.76 1383.3600000000001 412.48" stroke="#C49758" stroke-width="1.584" stroke-linecap="round"/>
    <path d="M1283.04 320.96000000000004C1307.68 368.48 1327.04 421.28000000000003 1337.6 479.36" stroke="#C49758" stroke-width="1.584" stroke-linecap="round"/>
    <path d="M1186.24 315.68C1159.84 391.36 1149.28 474.08 1154.56 563.8399999999999" stroke="rgba(31,31,29,0.66)" stroke-width="1.672" stroke-linecap="round"/>
    <path d="M1186.24 315.68C1212.6399999999999 391.36 1223.2 474.08 1217.92 563.8399999999999" stroke="rgba(31,31,29,0.66)" stroke-width="1.672" stroke-linecap="round"/>
  
  
</svg>