<svg width="1600" height="960" viewBox="0 0 1600 960" fill="none" xmlns="http://www.w3.org/2000/svg"><defs><radialGradient id="paper-wash" cx="0" cy="0" r="1" gradientUnits="userSpaceOnUse" gradientTransform="translate(1184 364.8) rotate(90) scale(460.79999999999995 460.79999999999995)"><stop offset="0" stop-color="#fffdf8"/><stop offset="0.5" stop-color="#F1E8D9"/><stop offset="1" stop-color="#FBF7F0"/></radialGradient><radialGradient id="core-wash" cx="0" cy="0" r="1" gradientUnits="userSpaceOnUse" gradientTransform="translate(1248 403.2) rotate(90) scale(249.60000000000002 249.60000000000002)"><stop offset="0" stop-color="#FFFDF8" stop-opacity="0.96"/><stop offset="0.56" stop-color="#E7D8C1" stop-opacity="0.52"/><stop offset="1" stop-color="#E7D8C1" stop-opacity="0"/></radialGradient></defs><rect width="1600" height="960" fill="#FBF7F0"/><rect x="24" y="24" width="1552" height="912" rx="28" fill="url(#paper-wash)" stroke="rgba(210,193,170,0.4)"/><rect x="110" y="70" width="1380" height="82" rx="41" fill="rgba(255,252,247,0.84)" stroke="rgba(212,197,173,0.52)"/><text x="186" y="120" fill="#1F1F21" font-family="'Source Serif 4', Georgia, serif" font-size="38" font-weight="600" letter-spacing="-2">ChapAI</text><text x="1106" y="120" fill="#756B60" font-family="'DM Sans', Arial, sans-serif" font-size="20" font-weight="600">CCRN</text><text x="1190" y="120" fill="#756B60" font-family="'DM Sans', Arial, sans-serif" font-size="20" font-weight="600">NCLEX</text><text x="1284" y="120" fill="#756B60" font-family="'DM Sans', Arial, sans-serif" font-size="20" font-weight="600">PLANS</text><rect x="1350" y="90" width="112" height="44" rx="22" fill="rgba(255,252,247,0.96)" stroke="rgba(212,197,173,0.54)"/><text x="1386" y="118" fill="#1F1F21" font-family="'DM Sans', Arial, sans-serif" font-size="20" font-weight="700">SPRINT</text><text x="150" y="188" fill="#756B60" font-family="'DM Sans', Arial, sans-serif" font-size="15" font-weight="700" letter-spacing="5">CORONARY ATLAS / PREMIUM MEDICAL HERO</text><text x="150" y="286" fill="#1F1F21" font-family="'DM Sans', Arial, sans-serif" font-size="94" font-weight="500" letter-spacing="-7">Clinical prep</text><text x="150" y="374" fill="#1F1F21" font-family="'DM Sans', Arial, sans-serif" font-size="94" font-weight="500" letter-spacing="-7">with a cleaner</text><text x="150" y="462" fill="#1F1F21" font-family="'DM Sans', Arial, sans-serif" font-size="94" font-weight="500" letter-spacing="-7">pulse.</text><text x="150" y="544" fill="#756B60" font-family="'DM Sans', Arial, sans-serif" font-size="30">Original questions, elite rationale, and a direct path into the right plan.</text><rect x="150" y="610" width="236" height="64" rx="32" fill="#5E818A"/><text x="193" y="650" fill="#fff" font-family="'DM Sans', Arial, sans-serif" font-size="25" font-weight="700">Start the $10 sprint</text><rect x="402" y="610" width="196" height="64" rx="32" fill="rgba(255,252,247,0.92)" stroke="rgba(194,178,154,0.6)"/><text x="456" y="650" fill="#1F1F21" font-family="'DM Sans', Arial, sans-serif" font-size="24" font-weight="600">See plans</text><text x="150" y="736" fill="#756B60" font-family="'DM Sans', Arial, sans-serif" font-size="14" font-weight="700" letter-spacing="4">AI TUTOR + VISUAL RATIONALE + CLEAN CLINICAL FLOW</text><path d="M150 764H672" stroke="rgba(212,197,173,0.6)"/><path d="M706 184C862 132 1012 110 1156 118C1318 126 1462 172 1588 256C1674 312 1744 380 1798 460" stroke="rgba(101,120,126,0.18)" stroke-width="1.24" fill="none" stroke-linecap="round"/><path d="M690 336C842 286 994 266 1146 276C1308 286 1456 332 1592 414C1676 466 1744 530 1796 608" stroke="rgba(101,120,126,0.1)" stroke-width="1.06" fill="none" stroke-linecap="round"/><path d="M714 514C862 476 1008 462 1152 472C1300 482 1438 520 1566 586C1652 630 1720 688 1772 760" stroke="rgba(101,120,126,0.18)" stroke-width="1.18" fill="none" stroke-linecap="round"/><path d="M1018 86C1036 222 1054 362 1072 506C1090 650 1122 800 1168 954" stroke="rgba(101,120,126,0.08)" stroke-width="1.02" fill="none" stroke-linecap="round"/><path d="M1184 72C1190 212 1202 354 1220 500C1238 648 1270 800 1316 956" stroke="rgba(101,120,126,0.16)" stroke-width="1.12" fill="none" stroke-linecap="round"/><path d="M1016 176C932 176 860 208 800 272C740 334 710 420 710 530C710 654 758 758 854 842C950 926 1044 998 1136 1058C1214 1006 1302 934 1400 842C1498 748 1558 646 1580 536C1602 426 1578 334 1508 260C1438 186 1354 158 1256 176C1192 188 1138 226 1096 290C1050 226 992 188 922 176Z" fill="url(#core-wash)" opacity="0.82"/><path d="M1038 198C962 198 898 226 846 282C796 338 772 410 774 498C776 588 814 674 888 756C954 830 1028 900 1110 968C1178 918 1254 848 1338 758C1422 666 1470 576 1482 488C1494 400 1472 330 1416 278C1360 226 1296 204 1224 212C1170 218 1124 254 1086 320C1046 250 996 210 936 204Z" stroke="rgba(31,31,29,0.88)" stroke-width="2.9" fill="none" stroke-linejoin="round"/><path d="M1086 250C1084 340 1088 430 1098 520C1108 612 1114 702 1114 792" stroke="#C89B5B" stroke-width="2.04" fill="none" stroke-linecap="round"/><path d="M1092 366C1028 370 976 392 936 432" stroke="#C89B5B" stroke-width="1.72" fill="none" stroke-linecap="round"/><path d="M1104 366C1172 364 1230 388 1278 438" stroke="#C89B5B" stroke-width="1.72" fill="none" stroke-linecap="round"/><path d="M954 814H1294" stroke="rgba(101,120,126,0.1)" stroke-width="1.12" fill="none" stroke-linecap="round"/><path d="M954 814H1018L1058 764L1090 878L1134 704L1170 834L1206 794H1294" stroke="#B98169" stroke-width="2.12" fill="none" stroke-linecap="round" stroke-linejoin="round"/><text x="150" y="842" fill="#756B60" font-family="'DM Sans', Arial, sans-serif" font-size="14" font-weight="700" letter-spacing="4">CURRENT ANGLE</text><text x="150" y="888" fill="#1F1F21" font-family="'Source Serif 4', Georgia, serif" font-size="38" font-weight="600">Coronary atlas</text></svg>