<svg width="1600" height="960" viewBox="0 0 1600 960" fill="none" xmlns="http://www.w3.org/2000/svg">
  <rect width="1600" height="960" fill="#FBF7F0"/>
  <defs>
    <radialGradient id="page-wash" cx="0" cy="0" r="1" gradientUnits="userSpaceOnUse" gradientTransform="translate(1216 345.59999999999997) rotate(90) scale(403.2 403.2)">
      <stop offset="0" stop-color="#fffdf8"/>
      <stop offset="0.62" stop-color="#F3EBDD"/>
      <stop offset="1" stop-color="#F3EBDD"/>
    </radialGradient>
    <radialGradient id="medical-bleed" cx="0" cy="0" r="1" gradientUnits="userSpaceOnUse" gradientTransform="translate(1184 326.40000000000003) rotate(90) scale(268.8 268.8)">
      <stop offset="0" stop-color="rgba(255,253,248,0.96)"/>
      <stop offset="0.58" stop-color="rgba(233,220,199,0.52)"/>
      <stop offset="1" stop-color="rgba(233,220,199,0)"/>
    </radialGradient>
  </defs>
  <rect x="26" y="26" width="1548" height="908" rx="28" fill="url(#page-wash)" stroke="rgba(199,184,160,0.36)"/>
  
    
    <rect x="110" y="70" width="1380" height="82" rx="41" fill="rgba(255,252,247,0.84)" stroke="rgba(212,197,173,0.52)"/>
    <text x="184" y="120" fill="#201F21" font-family="'Source Serif 4', Georgia, serif" font-size="38" font-weight="600" letter-spacing="-2">ChapAI</text>
    <text x="1110" y="120" fill="#7A7064" font-family="'DM Sans', Arial, sans-serif" font-size="20" font-weight="600">CCRN</text>
    <text x="1192" y="120" fill="#7A7064" font-family="'DM Sans', Arial, sans-serif" font-size="20" font-weight="600">NCLEX</text>
    <text x="1286" y="120" fill="#7A7064" font-family="'DM Sans', Arial, sans-serif" font-size="20" font-weight="600">PLANS</text>
    <rect x="1348" y="90" width="114" height="44" rx="22" fill="rgba(255,250,243,0.96)" stroke="rgba(212,197,173,0.54)"/>
    <text x="1384" y="118" fill="#201F21" font-family="'DM Sans', Arial, sans-serif" font-size="20" font-weight="700">SPRINT</text>
  
    
    <text x="154" y="190" fill="#7A7064" font-family="'DM Sans', Arial, sans-serif" font-size="15" font-weight="700" letter-spacing="5">NEURAL VEIL / PREMIUM MEDICAL SURFACE</text>
    <text x="154" y="280" fill="#201F21" font-family="'DM Sans', Arial, sans-serif" font-size="94" font-weight="500" letter-spacing="-7">A calmer, more</text>
    <text x="154" y="370" fill="#201F21" font-family="'DM Sans', Arial, sans-serif" font-size="94" font-weight="500" letter-spacing="-7">intelligent way</text>
    <text x="154" y="460" fill="#201F21" font-family="'DM Sans', Arial, sans-serif" font-size="94" font-weight="500" letter-spacing="-7">to prepare.</text>
    <text x="154" y="548" fill="#7A7064" font-family="'DM Sans', Arial, sans-serif" font-size="30">Original questions, elite rationale, and a cleaner route into the right plan.</text>
    <rect x="154" y="612" width="228" height="64" rx="32" fill="#567C85"/>
    <text x="194" y="652" fill="#fff" font-family="'DM Sans', Arial, sans-serif" font-size="25" font-weight="700">Start the $10 sprint</text>
    <rect x="402" y="612" width="196" height="64" rx="32" fill="rgba(255,252,247,0.88)" stroke="rgba(194,178,154,0.62)"/>
    <text x="452" y="652" fill="#201F21" font-family="'DM Sans', Arial, sans-serif" font-size="24" font-weight="600">See plans</text>
  
    <text x="154" y="744" fill="#7A7064" font-family="'DM Sans', Arial, sans-serif" font-size="14" font-weight="700" letter-spacing="4">AI TUTOR + VISUAL RATIONALE + CLEANER CLINICAL FLOW</text>
    <path d="M154 770H640" stroke="rgba(212,197,173,0.62)"/>
    <text x="154" y="842" fill="#7A7064" font-family="'DM Sans', Arial, sans-serif" font-size="14" font-weight="700" letter-spacing="4">ANGLE</text>
    <text x="154" y="886" fill="#201F21" font-family="'Source Serif 4', Georgia, serif" font-size="38" font-weight="600">Neural veil</text>
    
    <path d="M925.76 188.95999999999998C1010.24 139.68 1124.64 113.28 1268.96 116.8C1395.6799999999998 120.32 1492.48 159.04 1557.6 232.95999999999998C1619.2 303.36 1649.12 391.36 1643.8400000000001 496.96C1638.56 600.8 1603.3600000000001 687.04 1538.24 753.92C1473.12 819.04 1395.6799999999998 857.76 1305.92 870.08C1217.92 882.4 1136.96 871.84 1061.28 834.88C985.6 797.92 927.52 741.6 887.04 664.16C846.56 586.72 832.48 498.72 844.8 400.16C855.36 301.6 881.76 231.2 925.76 188.95999999999998Z" fill="url(#medical-bleed)" opacity="0.9"/>
    <path d="M946.88 211.84C1029.6 169.6 1135.2 148.48 1265.44 152C1385.12 155.52 1476.6399999999999 192.48000000000002 1538.24 261.12C1596.3200000000002 326.24 1624.48 407.2 1619.2 504C1613.92 600.8 1580.48 681.76 1518.88 743.36C1457.28 804.96 1383.3600000000001 841.92 1297.12 856" stroke="rgba(31,31,29,0.84)" stroke-width="2.2880000000000003" fill="none" stroke-linecap="round" stroke-linejoin="round"/>
    <path d="M980.32 269.91999999999996C1026.08 236.48 1077.12 218.88 1131.68 217.12C1195.04 215.36 1249.6 234.72 1295.3600000000001 275.2" stroke="rgba(31,31,29,0.78)" stroke-width="1.9360000000000002" fill="none" stroke-linecap="round"/>
    <path d="M1047.2 357.91999999999996C1085.92 324.48 1131.68 308.64 1184.48 310.4C1242.56 312.15999999999997 1291.84 335.03999999999996 1332.32 379.04" stroke="rgba(31,31,29,0.76)" stroke-width="1.848" fill="none" stroke-linecap="round"/>
    <path d="M1149.28 444.16C1105.28 493.44 1077.12 546.24 1064.8 602.56" stroke="#567C85" stroke-width="1.6280000000000001" fill="none" stroke-linecap="round"/>
    <path d="M1196.8 460C1209.12 511.04 1235.52 562.0799999999999 1277.76 613.12" stroke="#C49758" stroke-width="1.6280000000000001" fill="none" stroke-linecap="round"/>
    <path d="M1307.68 484.64C1344.6399999999999 449.44 1388.6399999999999 428.32 1437.92 419.52C1496 408.96 1545.28 416 1587.52 440.64" stroke="#567C85" stroke-width="1.716" fill="none" stroke-linecap="round"/>
    <path d="M1191.52 486.4C1195.04 600.8 1212.6399999999999 701.12 1246.08 787.36" stroke="#C49758" stroke-width="1.76" fill="none" stroke-linecap="round"/>
    <path d="M1202.08 565.6C1168.6399999999999 606.0799999999999 1142.24 653.6 1124.64 708.16" stroke="#567C85" stroke-width="1.496" fill="none" stroke-linecap="round"/>
    <path d="M1230.24 577.9200000000001C1270.72 611.36 1307.68 655.36 1339.3600000000001 711.68" stroke="#567C85" stroke-width="1.496" fill="none" stroke-linecap="round"/>
    <circle cx="1202.08" cy="565.6" r="6.16" fill="#FBF7F0" stroke="#C49758" stroke-width="1.056"/>
  
  
</svg>