<svg width="1600" height="520" viewBox="0 0 1600 520" fill="none" xmlns="http://www.w3.org/2000/svg">
    <defs>
      <radialGradient id="paper-wash" cx="0" cy="0" r="1" gradientUnits="userSpaceOnUse" gradientTransform="translate(1180 420) rotate(90) scale(420 420)">
        <stop offset="0" stop-color="#FFFDF8" />
        <stop offset="0.4" stop-color="#F2EBDD" />
        <stop offset="1" stop-color="#FBF7F0" />
      </radialGradient>
      <radialGradient id="bleed-wash" cx="0" cy="0" r="1" gradientUnits="userSpaceOnUse" gradientTransform="translate(1260 446) rotate(90) scale(360 360)">
        <stop offset="0" stop-color="#fffaf2" stop-opacity="0.98" />
        <stop offset="0.52" stop-color="#E9DBC7" stop-opacity="0.56" />
        <stop offset="1" stop-color="#E9DBC7" stop-opacity="0" />
      </radialGradient>
    </defs>
    <rect width="1600" height="520" fill="#FBF7F0" />
    
    <rect x="42" y="42" width="1516" height="434" rx="34" fill="rgba(255,252,247,0.9)" stroke="rgba(212,197,173,0.52)"/>
    <text x="112" y="164" fill="#1F1F21" font-family="'Source Serif 4', Georgia, serif" font-size="70" font-weight="600" letter-spacing="-3">ChapAI</text>
    <text x="112" y="224" fill="#766D61" font-family="'DM Sans', Arial, sans-serif" font-size="18" font-weight="700" letter-spacing="5">NCLEX + CCRN / CLEANER CLINICAL PREP</text>
    <text x="112" y="294" fill="#1F1F21" font-family="'DM Sans', Arial, sans-serif" font-size="48" font-weight="500" letter-spacing="-3">Original questions. Better bedside reasoning.</text>
    <text x="112" y="350" fill="#766D61" font-family="'DM Sans', Arial, sans-serif" font-size="25">AI tutor, visual rationale, and a calmer package path.</text>
    
    <path d="M786 152C910 130 1044 128 1188 144C1334 160 1472 196 1602 252C1718 302 1824 372 1920 462" stroke="rgba(92,104,110,0.15)" stroke-width="1.18" fill="none" stroke-linecap="round"/>
    <path d="M748 324C882 300 1018 302 1156 320C1296 338 1430 374 1558 432C1680 488 1794 572 1900 682" stroke="rgba(92,104,110,0.1)" stroke-width="1.08" fill="none" stroke-linecap="round"/>
    <path d="M764 548C906 520 1050 522 1196 542C1340 562 1478 602 1610 666C1728 722 1840 810 1946 932" stroke="rgba(92,104,110,0.12)" stroke-width="1.12" fill="none" stroke-linecap="round"/>
    <path d="M1000 92C1034 236 1060 386 1078 542C1094 704 1102 862 1102 1014" stroke="rgba(92,104,110,0.08)" stroke-width="1.04" fill="none" stroke-linecap="round"/>
    <path d="M1214 86C1216 236 1222 386 1232 538C1244 690 1262 850 1286 1014" stroke="rgba(92,104,110,0.14)" stroke-width="1.04" fill="none" stroke-linecap="round"/>
  
    
    <circle cx="1286" cy="512" r="318" fill="url(#bleed-wash)" opacity="0.92"/>
    <circle cx="1286" cy="512" r="326" stroke="rgba(93,107,112,0.18)" stroke-width="1.5"/>
    <circle cx="1286" cy="512" r="62" fill="#FFFDF8" stroke="rgba(24,22,20,0.18)" stroke-width="1.1"/>
    <path d="M1286 512C1212 442 1136 380 1058 326C980 272 892 232 794 206" stroke="rgba(24,22,20,0.92)" stroke-width="2.8" fill="none" stroke-linecap="round"/>
    <path d="M1286 512C1360 442 1436 380 1514 326C1592 272 1680 232 1778 206" stroke="rgba(24,22,20,0.92)" stroke-width="2.8" fill="none" stroke-linecap="round"/>
    <path d="M1286 512C1214 588 1144 664 1076 740C1008 816 946 900 890 992" stroke="rgba(24,22,20,0.84)" stroke-width="2.4" fill="none" stroke-linecap="round"/>
    <path d="M1286 512C1358 588 1428 664 1496 740C1564 816 1626 900 1682 992" stroke="rgba(24,22,20,0.84)" stroke-width="2.4" fill="none" stroke-linecap="round"/>
    <path d="M1286 512C1286 430 1292 340 1300 238" stroke="#C59B5E" stroke-width="1.92" fill="none" stroke-linecap="round"/>
    <path d="M1286 512C1286 598 1288 694 1296 796" stroke="#C59B5E" stroke-width="1.92" fill="none" stroke-linecap="round"/>
    <circle cx="794" cy="206" r="5" fill="#5A7F88"/>
    <circle cx="1778" cy="206" r="5" fill="#5A7F88"/>
    <circle cx="890" cy="992" r="4.6" fill="#B67F67"/>
    <circle cx="1682" cy="992" r="4.6" fill="#B67F67"/>
  
  
  </svg>