<svg width="1600" height="520" viewBox="0 0 1600 520" fill="none" xmlns="http://www.w3.org/2000/svg">
  <rect width="1600" height="520" fill="#FBF7F0"/>
  <rect x="26" y="26" width="1548" height="468" rx="28" fill="url(#page-wash)" stroke="rgba(195,178,154,0.36)"/>
  <defs>
    <radialGradient id="page-wash" cx="0" cy="0" r="1" gradientUnits="userSpaceOnUse" gradientTransform="translate(1088 166.4) rotate(90) scale(249.6 249.6)">
      <stop offset="0" stop-color="#fffdf8"/>
      <stop offset="0.68" stop-color="#F4EEE3"/>
      <stop offset="1" stop-color="#F4EEE3"/>
    </radialGradient>
    <radialGradient id="bleed" cx="0" cy="0" r="1" gradientUnits="userSpaceOnUse" gradientTransform="translate(1216 197.6) rotate(90) scale(176.8 176.8)">
      <stop offset="0" stop-color="rgba(255,253,248,0.96)"/>
      <stop offset="0.62" stop-color="rgba(239,226,206,0.56)"/>
      <stop offset="1" stop-color="rgba(239,226,206,0)"/>
    </radialGradient>
  </defs>
  
    <rect x="46" y="46" width="1508" height="428" rx="34" fill="rgba(255,252,247,0.88)" stroke="rgba(212,197,173,0.52)"/>
    <text x="118" y="180" fill="#201F21" font-family="'Source Serif 4', Georgia, serif" font-size="72" font-weight="600" letter-spacing="-3">ChapAI</text>
    <text x="118" y="240" fill="#7D705F" font-family="'DM Sans', Arial, sans-serif" font-size="18" font-weight="700" letter-spacing="5">NCLEX + CCRN / CLEANER CLINICAL PREP</text>
    <text x="118" y="318" fill="#201F21" font-family="'DM Sans', Arial, sans-serif" font-size="50" font-weight="500" letter-spacing="-3">Original questions. Elite rationale.</text>
    <text x="118" y="374" fill="#7D705F" font-family="'DM Sans', Arial, sans-serif" font-size="26">AI tutor, visual guidance, and a faster path into the right plan.</text>
    
    <path d="M913.44 158.64000000000001C969.44 121.68 1036.64 101.52000000000001 1115.04 99.28C1192.3200000000002 97.04 1249.44 116.08000000000001 1285.28 156.4C1321.1200000000001 196.72000000000003 1339.04 250.48000000000002 1339.04 318.8C1339.04 386.00000000000006 1324.48 439.76000000000005 1295.3600000000001 480.08000000000004" stroke="rgba(86,124,133,0.42)" stroke-width="1.2320000000000002" fill="none" stroke-linecap="round"/>
    <path d="M987.36 194.48000000000002H1213.6" stroke="rgba(31,31,29,0.18)" stroke-width="0.8400000000000001" stroke-dasharray="2.8000000000000003 5.6000000000000005"/>
    <path d="M969.44 259.44000000000005H1247.2" stroke="rgba(31,31,29,0.16)" stroke-width="0.784" stroke-dasharray="2.8000000000000003 5.6000000000000005"/>
    <path d="M951.52 324.40000000000003H1266.24" stroke="rgba(31,31,29,0.16)" stroke-width="0.784" stroke-dasharray="2.8000000000000003 5.6000000000000005"/>
    <path d="M1003.04 215.76000000000002C1035.52 188.88 1072.48 175.44 1113.92 175.44C1163.2 175.44 1202.4 194.48000000000002 1231.52 233.68C1260.64 272.88 1269.6 318.8 1257.28 370.32000000000005C1244.96 421.84000000000003 1215.8400000000001 463.28000000000003 1168.8 493.52000000000004C1121.76 522.6400000000001 1076.96 531.6 1034.4 520.4000000000001" stroke="rgba(31,31,29,0.86)" stroke-width="1.4000000000000001" fill="none" stroke-linecap="round" stroke-linejoin="round"/>
    <path d="M1060.16 238.16000000000003C1084.8 220.24 1111.68 211.28 1141.92 211.28C1176.64 211.28 1204.64 225.84 1225.92 254.96" stroke="#567C85" stroke-width="1.064" fill="none" stroke-linecap="round"/>
    <path d="M1139.68 158.64000000000001V480.08000000000004" stroke="#A87763" stroke-width="1.0080000000000002" stroke-linecap="round"/>
    <path d="M1014.24 419.6H1044.48L1057.92 394.96000000000004L1075.84 464.40000000000003L1099.3600000000001 352.40000000000003L1117.28 419.6H1153.1200000000001" stroke="#A87763" stroke-width="1.2320000000000002" fill="none" stroke-linecap="round" stroke-linejoin="round"/>
    <circle cx="1231.52" cy="233.68" r="3.9200000000000004" fill="#FBF7F0" stroke="#567C85" stroke-width="0.672"/>
  
  
</svg>