<svg width="480" height="480" viewBox="0 0 480 480" fill="none" xmlns="http://www.w3.org/2000/svg">
    <rect width="480" height="480" rx="48" fill="#FBF7F0"/>
    <rect x="36" y="36" width="408" height="408" rx="36" fill="rgba(255,252,247,0.84)" stroke="rgba(205,189,165,0.46)"/>
    
    <circle cx="240" cy="166" r="76" fill="rgba(255,252,247,0.96)" stroke="rgba(205,189,165,0.54)"/>
    
    <path d="M284 128C266 116 246 110 224 110C188 110 158 122 134 146C110 170 98 200 98 236C98 272 110 302 134 326C158 350 188 362 224 362C246 362 266 356 284 344" stroke="rgba(32,31,33,0.88)" stroke-width="2.4" fill="none" stroke-linecap="round"/>
    <path d="M250 148C232 138 214 138 198 146" stroke="#B67D66" stroke-width="1.6" fill="none" stroke-linecap="round"/>
    <path d="M250 212C228 198 208 196 190 206" stroke="#B67D66" stroke-width="1.6" fill="none" stroke-linecap="round"/>
    <path d="M250 278C228 264 208 262 190 272" stroke="#B67D66" stroke-width="1.6" fill="none" stroke-linecap="round"/>
    <path d="M278 112V360" stroke="rgba(32,31,33,0.24)" stroke-width="1.2" fill="none"/>
  
    <text x="240" y="308" fill="#1F1F21" text-anchor="middle" font-family="'Source Serif 4', Georgia, serif" font-size="60" font-weight="600" letter-spacing="-2.4">ChapAI</text>
    <text x="240" y="350" fill="#7A7064" text-anchor="middle" font-family="'DM Sans', Arial, sans-serif" font-size="14" font-weight="700" letter-spacing="4">VESSEL MONOGRAM</text>
  
  </svg>