<svg width="240" height="240" viewBox="0 0 240 240" fill="none" xmlns="http://www.w3.org/2000/svg">
  <rect width="240" height="240" rx="48" fill="#F7F3EA"/>
  <path d="M164 78C152 66.5 138 60 120.8 60C85.6 60 62 84 62 120.2C62 156 85.2 180 118.4 180C136.6 180 152 173.2 165.4 159.6" stroke="#1F262B" stroke-width="4.2" stroke-linecap="round"/>
  <path d="M90 98C97 91.5 105.2 88.4 114.8 88.4C135.6 88.4 150 102.6 150 121.2C150 139.8 135.6 153.8 114.8 153.8C105.8 153.8 98.2 151 91.2 145.2" stroke="#5E8791" stroke-width="3.2" stroke-linecap="round"/>
  <path d="M109 108V135" stroke="#C4A060" stroke-width="2.6" stroke-linecap="round"/>
  <path d="M96 121.5H123" stroke="#C4A060" stroke-width="2.6" stroke-linecap="round"/>
  <circle cx="114.8" cy="121.2" r="43.8" stroke="#D8D1C4" stroke-width="1.2"/>
</svg>
