<svg width="480" height="480" viewBox="0 0 480 480" fill="none" xmlns="http://www.w3.org/2000/svg">
    <rect width="480" height="480" rx="48" fill="#FBF7F0"/>
    <rect x="36" y="36" width="408" height="408" rx="36" fill="rgba(255,252,247,0.82)" stroke="rgba(205,189,165,0.46)"/>
    
    <circle cx="240" cy="240" r="136" stroke="rgba(86,124,133,0.18)" stroke-width="1.5"/>
    <circle cx="240" cy="240" r="98" stroke="rgba(86,124,133,0.16)" stroke-width="1.1"/>
    <path d="M240 118V348" stroke="#A87763" stroke-width="2.2" stroke-linecap="round"/>
    <path d="M240 170C212 156 188 136 168 110" stroke="#201F21" stroke-width="2.4" stroke-linecap="round"/>
    <path d="M240 170C268 156 292 136 312 110" stroke="#201F21" stroke-width="2.4" stroke-linecap="round"/>
    <path d="M240 228C204 224 174 236 150 264" stroke="#A87763" stroke-width="1.9" stroke-linecap="round"/>
    <path d="M240 228C276 224 306 236 330 264" stroke="#A87763" stroke-width="1.9" stroke-linecap="round"/>
    <path d="M240 286C216 300 198 320 186 346" stroke="#201F21" stroke-opacity="0.52" stroke-width="1.8" stroke-linecap="round"/>
    <path d="M240 286C264 300 282 320 294 346" stroke="#201F21" stroke-opacity="0.52" stroke-width="1.8" stroke-linecap="round"/>
    <circle cx="240" cy="102" r="7" fill="#FBF7F0" stroke="#A87763" stroke-width="1.2"/>
  
  </svg>