<svg width="480" height="480" viewBox="0 0 480 480" fill="none" xmlns="http://www.w3.org/2000/svg">
  <rect width="480" height="480" rx="48" fill="#FBF7F0"/>
  <rect x="36" y="36" width="408" height="408" rx="36" fill="url(#wash)" stroke="rgba(208,194,170,0.5)"/>
  <defs>
    <radialGradient id="wash" cx="0" cy="0" r="1" gradientUnits="userSpaceOnUse" gradientTransform="translate(164 102) rotate(52) scale(352 352)">
      <stop stop-color="rgba(255,255,255,0.9)"/>
      <stop offset="1" stop-color="rgba(242,233,221,0.96)"/>
    </radialGradient>
  </defs>
  
    <circle cx="240" cy="240" r="120" stroke="#201E22" stroke-opacity="0.2" stroke-width="1.5"/>
    <circle cx="240" cy="240" r="98" stroke="#C19A56" stroke-opacity="0.7" stroke-width="1.1" stroke-dasharray="2 8"/>
    <circle cx="240" cy="240" r="76" stroke="#75866F" stroke-opacity="0.24" stroke-width="1.1"/>
    <path d="M240 154V326" stroke="#201E22" stroke-width="2.4" stroke-linecap="round"/>
    <path d="M194 196C206 182 221 175 240 175C259 175 274 182 286 196C298 210 304 225 304 242C304 259 298 274 286 286C274 298 259 304 240 304C221 304 206 298 194 286C182 274 176 259 176 242C176 225 182 210 194 196Z" stroke="#C19A56" stroke-width="2.1"/>
    <text x="186" y="384" fill="#201E22" font-family="'DM Sans', Arial, sans-serif" font-size="18" font-weight="700" letter-spacing="5">CHAPAI</text>
  
</svg>