<svg width="256" height="256" viewBox="0 0 256 256" fill="none" xmlns="http://www.w3.org/2000/svg">
  <rect width="256" height="256" rx="48" fill="#F8F3E8"/>
  <circle cx="128" cy="128" r="82" stroke="#D5C5A5" stroke-width="3"/>
  <circle cx="128" cy="128" r="62" stroke="#2B3A40" stroke-width="4.5"/>
  <path d="M128 84C145 84 161 96 164 112C166 123 161 132 154 138C147 144 138 148 132 155C127 149 118 144 111 138C104 132 99 123 101 112C104 96 120 84 128 84Z" stroke="#2B3A40" stroke-width="4.5" stroke-linejoin="round"/>
  <path d="M128 100C132 112 140 118 151 121" stroke="#C78F58" stroke-width="3.5" stroke-linecap="round"/>
  <path d="M128 100C124 112 116 118 105 121" stroke="#C78F58" stroke-width="3.5" stroke-linecap="round"/>
  <path d="M128 154V178" stroke="#2B3A40" stroke-width="4" stroke-linecap="round"/>
</svg>
