<svg width="480" height="480" viewBox="0 0 480 480" fill="none" xmlns="http://www.w3.org/2000/svg">
    <rect width="480" height="480" rx="48" fill="#FBF7F0"/>
    <rect x="36" y="36" width="408" height="408" rx="36" fill="rgba(255,252,247,0.84)" stroke="rgba(205,189,165,0.46)"/>
    
    <circle cx="240" cy="164" r="76" fill="rgba(255,252,247,0.96)" stroke="rgba(205,189,165,0.54)"/>
    
    <path d="M240 126C214 96 178 82 134 86C92 90 64 114 54 160C44 206 54 254 84 306C114 358 166 406 240 450C308 410 360 360 392 302C424 244 436 194 426 152C416 110 388 88 344 86C300 84 266 98 240 126Z" transform="translate(0 -58) scale(0.9)" fill="rgba(233,220,199,0.48)"/>
    <path d="M240 130C216 102 184 90 144 94C106 98 80 122 68 166C58 208 66 252 94 298C122 344 172 392 240 434C304 394 352 346 382 290C412 234 422 190 414 158C404 126 380 104 342 100C302 96 268 106 240 130Z" transform="translate(0 -54) scale(0.9)" stroke="rgba(32,31,33,0.88)" stroke-width="2.4" fill="none"/>
    <path d="M240 138V240" stroke="#C49758" stroke-width="2" stroke-linecap="round"/>
    <path d="M240 168C220 158 202 158 186 168" stroke="#C49758" stroke-width="1.7" stroke-linecap="round"/>
    <path d="M240 168C260 158 278 158 294 168" stroke="#C49758" stroke-width="1.7" stroke-linecap="round"/>
  
    <text x="240" y="308" fill="#201F21" text-anchor="middle" font-family="'Source Serif 4', Georgia, serif" font-size="62" font-weight="600" letter-spacing="-2.6">ChapAI</text>
    <text x="240" y="350" fill="#7A7064" text-anchor="middle" font-family="'DM Sans', Arial, sans-serif" font-size="14" font-weight="700" letter-spacing="4">CORONARY PREP MARK</text>
  
  </svg>