<?xml version="1.0" encoding="UTF-8"?>
<svg width="840" height="320" viewBox="0 0 840 320" fill="none" xmlns="http://www.w3.org/2000/svg">
  <rect width="840" height="320" rx="34" fill="#F7F2E8"/>
  <rect x="18" y="18" width="804" height="284" rx="28" fill="#FBF8F2" stroke="#DCCFBD"/>
  <circle cx="128" cy="160" r="108" fill="rgba(255,255,255,0.46)"/>
  <circle cx="128" cy="160" r="92" fill="none" stroke="rgba(195,176,150,0.44)" stroke-width="1.2"/>
  <g transform="translate(32 36)">
    <rect x="0" y="0" width="220" height="248" rx="30" fill="rgba(255,252,247,0.92)" stroke="rgba(210,196,174,0.82)"/>
    <g transform="translate(6 12)">
      
      <path d="M127 44V104" fill="none" stroke="rgba(28, 26, 23, 0.94)" stroke-width="4.2" stroke-linecap="round"/>
      <path d="M127 104C96 84 76 70 61 54" fill="none" stroke="rgba(28, 26, 23, 0.94)" stroke-width="3.8" stroke-linecap="round" stroke-linejoin="round"/>
      <path d="M127 104C158 84 178 70 193 54" fill="none" stroke="rgba(28, 26, 23, 0.94)" stroke-width="3.8" stroke-linecap="round" stroke-linejoin="round"/>
      <path d="M127 104C109 123 97 148 91 180" fill="none" stroke="#7A9AA1" stroke-width="2.4" stroke-linecap="round"/>
      <path d="M127 104C145 123 157 148 163 180" fill="none" stroke="#7A9AA1" stroke-width="2.4" stroke-linecap="round"/>
      <path d="M86 82C79 106 79 127 86 147C93 167 106 183 125 195C125 195 127 191 127 187C127 179 127 169 127 159C120 133 107 111 86 82Z" fill="none" stroke="#B9875A" stroke-width="4.1" stroke-linejoin="round"/>
      <path d="M168 82C175 106 175 127 168 147C161 167 148 183 129 195C129 195 127 191 127 187C127 179 127 169 127 159C134 133 147 111 168 82Z" fill="none" stroke="#B9875A" stroke-width="4.1" stroke-linejoin="round"/>
      <path d="M108 121C113 118 117 118 122 121" fill="none" stroke="rgba(28, 26, 23, 0.94)" stroke-width="1.7" stroke-linecap="round"/>
      <path d="M134 121C139 118 143 118 148 121" fill="none" stroke="rgba(28, 26, 23, 0.94)" stroke-width="1.7" stroke-linecap="round"/>
    
    </g>
  </g>
  <g transform="translate(300 76)">
    <text x="0" y="20" fill="rgba(111, 98, 83, 0.78)" font-family="'DM Sans', Arial, sans-serif" font-size="13" font-weight="700" letter-spacing="4">CHAPAI CLARITY</text>
    <text x="0" y="90" fill="rgba(28, 26, 23, 0.94)" font-family="'Source Serif 4', Georgia, serif" font-size="82" font-weight="600" letter-spacing="-4">ChapAI</text>
    <text x="2" y="132" fill="rgba(111, 98, 83, 0.78)" font-family="'DM Sans', Arial, sans-serif" font-size="16" font-weight="700" letter-spacing="4">NCLEX + CCRN</text>
    <path d="M0 154H224" stroke="rgba(202,188,168,0.7)" stroke-width="1.4"/>
    <text x="0" y="188" fill="#65857A" font-family="'DM Sans', Arial, sans-serif" font-size="12" font-weight="800" letter-spacing="3">PULMONARY ARC</text>
    <text x="0" y="218" fill="rgba(28, 26, 23, 0.94)" font-family="'DM Sans', Arial, sans-serif" font-size="21" font-weight="500">Pulmonary editorial wordmark</text>
    <text x="0" y="248" fill="rgba(111, 98, 83, 0.78)" font-family="'DM Sans', Arial, sans-serif" font-size="15" font-weight="500">Lungs and airway branch</text>
  </g>
</svg>