<svg width="1600" height="520" viewBox="0 0 1600 520" fill="none" xmlns="http://www.w3.org/2000/svg">
  <defs>
    <radialGradient id="paper-wash" cx="0" cy="0" r="1" gradientUnits="userSpaceOnUse" gradientTransform="translate(1232 187.2) rotate(90) scale(260 260)">
      <stop offset="0" stop-color="#fffdf8"/>
      <stop offset="0.48" stop-color="#F2EBDD"/>
      <stop offset="1" stop-color="#FBF7F0"/>
    </radialGradient>
    <radialGradient id="bleed-wash" cx="0" cy="0" r="1" gradientUnits="userSpaceOnUse" gradientTransform="translate(1248 208) rotate(90) scale(145.60000000000002 145.60000000000002)">
      <stop offset="0" stop-color="#fffaf2" stop-opacity="0.96"/>
      <stop offset="0.52" stop-color="#E8DBC7" stop-opacity="0.58"/>
      <stop offset="1" stop-color="#E8DBC7" stop-opacity="0"/>
    </radialGradient>
  </defs>
  <rect width="1600" height="520" fill="#FBF7F0"/>
  <rect x="24" y="24" width="1552" height="472" rx="28" fill="url(#paper-wash)" stroke="rgba(208,192,168,0.38)"/>
  
    <rect x="42" y="42" width="1516" height="434" rx="34" fill="rgba(255,252,247,0.9)" stroke="rgba(212,197,173,0.52)"/>
    <text x="112" y="164" fill="#1F1F21" font-family="'Source Serif 4', Georgia, serif" font-size="70" font-weight="600" letter-spacing="-3">ChapAI</text>
    <text x="112" y="226" fill="#766D61" font-family="'DM Sans', Arial, sans-serif" font-size="18" font-weight="700" letter-spacing="5">NCLEX + CCRN / CLEANER CLINICAL PREP</text>
    <text x="112" y="298" fill="#1F1F21" font-family="'DM Sans', Arial, sans-serif" font-size="48" font-weight="500" letter-spacing="-3">Original questions. Sharper clinical review.</text>
    <text x="112" y="354" fill="#766D61" font-family="'DM Sans', Arial, sans-serif" font-size="25">AI tutor, visual rationale, and a faster path into the right plan.</text>
    
    <path d="M760 210C906 132 1056 98 1210 106C1352 114 1488 154 1618 226C1702 272 1768 326 1816 388" stroke="rgba(90,112,120,0.14)" stroke-width="1.4" fill="none" stroke-linecap="round"/>
    <path d="M722 422C874 336 1036 298 1208 306C1378 314 1538 356 1688 440C1776 488 1846 548 1896 616" stroke="rgba(90,112,120,0.08)" stroke-width="1.1" fill="none" stroke-linecap="round"/>
    <path d="M806 694C944 640 1080 616 1214 624C1350 632 1478 670 1598 738C1678 784 1742 836 1788 896" stroke="rgba(90,112,120,0.14)" stroke-width="1.28" fill="none" stroke-linecap="round"/>
    <path d="M1048 74C1054 234 1066 394 1078 554C1090 712 1114 850 1148 956" stroke="rgba(90,112,120,0.08)" stroke-width="1.1" fill="none" stroke-linecap="round"/>
    <path d="M1220 60C1224 222 1236 384 1248 548C1262 710 1288 846 1324 954" stroke="rgba(90,112,120,0.14)" stroke-width="1.18" fill="none" stroke-linecap="round"/>
    <path d="M1394 82C1360 220 1328 360 1298 500C1270 642 1248 792 1230 952" stroke="rgba(90,112,120,0.08)" stroke-width="1.04" fill="none" stroke-linecap="round"/>
  
    
    <circle cx="1240" cy="482" r="316" fill="url(#bleed-wash)" opacity="0.88"/>
    <circle cx="1240" cy="482" r="326" stroke="rgba(90,112,120,0.22)" stroke-width="2"/>
    <circle cx="1240" cy="482" r="286" stroke="rgba(90,112,120,0.1)" stroke-width="1.1"/>
    <path d="M1238 480C1202 432 1168 390 1138 356C1108 322 1062 284 1000 242" stroke="rgba(31,31,29,0.86)" stroke-width="2.74" fill="none" stroke-linecap="round"/>
    <path d="M1238 480C1274 426 1308 380 1342 340C1376 300 1426 258 1492 212" stroke="rgba(31,31,29,0.86)" stroke-width="2.74" fill="none" stroke-linecap="round"/>
    <path d="M1238 480C1186 516 1140 552 1100 590C1060 628 1022 678 986 742" stroke="rgba(31,31,29,0.82)" stroke-width="2.4" fill="none" stroke-linecap="round"/>
    <path d="M1238 480C1290 516 1336 552 1376 590C1416 628 1454 678 1490 742" stroke="rgba(31,31,29,0.82)" stroke-width="2.4" fill="none" stroke-linecap="round"/>
    <path d="M1238 480C1238 408 1238 334 1238 256" stroke="#C59B5E" stroke-width="1.94" fill="none" stroke-linecap="round"/>
    <path d="M1238 480C1238 560 1238 638 1238 728" stroke="#C59B5E" stroke-width="1.94" fill="none" stroke-linecap="round"/>
    <circle cx="1238" cy="480" r="36" fill="#F7F1E8" stroke="rgba(31,31,29,0.18)" stroke-width="1.1"/>
    <path d="M1238 480C1188 470 1144 470 1106 484" stroke="#5A7F88" stroke-width="1.78" fill="none" stroke-linecap="round"/>
    <path d="M1238 480C1288 470 1332 470 1370 484" stroke="#5A7F88" stroke-width="1.78" fill="none" stroke-linecap="round"/>
    <circle cx="1490.0" cy="482.0" r="5.6" fill="rgba(90,112,120,0.26)"/><circle cx="1474.9" cy="567.5" r="4.3" fill="rgba(90,112,120,0.26)"/><circle cx="1431.5" cy="642.7" r="4.3" fill="rgba(90,112,120,0.26)"/><circle cx="1365.0" cy="698.5" r="5.6" fill="rgba(90,112,120,0.26)"/><circle cx="1283.4" cy="728.2" r="4.3" fill="rgba(90,112,120,0.26)"/><circle cx="1196.6" cy="728.2" r="4.3" fill="rgba(90,112,120,0.26)"/><circle cx="1115.0" cy="698.5" r="5.6" fill="rgba(90,112,120,0.26)"/><circle cx="1048.5" cy="642.7" r="4.3" fill="rgba(90,112,120,0.26)"/><circle cx="1005.1" cy="567.5" r="4.3" fill="rgba(90,112,120,0.26)"/><circle cx="990.0" cy="482.0" r="5.6" fill="rgba(90,112,120,0.26)"/><circle cx="1005.1" cy="396.5" r="4.3" fill="rgba(90,112,120,0.26)"/><circle cx="1048.5" cy="321.3" r="4.3" fill="rgba(90,112,120,0.26)"/><circle cx="1115.0" cy="265.5" r="5.6" fill="rgba(90,112,120,0.26)"/><circle cx="1196.6" cy="235.8" r="4.3" fill="rgba(90,112,120,0.26)"/><circle cx="1283.4" cy="235.8" r="4.3" fill="rgba(90,112,120,0.26)"/><circle cx="1365.0" cy="265.5" r="5.6" fill="rgba(90,112,120,0.26)"/><circle cx="1431.5" cy="321.3" r="4.3" fill="rgba(90,112,120,0.26)"/><circle cx="1474.9" cy="396.5" r="4.3" fill="rgba(90,112,120,0.26)"/>
  
  
</svg>