<svg width="1600" height="520" viewBox="0 0 1600 520" fill="none" xmlns="http://www.w3.org/2000/svg">
  <rect width="1600" height="520" fill="#FBF7F0"/>
  <defs>
    <radialGradient id="paper-wash" cx="0" cy="0" r="1" gradientUnits="userSpaceOnUse" gradientTransform="translate(1216 176.8) rotate(90) scale(228.8 228.8)">
      <stop offset="0" stop-color="#fffdf7"/>
      <stop offset="0.5" stop-color="#F3EBDD"/>
      <stop offset="1" stop-color="#FBF7F0"/>
    </radialGradient>
    <radialGradient id="bleed-wash" cx="0" cy="0" r="1" gradientUnits="userSpaceOnUse" gradientTransform="translate(1200 197.6) rotate(90) scale(135.20000000000002 135.20000000000002)">
      <stop offset="0" stop-color="#fffaf1" stop-opacity="0.95"/>
      <stop offset="0.5" stop-color="#E9DCCA" stop-opacity="0.58"/>
      <stop offset="1" stop-color="#E9DCCA" stop-opacity="0"/>
    </radialGradient>
  </defs>
  <rect x="26" y="26" width="1548" height="468" rx="28" fill="url(#paper-wash)" stroke="rgba(203,188,164,0.38)"/>
  
    <rect x="42" y="42" width="1516" height="434" rx="34" fill="rgba(255,252,247,0.88)" stroke="rgba(212,197,173,0.52)"/>
    <text x="116" y="170" fill="#1F1F21" font-family="'Source Serif 4', Georgia, serif" font-size="72" font-weight="600" letter-spacing="-3">ChapAI</text>
    <text x="116" y="230" fill="#7A7064" font-family="'DM Sans', Arial, sans-serif" font-size="18" font-weight="700" letter-spacing="5">NCLEX + CCRN / CLEANER CLINICAL PREP</text>
    <text x="116" y="304" fill="#1F1F21" font-family="'DM Sans', Arial, sans-serif" font-size="50" font-weight="500" letter-spacing="-3">Original questions. Elite rationale.</text>
    <text x="116" y="362" fill="#7A7064" font-family="'DM Sans', Arial, sans-serif" font-size="26">AI tutor, visual guidance, and a faster path into the right plan.</text>
    
    <path d="M760 212C902 134 1044 100 1188 108C1324 116 1456 154 1584 224C1668 270 1732 322 1778 380" stroke="rgba(88,126,135,0.2)" stroke-width="1.4" fill="none" stroke-linecap="round"/>
    <path d="M724 420C874 334 1030 296 1194 304C1360 312 1514 354 1656 436C1742 486 1810 544 1858 608" stroke="rgba(88,126,135,0.12)" stroke-width="1.1" fill="none" stroke-linecap="round"/>
    <path d="M814 684C946 632 1074 610 1200 618C1328 626 1450 664 1566 732C1642 776 1702 826 1746 884" stroke="rgba(88,126,135,0.18)" stroke-width="1.34" fill="none" stroke-linecap="round"/>
    <path d="M1046 84C1052 234 1064 390 1076 548C1088 706 1110 844 1142 952" stroke="rgba(88,126,135,0.1)" stroke-width="1.1" fill="none" stroke-linecap="round"/>
    <path d="M1214 66C1218 226 1228 384 1242 542C1256 700 1282 838 1318 946" stroke="rgba(88,126,135,0.18)" stroke-width="1.22" fill="none" stroke-linecap="round"/>
    <path d="M1388 88C1358 214 1328 348 1298 490C1270 632 1246 780 1228 948" stroke="rgba(88,126,135,0.1)" stroke-width="1.04" fill="none" stroke-linecap="round"/>
  
    
    <path d="M994 104C1047 72 1115 58 1198 61C1276 64 1336 89 1377 133C1416 174 1435 222 1433 277C1431 332 1411 379 1373 417C1335 455 1290 477 1238 483C1188 489 1141 483 1097 462C1053 441 1018 410 993 370C968 330 957 283 960 229C963 175 974 133 994 104Z" fill="url(#bleed-wash)" opacity="0.92"/>
    <path d="M1014 120C1065 95 1126 85 1197 88C1265 91 1317 111 1353 145C1388 179 1405 221 1404 271C1403 321 1385 364 1350 398C1315 432 1274 452 1226 459" stroke="rgba(31,31,29,0.86)" stroke-width="1.35" fill="none" stroke-linecap="round" stroke-linejoin="round"/>
    <path d="M1045 145C1071 125 1101 115 1135 116C1169 117 1197 129 1220 151" stroke="rgba(31,31,29,0.76)" stroke-width="1.05" fill="none" stroke-linecap="round"/>
    <path d="M1090 200C1116 178 1147 168 1182 170C1218 172 1249 187 1275 216" stroke="rgba(31,31,29,0.74)" stroke-width="1.03" fill="none" stroke-linecap="round"/>
    <path d="M1131 258C1149 322 1162 384 1171 444" stroke="#C59858" stroke-width="0.98" fill="none" stroke-linecap="round"/>
    <path d="M1171 322C1148 350 1131 382 1120 418" stroke="#587E87" stroke-width="0.88" fill="none" stroke-linecap="round"/>
    <path d="M1182 332C1207 354 1229 383 1249 420" stroke="#587E87" stroke-width="0.88" fill="none" stroke-linecap="round"/>
    <path d="M1230 263C1252 240 1281 226 1317 221C1352 216 1382 223 1408 242" stroke="#C59858" stroke-width="0.98" fill="none" stroke-linecap="round"/>
    <path d="M1452 376H1642" stroke="rgba(88,126,135,0.12)" stroke-width="0.6" fill="none" stroke-linecap="round"/>
  
  
</svg>