<svg width="520" height="520" viewBox="0 0 520 520" fill="none" xmlns="http://www.w3.org/2000/svg">
    <defs>
      <radialGradient id="wash" cx="0" cy="0" r="1" gradientUnits="userSpaceOnUse" gradientTransform="translate(344 112) rotate(122) scale(430 430)">
        <stop offset="0" stop-color="#fffdf8" stop-opacity="0.98"/>
        <stop offset="0.64" stop-color="#f4ebdb" stop-opacity="0.88"/>
        <stop offset="1" stop-color="#eee4d4" stop-opacity="0.96"/>
      </radialGradient>
    </defs>
    <rect width="520" height="520" rx="54" fill="#FBF7F0"/>
    <rect x="34" y="34" width="452" height="452" rx="40" fill="url(#wash)" stroke="rgba(210,198,179,0.62)"/>
  
    <circle cx="262" cy="186" r="88" stroke="#1F2328" stroke-opacity="0.2" stroke-width="1.8"/>
    <ellipse cx="262" cy="186" rx="69" ry="88" stroke="#4E606A" stroke-opacity="0.24" stroke-width="1.36"/>
    <ellipse cx="262" cy="186" rx="51" ry="88" stroke="#4E606A" stroke-opacity="0.16" stroke-width="1.18"/>
    <path d="M262 98V274" stroke="#4E606A" stroke-opacity="0.18" stroke-width="1.16"/>
    <path d="M198 156.07999999999998C166 145.51999999999998 358 145.51999999999998 326 156.07999999999998" stroke="#4E606A" stroke-opacity="0.17" stroke-width="1.1"/>
    <path d="M192 193.04C156 184 368 184 332 193.04" stroke="#4E606A" stroke-opacity="0.18" stroke-width="1.1"/>
    <path d="M212 222.96C166 217.68 358 217.68 312 222.96" stroke="#4E606A" stroke-opacity="0.15" stroke-width="1.06"/>
  
    <g transform="translate(262 188) scale(0.26) translate(-120 -120)">
      <path d="M146 42V98" stroke="#4E606A" stroke-width="3" stroke-linecap="round"/>
      <path d="M146 42C160 28 176 18 194 12" stroke="#4E606A" stroke-width="2.4" stroke-linecap="round"/>
      <path d="M134 42C120 28 106 18 92 12" stroke="#4E606A" stroke-width="2.4" stroke-linecap="round"/>
      <path d="M150 72C176 54 204 46 232 48C260 50 282 64 298 90C314 116 320 144 314 174C308 204 292 228 266 246C240 264 214 286 188 312C166 288 142 268 116 250C90 232 72 210 62 184C52 158 52 132 62 106C72 80 90 62 116 52C142 42 170 48 200 70" stroke="#1F2328" stroke-width="4.4" stroke-linecap="round" stroke-linejoin="round"/>
      <path d="M98 174C120 166 142 160 166 158C190 156 214 160 238 170" stroke="#C39A63" stroke-width="2.2" stroke-linecap="round"/>
      <path d="M118 218C142 208 166 204 192 206C218 208 242 218 264 236" stroke="#4E606A" stroke-width="2.1" stroke-linecap="round"/>
    </g>
  
      <text x="136" y="402" fill="#1F2328" font-family="DM Sans, Arial, sans-serif" font-size="40" font-weight="800" letter-spacing="5">CHAPAI</text>
      <text x="164" y="434" fill="#6F665A" font-family="DM Sans, Arial, sans-serif" font-size="13" letter-spacing="4">PREMIUM NURSING</text></svg>