<svg width="560" height="340" viewBox="0 0 560 340" fill="none" xmlns="http://www.w3.org/2000/svg">
    <rect width="560" height="340" rx="34" fill="#FBF7F0"/>
    <rect x="18" y="18" width="524" height="304" rx="26" fill="rgba(255,252,247,0.94)" stroke="rgba(205,189,165,0.46)"/>
    
    <g transform="translate(78 54)">
      <circle cx="92" cy="94" r="68" fill="rgba(255,252,247,0.96)" stroke="rgba(203,187,162,0.54)"/>
      <path d="M92 30C72 20 54 22 38 34C22 46 14 64 14 88C14 112 22 136 38 160C54 184 72 202 92 214C116 198 136 180 152 160C168 140 176 118 176 94C176 70 170 52 158 40C146 28 132 22 116 22C106 22 98 24 92 30Z" stroke="rgba(24,22,20,0.9)" stroke-width="2.36" fill="none"/>
      <path d="M68 122H92L102 110L118 146L132 88L144 122H164" stroke="#C59B5E" stroke-width="1.86" fill="none" stroke-linecap="round" stroke-linejoin="round"/>
      <text x="190" y="106" fill="#1F1F21" font-family="'Source Serif 4', Georgia, serif" font-size="82" font-weight="600" letter-spacing="-3">ChapAI</text>
      <text x="192" y="148" fill="#766D61" font-family="'DM Sans', Arial, sans-serif" font-size="14" font-weight="700" letter-spacing="4">INSTRUMENT SEAL</text>
      <text x="192" y="176" fill="#1F1F21" font-family="'DM Sans', Arial, sans-serif" font-size="18" font-weight="500">Premium medical mark</text>
    </g>
  
  </svg>