<svg width="480" height="480" viewBox="0 0 480 480" fill="none" xmlns="http://www.w3.org/2000/svg">
  <rect width="480" height="480" rx="48" fill="#FBF7F0"/>
  <rect x="36" y="36" width="408" height="408" rx="36" fill="url(#wash)" stroke="rgba(208,194,170,0.5)"/>
  <defs>
    <radialGradient id="wash" cx="0" cy="0" r="1" gradientUnits="userSpaceOnUse" gradientTransform="translate(164 102) rotate(52) scale(352 352)">
      <stop stop-color="rgba(255,255,255,0.9)"/>
      <stop offset="1" stop-color="rgba(242,233,221,0.96)"/>
    </radialGradient>
  </defs>
  
    <circle cx="240" cy="240" r="128" stroke="rgba(120,111,97,0.16)" stroke-width="1.3"/>
    <circle cx="240" cy="240" r="86" stroke="#C19A56" stroke-opacity="0.16" stroke-width="1.1"/>
    <path d="M240 152C252 164 258 176 258 190C258 206 252 220 240 232C228 220 222 206 222 190C222 176 228 164 240 152Z" stroke="#5A7F88" stroke-width="2.6" stroke-linejoin="round"/>
    <path d="M240 232V324" stroke="#201E22" stroke-width="2.2" stroke-linecap="round"/>
    <path d="M240 252C222 244 205 232 190 216C175 200 162 183 152 164" stroke="#201E22" stroke-width="2.1" stroke-linecap="round"/>
    <path d="M240 252C258 244 275 232 290 216C305 200 318 183 328 164" stroke="#201E22" stroke-width="2.1" stroke-linecap="round"/>
    <path d="M240 286C220 287 202 294 186 308C171 321 160 336 152 352" stroke="#C19A56" stroke-opacity="0.8" stroke-width="1.8" stroke-linecap="round"/>
    <path d="M240 286C261 287 279 294 295 308C310 321 321 336 329 352" stroke="#C19A56" stroke-opacity="0.8" stroke-width="1.8" stroke-linecap="round"/>
    <circle cx="152" cy="164" r="4.8" fill="#5A7F88"/>
    <circle cx="328" cy="164" r="4.8" fill="#5A7F88"/>
  
</svg>