<svg width="240" height="240" viewBox="0 0 240 240" fill="none" xmlns="http://www.w3.org/2000/svg">
  <rect width="240" height="240" rx="48" fill="#F7F3EA"/>
  <path d="M72 120C72 92.9 94 71 121.2 71C145.4 71 164 86.4 164 109.2C164 124.2 156.8 136.8 145.2 144.4C147.8 150.2 149 156.8 149 164.2C149 165 149 165.8 149 166.6C138.8 170.4 130.4 172.4 120 172.4C109.6 172.4 101.2 170.4 91 166.6C91 165.8 91 165 91 164.2C91 156.8 92.2 150.2 94.8 144.4C83.2 136.8 76 124.2 76 109.2C76 86.4 94.6 71 118.8 71" stroke="#1F262B" stroke-width="1.8" stroke-linecap="round" stroke-linejoin="round"/>
  <path d="M93 119H147" stroke="#5E8791" stroke-width="1.2" stroke-linecap="round"/>
  <path d="M120 92V151" stroke="#C4A060" stroke-width="1.15" stroke-linecap="round"/>
  <path d="M106 131C110 128.2 114 126.8 120 126.8C126 126.8 130 128.2 134 131" stroke="#D7D0C4" stroke-width="1.05" stroke-linecap="round"/>
  <path d="M100 146C108.4 143.2 114.4 142 120 142C125.6 142 131.6 143.2 140 146" stroke="#C4A060" stroke-width="1.1" stroke-linecap="round"/>
</svg>
