<svg width="560" height="340" viewBox="0 0 560 340" fill="none" xmlns="http://www.w3.org/2000/svg">
    <rect width="560" height="340" rx="34" fill="#FBF7F0"/>
    <rect x="18" y="18" width="524" height="304" rx="26" fill="rgba(255,252,247,0.94)" stroke="rgba(205,189,165,0.46)"/>
    
    <g transform="translate(48 62)">
      
        <path d="M94 26C74 18 56 18 40 28C24 38 14 54 12 78C10 100 16 122 30 144C44 166 64 186 92 204C120 184 142 162 158 138C174 112 180 88 178 66C176 46 166 32 148 24C130 16 112 20 94 36C86 24 80 18 74 16" stroke="rgba(24,22,20,0.92)" stroke-width="2.8" fill="none" stroke-linecap="round" stroke-linejoin="round"/>
        <path d="M6 118H72L90 96L112 146L136 82L158 120H212" stroke="#7C8D79" stroke-width="2.14" fill="none" stroke-linecap="round" stroke-linejoin="round"/>
      
      <text x="164" y="110" fill="#1F1F21" font-family="'Source Serif 4', Georgia, serif" font-size="80" font-weight="600" letter-spacing="-3">ChapAI</text>
      <text x="166" y="150" fill="#766D61" font-family="'DM Sans', Arial, sans-serif" font-size="14" font-weight="700" letter-spacing="4">NCLEX + CCRN</text>
      <text x="166" y="176" fill="#766D61" font-family="'DM Sans', Arial, sans-serif" font-size="11" font-weight="700" letter-spacing="3">HEARTLINE WORDMARK</text>
      <text x="166" y="206" fill="#1F1F21" font-family="'DM Sans', Arial, sans-serif" font-size="18" font-weight="500">Heartline editorial wordmark</text>
    </g>
  
  </svg>