<svg width="560" height="340" viewBox="0 0 560 340" fill="none" xmlns="http://www.w3.org/2000/svg">
    <rect width="560" height="340" rx="34" fill="#FBF7F0"/>
    <rect x="18" y="18" width="524" height="304" rx="26" fill="rgba(255,252,247,0.92)" stroke="rgba(205,189,165,0.46)"/>
    
    <g transform="translate(84 54)">
      <circle cx="90" cy="92" r="66" fill="rgba(255,252,247,0.96)" stroke="rgba(203,187,162,0.54)"/>
      <path d="M90 42C74 34 58 34 42 42C26 50 16 66 14 90C12 112 18 134 32 156C46 178 66 198 92 216C118 198 140 178 156 156C172 132 180 110 180 90C180 70 172 54 156 42C140 30 122 30 102 42C98 34 94 30 90 30" stroke="rgba(24,22,20,0.88)" stroke-width="2.5" fill="none" stroke-linejoin="round"/>
      <path d="M90 48V96" stroke="#5A7F88" stroke-width="1.9" stroke-linecap="round"/>
      <text x="188" y="108" fill="#1F1F21" font-family="'Source Serif 4', Georgia, serif" font-size="82" font-weight="600" letter-spacing="-3">ChapAI</text>
      <text x="190" y="150" fill="#766D61" font-family="'DM Sans', Arial, sans-serif" font-size="14" font-weight="700" letter-spacing="4">INSTRUMENT SEAL</text>
    </g>
  
  </svg>