<svg width="480" height="480" viewBox="0 0 480 480" fill="none" xmlns="http://www.w3.org/2000/svg">
  <rect width="480" height="480" rx="44" fill="#FBF7F0"/>
  <rect x="34" y="34" width="412" height="412" rx="34" fill="url(#wash)" stroke="rgba(214,201,181,0.62)"/>
  <defs>
    <radialGradient id="wash" cx="0" cy="0" r="1" gradientUnits="userSpaceOnUse" gradientTransform="translate(150 94) rotate(50) scale(334 334)">
      <stop stop-color="rgba(255,255,255,0.92)"/>
      <stop offset="1" stop-color="rgba(242,233,220,0.94)"/>
    </radialGradient>
  </defs>
  
    <circle cx="240" cy="240" r="138" stroke="rgba(120,112,99,0.16)" stroke-width="1.35"/>
    <path d="M160 316C160 252 176 202 208 168C222 154 233 146 240 144C247 146 258 154 272 168C304 202 320 252 320 316" stroke="#1F2024" stroke-width="2.35"/>
    <path d="M188 318C188 273 198 238 218 214C227 203 234 198 240 197C246 198 253 203 262 214C282 238 292 273 292 318" stroke="#C39A61" stroke-opacity="0.78" stroke-width="1.9"/>
    <path d="M240 144V338" stroke="#5D8590" stroke-width="2.2" stroke-linecap="round"/>
    <path d="M204 337H276" stroke="#1F2024" stroke-opacity="0.38" stroke-width="1.8" stroke-linecap="round"/>
  
</svg>