<svg width="256" height="256" viewBox="0 0 256 256" fill="none" xmlns="http://www.w3.org/2000/svg">
  <rect width="256" height="256" rx="48" fill="#F8F4EB"/>
  <circle cx="128" cy="128" r="78" stroke="#2B3A40" stroke-width="4.5"/>
  <path d="M74 128C74 98.1766 98.1766 74 128 74" stroke="#2B3A40" stroke-width="5" stroke-linecap="round"/>
  <path d="M128 74C157.823 74 182 98.1766 182 128" stroke="#B88957" stroke-width="5" stroke-linecap="round"/>
  <path d="M105 93C92 103 86 118 86 128C86 141 95 154 111 162" stroke="#2B3A40" stroke-width="3.5" stroke-linecap="round"/>
  <path d="M151 93C164 103 170 118 170 128C170 141 161 154 145 162" stroke="#2B3A40" stroke-width="3.5" stroke-linecap="round"/>
  <path d="M126 92C126 108 120 116 108 128C120 140 126 148 126 165" stroke="#2B3A40" stroke-width="4" stroke-linecap="round"/>
  <path d="M130 92C130 108 136 116 148 128C136 140 130 148 130 165" stroke="#2B3A40" stroke-width="4" stroke-linecap="round"/>
</svg>
