<svg width="720" height="420" viewBox="0 0 720 420" fill="none" xmlns="http://www.w3.org/2000/svg">
  <rect width="720" height="420" rx="42" fill="#F7F2E8"/>
  <path d="M94 210C94 136 142 92 218 92C260 92 295 104 324 129" stroke="#20262B" stroke-width="3.2" stroke-linecap="round"/>
  <path d="M316 290C289 318 253 332 206 332C135 332 92 286 92 216" stroke="#20262B" stroke-width="3.2" stroke-linecap="round"/>
  <path d="M212 110V314" stroke="#C79B5C" stroke-width="2.5" stroke-linecap="round"/>
  <path d="M160 156C176 145 194 140 213 140C230 140 246 145 260 154C274 164 285 178 292 196" stroke="#5E7E87" stroke-width="2.3" stroke-linecap="round"/>
  <path d="M158 220C174 210 192 205 211 205C228 205 244 209 258 217C272 226 283 238 290 255" stroke="#5E7E87" stroke-width="2.3" stroke-linecap="round"/>
  <text x="364" y="192" fill="#20262B" font-family="Georgia, 'Times New Roman', serif" font-size="68" letter-spacing="-2">ChapAI</text>
  <text x="368" y="240" fill="#6B7579" font-family="'DM Sans', Arial, sans-serif" font-size="18" letter-spacing="5">CCRN + NCLEX</text>
  <path d="M594 108C577 90 556 76 531 66" stroke="#20262B" stroke-width="2.5" stroke-linecap="round"/>
  <circle cx="594" cy="108" r="6" fill="#C79B5C"/>
</svg>
