<svg width="1600" height="960" viewBox="0 0 1600 960" fill="none" xmlns="http://www.w3.org/2000/svg">
  <rect width="1600" height="960" fill="#FBF7F0"/>
  <defs>
    <radialGradient id="page-wash" cx="0" cy="0" r="1" gradientUnits="userSpaceOnUse" gradientTransform="translate(1216 345.59999999999997) rotate(90) scale(403.2 403.2)">
      <stop offset="0" stop-color="#fffdf8"/>
      <stop offset="0.62" stop-color="#F3EBDD"/>
      <stop offset="1" stop-color="#F3EBDD"/>
    </radialGradient>
    <radialGradient id="medical-bleed" cx="0" cy="0" r="1" gradientUnits="userSpaceOnUse" gradientTransform="translate(1184 326.40000000000003) rotate(90) scale(268.8 268.8)">
      <stop offset="0" stop-color="rgba(255,253,248,0.96)"/>
      <stop offset="0.58" stop-color="rgba(233,220,199,0.52)"/>
      <stop offset="1" stop-color="rgba(233,220,199,0)"/>
    </radialGradient>
  </defs>
  <rect x="26" y="26" width="1548" height="908" rx="28" fill="url(#page-wash)" stroke="rgba(199,184,160,0.36)"/>
  
    
    <rect x="110" y="70" width="1380" height="82" rx="41" fill="rgba(255,252,247,0.84)" stroke="rgba(212,197,173,0.52)"/>
    <text x="184" y="120" fill="#201F21" font-family="'Source Serif 4', Georgia, serif" font-size="38" font-weight="600" letter-spacing="-2">ChapAI</text>
    <text x="1110" y="120" fill="#7A7064" font-family="'DM Sans', Arial, sans-serif" font-size="20" font-weight="600">CCRN</text>
    <text x="1192" y="120" fill="#7A7064" font-family="'DM Sans', Arial, sans-serif" font-size="20" font-weight="600">NCLEX</text>
    <text x="1286" y="120" fill="#7A7064" font-family="'DM Sans', Arial, sans-serif" font-size="20" font-weight="600">PLANS</text>
    <rect x="1348" y="90" width="114" height="44" rx="22" fill="rgba(255,250,243,0.96)" stroke="rgba(212,197,173,0.54)"/>
    <text x="1384" y="118" fill="#201F21" font-family="'DM Sans', Arial, sans-serif" font-size="20" font-weight="700">SPRINT</text>
  
    
    <text x="154" y="190" fill="#7A7064" font-family="'DM Sans', Arial, sans-serif" font-size="15" font-weight="700" letter-spacing="5">CATH-LAB CADENCE / PREMIUM MEDICAL SURFACE</text>
    <text x="154" y="280" fill="#201F21" font-family="'DM Sans', Arial, sans-serif" font-size="94" font-weight="500" letter-spacing="-7">Clinical signal</text>
    <text x="154" y="370" fill="#201F21" font-family="'DM Sans', Arial, sans-serif" font-size="94" font-weight="500" letter-spacing="-7">without the</text>
    <text x="154" y="460" fill="#201F21" font-family="'DM Sans', Arial, sans-serif" font-size="94" font-weight="500" letter-spacing="-7">clutter.</text>
    <text x="154" y="548" fill="#7A7064" font-family="'DM Sans', Arial, sans-serif" font-size="30">Original questions, elite rationale, and a cleaner route into the right plan.</text>
    <rect x="154" y="612" width="228" height="64" rx="32" fill="#567C85"/>
    <text x="194" y="652" fill="#fff" font-family="'DM Sans', Arial, sans-serif" font-size="25" font-weight="700">Start the $10 sprint</text>
    <rect x="402" y="612" width="196" height="64" rx="32" fill="rgba(255,252,247,0.88)" stroke="rgba(194,178,154,0.62)"/>
    <text x="452" y="652" fill="#201F21" font-family="'DM Sans', Arial, sans-serif" font-size="24" font-weight="600">See plans</text>
  
    <text x="154" y="744" fill="#7A7064" font-family="'DM Sans', Arial, sans-serif" font-size="14" font-weight="700" letter-spacing="4">AI TUTOR + VISUAL RATIONALE + CLEANER CLINICAL FLOW</text>
    <path d="M154 770H640" stroke="rgba(212,197,173,0.62)"/>
    <text x="154" y="842" fill="#7A7064" font-family="'DM Sans', Arial, sans-serif" font-size="14" font-weight="700" letter-spacing="4">ANGLE</text>
    <text x="154" y="886" fill="#201F21" font-family="'Source Serif 4', Georgia, serif" font-size="38" font-weight="600">Cath-lab cadence</text>
    
    <path d="M915.2 245.28C1015.52 180.16 1131.68 148.48 1265.44 150.24C1399.2 152 1506.56 187.2 1587.52 257.6" stroke="rgba(86,124,133,0.42)" stroke-width="1.9360000000000002" fill="none" stroke-linecap="round"/>
    <path d="M964.48 356.15999999999997H1430.88" stroke="rgba(31,31,29,0.16)" stroke-width="1.232" stroke-dasharray="5.28 8.8"/>
    <path d="M953.92 477.6H1460.8" stroke="rgba(31,31,29,0.16)" stroke-width="1.232" stroke-dasharray="5.28 8.8"/>
    <path d="M980.32 599.04H1494.24" stroke="rgba(31,31,29,0.16)" stroke-width="1.232" stroke-dasharray="5.28 8.8"/>
    <path d="M1043.68 317.44C1096.48 280.48 1158.08 261.12 1230.24 261.12C1304.16 261.12 1367.52 287.52 1420.3200000000002 340.32C1473.12 393.12 1499.52 461.76 1499.52 548C1499.52 639.52 1469.6 715.2 1409.76 775.04C1349.92 834.88 1277.76 868.32 1191.52 875.36" stroke="rgba(31,31,29,0.84)" stroke-width="2.2" fill="none" stroke-linecap="round" stroke-linejoin="round"/>
    <path d="M1228.48 248.8V790.88" stroke="#AD7E65" stroke-width="1.672" stroke-linecap="round"/>
    <path d="M1052.48 655.36H1100L1124.64 614.88L1156.32 725.76L1196.8 542.72L1224.96 655.36H1277.76" stroke="#AD7E65" stroke-width="1.9360000000000002" fill="none" stroke-linecap="round" stroke-linejoin="round"/>
    <path d="M1228.48 317.44C1281.28 306.88 1334.08 322.72 1385.12 366.72" stroke="#567C85" stroke-width="1.672" fill="none" stroke-linecap="round"/>
    <path d="M1228.48 396.64C1182.72 435.36 1149.28 482.88 1128.16 539.2" stroke="#567C85" stroke-width="1.672" fill="none" stroke-linecap="round"/>
    <circle cx="1124.64" cy="614.88" r="6.16" fill="#FBF7F0" stroke="#AD7E65" stroke-width="1.056"/>
  
  
</svg>