<svg width="1600" height="520" viewBox="0 0 1600 520" fill="none" xmlns="http://www.w3.org/2000/svg">
  <rect width="1600" height="520" fill="#FBF7F0"/>
  <rect x="26" y="26" width="1548" height="468" rx="28" fill="url(#page-wash)" stroke="rgba(195,178,154,0.36)"/>
  <defs>
    <radialGradient id="page-wash" cx="0" cy="0" r="1" gradientUnits="userSpaceOnUse" gradientTransform="translate(1088 166.4) rotate(90) scale(249.6 249.6)">
      <stop offset="0" stop-color="#fffdf8"/>
      <stop offset="0.68" stop-color="#F4EEE3"/>
      <stop offset="1" stop-color="#F4EEE3"/>
    </radialGradient>
    <radialGradient id="bleed" cx="0" cy="0" r="1" gradientUnits="userSpaceOnUse" gradientTransform="translate(1216 197.6) rotate(90) scale(176.8 176.8)">
      <stop offset="0" stop-color="rgba(255,253,248,0.96)"/>
      <stop offset="0.62" stop-color="rgba(239,226,206,0.56)"/>
      <stop offset="1" stop-color="rgba(239,226,206,0)"/>
    </radialGradient>
  </defs>
  
    <rect x="46" y="46" width="1508" height="428" rx="34" fill="rgba(255,252,247,0.88)" stroke="rgba(212,197,173,0.52)"/>
    <text x="118" y="180" fill="#201F21" font-family="'Source Serif 4', Georgia, serif" font-size="72" font-weight="600" letter-spacing="-3">ChapAI</text>
    <text x="118" y="240" fill="#7D705F" font-family="'DM Sans', Arial, sans-serif" font-size="18" font-weight="700" letter-spacing="5">NCLEX + CCRN / CLEANER CLINICAL PREP</text>
    <text x="118" y="318" fill="#201F21" font-family="'DM Sans', Arial, sans-serif" font-size="50" font-weight="500" letter-spacing="-3">Original questions. Elite rationale.</text>
    <text x="118" y="374" fill="#7D705F" font-family="'DM Sans', Arial, sans-serif" font-size="26">AI tutor, visual guidance, and a faster path into the right plan.</text>
    
    <path d="M1036.64 135.12C1009.76 100.4 970.56 83.6 926.88 88.08C885.44 91.44 850.72 116.08000000000001 833.92 154.16000000000003C818.24 190 817.12 229.20000000000002 830.56 271.76C844 314.32000000000005 874.24 354.64000000000004 920.16 390.48C966.08 426.32000000000005 1006.4 455.44000000000005 1041.12 478.96000000000004C1072.48 461.04 1112.8 433.04 1162.08 394.96000000000004C1211.3600000000001 356.88000000000005 1242.72 316.56000000000006 1256.16 274C1269.6 230.32000000000002 1268.48 190 1251.68 153.04000000000002C1233.76 114.96000000000001 1197.92 90.32 1154.24 88.08C1110.56 85.84 1072.48 102.64 1036.64 135.12Z" fill="url(#bleed)" opacity="0.86"/>
    <path d="M1038.88 145.2C1014.24 113.84 980.64 99.28 940.32 102.64C902.24 106 872 129.52 857.44 164.24C844 197.84000000000003 844 234.8 856.3199999999999 272.88C868.64 310.96000000000004 895.52 345.68 936.96 377.04C979.52 408.40000000000003 1013.12 434.16 1040 454.32000000000005C1064.64 438.64000000000004 1098.24 414.00000000000006 1140.8 381.52000000000004C1184.48 349.04 1211.3600000000001 314.32000000000005 1223.68 277.36C1236 240.4 1236 204.56 1221.44 169.84C1204.64 134 1174.4 109.36 1136.32 106C1098.24 102.64 1065.76 116.08000000000001 1038.88 145.2Z" stroke="rgba(31,31,29,0.86)" stroke-width="1.4560000000000002" fill="none" stroke-linecap="round" stroke-linejoin="round"/>
    <path d="M1041.12 159.76V402.8" stroke="#567C85" stroke-width="1.2320000000000002" stroke-linecap="round"/>
    <path d="M1041.12 176.56C1020.96 164.24 1000.8 160.88 979.52 167.60000000000002" stroke="#C49758" stroke-width="1.064" stroke-linecap="round"/>
    <path d="M1041.12 176.56C1061.28 164.24 1083.68 158.64000000000001 1109.44 162" stroke="#C49758" stroke-width="1.064" stroke-linecap="round"/>
    <path d="M1041.12 219.12C1006.4 223.60000000000002 975.04 235.92000000000002 947.04 257.20000000000005" stroke="#567C85" stroke-width="1.0080000000000002" stroke-linecap="round"/>
    <path d="M1041.12 219.12C1075.84 225.84 1108.32 240.4 1139.68 265.04" stroke="#567C85" stroke-width="1.0080000000000002" stroke-linecap="round"/>
    <path d="M1041.12 279.6C1015.36 304.24 996.32 333.36 984 369.20000000000005" stroke="#C49758" stroke-width="1.0080000000000002" stroke-linecap="round"/>
    <path d="M1041.12 279.6C1065.76 304.24 1085.92 332.24 1102.72 366.96000000000004" stroke="#C49758" stroke-width="1.0080000000000002" stroke-linecap="round"/>
    <circle cx="1041.12" cy="219.12" r="4.48" fill="#FBF7F0" stroke="#567C85" stroke-width="0.672"/>
  
  
</svg>