<svg width="1600" height="1024" viewBox="0 0 1600 1024" fill="none" xmlns="http://www.w3.org/2000/svg">
  <rect width="1600" height="1024" fill="#F6F1E8"/>
  <style>
    .shell { stroke: rgba(126,118,106,0.14); stroke-width: 1.5; fill: none; }
    .orbit { stroke: rgba(127,118,106,0.08); stroke-width: 1.15; fill: none; }
    .orbit.soft, .latitude.soft { stroke-opacity: 0.54; }
    .axis, .latitude { stroke: rgba(127,118,106,0.05); stroke-width: 1; fill: none; }
    .focus { fill: rgba(255,249,239,0.52); }
    .body, .detail, .organ { fill: none; stroke-linecap: round; stroke-linejoin: round; }
    .body { stroke: rgba(51,45,39,0.26); stroke-width: 2.2; }
    .detail { stroke: rgba(98,86,72,0.1); stroke-width: 1.4; }
    .organ { stroke: rgba(198,157,96,0.22); stroke-width: 1.6; }
    .accent { stroke: rgba(200,157,96,0.78); stroke-width: 2; stroke-linecap: round; }
    .note { stroke: rgba(130,119,103,0.1); stroke-width: 1.1; stroke-linecap: round; }
  </style>
  <rect x="260" y="70" width="1080" height="66" rx="33" fill="rgba(255,252,247,0.6)" stroke="rgba(220,210,194,0.52)"/>
  <circle cx="298" cy="103" r="20" fill="rgba(255,250,243,0.95)" stroke="rgba(220,210,194,0.52)"/>
  <path d="M298 89V117" stroke="#C89D60" stroke-width="1.5" stroke-linecap="round"/>
  <path d="M286 98C292 94 298 92 304 92C309 92 314 94 318 98C322 102 325 106 326 111" stroke="#1F252B" stroke-width="1.8" stroke-linecap="round"/>
  <text x="330" y="101" fill="#1F252B" font-family="'DM Sans', Arial, sans-serif" font-size="22" font-weight="600">ChapAI</text>
  <text x="330" y="124" fill="#6A7477" font-family="'DM Sans', Arial, sans-serif" font-size="12" letter-spacing="3">NCLEX + CCRN</text>
  <text x="1110" y="108" fill="#6A7477" font-family="'DM Sans', Arial, sans-serif" font-size="16" letter-spacing="2">CCRN</text>
  <text x="1160" y="108" fill="#6A7477" font-family="'DM Sans', Arial, sans-serif" font-size="16" letter-spacing="2">NCLEX</text>
  <text x="1228" y="108" fill="#6A7477" font-family="'DM Sans', Arial, sans-serif" font-size="16" letter-spacing="2">PLANS</text>
  <rect x="1283" y="83" width="73" height="40" rx="20" fill="rgba(255,252,247,0.92)" stroke="rgba(220,210,194,0.58)"/>
  <text x="1306" y="108" fill="#1F252B" font-family="'DM Sans', Arial, sans-serif" font-size="16" font-weight="600">START</text>

  <text x="300" y="198" fill="#6A7477" font-family="'DM Sans', Arial, sans-serif" font-size="14" font-weight="600" letter-spacing="4">HERO CONCEPT 03</text>
  <text x="300" y="318" fill="#1F252B" font-family="Georgia, 'Times New Roman', serif" font-size="92" letter-spacing="-4">Original questions. Cleaner clinical reasoning.</text>
  <text x="300" y="640" fill="#6A7477" font-family="'DM Sans', Arial, sans-serif" font-size="22">Original questions, visual rationale, and a cleaner clinical study flow.</text>
  <rect x="300" y="692" width="176" height="52" rx="26" fill="#5D7E87"/>
  <text x="334" y="725" fill="#F7F1E6" font-family="'DM Sans', Arial, sans-serif" font-size="22" font-weight="700">Choose plan</text>
  <rect x="490" y="692" width="164" height="52" rx="26" fill="rgba(255,252,247,0.92)" stroke="rgba(220,210,194,0.58)"/>
  <text x="534" y="725" fill="#1F252B" font-family="'DM Sans', Arial, sans-serif" font-size="22" font-weight="600">Try free</text>
  <path d="M300 786H820" stroke="rgba(214,203,188,0.72)"/>
  <text x="300" y="815" fill="#6A7477" font-family="'DM Sans', Arial, sans-serif" font-size="13" letter-spacing="4">AI REVIEW + ORIGINAL QUESTIONS</text>
  <text x="565" y="815" fill="rgba(102,113,118,0.78)" font-family="'DM Sans', Arial, sans-serif" font-size="13">Original questions, cleaner rationale, and direct package paths.</text>
  <text x="300" y="900" fill="#6A7477" font-family="'DM Sans', Arial, sans-serif" font-size="14" letter-spacing="3">CURRENT BUILD</text>
  <text x="300" y="932" fill="#1F252B" font-family="'DM Sans', Arial, sans-serif" font-size="34" font-weight="700">435 live CCRN questions</text>
  <text x="604" y="900" fill="#6A7477" font-family="'DM Sans', Arial, sans-serif" font-size="14" letter-spacing="3">REVIEW STYLE</text>
  <text x="604" y="932" fill="#1F252B" font-family="'DM Sans', Arial, sans-serif" font-size="34" font-weight="700">Trend-first bedside reasoning</text>
  
    <circle cx="1030" cy="506" r="412" class="shell"/>
    <ellipse cx="1030" cy="506" rx="306" ry="412" class="orbit"/>
    <ellipse cx="1030" cy="506" rx="206" ry="412" class="orbit soft"/>
    <path d="M1030 94V918" class="axis"/>
    <path d="M744 374C844 332 940 314 1030 314C1120 314 1216 332 1316 374" class="orbit"/>
    <path d="M716 536C822 502 924 484 1030 484C1136 484 1238 502 1344 536" class="latitude"/>
    <path d="M742 716C836 686 934 670 1030 670C1126 670 1224 686 1318 716" class="latitude soft"/>
  
  <ellipse cx="1015" cy="504" rx="192" ry="434" class="focus"/>
  
      <path d="M990 224C1012 223 1030 231 1044 247C1058 264 1064 283 1061 305C1058 327 1047 347 1029 365C1011 384 998 404 990 426C982 448 976 474 973 503" class="body"/>
      <path d="M991 222V586" class="accent"/>
      <path d="M992 302C1022 306 1050 319 1076 342" class="detail"/>
      <path d="M987 348C1020 357 1050 374 1077 401" class="detail"/>
      <path d="M981 396C1012 407 1040 425 1066 451" class="detail"/>
      <path d="M981 296C957 309 936 327 920 351" class="organ"/>
      <path d="M973 344C946 359 923 381 904 409" class="organ"/>
      <path d="M965 394C939 410 917 431 900 458" class="organ"/>
    
  <path d="M870 262H1162" class="note"/>
  <path d="M848 398H1204" class="note"/>
  <path d="M860 736H1148" class="note"/>
</svg>