<svg width="1600" height="960" viewBox="0 0 1600 960" fill="none" xmlns="http://www.w3.org/2000/svg">
  <rect width="1600" height="960" fill="#FBF7F0"/>
  <defs>
    <radialGradient id="page-wash" cx="0" cy="0" r="1" gradientUnits="userSpaceOnUse" gradientTransform="translate(1216 345.59999999999997) rotate(90) scale(403.2 403.2)">
      <stop offset="0" stop-color="#fffdf8"/>
      <stop offset="0.62" stop-color="#F3EBDD"/>
      <stop offset="1" stop-color="#F3EBDD"/>
    </radialGradient>
    <radialGradient id="medical-bleed" cx="0" cy="0" r="1" gradientUnits="userSpaceOnUse" gradientTransform="translate(1184 326.40000000000003) rotate(90) scale(268.8 268.8)">
      <stop offset="0" stop-color="rgba(255,253,248,0.96)"/>
      <stop offset="0.58" stop-color="rgba(233,220,199,0.52)"/>
      <stop offset="1" stop-color="rgba(233,220,199,0)"/>
    </radialGradient>
  </defs>
  <rect x="26" y="26" width="1548" height="908" rx="28" fill="url(#page-wash)" stroke="rgba(199,184,160,0.36)"/>
  
    
    <rect x="110" y="70" width="1380" height="82" rx="41" fill="rgba(255,252,247,0.84)" stroke="rgba(212,197,173,0.52)"/>
    <text x="184" y="120" fill="#201F21" font-family="'Source Serif 4', Georgia, serif" font-size="38" font-weight="600" letter-spacing="-2">ChapAI</text>
    <text x="1110" y="120" fill="#7A7064" font-family="'DM Sans', Arial, sans-serif" font-size="20" font-weight="600">CCRN</text>
    <text x="1192" y="120" fill="#7A7064" font-family="'DM Sans', Arial, sans-serif" font-size="20" font-weight="600">NCLEX</text>
    <text x="1286" y="120" fill="#7A7064" font-family="'DM Sans', Arial, sans-serif" font-size="20" font-weight="600">PLANS</text>
    <rect x="1348" y="90" width="114" height="44" rx="22" fill="rgba(255,250,243,0.96)" stroke="rgba(212,197,173,0.54)"/>
    <text x="1384" y="118" fill="#201F21" font-family="'DM Sans', Arial, sans-serif" font-size="20" font-weight="700">SPRINT</text>
  
    
    <text x="154" y="190" fill="#7A7064" font-family="'DM Sans', Arial, sans-serif" font-size="15" font-weight="700" letter-spacing="5">CORONARY LATTICE / PREMIUM MEDICAL SURFACE</text>
    <text x="154" y="280" fill="#201F21" font-family="'DM Sans', Arial, sans-serif" font-size="94" font-weight="500" letter-spacing="-7">Premium prep.</text>
    <text x="154" y="370" fill="#201F21" font-family="'DM Sans', Arial, sans-serif" font-size="94" font-weight="500" letter-spacing="-7">Sharper bedside</text>
    <text x="154" y="460" fill="#201F21" font-family="'DM Sans', Arial, sans-serif" font-size="94" font-weight="500" letter-spacing="-7">moves.</text>
    <text x="154" y="548" fill="#7A7064" font-family="'DM Sans', Arial, sans-serif" font-size="30">Original questions, elite rationale, and a cleaner route into the right plan.</text>
    <rect x="154" y="612" width="228" height="64" rx="32" fill="#567C85"/>
    <text x="194" y="652" fill="#fff" font-family="'DM Sans', Arial, sans-serif" font-size="25" font-weight="700">Start the $10 sprint</text>
    <rect x="402" y="612" width="196" height="64" rx="32" fill="rgba(255,252,247,0.88)" stroke="rgba(194,178,154,0.62)"/>
    <text x="452" y="652" fill="#201F21" font-family="'DM Sans', Arial, sans-serif" font-size="24" font-weight="600">See plans</text>
  
    <text x="154" y="744" fill="#7A7064" font-family="'DM Sans', Arial, sans-serif" font-size="14" font-weight="700" letter-spacing="4">AI TUTOR + VISUAL RATIONALE + CLEANER CLINICAL FLOW</text>
    <path d="M154 770H640" stroke="rgba(212,197,173,0.62)"/>
    <text x="154" y="842" fill="#7A7064" font-family="'DM Sans', Arial, sans-serif" font-size="14" font-weight="700" letter-spacing="4">ANGLE</text>
    <text x="154" y="886" fill="#201F21" font-family="'Source Serif 4', Georgia, serif" font-size="38" font-weight="600">Coronary lattice</text>
    
    <path d="M1101.76 194.24C1064.8 137.92000000000002 1010.24 109.76 946.88 115.04C885.28 120.32 839.52 159.04 813.12 218.88C788.48 275.2 788.48 336.8 809.6 403.68C832.48 472.32 878.24 535.6800000000001 950.4 595.52C1022.56 655.36 1087.68 706.4 1144 746.88C1195.04 715.2 1260.16 667.68 1337.6 602.56C1416.8 537.44 1467.8400000000001 472.32 1490.72 407.2C1515.3600000000001 340.32 1513.6 280.48 1487.2 227.68C1457.28 173.12 1404.48 136.16 1328.8 123.84C1254.88 111.52 1179.2 134.4 1101.76 194.24Z" fill="url(#medical-bleed)" opacity="0.88"/>
    <path d="M1101.76 213.6C1064.8 169.6 1019.04 150.24 966.24 155.52C915.2 160.8 876.48 192.48000000000002 855.36 240C836 289.28 836 343.84000000000003 855.36 403.68C874.72 463.52 916.96 521.6 983.84 574.4C1050.72 627.2 1103.52 669.44 1142.24 702.88C1184.48 676.48 1237.28 632.48 1300.6399999999999 570.88C1364 509.28000000000003 1402.72 451.2 1420.3200000000002 398.4C1437.92 343.84000000000003 1436.1599999999999 292.8 1413.28 245.28C1388.6399999999999 197.76 1344.6399999999999 164.32 1283.04 155.52C1221.44 146.72 1163.3600000000001 166.07999999999998 1101.76 213.6Z" stroke="rgba(31,31,29,0.86)" stroke-width="2.2" fill="none" stroke-linejoin="round"/>
    <path d="M1144 234.72V613.12" stroke="#567C85" stroke-width="1.848" stroke-linecap="round"/>
    <path d="M1144 266.4C1105.28 245.28 1073.6 245.28 1045.44 261.12" stroke="#C49758" stroke-width="1.584" stroke-linecap="round"/>
    <path d="M1144 266.4C1184.48 245.28 1219.68 243.52 1253.12 257.6" stroke="#C49758" stroke-width="1.584" stroke-linecap="round"/>
    <path d="M1144 335.03999999999996C1087.68 349.12 1040.16 377.28000000000003 999.6800000000001 421.28000000000003" stroke="#567C85" stroke-width="1.584" stroke-linecap="round"/>
    <path d="M1144 335.03999999999996C1198.56 352.64 1246.08 380.8 1288.32 426.56" stroke="#567C85" stroke-width="1.584" stroke-linecap="round"/>
    <path d="M1144 433.6C1101.76 475.84 1071.84 525.12 1056 583.2" stroke="#C49758" stroke-width="1.584" stroke-linecap="round"/>
    <path d="M1144 433.6C1188 477.6 1224.96 525.12 1254.88 583.2" stroke="#C49758" stroke-width="1.584" stroke-linecap="round"/>
    <circle cx="1144" cy="335.03999999999996" r="7.04" fill="#FBF7F0" stroke="#567C85" stroke-width="1.056"/>
  
  
</svg>