<svg width="1600" height="980" viewBox="0 0 1600 980" fill="none" xmlns="http://www.w3.org/2000/svg">
  <rect width="1600" height="980" fill="#FBF7F0"/>
  <rect x="28" y="28" width="1544" height="924" rx="36" fill="url(#heroWash)" stroke="rgba(208,196,177,0.56)"/>
  <defs>
    <radialGradient id="heroWash" cx="0" cy="0" r="1" gradientUnits="userSpaceOnUse" gradientTransform="translate(1060 182) rotate(118) scale(980 980)">
      <stop offset="0" stop-color="#fffdf8" stop-opacity="0.98"/>
      <stop offset="0.55" stop-color="#f4ebdb" stop-opacity="0.82"/>
      <stop offset="1" stop-color="#efe4d3" stop-opacity="0.92"/>
    </radialGradient>
  </defs>
  <rect x="96" y="74" width="1408" height="72" rx="32" fill="rgba(255,252,247,0.78)" stroke="rgba(213,202,184,0.58)"/>
  <text x="144" y="118" fill="#1E222B" font-family="Source Serif 4, Georgia, serif" font-size="34" font-weight="600">ChapAI</text>
  <text x="144" y="146" fill="#746A5D" font-family="DM Sans, Arial, sans-serif" font-size="15" letter-spacing="4">NCLEX + CCRN</text>
  <text x="1118" y="118" fill="#746A5D" font-family="DM Sans, Arial, sans-serif" font-size="16" letter-spacing="2">CCRN</text>
  <text x="1188" y="118" fill="#746A5D" font-family="DM Sans, Arial, sans-serif" font-size="16" letter-spacing="2">NCLEX</text>
  <text x="1265" y="118" fill="#746A5D" font-family="DM Sans, Arial, sans-serif" font-size="16" letter-spacing="2">PLANS</text>
  <rect x="1378" y="92" width="106" height="42" rx="20" fill="rgba(255,252,247,0.88)" stroke="rgba(213,202,184,0.68)"/>
  <text x="1414" y="118" fill="#1E222B" font-family="DM Sans, Arial, sans-serif" font-size="18" font-weight="600">START</text>

  <text x="130" y="224" fill="#746A5D" font-family="DM Sans, Arial, sans-serif" font-size="14" letter-spacing="5">ADULT CRITICAL CARE PREP</text>
  <rect x="476" y="196" width="64" height="34" rx="17" fill="rgba(255,252,247,0.74)" stroke="rgba(213,202,184,0.62)"/>
  <text x="497" y="218" fill="#1E222B" font-family="DM Sans, Arial, sans-serif" font-size="15" font-weight="600">CCRN</text>

  <text x="130" y="360" fill="#1E222B" font-family="DM Sans, Arial, sans-serif" font-size="120" font-weight="500" letter-spacing="-8">A</text>
  <text x="186" y="360" fill="#1E222B" font-family="DM Sans, Arial, sans-serif" font-size="116" font-weight="500" letter-spacing="-8"> calmer way to prepare for CCRN.</text>
  <text x="130" y="418" fill="#746A5D" font-family="Source Serif 4, Georgia, serif" font-size="22">The right side should feel valuable, not empty.</text>
  <text x="130" y="468" fill="#746A5D" font-family="Source Serif 4, Georgia, serif" font-size="20">A medical globe with lungs, heart, rib detail, and telemetry.</text>
  <rect x="130" y="520" width="208" height="52" rx="26" fill="#537985"/>
  <text x="154" y="553" fill="white" font-family="DM Sans, Arial, sans-serif" font-size="22" font-weight="700">Choose CCRN plan</text>
  <rect x="354" y="520" width="166" height="52" rx="26" fill="rgba(255,252,247,0.86)" stroke="rgba(213,202,184,0.62)"/>
  <text x="396" y="553" fill="#1E222B" font-family="DM Sans, Arial, sans-serif" font-size="22" font-weight="600">See plans</text>

  <text x="130" y="620" fill="#746A5D" font-family="DM Sans, Arial, sans-serif" font-size="13" letter-spacing="4">AI REVIEW + VISUAL RATIONALE</text>
  <path d="M130 654H486" stroke="rgba(213,202,184,0.68)"/>
  <text x="130" y="700" fill="#746A5D" font-family="DM Sans, Arial, sans-serif" font-size="12" letter-spacing="3">CURRENT BUILD</text>
  <text x="130" y="730" fill="#1E222B" font-family="DM Sans, Arial, sans-serif" font-size="18" font-weight="700">486 live CCRN questions</text>
  <text x="392" y="700" fill="#746A5D" font-family="DM Sans, Arial, sans-serif" font-size="12" letter-spacing="3">REVIEW STYLE</text>
  <text x="392" y="730" fill="#1E222B" font-family="DM Sans, Arial, sans-serif" font-size="18" font-weight="700">Pattern-first bedside reasoning</text>

  
    <circle cx="1184" cy="520" r="404" stroke="#1E222B" stroke-opacity="0.22" stroke-width="1.8"/>
    <ellipse cx="1184" cy="520" rx="315" ry="404" stroke="#537985" stroke-opacity="0.26" stroke-width="1.5"/>
    <ellipse cx="1184" cy="520" rx="234" ry="404" stroke="#537985" stroke-opacity="0.18" stroke-width="1.3"/>
    <ellipse cx="1184" cy="520" rx="364" ry="404" stroke="#537985" stroke-opacity="0.13" stroke-width="1.2"/>
    <path d="M1184 116V924" stroke="#537985" stroke-opacity="0.22" stroke-width="1.3"/>
    <path d="M828 245.27999999999997C1054 204.88 1314 204.88 1540 245.27999999999997" stroke="#537985" stroke-opacity="0.18" stroke-width="1.18"/>
    <path d="M802 406.88C1042 358.4 1326 358.4 1566 406.88" stroke="#537985" stroke-opacity="0.22" stroke-width="1.18"/>
    <path d="M798 568.48C1028 532.12 1340 532.12 1570 568.48" stroke="#537985" stroke-opacity="0.2" stroke-width="1.18"/>
    <path d="M824 713.92C1048 689.6800000000001 1320 689.6800000000001 1544 713.92" stroke="#537985" stroke-opacity="0.16" stroke-width="1.16"/>
    <ellipse cx="1184" cy="520" rx="376" ry="404" stroke="#C49B59" stroke-opacity="0.08" stroke-width="1.1" stroke-dasharray="1 12"/>
  
      
    <g transform="translate(1178 516) scale(0.92) translate(-240 -260)">
      <path d="M240 78V420" stroke="#537985" stroke-opacity="0.96" stroke-width="2.4" stroke-linecap="round"/>
      <path d="M182 110C152 124 126 149 104 187C82 225 70 269 68 319C66 369 74 412 94 448C114 484 142 511 178 528" stroke="#1E222B" stroke-opacity="0.72" stroke-width="3" stroke-linecap="round" stroke-linejoin="round"/>
      <path d="M298 110C328 124 354 149 376 187C398 225 410 269 412 319C414 369 406 412 386 448C366 484 338 511 302 528" stroke="#1E222B" stroke-opacity="0.72" stroke-width="3" stroke-linecap="round" stroke-linejoin="round"/>
      <path d="M198 164C170 176 146 198 127 228C108 258 98 293 96 332C94 371 100 407 116 440C132 473 155 498 186 516" stroke="#C49B59" stroke-opacity="0.78" stroke-width="2.4" stroke-linecap="round"/>
      <path d="M282 164C310 176 334 198 353 228C372 258 382 293 384 332C386 371 380 407 364 440C348 473 325 498 294 516" stroke="#C49B59" stroke-opacity="0.78" stroke-width="2.4" stroke-linecap="round"/>
      <path d="M240 156C258 142 278 135 300 136C322 138 339 148 352 167C365 186 371 208 369 232C367 256 358 278 341 300C324 321 297 355 260 402C223 355 196 321 179 300C162 278 153 256 151 232C149 208 155 186 168 167C181 148 198 138 220 136C242 135 262 142 280 156" stroke="#C49B59" stroke-opacity="0.92" stroke-width="2.6" stroke-linecap="round" stroke-linejoin="round"/>
      <path d="M182 214C198 202 217 194 240 192C263 190 282 196 298 210" stroke="#537985" stroke-opacity="0.38" stroke-width="1.8" stroke-linecap="round"/>
      <path d="M160 262C186 248 212 242 240 242C268 242 294 248 320 262" stroke="#537985" stroke-opacity="0.42" stroke-width="1.8" stroke-linecap="round"/>
      <path d="M146 314C178 300 210 294 240 294C270 294 302 300 334 314" stroke="#537985" stroke-opacity="0.44" stroke-width="1.8" stroke-linecap="round"/>
      <path d="M148 366C178 355 209 350 240 350C271 350 302 355 332 366" stroke="#537985" stroke-opacity="0.38" stroke-width="1.7" stroke-linecap="round"/>
      <path d="M236 104C216 98 197 90 178 80C159 70 140 56 122 40" stroke="#537985" stroke-opacity="0.3" stroke-width="1.4" stroke-linecap="round"/>
      <path d="M248 104C272 96 295 84 316 68C337 52 357 34 376 14" stroke="#537985" stroke-opacity="0.3" stroke-width="1.4" stroke-linecap="round"/>
      <path d="M310 158H476" stroke="#537985" stroke-opacity="0.24" stroke-width="1.5" stroke-linecap="round"/>
      <path d="M336 300H500" stroke="#537985" stroke-opacity="0.22" stroke-width="1.5" stroke-linecap="round"/>
      <path d="M316 470H482" stroke="#537985" stroke-opacity="0.2" stroke-width="1.5" stroke-linecap="round"/>
      <circle cx="478" cy="158" r="7" fill="#FBF7F0" stroke="#C49B59" stroke-opacity="0.64" stroke-width="1.1"/>
      <circle cx="502" cy="300" r="7" fill="#FBF7F0" stroke="#C49B59" stroke-opacity="0.64" stroke-width="1.1"/>
      <circle cx="484" cy="470" r="7" fill="#FBF7F0" stroke="#537985" stroke-opacity="0.54" stroke-width="1.1"/>
    </g>
  
      <path d="M1348 274H1542" stroke="rgba(83,121,133,0.2)" stroke-width="1.8"/>
      <path d="M1372 436H1552" stroke="rgba(83,121,133,0.18)" stroke-width="1.8"/>
      <path d="M1352 676H1530" stroke="rgba(83,121,133,0.16)" stroke-width="1.8"/>
</svg>