<svg width="1600" height="960" viewBox="0 0 1600 960" fill="none" xmlns="http://www.w3.org/2000/svg"><defs><radialGradient id="paper-wash" cx="0" cy="0" r="1" gradientUnits="userSpaceOnUse" gradientTransform="translate(1184 364.8) rotate(90) scale(460.79999999999995 460.79999999999995)"><stop offset="0" stop-color="#fffdf8"/><stop offset="0.5" stop-color="#F1E8D9"/><stop offset="1" stop-color="#FBF7F0"/></radialGradient><radialGradient id="core-wash" cx="0" cy="0" r="1" gradientUnits="userSpaceOnUse" gradientTransform="translate(1248 403.2) rotate(90) scale(249.60000000000002 249.60000000000002)"><stop offset="0" stop-color="#FFFDF8" stop-opacity="0.96"/><stop offset="0.56" stop-color="#E7D8C1" stop-opacity="0.52"/><stop offset="1" stop-color="#E7D8C1" stop-opacity="0"/></radialGradient></defs><rect width="1600" height="960" fill="#FBF7F0"/><rect x="24" y="24" width="1552" height="912" rx="28" fill="url(#paper-wash)" stroke="rgba(210,193,170,0.4)"/><rect x="110" y="70" width="1380" height="82" rx="41" fill="rgba(255,252,247,0.84)" stroke="rgba(212,197,173,0.52)"/><text x="186" y="120" fill="#1F1F21" font-family="'Source Serif 4', Georgia, serif" font-size="38" font-weight="600" letter-spacing="-2">ChapAI</text><text x="1106" y="120" fill="#756B60" font-family="'DM Sans', Arial, sans-serif" font-size="20" font-weight="600">CCRN</text><text x="1190" y="120" fill="#756B60" font-family="'DM Sans', Arial, sans-serif" font-size="20" font-weight="600">NCLEX</text><text x="1284" y="120" fill="#756B60" font-family="'DM Sans', Arial, sans-serif" font-size="20" font-weight="600">PLANS</text><rect x="1350" y="90" width="112" height="44" rx="22" fill="rgba(255,252,247,0.96)" stroke="rgba(212,197,173,0.54)"/><text x="1386" y="118" fill="#1F1F21" font-family="'DM Sans', Arial, sans-serif" font-size="20" font-weight="700">SPRINT</text><text x="150" y="188" fill="#756B60" font-family="'DM Sans', Arial, sans-serif" font-size="15" font-weight="700" letter-spacing="5">CORTICAL ATLAS / PREMIUM MEDICAL HERO</text><text x="150" y="286" fill="#1F1F21" font-family="'DM Sans', Arial, sans-serif" font-size="94" font-weight="500" letter-spacing="-7">Medical prep,</text><text x="150" y="374" fill="#1F1F21" font-family="'DM Sans', Arial, sans-serif" font-size="94" font-weight="500" letter-spacing="-7">made crisp</text><text x="150" y="462" fill="#1F1F21" font-family="'DM Sans', Arial, sans-serif" font-size="94" font-weight="500" letter-spacing="-7">and spatial.</text><text x="150" y="544" fill="#756B60" font-family="'DM Sans', Arial, sans-serif" font-size="30">Original questions, elite rationale, and a direct path into the right plan.</text><rect x="150" y="610" width="236" height="64" rx="32" fill="#5E818A"/><text x="193" y="650" fill="#fff" font-family="'DM Sans', Arial, sans-serif" font-size="25" font-weight="700">Start the $10 sprint</text><rect x="402" y="610" width="196" height="64" rx="32" fill="rgba(255,252,247,0.92)" stroke="rgba(194,178,154,0.6)"/><text x="456" y="650" fill="#1F1F21" font-family="'DM Sans', Arial, sans-serif" font-size="24" font-weight="600">See plans</text><text x="150" y="736" fill="#756B60" font-family="'DM Sans', Arial, sans-serif" font-size="14" font-weight="700" letter-spacing="4">AI TUTOR + VISUAL RATIONALE + CLEAN CLINICAL FLOW</text><path d="M150 764H672" stroke="rgba(212,197,173,0.6)"/><path d="M706 184C862 132 1012 110 1156 118C1318 126 1462 172 1588 256C1674 312 1744 380 1798 460" stroke="rgba(101,120,126,0.18)" stroke-width="1.24" fill="none" stroke-linecap="round"/><path d="M690 336C842 286 994 266 1146 276C1308 286 1456 332 1592 414C1676 466 1744 530 1796 608" stroke="rgba(101,120,126,0.1)" stroke-width="1.06" fill="none" stroke-linecap="round"/><path d="M714 514C862 476 1008 462 1152 472C1300 482 1438 520 1566 586C1652 630 1720 688 1772 760" stroke="rgba(101,120,126,0.18)" stroke-width="1.18" fill="none" stroke-linecap="round"/><path d="M1018 86C1036 222 1054 362 1072 506C1090 650 1122 800 1168 954" stroke="rgba(101,120,126,0.08)" stroke-width="1.02" fill="none" stroke-linecap="round"/><path d="M1184 72C1190 212 1202 354 1220 500C1238 648 1270 800 1316 956" stroke="rgba(101,120,126,0.16)" stroke-width="1.12" fill="none" stroke-linecap="round"/><path d="M990 194C1106 156 1230 150 1362 176C1478 200 1568 254 1632 338C1696 422 1724 522 1716 638C1708 752 1666 846 1590 920C1514 994 1412 1044 1284 1070C1156 1096 1044 1090 948 1052C852 1014 780 952 732 866C684 780 664 680 672 566C680 452 714 362 774 294C834 226 906 192 990 194Z" fill="url(#core-wash)" opacity="0.82"/><path d="M1186 208C1082 214 1000 256 940 334C880 412 856 506 868 616C880 724 922 810 994 874C1066 938 1162 978 1282 994C1402 970 1498 922 1570 850C1642 778 1680 692 1684 592C1688 494 1660 410 1600 340C1540 270 1458 224 1354 204C1298 194 1242 196 1186 208Z" stroke="rgba(31,31,29,0.88)" stroke-width="2.9" fill="none" stroke-linecap="round" stroke-linejoin="round"/><path d="M1274 218C1260 286 1254 354 1256 422C1258 492 1268 566 1284 644C1300 724 1308 798 1308 866C1308 932 1298 996 1278 1056" stroke="#C89B5B" stroke-width="2.06" fill="none" stroke-linecap="round"/><path d="M1110 272C1036 272 980 302 942 362C906 420 894 490 906 572C918 650 950 718 1002 776" stroke="rgba(73,96,102,0.58)" stroke-width="1.68" fill="none" stroke-linecap="round"/><path d="M1154 426C1102 438 1068 468 1052 516C1038 562 1044 612 1070 666C1096 718 1130 758 1172 786" stroke="rgba(73,96,102,0.58)" stroke-width="1.68" fill="none" stroke-linecap="round"/><path d="M1446 272C1520 272 1576 302 1614 362C1650 420 1662 490 1650 572C1638 650 1606 718 1554 776" stroke="rgba(73,96,102,0.58)" stroke-width="1.68" fill="none" stroke-linecap="round"/><path d="M1278 634C1352 606 1418 558 1476 490C1534 420 1576 344 1602 262" stroke="#5E818A" stroke-width="1.82" fill="none" stroke-linecap="round"/><path d="M1278 634C1204 606 1138 558 1080 490C1022 420 980 344 954 262" stroke="#5E818A" stroke-width="1.82" fill="none" stroke-linecap="round"/><text x="150" y="842" fill="#756B60" font-family="'DM Sans', Arial, sans-serif" font-size="14" font-weight="700" letter-spacing="4">CURRENT ANGLE</text><text x="150" y="888" fill="#1F1F21" font-family="'Source Serif 4', Georgia, serif" font-size="38" font-weight="600">Cortical atlas</text></svg>