<svg width="1600" height="520" viewBox="0 0 1600 520" fill="none" xmlns="http://www.w3.org/2000/svg">
  <rect width="1600" height="520" fill="#FBF7F0"/>
  <rect x="26" y="26" width="1548" height="468" rx="28" fill="url(#page-wash)" stroke="rgba(195,178,154,0.36)"/>
  <defs>
    <radialGradient id="page-wash" cx="0" cy="0" r="1" gradientUnits="userSpaceOnUse" gradientTransform="translate(1088 166.4) rotate(90) scale(249.6 249.6)">
      <stop offset="0" stop-color="#fffdf8"/>
      <stop offset="0.68" stop-color="#F4EEE3"/>
      <stop offset="1" stop-color="#F4EEE3"/>
    </radialGradient>
    <radialGradient id="bleed" cx="0" cy="0" r="1" gradientUnits="userSpaceOnUse" gradientTransform="translate(1216 197.6) rotate(90) scale(176.8 176.8)">
      <stop offset="0" stop-color="rgba(255,253,248,0.96)"/>
      <stop offset="0.62" stop-color="rgba(239,226,206,0.56)"/>
      <stop offset="1" stop-color="rgba(239,226,206,0)"/>
    </radialGradient>
  </defs>
  
    <rect x="46" y="46" width="1508" height="428" rx="34" fill="rgba(255,252,247,0.88)" stroke="rgba(212,197,173,0.52)"/>
    <text x="118" y="180" fill="#201F21" font-family="'Source Serif 4', Georgia, serif" font-size="72" font-weight="600" letter-spacing="-3">ChapAI</text>
    <text x="118" y="240" fill="#7D705F" font-family="'DM Sans', Arial, sans-serif" font-size="18" font-weight="700" letter-spacing="5">NCLEX + CCRN / CLEANER CLINICAL PREP</text>
    <text x="118" y="318" fill="#201F21" font-family="'DM Sans', Arial, sans-serif" font-size="50" font-weight="500" letter-spacing="-3">Original questions. Elite rationale.</text>
    <text x="118" y="374" fill="#7D705F" font-family="'DM Sans', Arial, sans-serif" font-size="26">AI tutor, visual guidance, and a faster path into the right plan.</text>
    
    <path d="M900 78C940.32 51.12 991.84 36.559999999999995 1054.56 37.67999999999999C1119.52 39.919999999999995 1172.16 64.56 1210.24 110.48C1247.2 155.28 1266.24 212.4 1266.24 280.72C1266.24 328.88 1255.04 373.68 1232.64 415.12C1210.24 456.56000000000006 1180 490.16 1143.04 515.9200000000001C1104.96 541.6800000000001 1062.4 554 1015.36 551.76C967.2 548.4000000000001 926.88 532.72 895.52 502.48C865.28 472.24 848.48 433.04 846.24 384.88000000000005C844 335.6 852.96 293.04 872 258.32000000000005C889.92 223.60000000000002 904.48 194.48000000000002 916.8 170.96C929.12 147.44 926.88 128.4 900 78Z" fill="url(#bleed)" opacity="0.9"/>
    <path d="M908.96 90.32C954.88 64.56 1010.88 52.239999999999995 1076.96 54.48C1140.8 56.72 1191.2 79.12 1228.16 121.68C1265.1200000000001 163.12 1284.16 215.76000000000002 1285.28 280.72C1285.28 345.68 1266.24 400.56000000000006 1230.4 444.24C1194.56 487.92 1147.52 518.1600000000001 1088.16 533.84C1029.92 549.52 979.52 549.52 936.96 534.96" stroke="rgba(86,124,133,0.62)" stroke-width="1.4560000000000002" fill="none" stroke-linecap="round" stroke-linejoin="round"/>
    <path d="M959.36 146.32C992.96 127.28 1032.16 118.32000000000001 1078.08 119.44C1128.48 120.56 1168.8 138.48000000000002 1199.04 173.2C1229.28 206.8 1244.96 250.48000000000002 1247.2 304.24C1247.2 358 1230.4 403.92 1196.8 442.00000000000006C1162.08 480.08000000000004 1119.52 504.72 1068 514.8000000000001" stroke="rgba(86,124,133,0.44)" stroke-width="1.0080000000000002" fill="none" stroke-linecap="round" stroke-linejoin="round"/>
    <path d="M951.52 192.24C988.48 175.44 1027.68 169.84 1070.24 172.08C1118.4 174.32 1158.72 191.12 1191.2 222.48000000000002C1223.68 252.72000000000003 1239.3600000000001 291.92 1237.12 341.20000000000005" stroke="rgba(31,31,29,0.84)" stroke-width="1.344" fill="none" stroke-linecap="round" stroke-linejoin="round"/>
    <path d="M975.04 256.08000000000004C1006.4 234.8 1041.12 224.72000000000003 1079.2 224.72000000000003C1119.52 224.72000000000003 1154.24 238.16000000000003 1183.3600000000001 265.04" stroke="rgba(31,31,29,0.76)" stroke-width="1.2320000000000002" fill="none" stroke-linecap="round" stroke-linejoin="round"/>
    <path d="M1038.88 318.8C1017.6 293.04 996.32 270.64 975.04 252.72000000000003" stroke="#567C85" stroke-width="1.064" fill="none" stroke-linecap="round"/>
    <path d="M1073.6 324.40000000000003C1083.68 293.04 1102.72 262.8 1131.8400000000001 233.68" stroke="#C49758" stroke-width="1.064" fill="none" stroke-linecap="round"/>
    <path d="M1068 369.20000000000005C1038.88 388.24 1015.36 414.00000000000006 998.56 445.36" stroke="#567C85" stroke-width="1.0080000000000002" fill="none" stroke-linecap="round"/>
    <path d="M1081.44 369.20000000000005C1115.04 382.64000000000004 1140.8 406.16 1158.72 439.76000000000005" stroke="#C49758" stroke-width="1.0080000000000002" fill="none" stroke-linecap="round"/>
    <circle cx="1038.88" cy="318.8" r="3.9200000000000004" fill="#FBF7F0" stroke="#567C85" stroke-width="0.672"/>
    <circle cx="1081.44" cy="369.20000000000005" r="3.9200000000000004" fill="#FBF7F0" stroke="#C49758" stroke-width="0.672"/>
  
  
</svg>