<svg width="720" height="420" viewBox="0 0 720 420" fill="none" xmlns="http://www.w3.org/2000/svg">
  <rect width="720" height="420" rx="42" fill="#F6F1E8"/>
  <circle cx="156" cy="210" r="92" stroke="#DCCFBD" stroke-width="1.8"/>
  <ellipse cx="156" cy="210" rx="64" ry="92" stroke="#5D7E87" stroke-opacity="0.18" stroke-width="1.4"/>
  <path d="M155 118V302" stroke="#C89D60" stroke-width="2.2" stroke-linecap="round"/>
  <path d="M112 172C128 160 145 154 164 154C183 154 199 159 213 170C227 180 237 194 244 212" stroke="#1F252B" stroke-width="3" stroke-linecap="round"/>
  <path d="M116 233C131 224 147 219 165 219C181 219 196 223 209 231C222 239 232 250 239 266" stroke="#5D7E87" stroke-width="2.5" stroke-linecap="round"/>
  <path d="M123 286C136 280 150 277 166 277C179 277 191 279 202 284" stroke="#C89D60" stroke-width="2.1" stroke-linecap="round"/>
  
  <path d="M84 212H102" stroke="#1F252B" stroke-width="2.2" stroke-linecap="round"/><path d="M246 212H266" stroke="#1F252B" stroke-width="2.2" stroke-linecap="round"/>
  <text x="328" y="190" fill="#1F252B" font-family="Georgia, 'Times New Roman', serif" font-size="72" letter-spacing="-2">ChapAI</text>
  <text x="332" y="238" fill="#6A7477" font-family="'DM Sans', Arial, sans-serif" font-size="18" letter-spacing="5">NCLEX + CCRN</text>
</svg>