<svg width="240" height="240" viewBox="0 0 240 240" fill="none" xmlns="http://www.w3.org/2000/svg">
  <rect width="240" height="240" rx="48" fill="#F7F3EA"/>
  <path d="M76 120C76 92.5 95.2 72 120 72C144.8 72 164 92.5 164 120C164 147.5 144.8 168 120 168C95.2 168 76 147.5 76 120Z" stroke="#1F262B" stroke-width="1.9" stroke-linecap="round"/>
  <path d="M89 120C89 100.8 102.6 86 120 86C137.4 86 151 100.8 151 120C151 139.2 137.4 154 120 154C102.6 154 89 139.2 89 120Z" stroke="#5E8791" stroke-width="1.25" stroke-linecap="round"/>
  <path d="M120 86V154" stroke="#C4A060" stroke-width="1.15" stroke-linecap="round"/>
  <path d="M97 120H143" stroke="#C4A060" stroke-width="1.15" stroke-linecap="round"/>
  <path d="M111 104C114.5 99.5 117.2 97.4 120 97.4C122.8 97.4 125.5 99.5 129 104" stroke="#D7D0C4" stroke-width="1.05" stroke-linecap="round"/>
  <path d="M111 136C114.5 140.5 117.2 142.6 120 142.6C122.8 142.6 125.5 140.5 129 136" stroke="#D7D0C4" stroke-width="1.05" stroke-linecap="round"/>
</svg>
