<svg width="480" height="480" viewBox="0 0 480 480" fill="none" xmlns="http://www.w3.org/2000/svg">
    <rect width="480" height="480" rx="48" fill="#FBF7F0"/>
    <rect x="36" y="36" width="408" height="408" rx="36" fill="rgba(255,252,247,0.84)" stroke="rgba(205,189,165,0.46)"/>
    
    <circle cx="240" cy="164" r="76" fill="rgba(255,252,247,0.96)" stroke="rgba(205,189,165,0.54)"/>
    
    <path d="M240 108C278 108 308 120 332 144C356 168 368 196 368 228C368 264 356 294 332 318C308 342 276 354 236 354C198 354 168 342 146 318C124 294 114 264 116 228C118 198 130 170 152 146C174 122 204 110 240 108Z" stroke="rgba(32,31,33,0.88)" stroke-width="2.4" fill="none"/>
    <path d="M194 154C214 140 238 134 266 136C294 138 316 150 332 172" stroke="#7F8F79" stroke-width="1.8" stroke-linecap="round"/>
    <path d="M178 218C204 198 234 188 268 190C304 192 334 208 356 238" stroke="rgba(32,31,33,0.58)" stroke-width="1.7" stroke-linecap="round"/>
    <path d="M240 196V274" stroke="#7F8F79" stroke-width="2" stroke-linecap="round"/>
    <path d="M240 274C226 296 214 320 204 346" stroke="#7F8F79" stroke-width="1.7" stroke-linecap="round"/>
    <path d="M240 274C256 296 270 320 282 346" stroke="#7F8F79" stroke-width="1.7" stroke-linecap="round"/>
    <circle cx="240" cy="196" r="7" fill="#FBF7F0" stroke="#7F8F79" stroke-width="1.1"/>
  
    <text x="240" y="308" fill="#201F21" text-anchor="middle" font-family="'Source Serif 4', Georgia, serif" font-size="62" font-weight="600" letter-spacing="-2.6">ChapAI</text>
    <text x="240" y="350" fill="#7A7064" text-anchor="middle" font-family="'DM Sans', Arial, sans-serif" font-size="14" font-weight="700" letter-spacing="4">NEURAL CLINICAL SYSTEM</text>
  
  </svg>