<svg width="1600" height="900" viewBox="0 0 1600 900" fill="none" xmlns="http://www.w3.org/2000/svg">
  <defs>
    <linearGradient id="bg" x1="132" y1="80" x2="1420" y2="832" gradientUnits="userSpaceOnUse">
      <stop stop-color="#FBFAF6"/>
      <stop offset="1" stop-color="#EDF1EC"/>
    </linearGradient>
    <radialGradient id="halo" cx="0" cy="0" r="1" gradientUnits="userSpaceOnUse" gradientTransform="translate(1120 304) rotate(90) scale(340 340)">
      <stop stop-color="#D6E5E8" stop-opacity="0.76"/>
      <stop offset="1" stop-color="#D6E5E8" stop-opacity="0"/>
    </radialGradient>
  </defs>
  <rect width="1600" height="900" rx="40" fill="url(#bg)"/>
  <g opacity="0.7">
    <circle cx="1142" cy="410" r="336" stroke="#B7C0BA" stroke-opacity="0.2" stroke-width="2"/>
    <circle cx="1142" cy="410" r="270" stroke="#AFC1C8" stroke-opacity="0.22" stroke-width="2"/>
    <circle cx="1142" cy="410" r="212" stroke="#C4B391" stroke-opacity="0.2" stroke-width="2"/>
    <path d="M872 410H1394" stroke="#AAB8BC" stroke-opacity="0.15" stroke-width="2"/>
    <path d="M1142 132V690" stroke="#AAB8BC" stroke-opacity="0.15" stroke-width="2"/>
    <path d="M922 484C980 432 1038 392 1090 392C1148 392 1184 454 1238 454C1284 454 1336 422 1372 368" stroke="#5A7F88" stroke-width="14" stroke-linecap="round" stroke-linejoin="round"/>
    <path d="M928 302C1014 246 1116 228 1216 250C1284 264 1338 294 1378 334" stroke="#C29A56" stroke-opacity="0.34" stroke-width="2"/>
    <circle cx="1142" cy="410" r="340" fill="url(#halo)"/>
    <circle cx="1088" cy="392" r="10" fill="#DCE8EB" stroke="#5A7F88"/>
    <circle cx="1238" cy="454" r="10" fill="#EFE6D3" stroke="#C29A56"/>
    <circle cx="1372" cy="368" r="10" fill="#E0EADF" stroke="#748B72"/>
  </g>
  <rect x="110" y="108" width="156" height="42" rx="21" fill="#FFFDF8" stroke="#DDD8CC"/>
  <text x="188" y="135" text-anchor="middle" fill="#657278" font-size="18" font-family="DM Sans, Arial" letter-spacing="3">NCLEX</text>
  <text x="110" y="262" fill="#1F262B" font-size="96" font-family="'Source Serif 4', Georgia, serif" font-weight="600">Premium NCLEX</text>
  <text x="110" y="352" fill="#1F262B" font-size="96" font-family="'Source Serif 4', Georgia, serif" font-weight="600">prep, built calmer.</text>
  <text x="110" y="430" fill="#657278" font-size="31" font-family="DM Sans, Arial">Safety, prioritization, pharmacology, and AI teaching in one cleaner study path.</text>
  <text x="110" y="514" fill="#1F262B" font-size="28" font-family="DM Sans, Arial">Priority first. Safety first. Less qbank noise.</text>
  <rect x="110" y="586" width="316" height="72" rx="36" fill="#5A7F88"/>
  <text x="268" y="631" text-anchor="middle" fill="white" font-size="28" font-family="DM Sans, Arial" font-weight="700">Choose NCLEX package</text>
  <text x="110" y="760" fill="#657278" font-size="24" font-family="DM Sans, Arial">clarityccrn.chapaisolutions.com/upgrade</text>
</svg>
