<svg width="520" height="520" viewBox="0 0 520 520" fill="none" xmlns="http://www.w3.org/2000/svg">
    <defs>
      <radialGradient id="wash" cx="0" cy="0" r="1" gradientUnits="userSpaceOnUse" gradientTransform="translate(344 112) rotate(122) scale(430 430)">
        <stop offset="0" stop-color="#fffdf8" stop-opacity="0.98"/>
        <stop offset="0.64" stop-color="#f4ebdb" stop-opacity="0.88"/>
        <stop offset="1" stop-color="#eee4d4" stop-opacity="0.96"/>
      </radialGradient>
    </defs>
    <rect width="520" height="520" rx="54" fill="#FBF7F0"/>
    <rect x="34" y="34" width="452" height="452" rx="40" fill="url(#wash)" stroke="rgba(210,198,179,0.62)"/>
  
      <path d="M118 160C150 124 188 102 232 94C276 86 320 92 362 114C404 136 434 170 450 216" stroke="#1F2328" stroke-width="3.2" stroke-linecap="round"/>
      <path d="M134 220C168 198 204 186 242 184C280 182 316 192 350 214" stroke="#7F9CA4" stroke-width="2.4" stroke-linecap="round"/>
      <path d="M150 270C184 252 220 244 258 246C296 248 330 260 362 282" stroke="#C39A63" stroke-width="2" stroke-linecap="round"/>
      <text x="120" y="402" fill="#1F2328" font-family="Source Serif 4, Georgia, serif" font-size="58" font-weight="600" letter-spacing="-2">ChapAI</text>
      <text x="122" y="438" fill="#6F665A" font-family="DM Sans, Arial, sans-serif" font-size="13" letter-spacing="4">BEDSIDE FIRST</text></svg>