<svg width="480" height="480" viewBox="0 0 480 480" fill="none" xmlns="http://www.w3.org/2000/svg">
  <rect width="480" height="480" rx="48" fill="#FBF7F0"/>
  <rect x="36" y="36" width="408" height="408" rx="36" fill="url(#wash)" stroke="rgba(208,194,170,0.5)"/>
  <defs>
    <radialGradient id="wash" cx="0" cy="0" r="1" gradientUnits="userSpaceOnUse" gradientTransform="translate(164 102) rotate(52) scale(352 352)">
      <stop stop-color="rgba(255,255,255,0.9)"/>
      <stop offset="1" stop-color="rgba(242,233,221,0.96)"/>
    </radialGradient>
  </defs>
  
    <circle cx="240" cy="240" r="132" stroke="rgba(121,111,97,0.16)" stroke-width="1.4"/>
    <path d="M240 156C258 166 268 182 270 198C272 214 267 228 256 240C245 252 239 266 238 282C237 299 242 315 252 330" stroke="#201E22" stroke-width="2.5" stroke-linecap="round"/>
    <path d="M240 240C216 231 194 216 174 195C154 174 139 151 128 126" stroke="#A7775C" stroke-opacity="0.9" stroke-width="2" stroke-linecap="round"/>
    <path d="M240 240C263 232 285 218 305 198C325 178 341 155 352 130" stroke="#A7775C" stroke-opacity="0.9" stroke-width="2" stroke-linecap="round"/>
    <path d="M240 276C214 285 192 300 174 321C156 341 144 363 138 387" stroke="#5A7F88" stroke-opacity="0.78" stroke-width="1.8" stroke-linecap="round"/>
    <path d="M240 276C266 286 288 301 306 322C323 342 335 364 341 388" stroke="#5A7F88" stroke-opacity="0.78" stroke-width="1.8" stroke-linecap="round"/>
    <circle cx="128" cy="126" r="4.8" fill="#5A7F88"/>
    <circle cx="352" cy="130" r="4.8" fill="#5A7F88"/>
    <circle cx="138" cy="387" r="4.4" fill="#A7775C"/>
    <circle cx="341" cy="388" r="4.4" fill="#A7775C"/>
  
</svg>