<svg width="480" height="480" viewBox="0 0 480 480" fill="none" xmlns="http://www.w3.org/2000/svg"><rect width="480" height="480" rx="48" fill="#FBF7F0"/><rect x="36" y="36" width="408" height="408" rx="36" fill="rgba(255,252,247,0.88)" stroke="rgba(205,189,165,0.46)"/><circle cx="240" cy="166" r="78" fill="rgba(255,252,247,0.96)" stroke="rgba(205,189,165,0.5)"/><path d="M240-6) 166-54)C240-20) 166-78) 240-44) 166-86) 240-78) 166-78)C240-112) 166-70) 240-134) 166-48) 240-144) 166-12)C240-154) 166+24) 240-150) 166+62) 240-132) 166+102)C240-114) 166+142) 240-80) 166+180) 240-30) 166+214)C240+12) 166+186) 240+52) 166+150) 240+90) 166+106)C240+128) 166+62) 240+146) 166+24) 240+144) 166-8)C240+142) 166-40) 240+126) 166-62) 240+96) 166-74)C240+58) 166-88) 240+26) 166-80) 240) 166-50)" fill="none" stroke="rgba(31,31,29,0.86)" stroke-width="2.04" stroke-linecap="round" stroke-linejoin="round"/><path d="M240) 166-28)V166+74)" fill="none" stroke="#5E818A" stroke-width="1.58" stroke-linecap="round"/><path d="M240) 166+4)C240-32) 166-4) 240-56) 166+2) 240-72) 166+22)" fill="none" stroke="#5E818A" stroke-width="1.44" stroke-linecap="round"/><text x="240" y="308" fill="#1F1F21" text-anchor="middle" font-family="'Source Serif 4', Georgia, serif" font-size="60" font-weight="600" letter-spacing="-2.4">ChapAI</text><text x="240" y="350" fill="#756B60" text-anchor="middle" font-family="'DM Sans', Arial, sans-serif" font-size="14" font-weight="700" letter-spacing="4">CORONARY SIGNATURE</text></svg>