<svg width="240" height="240" viewBox="0 0 240 240" fill="none" xmlns="http://www.w3.org/2000/svg">
  <rect width="240" height="240" rx="48" fill="#F7F3EA"/>
  <circle cx="120" cy="120" r="69" stroke="#D9D2C6" stroke-width="1.1"/>
  <path d="M92 150C98.2 160.2 107.8 166.4 120 166.4C132.2 166.4 141.8 160.2 148 150" stroke="#5E8791" stroke-width="1.35" stroke-linecap="round"/>
  <path d="M97 149C96.2 142 95.8 136.4 95.8 132C95.8 107.8 107.4 92 120 92C132.6 92 144.2 107.8 144.2 132C144.2 136.4 143.8 142 143 149" stroke="#1F262B" stroke-width="1.8" stroke-linecap="round" stroke-linejoin="round"/>
  <path d="M120 92V64" stroke="#1F262B" stroke-width="1.15" stroke-linecap="round"/>
  <path d="M120 166.4V176.4" stroke="#C4A060" stroke-width="1.15" stroke-linecap="round"/>
  <path d="M107 112C111.2 107.8 115 105.6 120 105.6C125 105.6 128.8 107.8 133 112" stroke="#C4A060" stroke-width="1.15" stroke-linecap="round"/>
</svg>
