<svg width="480" height="480" viewBox="0 0 480 480" fill="none" xmlns="http://www.w3.org/2000/svg">
  <rect width="480" height="480" rx="44" fill="#FBF7F0"/>
  <rect x="34" y="34" width="412" height="412" rx="34" fill="url(#wash)" stroke="rgba(214,201,181,0.62)"/>
  <defs>
    <radialGradient id="wash" cx="0" cy="0" r="1" gradientUnits="userSpaceOnUse" gradientTransform="translate(150 94) rotate(50) scale(334 334)">
      <stop stop-color="rgba(255,255,255,0.92)"/>
      <stop offset="1" stop-color="rgba(242,233,220,0.94)"/>
    </radialGradient>
  </defs>
  
    <circle cx="250" cy="240" r="138" stroke="rgba(120,112,99,0.16)" stroke-width="1.4"/>
    <ellipse cx="253" cy="240" rx="98" ry="138" stroke="#C39A61" stroke-opacity="0.28" stroke-width="1.15"/>
    <ellipse cx="267" cy="240" rx="68" ry="138" stroke="rgba(120,112,99,0.08)" stroke-width="1.05"/>
    <path d="M250 110V350" stroke="#5D8590" stroke-width="2.2" stroke-linecap="round"/>
    <path d="M222 148C231 136 243 130 258 130C273 130 286 136 296 148C305 160 310 174 310 192C310 210 305 224 296 236C286 248 273 254 258 254C243 254 231 248 222 236C212 224 207 210 207 192C207 174 212 160 222 148Z" stroke="#1F2024" stroke-width="2.5"/>
    <path d="M232 282C243 270 255 264 268 264C281 264 293 270 304 282" stroke="#C39A61" stroke-opacity="0.84" stroke-width="1.8" stroke-linecap="round"/>
    <path d="M236 322C246 306 251 292 251 280" stroke="#5D8590" stroke-opacity="0.76" stroke-width="1.8" stroke-linecap="round"/>
  
</svg>