<svg width="520" height="520" viewBox="0 0 520 520" fill="none" xmlns="http://www.w3.org/2000/svg">
  <rect width="520" height="520" rx="52" fill="#FBF7F0"/>
  <rect x="36" y="36" width="448" height="448" rx="40" fill="url(#wash)" stroke="rgba(208,196,177,0.58)"/>
  <defs>
    <radialGradient id="wash" cx="0" cy="0" r="1" gradientUnits="userSpaceOnUse" gradientTransform="translate(338 118) rotate(120) scale(420 420)">
      <stop offset="0" stop-color="#fffdf8" stop-opacity="0.94"/>
      <stop offset="0.64" stop-color="#f3eadb" stop-opacity="0.86"/>
      <stop offset="1" stop-color="#efe5d5" stop-opacity="0.96"/>
    </radialGradient>
  </defs>
  
      
    <circle cx="252" cy="224" r="114" stroke="#1E222B" stroke-opacity="0.22" stroke-width="1.8"/>
    <ellipse cx="252" cy="224" rx="89" ry="114" stroke="#537985" stroke-opacity="0.26" stroke-width="1.5"/>
    <ellipse cx="252" cy="224" rx="66" ry="114" stroke="#537985" stroke-opacity="0.18" stroke-width="1.3"/>
    <ellipse cx="252" cy="224" rx="103" ry="114" stroke="#537985" stroke-opacity="0.13" stroke-width="1.2"/>
    <path d="M252 110V338" stroke="#537985" stroke-opacity="0.22" stroke-width="1.3"/>
    <path d="M186 146.48C122 135.07999999999998 382 135.07999999999998 318 146.48" stroke="#537985" stroke-opacity="0.18" stroke-width="1.18"/>
    <path d="M160 192.07999999999998C110 178.4 394 178.4 344 192.07999999999998" stroke="#537985" stroke-opacity="0.22" stroke-width="1.18"/>
    <path d="M156 237.68C96 227.42 408 227.42 348 237.68" stroke="#537985" stroke-opacity="0.2" stroke-width="1.18"/>
    <path d="M182 278.72C116 271.88 388 271.88 322 278.72" stroke="#537985" stroke-opacity="0.16" stroke-width="1.16"/>
    <ellipse cx="252" cy="224" rx="86" ry="114" stroke="#B57D63" stroke-opacity="0.08" stroke-width="1.1" stroke-dasharray="1 12"/>
  
      <path d="M252 136V322" stroke="#B57D63" stroke-width="2.3" stroke-linecap="round"/>
      <path d="M210 176C226 164 243 158 262 158C281 158 298 164 314 176C329 188 336 205 336 226C336 247 329 264 314 278C298 292 281 299 262 299C243 299 226 292 210 278C195 264 188 247 188 226C188 205 195 188 210 176Z" stroke="#1E222B" stroke-width="2.6"/>
      <path d="M224 228C236 216 248 210 261 210C274 210 286 216 297 228" stroke="#537985" stroke-opacity="0.88" stroke-width="1.9" stroke-linecap="round"/>
      <text x="164" y="398" fill="#1E222B" font-family="DM Sans, Arial, sans-serif" font-size="38" font-weight="700" letter-spacing="3">CHAPAI</text>
      <text x="174" y="432" fill="#746A5D" font-family="DM Sans, Arial, sans-serif" font-size="13" letter-spacing="4">NCLEX + CCRN</text>
    
</svg>