<svg width="520" height="520" viewBox="0 0 520 520" fill="none" xmlns="http://www.w3.org/2000/svg">
    <defs>
      <radialGradient id="wash" cx="0" cy="0" r="1" gradientUnits="userSpaceOnUse" gradientTransform="translate(344 112) rotate(122) scale(430 430)">
        <stop offset="0" stop-color="#fffdf8" stop-opacity="0.98"/>
        <stop offset="0.64" stop-color="#f4ebdb" stop-opacity="0.88"/>
        <stop offset="1" stop-color="#eee4d4" stop-opacity="0.96"/>
      </radialGradient>
    </defs>
    <rect width="520" height="520" rx="54" fill="#FBF7F0"/>
    <rect x="34" y="34" width="452" height="452" rx="40" fill="url(#wash)" stroke="rgba(210,198,179,0.62)"/>
  
      <rect x="96" y="94" width="328" height="320" rx="32" fill="rgba(255,252,247,0.8)" stroke="rgba(208,196,177,0.62)"/>
      
    <circle cx="260" cy="194" r="88" stroke="#1F2328" stroke-opacity="0.2" stroke-width="1.8"/>
    <ellipse cx="260" cy="194" rx="69" ry="88" stroke="#C39A63" stroke-opacity="0.24" stroke-width="1.36"/>
    <ellipse cx="260" cy="194" rx="51" ry="88" stroke="#C39A63" stroke-opacity="0.16" stroke-width="1.18"/>
    <path d="M260 106V282" stroke="#C39A63" stroke-opacity="0.18" stroke-width="1.16"/>
    <path d="M196 164.07999999999998C164 153.51999999999998 356 153.51999999999998 324 164.07999999999998" stroke="#C39A63" stroke-opacity="0.17" stroke-width="1.1"/>
    <path d="M190 201.04C154 192 366 192 330 201.04" stroke="#C39A63" stroke-opacity="0.18" stroke-width="1.1"/>
    <path d="M210 230.96C164 225.68 356 225.68 310 230.96" stroke="#C39A63" stroke-opacity="0.15" stroke-width="1.06"/>
  
      
    <g transform="translate(260 194) scale(0.24) translate(-120 -120)">
      <path d="M112 34C142 20 174 18 208 26C242 34 272 50 296 74C320 98 334 126 338 158C342 190 336 220 320 248C304 276 280 298 248 314C216 330 180 336 142 332C104 328 72 312 46 284C20 256 8 224 10 188C12 152 24 122 46 98C68 74 92 54 120 40" stroke="#1F2328" stroke-width="4.5" stroke-linecap="round" stroke-linejoin="round"/>
      <path d="M116 88C136 74 160 68 188 70C214 72 236 82 254 100" stroke="#7F9CA4" stroke-width="2.8" stroke-linecap="round"/>
      <path d="M96 128C126 110 158 102 194 104C230 106 260 118 286 140" stroke="#C39A63" stroke-width="2.2" stroke-linecap="round"/>
      <path d="M88 174C122 154 160 144 202 144C244 144 280 156 308 180" stroke="#C39A63" stroke-width="2.2" stroke-linecap="round"/>
      <path d="M98 220C132 200 166 192 202 194C238 196 270 208 296 230" stroke="#C39A63" stroke-width="2.1" stroke-linecap="round"/>
      <path d="M126 262C154 248 182 242 210 244C238 246 262 256 282 274" stroke="#7F9CA4" stroke-width="2.4" stroke-linecap="round"/>
      <path d="M206 310C206 336 214 360 230 384C246 408 268 428 296 442" stroke="#C39A63" stroke-width="2.6" stroke-linecap="round"/>
    </g>
  
      <text x="140" y="348" fill="#1F2328" font-family="Source Serif 4, Georgia, serif" font-size="54" font-weight="600" letter-spacing="-2">ChapAI</text>
      <text x="150" y="382" fill="#6F665A" font-family="DM Sans, Arial, sans-serif" font-size="13" letter-spacing="4">PREMIUM CLINICAL REVIEW</text></svg>