<svg width="480" height="480" viewBox="0 0 480 480" fill="none" xmlns="http://www.w3.org/2000/svg">
  <rect width="480" height="480" rx="44" fill="#FBF7F0"/>
  <rect x="34" y="34" width="412" height="412" rx="34" fill="#F4ECDE" stroke="rgba(214,201,181,0.6)"/>
  
    <path d="M240 108C278 138 306 170 322 206C338 242 346 280 346 320C346 360 338 394 322 422C306 450 278 476 240 500C202 476 174 450 158 422C142 394 134 360 134 320C134 280 142 242 158 206C174 170 202 138 240 108Z" stroke="rgba(118,108,93,0.18)" stroke-width="1.35"/>
    <path d="M240 138V380" stroke="#5D8590" stroke-width="2.2" stroke-linecap="round"/>
    <path d="M198 212C210 196 224 188 240 188C256 188 270 196 282 212C294 227 300 245 300 266C300 287 294 305 282 320C270 336 256 344 240 344C224 344 210 336 198 320C186 305 180 287 180 266C180 245 186 227 198 212Z" stroke="#1F2024" stroke-width="2.3"/>
    <path d="M194 250H286" stroke="#9E775E" stroke-opacity="0.72" stroke-width="1.7" stroke-linecap="round"/>
  
</svg>