<svg width="240" height="240" viewBox="0 0 240 240" fill="none" xmlns="http://www.w3.org/2000/svg">
  <rect width="240" height="240" rx="48" fill="#F7F3EA"/>
  <circle cx="120" cy="120" r="70" stroke="#D8D1C4" stroke-width="1.2"/>
  <path d="M120 62C137 62 150 74 150 91C150 101 145.4 111 138.2 118C151.2 126.2 160 139.8 160 155.2C160 167.8 155 178.8 146.2 187.2C138.2 179.2 130.2 174.4 120 173C109.8 174.4 101.8 179.2 93.8 187.2C85 178.8 80 167.8 80 155.2C80 139.8 88.8 126.2 101.8 118C94.6 111 90 101 90 91C90 74 103 62 120 62Z" stroke="#1F262B" stroke-width="2.6" stroke-linecap="round" stroke-linejoin="round"/>
  <path d="M101 108C107 98.5 113.8 94.4 120 94.4C126.2 94.4 133 98.5 139 108" stroke="#5E8791" stroke-width="1.8" stroke-linecap="round"/>
  <path d="M112 124C116 122 119 121.2 120 121.2C121 121.2 124 122 128 124" stroke="#C4A060" stroke-width="1.5" stroke-linecap="round"/>
  <path d="M120 94.4V164" stroke="#5E8791" stroke-width="1.4" stroke-linecap="round"/>
  <path d="M104 149C111.5 145.5 116.5 144 120 144C123.5 144 128.5 145.5 136 149" stroke="#C4A060" stroke-width="1.5" stroke-linecap="round"/>
  <path d="M95 108H103" stroke="#1F262B" stroke-width="1.2" stroke-linecap="round"/>
  <path d="M137 108H145" stroke="#1F262B" stroke-width="1.2" stroke-linecap="round"/>
</svg>
