<svg width="480" height="480" viewBox="0 0 480 480" fill="none" xmlns="http://www.w3.org/2000/svg">
  <rect width="480" height="480" rx="48" fill="#FBF7F0"/>
  <rect x="36" y="36" width="408" height="408" rx="36" fill="url(#wash)" stroke="rgba(208,194,170,0.5)"/>
  <defs>
    <radialGradient id="wash" cx="0" cy="0" r="1" gradientUnits="userSpaceOnUse" gradientTransform="translate(164 102) rotate(52) scale(352 352)">
      <stop stop-color="rgba(255,255,255,0.9)"/>
      <stop offset="1" stop-color="rgba(242,233,221,0.96)"/>
    </radialGradient>
  </defs>
  
    <ellipse cx="240" cy="240" rx="136" ry="136" stroke="rgba(121,111,97,0.16)" stroke-width="1.4"/>
    <path d="M178 210C194 178 214 164 240 160C266 156 289 162 308 178C327 194 336 215 334 240C332 264 320 285 298 302C276 319 248 336 214 354" stroke="#201E22" stroke-width="2.55" stroke-linecap="round"/>
    <path d="M214 354C224 332 235 318 248 312C261 306 276 305 292 310" stroke="#5A7F88" stroke-width="1.95" stroke-linecap="round"/>
    <path d="M212 228C224 216 236 210 249 210C262 210 273 215 282 226" stroke="#A7775C" stroke-opacity="0.88" stroke-width="1.8" stroke-linecap="round"/>
    <path d="M198 276C212 284 226 288 240 288C254 288 268 284 282 276" stroke="#A7775C" stroke-opacity="0.72" stroke-width="1.7" stroke-linecap="round"/>
  
</svg>