<svg width="480" height="480" viewBox="0 0 480 480" fill="none" xmlns="http://www.w3.org/2000/svg">
  <rect width="480" height="480" rx="48" fill="#FBF7F0"/>
  <rect x="36" y="36" width="408" height="408" rx="36" fill="url(#wash)" stroke="rgba(208,194,170,0.5)"/>
  <defs>
    <radialGradient id="wash" cx="0" cy="0" r="1" gradientUnits="userSpaceOnUse" gradientTransform="translate(164 102) rotate(52) scale(352 352)">
      <stop stop-color="rgba(255,255,255,0.9)"/>
      <stop offset="1" stop-color="rgba(242,233,221,0.96)"/>
    </radialGradient>
  </defs>
  
    <ellipse cx="240" cy="240" rx="146" ry="112" stroke="#C19A56" stroke-opacity="0.2" stroke-width="1.1"/>
    <path d="M136 254C166 214 201 194 242 194C282 194 317 214 346 254C319 288 284 307 242 312C199 307 164 288 136 254Z" stroke="#201E22" stroke-width="2.5" stroke-linejoin="round"/>
    <path d="M170 254C190 231 214 220 242 220C270 220 294 231 314 254" stroke="#5A7F88" stroke-width="1.9" stroke-linecap="round"/>
    <path d="M188 286H296" stroke="#C19A56" stroke-opacity="0.8" stroke-width="1.7" stroke-linecap="round"/>
    <text x="176" y="374" fill="#201E22" font-family="Georgia, 'Times New Roman', serif" font-size="54" letter-spacing="-2">ChapAI</text>
    <text x="181" y="404" fill="#786C5C" font-family="'DM Sans', Arial, sans-serif" font-size="14" letter-spacing="4">PREMIUM NURSING PREP</text>
  
</svg>