<svg width="480" height="480" viewBox="0 0 480 480" fill="none" xmlns="http://www.w3.org/2000/svg">
    <rect width="480" height="480" rx="48" fill="#FBF7F0"/>
    <rect x="36" y="36" width="408" height="408" rx="36" fill="rgba(255,252,247,0.84)" stroke="rgba(205,189,165,0.46)"/>
    
    <circle cx="240" cy="164" r="76" fill="rgba(255,252,247,0.96)" stroke="rgba(205,189,165,0.54)"/>
    
    <ellipse cx="204" cy="172" rx="44" ry="64" stroke="rgba(32,31,33,0.88)" stroke-width="2.2"/>
    <ellipse cx="276" cy="172" rx="44" ry="64" stroke="rgba(32,31,33,0.88)" stroke-width="2.2"/>
    <path d="M240 112V246" stroke="#567C85" stroke-width="2.1" stroke-linecap="round"/>
    <path d="M240 136C226 148 214 162 206 178" stroke="#567C85" stroke-width="1.7" stroke-linecap="round"/>
    <path d="M240 136C254 148 266 162 274 178" stroke="#567C85" stroke-width="1.7" stroke-linecap="round"/>
    <path d="M206 178C194 188 184 202 176 220" stroke="rgba(32,31,33,0.54)" stroke-width="1.6" stroke-linecap="round"/>
    <path d="M274 178C286 188 296 202 304 220" stroke="rgba(32,31,33,0.54)" stroke-width="1.6" stroke-linecap="round"/>
  
    <text x="240" y="308" fill="#201F21" text-anchor="middle" font-family="'Source Serif 4', Georgia, serif" font-size="62" font-weight="600" letter-spacing="-2.6">ChapAI</text>
    <text x="240" y="350" fill="#7A7064" text-anchor="middle" font-family="'DM Sans', Arial, sans-serif" font-size="14" font-weight="700" letter-spacing="4">PULMONARY STUDY MARK</text>
  
  </svg>