<svg width="520" height="520" viewBox="0 0 520 520" fill="none" xmlns="http://www.w3.org/2000/svg">
    <defs>
      <radialGradient id="wash" cx="0" cy="0" r="1" gradientUnits="userSpaceOnUse" gradientTransform="translate(344 112) rotate(122) scale(430 430)">
        <stop offset="0" stop-color="#fffdf8" stop-opacity="0.98"/>
        <stop offset="0.64" stop-color="#f4ebdb" stop-opacity="0.88"/>
        <stop offset="1" stop-color="#eee4d4" stop-opacity="0.96"/>
      </radialGradient>
    </defs>
    <rect width="520" height="520" rx="54" fill="#FBF7F0"/>
    <rect x="34" y="34" width="452" height="452" rx="40" fill="url(#wash)" stroke="rgba(210,198,179,0.62)"/>
  
      <path d="M110 134C160 110 212 98 266 98C320 98 372 112 422 140" stroke="#4E606A" stroke-opacity="0.28" stroke-width="1.8"/>
      
    <g transform="translate(160 238) scale(0.26) translate(-120 -120)">
      <path d="M146 42V98" stroke="#4E606A" stroke-width="3" stroke-linecap="round"/>
      <path d="M146 42C160 28 176 18 194 12" stroke="#4E606A" stroke-width="2.4" stroke-linecap="round"/>
      <path d="M134 42C120 28 106 18 92 12" stroke="#4E606A" stroke-width="2.4" stroke-linecap="round"/>
      <path d="M150 72C176 54 204 46 232 48C260 50 282 64 298 90C314 116 320 144 314 174C308 204 292 228 266 246C240 264 214 286 188 312C166 288 142 268 116 250C90 232 72 210 62 184C52 158 52 132 62 106C72 80 90 62 116 52C142 42 170 48 200 70" stroke="#1F2328" stroke-width="4.4" stroke-linecap="round" stroke-linejoin="round"/>
      <path d="M98 174C120 166 142 160 166 158C190 156 214 160 238 170" stroke="#C39A63" stroke-width="2.2" stroke-linecap="round"/>
      <path d="M118 218C142 208 166 204 192 206C218 208 242 218 264 236" stroke="#4E606A" stroke-width="2.1" stroke-linecap="round"/>
    </g>
  
      
    <g transform="translate(352 238) scale(0.24) translate(-120 -120)">
      <path d="M112 34C142 20 174 18 208 26C242 34 272 50 296 74C320 98 334 126 338 158C342 190 336 220 320 248C304 276 280 298 248 314C216 330 180 336 142 332C104 328 72 312 46 284C20 256 8 224 10 188C12 152 24 122 46 98C68 74 92 54 120 40" stroke="#1F2328" stroke-width="4.5" stroke-linecap="round" stroke-linejoin="round"/>
      <path d="M116 88C136 74 160 68 188 70C214 72 236 82 254 100" stroke="#C39A63" stroke-width="2.8" stroke-linecap="round"/>
      <path d="M96 128C126 110 158 102 194 104C230 106 260 118 286 140" stroke="#4E606A" stroke-width="2.2" stroke-linecap="round"/>
      <path d="M88 174C122 154 160 144 202 144C244 144 280 156 308 180" stroke="#4E606A" stroke-width="2.2" stroke-linecap="round"/>
      <path d="M98 220C132 200 166 192 202 194C238 196 270 208 296 230" stroke="#4E606A" stroke-width="2.1" stroke-linecap="round"/>
      <path d="M126 262C154 248 182 242 210 244C238 246 262 256 282 274" stroke="#C39A63" stroke-width="2.4" stroke-linecap="round"/>
      <path d="M206 310C206 336 214 360 230 384C246 408 268 428 296 442" stroke="#4E606A" stroke-width="2.6" stroke-linecap="round"/>
    </g>
  
      <text x="118" y="404" fill="#1F2328" font-family="Source Serif 4, Georgia, serif" font-size="58" font-weight="600" letter-spacing="-2">ChapAI</text>
      <text x="120" y="438" fill="#6F665A" font-family="DM Sans, Arial, sans-serif" font-size="13" letter-spacing="4">TWO EXAMS. ONE CALMER STANDARD.</text></svg>