<svg width="256" height="256" viewBox="0 0 256 256" fill="none" xmlns="http://www.w3.org/2000/svg">
  <rect width="256" height="256" rx="48" fill="#F6F1E6"/>
  <circle cx="128" cy="128" r="76" stroke="#2B3A40" stroke-width="4.5"/>
  <path d="M128 70C144 70 159 75 171 85" stroke="#D5C5A5" stroke-width="3" stroke-linecap="round"/>
  <path d="M84 88C95 77 110 70 128 70" stroke="#D5C5A5" stroke-width="3" stroke-linecap="round"/>
  <path d="M112 92C125 84 143 84 156 92" stroke="#2B3A40" stroke-width="4" stroke-linecap="round"/>
  <path d="M104 108C118 102 138 102 152 108" stroke="#2B3A40" stroke-width="3.5" stroke-linecap="round" opacity="0.82"/>
  <path d="M117 125C117 114 122 108 128 108C134 108 139 114 139 125C139 136 133 145 128 152C123 145 117 136 117 125Z" stroke="#C78F58" stroke-width="4" stroke-linejoin="round"/>
  <path d="M128 152V182" stroke="#2B3A40" stroke-width="4" stroke-linecap="round"/>
  <path d="M108 168C114 162 120 160 128 160C136 160 142 162 148 168" stroke="#2B3A40" stroke-width="4" stroke-linecap="round"/>
</svg>
