<svg width="480" height="480" viewBox="0 0 480 480" fill="none" xmlns="http://www.w3.org/2000/svg">
    <rect width="480" height="480" rx="48" fill="#FBF7F0"/>
    <rect x="36" y="36" width="408" height="408" rx="36" fill="rgba(255,252,247,0.84)" stroke="rgba(205,189,165,0.46)"/>
    
    <circle cx="240" cy="166" r="76" fill="rgba(255,252,247,0.96)" stroke="rgba(205,189,165,0.54)"/>
    
    <path d="M240 124C204 124 180 150 180 184C180 206 188 222 204 232" stroke="rgba(32,31,33,0.86)" stroke-width="2.1" fill="none" stroke-linecap="round"/>
    <path d="M240 124C276 124 300 150 300 184C300 206 292 222 276 232" stroke="rgba(32,31,33,0.86)" stroke-width="2.1" fill="none" stroke-linecap="round"/>
    <path d="M214 148C222 140 232 136 242 136C252 136 260 140 268 148" stroke="#C59858" stroke-width="1.7" fill="none" stroke-linecap="round"/>
    <path d="M240 182V220" stroke="#C59858" stroke-width="1.8" fill="none" stroke-linecap="round"/>
    <path d="M240 220C226 232 216 246 210 262" stroke="#C59858" stroke-width="1.55" fill="none" stroke-linecap="round"/>
    <path d="M240 220C254 232 264 246 270 262" stroke="#C59858" stroke-width="1.55" fill="none" stroke-linecap="round"/>
    <circle cx="240" cy="182" r="6.5" fill="#FBF7F0" stroke="#C59858" stroke-width="1.05"/>
  
    <text x="240" y="308" fill="#1F1F21" text-anchor="middle" font-family="'Source Serif 4', Georgia, serif" font-size="60" font-weight="600" letter-spacing="-2.4">ChapAI</text>
    <text x="240" y="350" fill="#7A7064" text-anchor="middle" font-family="'DM Sans', Arial, sans-serif" font-size="14" font-weight="700" letter-spacing="4">NEURAL SIGIL</text>
  
  </svg>