<svg width="480" height="480" viewBox="0 0 480 480" fill="none" xmlns="http://www.w3.org/2000/svg">
    <rect width="480" height="480" rx="48" fill="#FBF7F0"/>
    <rect x="36" y="36" width="408" height="408" rx="36" fill="rgba(255,252,247,0.84)" stroke="rgba(205,189,165,0.46)"/>
    
    <circle cx="240" cy="166" r="76" fill="rgba(255,252,247,0.96)" stroke="rgba(205,189,165,0.54)"/>
    
    <path d="M240 120C220 94 190 82 154 86C118 90 92 112 82 148C72 184 82 224 112 268C142 312 184 352 240 390C294 352 336 312 366 270C396 228 408 188 398 150C388 114 362 92 326 88C290 84 262 96 240 120Z" transform="translate(0 -34) scale(0.84)" fill="rgba(233,220,199,0.48)"/>
    <path d="M240 124C220 100 194 90 162 94C132 98 110 120 100 152C92 186 100 222 124 258C148 294 186 330 240 366C290 332 328 296 354 258C380 220 390 188 384 160C376 132 356 110 326 102C296 94 268 102 240 124Z" transform="translate(0 -34) scale(0.84)" stroke="rgba(32,31,33,0.86)" stroke-width="2.1" fill="none" stroke-linejoin="round"/>
    <path d="M240 128V206" stroke="#C59858" stroke-width="1.8" fill="none" stroke-linecap="round"/>
    <path d="M240 152C224 144 210 144 196 152" stroke="#C59858" stroke-width="1.5" fill="none" stroke-linecap="round"/>
    <path d="M240 152C256 144 270 144 284 152" stroke="#C59858" stroke-width="1.5" fill="none" stroke-linecap="round"/>
  
    <text x="240" y="308" fill="#1F1F21" text-anchor="middle" font-family="'Source Serif 4', Georgia, serif" font-size="60" font-weight="600" letter-spacing="-2.4">ChapAI</text>
    <text x="240" y="350" fill="#7A7064" text-anchor="middle" font-family="'DM Sans', Arial, sans-serif" font-size="14" font-weight="700" letter-spacing="4">CORONARY ARC</text>
  
  </svg>