<svg width="480" height="480" viewBox="0 0 480 480" fill="none" xmlns="http://www.w3.org/2000/svg">
    <rect width="480" height="480" rx="48" fill="#FBF7F0"/>
    <rect x="36" y="36" width="408" height="408" rx="36" fill="rgba(255,252,247,0.82)" stroke="rgba(205,189,165,0.46)"/>
    
    <circle cx="240" cy="240" r="138" stroke="rgba(86,124,133,0.16)" stroke-width="1.4"/>
    <path d="M166 160C190 140 216 130 244 130C270 130 294 136 316 148" stroke="#201F21" stroke-width="2.4" stroke-linecap="round"/>
    <path d="M166 318C190 338 216 348 244 348C272 348 298 340 322 324" stroke="#201F21" stroke-width="2.4" stroke-linecap="round"/>
    <path d="M240 134V344" stroke="#7F8F79" stroke-width="2.2" stroke-linecap="round"/>
    <path d="M206 200C218 190 230 186 242 186C256 186 268 190 278 200" stroke="#7F8F79" stroke-width="1.8" stroke-linecap="round"/>
    <path d="M202 274C216 288 232 295 250 295C268 295 284 288 298 274" stroke="rgba(32,31,33,0.48)" stroke-width="1.8" stroke-linecap="round"/>
  
  </svg>