<?xml version="1.0" encoding="UTF-8"?>
<svg width="840" height="320" viewBox="0 0 840 320" fill="none" xmlns="http://www.w3.org/2000/svg">
  <rect width="840" height="320" rx="34" fill="#F7F2E8"/>
  <rect x="18" y="18" width="804" height="284" rx="28" fill="#FBF8F2" stroke="#DCCFBD"/>
  <circle cx="128" cy="160" r="108" fill="rgba(255,255,255,0.46)"/>
  <circle cx="128" cy="160" r="92" fill="none" stroke="rgba(195,176,150,0.44)" stroke-width="1.2"/>
  <g transform="translate(32 36)">
    <rect x="0" y="0" width="220" height="248" rx="30" fill="rgba(255,252,247,0.92)" stroke="rgba(210,196,174,0.82)"/>
    <g transform="translate(6 12)">
      
      <circle cx="128" cy="118" r="77" fill="none" stroke="rgba(28, 26, 23, 0.94)" stroke-width="4"/>
      <path d="M128 62C112 64 98 70 88 80C78 90 73 104 73 118C73 138 82 154 99 166C110 174 122 178 128 178C138 178 148 176 157 172C171 165 181 154 187 140C193 125 194 111 189 96C184 83 176 73 164 67C153 61 141 59 128 62Z" fill="none" stroke="#B9875A" stroke-width="3"/>
      <path d="M94 93C107 88 119 87 128 90C138 93 147 100 154 111" fill="none" stroke="#7A9AA1" stroke-width="2.2" stroke-linecap="round"/>
      <path d="M90 116C104 109 118 107 130 111C142 115 152 123 160 136" fill="none" stroke="#7A9AA1" stroke-width="2.2" stroke-linecap="round"/>
      <path d="M94 141C108 137 121 136 133 140C145 144 155 151 163 162" fill="none" stroke="#7A9AA1" stroke-width="2.2" stroke-linecap="round"/>
    
    </g>
  </g>
  <g transform="translate(300 76)">
    <text x="0" y="20" fill="rgba(111, 98, 83, 0.78)" font-family="'DM Sans', Arial, sans-serif" font-size="13" font-weight="700" letter-spacing="4">CHAPAI CLARITY</text>
    <text x="0" y="90" fill="rgba(28, 26, 23, 0.94)" font-family="'Source Serif 4', Georgia, serif" font-size="82" font-weight="600" letter-spacing="-4">ChapAI</text>
    <text x="2" y="132" fill="rgba(111, 98, 83, 0.78)" font-family="'DM Sans', Arial, sans-serif" font-size="16" font-weight="700" letter-spacing="4">NCLEX + CCRN</text>
    <path d="M0 154H224" stroke="rgba(202,188,168,0.7)" stroke-width="1.4"/>
    <text x="0" y="188" fill="#617B73" font-family="'DM Sans', Arial, sans-serif" font-size="12" font-weight="800" letter-spacing="3">CORTICAL HALO</text>
    <text x="0" y="218" fill="rgba(28, 26, 23, 0.94)" font-family="'DM Sans', Arial, sans-serif" font-size="21" font-weight="500">Circle brain wordmark</text>
    <text x="0" y="248" fill="rgba(111, 98, 83, 0.78)" font-family="'DM Sans', Arial, sans-serif" font-size="15" font-weight="500">Brain plate with halo</text>
  </g>
</svg>