<svg width="512" height="512" viewBox="0 0 512 512" fill="none" xmlns="http://www.w3.org/2000/svg">
  <rect width="512" height="512" rx="112" fill="#FBF7F0"/>
  <ellipse cx="256" cy="256" rx="152" ry="170" stroke="#D0B18A" stroke-width="8"/>
  <path d="M256 116V404" stroke="#D0B18A" stroke-width="6" stroke-linecap="round"/>
  <path d="M252 184C223 184 201 195 186 218C172 240 166 268 168 302C190 286 208 276 223 272C237 268 247 266 252 266" stroke="#212529" stroke-width="14" stroke-linecap="round" stroke-linejoin="round"/>
  <path d="M260 184C289 184 311 195 326 218C340 240 346 268 344 302C322 286 304 276 289 272C275 268 265 266 260 266" stroke="#212529" stroke-width="14" stroke-linecap="round" stroke-linejoin="round"/>
  <path d="M252 202V336" stroke="#5E8791" stroke-width="10" stroke-linecap="round"/>
  <path d="M211 233L170 258" stroke="#5E8791" stroke-width="8" stroke-linecap="round"/>
  <path d="M220 260L180 290" stroke="#5E8791" stroke-width="8" stroke-linecap="round"/>
  <path d="M300 233L340 258" stroke="#5E8791" stroke-width="8" stroke-linecap="round"/>
  <path d="M292 260L332 290" stroke="#5E8791" stroke-width="8" stroke-linecap="round"/>
  <path d="M238 346C245 340 251 337 256 337C261 337 267 340 274 346" stroke="#C29A56" stroke-width="9" stroke-linecap="round"/>
</svg>
