<?xml version="1.0" encoding="UTF-8"?>
<svg width="840" height="320" viewBox="0 0 840 320" fill="none" xmlns="http://www.w3.org/2000/svg">
  <rect width="840" height="320" rx="34" fill="#F7F2E8"/>
  <rect x="18" y="18" width="804" height="284" rx="28" fill="#FBF8F2" stroke="#DCCFBD"/>
  <circle cx="128" cy="160" r="108" fill="rgba(255,255,255,0.46)"/>
  <circle cx="128" cy="160" r="92" fill="none" stroke="rgba(195,176,150,0.44)" stroke-width="1.2"/>
  <g transform="translate(32 36)">
    <rect x="0" y="0" width="220" height="248" rx="30" fill="rgba(255,252,247,0.92)" stroke="rgba(210,196,174,0.82)"/>
    <g transform="translate(6 12)">
      
      <circle cx="128" cy="117" r="27" fill="none" stroke="rgba(28, 26, 23, 0.94)" stroke-width="4.2"/>
      <path d="M128 90V47" fill="none" stroke="#B9875A" stroke-width="3" stroke-linecap="round"/>
      <path d="M128 144C103 154 82 167 61 184" fill="none" stroke="rgba(28, 26, 23, 0.94)" stroke-width="3.4" stroke-linecap="round"/>
      <path d="M128 144C153 154 174 167 195 184" fill="none" stroke="rgba(28, 26, 23, 0.94)" stroke-width="3.4" stroke-linecap="round"/>
      <path d="M110 113C97 104 84 91 72 74" fill="none" stroke="#7A9AA1" stroke-width="2.2" stroke-linecap="round"/>
      <path d="M146 113C159 104 172 91 184 74" fill="none" stroke="#7A9AA1" stroke-width="2.2" stroke-linecap="round"/>
      <path d="M113 127C98 132 84 140 71 150" fill="none" stroke="#B9875A" stroke-width="2.4" stroke-linecap="round"/>
      <path d="M143 127C158 132 172 140 185 150" fill="none" stroke="#B9875A" stroke-width="2.4" stroke-linecap="round"/>
      <circle cx="72" cy="74" r="4.2" fill="#FFF9F1" stroke="#B9875A" stroke-width="1.5"/>
      <circle cx="184" cy="74" r="4.2" fill="#FFF9F1" stroke="#B9875A" stroke-width="1.5"/>
      <circle cx="71" cy="150" r="4.2" fill="#FFF9F1" stroke="#B9875A" stroke-width="1.5"/>
      <circle cx="185" cy="150" r="4.2" fill="#FFF9F1" stroke="#B9875A" stroke-width="1.5"/>
    
    </g>
  </g>
  <g transform="translate(300 76)">
    <text x="0" y="20" fill="rgba(111, 98, 83, 0.78)" font-family="'DM Sans', Arial, sans-serif" font-size="13" font-weight="700" letter-spacing="4">CHAPAI CLARITY</text>
    <text x="0" y="90" fill="rgba(28, 26, 23, 0.94)" font-family="'Source Serif 4', Georgia, serif" font-size="82" font-weight="600" letter-spacing="-4">ChapAI</text>
    <text x="2" y="132" fill="rgba(111, 98, 83, 0.78)" font-family="'DM Sans', Arial, sans-serif" font-size="16" font-weight="700" letter-spacing="4">NCLEX + CCRN</text>
    <path d="M0 154H224" stroke="rgba(202,188,168,0.7)" stroke-width="1.4"/>
    <text x="0" y="188" fill="#5F7382" font-family="'DM Sans', Arial, sans-serif" font-size="12" font-weight="800" letter-spacing="3">NEURAL</text>
    <text x="0" y="218" fill="rgba(28, 26, 23, 0.94)" font-family="'DM Sans', Arial, sans-serif" font-size="21" font-weight="500">Neural editorial wordmark</text>
    <text x="0" y="248" fill="rgba(111, 98, 83, 0.78)" font-family="'DM Sans', Arial, sans-serif" font-size="15" font-weight="500">Neuron canopy and branching</text>
  </g>
</svg>