<svg width="240" height="240" viewBox="0 0 240 240" fill="none" xmlns="http://www.w3.org/2000/svg">
  <rect width="240" height="240" rx="44" fill="#F8F4EB"/>
  <circle cx="120" cy="120" r="83" stroke="#D8D2C4" stroke-width="1.1"/>
  <path d="M78 126C78 100 96 82 122 82C140 82 156 92 165 107C180 108 192 121 192 137C192 148 187 158 178 165C179 170 180 174 180 178C180 195 167 208 150 211C144 221 132 227 119 227C102 227 87 215 84 198C72 193 64 181 64 168C64 156 71 145 82 139C83 133 86 129 92 126" stroke="#1F262B" stroke-width="1.35" stroke-linecap="round" stroke-linejoin="round"/>
  <path d="M92 112C101 119 109 126 113 136" stroke="#5A7F88" stroke-width="1.1" stroke-linecap="round"/>
  <path d="M132 103C142 111 150 120 154 131" stroke="#5A7F88" stroke-width="1.1" stroke-linecap="round"/>
  <path d="M89 151C101 154 110 160 116 170" stroke="#C29A56" stroke-width="1.05" stroke-linecap="round"/>
  <path d="M145 146C153 152 159 160 162 169" stroke="#C29A56" stroke-width="1.05" stroke-linecap="round"/>
</svg>
