<svg width="240" height="240" viewBox="0 0 240 240" fill="none" xmlns="http://www.w3.org/2000/svg">
  <rect width="240" height="240" rx="48" fill="#F7F3EA"/>
  <circle cx="120" cy="120" r="64" stroke="#D7D0C3" stroke-width="1.3"/>
  <path d="M86 152C97 164 108.6 170 122 170C149 170 170 150 170 120C170 89.6 148.4 70 120.8 70C109.6 70 99.8 73.8 90.6 81.8" stroke="#1F262B" stroke-width="4.1" stroke-linecap="round"/>
  <path d="M88 120H152" stroke="#5E8791" stroke-width="2.6" stroke-linecap="round"/>
  <path d="M100 120C106 120 108 110 112 110C116 110 117.5 136 123 136C128 136 130 97 136 97C142 97 142 120 150 120" stroke="#C4A060" stroke-width="2.6" stroke-linecap="round" stroke-linejoin="round"/>
</svg>
