<svg width="256" height="256" viewBox="0 0 256 256" fill="none" xmlns="http://www.w3.org/2000/svg">
  <rect width="256" height="256" rx="48" fill="#F7F2E8"/>
  <circle cx="128" cy="128" r="72" stroke="#2B3A40" stroke-width="5"/>
  <path d="M128 63V193" stroke="#2B3A40" stroke-width="4.5" stroke-linecap="round"/>
  <path d="M96 96C108 84 118 80 128 80C138 80 148 84 160 96" stroke="#2B3A40" stroke-width="4" stroke-linecap="round"/>
  <path d="M92 108C104 102 116 100 128 100C140 100 152 102 164 108" stroke="#2B3A40" stroke-width="3.5" stroke-linecap="round" opacity="0.8"/>
  <path d="M108 132C112 124 120 120 128 120C136 120 144 124 148 132" stroke="#C78F58" stroke-width="4" stroke-linecap="round"/>
  <path d="M112 150C118 158 122 166 128 176C134 166 138 158 144 150" stroke="#2B3A40" stroke-width="4" stroke-linecap="round"/>
</svg>
