<svg width="240" height="240" viewBox="0 0 240 240" fill="none" xmlns="http://www.w3.org/2000/svg">
  <rect width="240" height="240" rx="44" fill="#F8F4EB"/>
  <circle cx="120" cy="120" r="84" stroke="#DAD4C7" stroke-width="1.1"/>
  <path d="M119.5 64V170" stroke="#1F262B" stroke-width="1.5" stroke-linecap="round"/>
  <path d="M94 90C72 104 60 132 60 167C60 173 64 177 69 177C79 177 88 168 96 156C107 139 112 116 113 97C113 92 108 88 104 88C101 88 97 89 94 90Z" stroke="#5A7F88" stroke-width="1.6" stroke-linecap="round" stroke-linejoin="round"/>
  <path d="M146 90C168 104 180 132 180 167C180 173 176 177 171 177C161 177 152 168 144 156C133 139 128 116 127 97C127 92 132 88 136 88C139 88 143 89 146 90Z" stroke="#5A7F88" stroke-width="1.6" stroke-linecap="round" stroke-linejoin="round"/>
  <path d="M88 120C96 124 103 131 107 139" stroke="#C29A56" stroke-width="1.1" stroke-linecap="round"/>
  <path d="M152 120C144 124 137 131 133 139" stroke="#C29A56" stroke-width="1.1" stroke-linecap="round"/>
  <path d="M84 142C93 146 100 153 104 162" stroke="#C29A56" stroke-width="1.1" stroke-linecap="round"/>
  <path d="M156 142C147 146 140 153 136 162" stroke="#C29A56" stroke-width="1.1" stroke-linecap="round"/>
</svg>
