<svg width="480" height="480" viewBox="0 0 480 480" fill="none" xmlns="http://www.w3.org/2000/svg">
  <rect width="480" height="480" rx="48" fill="#FBF7F0"/>
  <rect x="36" y="36" width="408" height="408" rx="36" fill="url(#wash)" stroke="rgba(208,194,170,0.5)"/>
  <defs>
    <radialGradient id="wash" cx="0" cy="0" r="1" gradientUnits="userSpaceOnUse" gradientTransform="translate(164 102) rotate(52) scale(352 352)">
      <stop stop-color="rgba(255,255,255,0.9)"/>
      <stop offset="1" stop-color="rgba(242,233,221,0.96)"/>
    </radialGradient>
  </defs>
  
    <rect x="128" y="106" width="224" height="264" rx="112" stroke="rgba(120,111,97,0.16)" stroke-width="1.4"/>
    <path d="M240 120V356" stroke="#C19A56" stroke-width="2.1" stroke-linecap="round"/>
    <path d="M178 164C196 150 216 143 240 143C264 143 284 150 302 164" stroke="#201E22" stroke-width="2.5" stroke-linecap="round"/>
    <path d="M170 210C191 198 214 192 240 192C266 192 289 198 310 210" stroke="#75866F" stroke-opacity="0.86" stroke-width="2.2" stroke-linecap="round"/>
    <path d="M168 258C192 246 216 240 240 240C264 240 288 246 312 258" stroke="#C19A56" stroke-opacity="0.7" stroke-width="1.9" stroke-linecap="round"/>
    <path d="M172 308C194 297 217 292 240 292C263 292 286 297 308 308" stroke="#201E22" stroke-opacity="0.45" stroke-width="1.8" stroke-linecap="round"/>
    <ellipse cx="240" cy="238" rx="106" ry="138" stroke="#75866F" stroke-opacity="0.16" stroke-width="1.15"/>
  
</svg>