<svg width="1600" height="960" viewBox="0 0 1600 960" fill="none" xmlns="http://www.w3.org/2000/svg">
  <rect width="1600" height="960" fill="#FBF7F0"/>
  <rect x="26" y="26" width="1548" height="908" rx="28" fill="url(#page-wash)" stroke="rgba(195,178,154,0.36)"/>
  <defs>
    <radialGradient id="page-wash" cx="0" cy="0" r="1" gradientUnits="userSpaceOnUse" gradientTransform="translate(1088 307.2) rotate(90) scale(460.79999999999995 460.79999999999995)">
      <stop offset="0" stop-color="#fffdf8"/>
      <stop offset="0.68" stop-color="#F4EEE3"/>
      <stop offset="1" stop-color="#F4EEE3"/>
    </radialGradient>
    <radialGradient id="bleed" cx="0" cy="0" r="1" gradientUnits="userSpaceOnUse" gradientTransform="translate(1216 364.8) rotate(90) scale(326.40000000000003 326.40000000000003)">
      <stop offset="0" stop-color="rgba(255,253,248,0.96)"/>
      <stop offset="0.62" stop-color="rgba(239,226,206,0.56)"/>
      <stop offset="1" stop-color="rgba(239,226,206,0)"/>
    </radialGradient>
  </defs>
  
    
    <rect x="112" y="72" width="1376" height="82" rx="41" fill="rgba(255,252,247,0.86)" stroke="rgba(212,197,173,0.54)"/>
    <text x="188" y="122" fill="#201F21" font-family="'Source Serif 4', Georgia, serif" font-size="38" font-weight="600" letter-spacing="-2">ChapAI</text>
    <text x="1106" y="122" fill="#7D705F" font-family="'DM Sans', Arial, sans-serif" font-size="20" font-weight="600">CCRN</text>
    <text x="1186" y="122" fill="#7D705F" font-family="'DM Sans', Arial, sans-serif" font-size="20" font-weight="600">NCLEX</text>
    <text x="1276" y="122" fill="#7D705F" font-family="'DM Sans', Arial, sans-serif" font-size="20" font-weight="600">PLANS</text>
    <rect x="1348" y="92" width="114" height="44" rx="22" fill="rgba(255,250,243,0.96)" stroke="rgba(212,197,173,0.54)"/>
    <text x="1385" y="120" fill="#201F21" font-family="'DM Sans', Arial, sans-serif" font-size="20" font-weight="700">SPRINT</text>
  
    
    <text x="154" y="180" fill="#7D705F" font-family="'DM Sans', Arial, sans-serif" font-size="15" font-weight="700" letter-spacing="5">CATH-LAB FIELD / PREMIUM STUDY SURFACE</text>
    <text x="154" y="268" fill="#201F21" font-family="'DM Sans', Arial, sans-serif" font-size="94" font-weight="500" letter-spacing="-7">Premium nursing prep</text>
    <text x="154" y="360" fill="#201F21" font-family="'DM Sans', Arial, sans-serif" font-size="94" font-weight="500" letter-spacing="-7">with real bedside</text>
    <text x="154" y="452" fill="#201F21" font-family="'DM Sans', Arial, sans-serif" font-size="94" font-weight="500" letter-spacing="-7">signal.</text>
    <text x="154" y="548" fill="#7D705F" font-family="'DM Sans', Arial, sans-serif" font-size="30">Original questions, elite rationale, and a faster path into the right plan.</text>
    <rect x="154" y="612" width="220" height="64" rx="32" fill="#567C85"/>
    <text x="196" y="652" fill="#fff" font-family="'DM Sans', Arial, sans-serif" font-size="25" font-weight="700">Start the $10 sprint</text>
    <rect x="392" y="612" width="204" height="64" rx="32" fill="rgba(255,252,247,0.86)" stroke="rgba(194,178,154,0.7)"/>
    <text x="446" y="652" fill="#201F21" font-family="'DM Sans', Arial, sans-serif" font-size="24" font-weight="600">See full plans</text>
  
    <text x="154" y="744" fill="#7D705F" font-family="'DM Sans', Arial, sans-serif" font-size="14" font-weight="700" letter-spacing="4">VISUAL RATIONALE + CLEANER CLINICAL FLOW</text>
    <path d="M154 770H594" stroke="rgba(212,197,173,0.62)"/>
    <text x="154" y="846" fill="#7D705F" font-family="'DM Sans', Arial, sans-serif" font-size="14" font-weight="700" letter-spacing="4">CURRENT BUILD</text>
    <text x="154" y="888" fill="#201F21" font-family="'DM Sans', Arial, sans-serif" font-size="34" font-weight="700">Premium question + tutor path</text>
    <text x="486" y="846" fill="#7D705F" font-family="'DM Sans', Arial, sans-serif" font-size="14" font-weight="700" letter-spacing="4">ANGLE</text>
    <text x="486" y="888" fill="#201F21" font-family="'DM Sans', Arial, sans-serif" font-size="34" font-weight="700">Cath-lab field</text>
    
    <path d="M921.6 255.6C1011.6 196.2 1119.6 163.8 1245.6 160.2C1369.8 156.6 1461.6 187.2 1519.2 252C1576.8000000000002 316.8 1605.6 403.2 1605.6 513C1605.6 621 1582.2 707.4 1535.4 772.2" stroke="rgba(86,124,133,0.42)" stroke-width="1.9800000000000002" fill="none" stroke-linecap="round"/>
    <path d="M1040.4 313.20000000000005H1404" stroke="rgba(31,31,29,0.18)" stroke-width="1.35" stroke-dasharray="4.5 9"/>
    <path d="M1011.6 417.6H1458" stroke="rgba(31,31,29,0.16)" stroke-width="1.26" stroke-dasharray="4.5 9"/>
    <path d="M982.8 522H1488.6" stroke="rgba(31,31,29,0.16)" stroke-width="1.26" stroke-dasharray="4.5 9"/>
    <path d="M1065.6 347.4C1117.8 304.20000000000005 1177.2 282.6 1243.8 282.6C1323 282.6 1386 313.20000000000005 1432.8000000000002 376.20000000000005C1479.6 439.2 1494 513 1474.2 595.8C1454.4 678.6 1407.6 745.2 1332 793.8000000000001C1256.4 840.6 1184.4 855 1116 837" stroke="rgba(31,31,29,0.86)" stroke-width="2.25" fill="none" stroke-linecap="round" stroke-linejoin="round"/>
    <path d="M1157.4 383.40000000000003C1197 354.6 1240.2 340.20000000000005 1288.8 340.20000000000005C1344.6 340.20000000000005 1389.6 363.6 1423.8000000000002 410.40000000000003" stroke="#567C85" stroke-width="1.71" fill="none" stroke-linecap="round"/>
    <path d="M1285.2 255.6V772.2" stroke="#A87763" stroke-width="1.62" stroke-linecap="round"/>
    <path d="M1083.6 675H1132.2L1153.8 635.4000000000001L1182.6 747L1220.4 567L1249.2 675H1306.8" stroke="#A87763" stroke-width="1.9800000000000002" fill="none" stroke-linecap="round" stroke-linejoin="round"/>
    <circle cx="1432.8000000000002" cy="376.20000000000005" r="6.3" fill="#FBF7F0" stroke="#567C85" stroke-width="1.08"/>
  
  
</svg>