<svg width="1600" height="1024" viewBox="0 0 1600 1024" fill="none" xmlns="http://www.w3.org/2000/svg">
  <rect width="1600" height="1024" fill="#F4ECDE"/>
  <defs>
    <radialGradient id="wash-0" cx="0" cy="0" r="1" gradientUnits="userSpaceOnUse" gradientTransform="translate(1132 458) rotate(90) scale(402 402)">
      <stop stop-color="#fffaf2" stop-opacity="0.96"/>
      <stop offset="1" stop-color="#fffaf2" stop-opacity="0"/>
    </radialGradient>
  </defs>
  <style>
    .shell { fill: none; stroke-linecap: round; stroke-linejoin: round; }
    .shell.main { stroke: rgba(122,113,99,0.28); stroke-width: 1.64; }
    .shell.soft { stroke: rgba(122,113,99,0.15); stroke-width: 1.18; }
    .shell.faint { stroke: rgba(122,113,99,0.1); stroke-width: 1.04; }
    .figure { fill: none; stroke: rgba(47,42,37,0.34); stroke-width: 2.26; stroke-linecap: round; stroke-linejoin: round; }
    .detail { fill: none; stroke: rgba(104,93,79,0.18); stroke-width: 1.34; stroke-linecap: round; stroke-linejoin: round; }
    .organ { fill: none; stroke: rgba(194,154,86,0.42); stroke-width: 1.92; stroke-linecap: round; stroke-linejoin: round; }
    .accent { fill: none; stroke: rgba(93,133,144,0.9); stroke-width: 2.16; stroke-linecap: round; stroke-linejoin: round; }
  </style>
  <rect x="264" y="74" width="1072" height="72" rx="36" fill="rgba(255,252,247,0.74)" stroke="rgba(218,206,188,0.62)"/>
  <circle cx="304" cy="110" r="21" fill="rgba(255,252,247,0.98)" stroke="rgba(218,206,188,0.74)"/>
  <path d="M304 96V126" stroke="#C39A61" stroke-width="1.45" stroke-linecap="round"/>
  <path d="M293 108C297 102 301 99 304 99C307 99 311 102 315 108" stroke="#1F2024" stroke-width="1.75" stroke-linecap="round"/>
  <path d="M292 116C297 110 301 107 304 107C307 107 311 110 316 116" stroke="#5D8590" stroke-width="1.35" stroke-linecap="round"/>
  <text x="338" y="111" fill="#1F2024" font-family="'DM Sans', Arial, sans-serif" font-size="22" font-weight="600">ChapAI</text>
  <text x="338" y="136" fill="#74685A" font-family="'DM Sans', Arial, sans-serif" font-size="12" letter-spacing="3">NCLEX + CCRN</text>
  <text x="1126" y="117" fill="#74685A" font-family="'DM Sans', Arial, sans-serif" font-size="15" letter-spacing="2">CCRN</text>
  <text x="1179" y="117" fill="#74685A" font-family="'DM Sans', Arial, sans-serif" font-size="15" letter-spacing="2">NCLEX</text>
  <text x="1244" y="117" fill="#74685A" font-family="'DM Sans', Arial, sans-serif" font-size="15" letter-spacing="2">PLANS</text>
  <rect x="1298" y="88" width="72" height="44" rx="22" fill="rgba(255,252,247,0.96)" stroke="rgba(218,206,188,0.72)"/>
  <text x="1320" y="116" fill="#1F2024" font-family="'DM Sans', Arial, sans-serif" font-size="16" font-weight="700">START</text>
  <text x="300" y="214" fill="#74685A" font-family="'DM Sans', Arial, sans-serif" font-size="13" font-weight="700" letter-spacing="4">ANATOMY GLOBE / PREMIUM CLINICAL PREP</text>
  <text x="300" y="340" fill="#1F2024" font-family="'DM Sans', Arial, sans-serif" font-size="106" font-weight="500" letter-spacing="-7">A calmer, more premium way to prepare.</text>
  <text x="300" y="640" fill="#74685A" font-family="'DM Sans', Arial, sans-serif" font-size="22">Cleaner rationale, stronger linework, and a direct path into the right plan.</text>
  <rect x="300" y="694" width="188" height="54" rx="27" fill="#5D8590"/>
  <text x="338" y="728" fill="#FBF7F0" font-family="'DM Sans', Arial, sans-serif" font-size="22" font-weight="700">Choose plan</text>
  <rect x="502" y="694" width="168" height="54" rx="27" fill="rgba(255,252,247,0.94)" stroke="rgba(218,206,188,0.64)"/>
  <text x="544" y="728" fill="#1F2024" font-family="'DM Sans', Arial, sans-serif" font-size="22" font-weight="600">Try free</text>
  <path d="M300 792H852" stroke="rgba(214,203,188,0.72)"/>
  <text x="300" y="822" fill="#74685A" font-family="'DM Sans', Arial, sans-serif" font-size="13" letter-spacing="4">ONE DISTINCT HERO OBJECT / CLEANER QUESTION BANK / FASTER BUYING PATH</text>
  <text x="300" y="906" fill="#1F2024" font-family="'DM Sans', Arial, sans-serif" font-size="34" font-weight="700">463 live CCRN questions</text>
  <text x="622" y="906" fill="#1F2024" font-family="'DM Sans', Arial, sans-serif" font-size="34" font-weight="700">Free / Plus / Pro</text>
  <ellipse cx="1120" cy="500" rx="442" ry="442" fill="url(#wash-0)"/>
  
      <circle cx="1102" cy="500" r="430" class="shell main"/>
      <ellipse cx="1102" cy="500" rx="316" ry="430" class="shell soft"/>
      <ellipse cx="1154" cy="500" rx="224" ry="430" class="shell soft"/>
      <path d="M1102 70V930" class="shell faint"/>
      <path d="M694 312C834 264 972 240 1102 240C1232 240 1370 264 1498 312" class="shell main"/>
      <path d="M676 456C820 418 964 399 1102 399C1242 399 1386 418 1528 456" class="shell faint"/>
      <path d="M686 610C826 576 966 559 1102 559C1238 559 1378 576 1518 610" class="shell faint"/>
      <path d="M710 756C842 726 974 710 1102 710C1230 710 1360 726 1488 756" class="shell soft"/>
      <path d="M782 134C872 218 946 324 1004 452C1060 578 1108 708 1152 836" class="shell main"/>
      <path d="M1324 126C1242 214 1176 322 1126 448C1078 572 1038 704 1008 836" class="shell soft"/>
    
  
      <path d="M1120 178C1154 176 1182 188 1202 212C1222 236 1232 266 1230 302C1227 338 1214 368 1192 394C1170 422 1156 454 1148 490" class="figure"/>
      <path d="M1124 178V906" class="accent"/>
      <path d="M1102 238C1046 296 986 344 920 382C852 420 778 448 700 466" class="figure"/>
      <path d="M1126 296C1182 276 1230 270 1272 276C1314 282 1348 302 1372 336" class="organ"/>
      <path d="M1088 378C1148 354 1204 348 1258 356C1312 364 1352 388 1380 428" class="organ"/>
      <path d="M1116 454C1182 476 1230 512 1260 562" class="detail"/>
      <path d="M1096 498C1088 602 1068 706 1038 810C1020 872 1008 936 1004 1000" class="figure"/>
      <path d="M1146 500C1188 592 1240 674 1302 746C1360 812 1416 876 1470 938" class="figure"/>
      <path d="M1134 324C1152 310 1174 302 1198 302C1222 302 1244 310 1260 324C1276 338 1284 358 1284 382C1284 406 1276 426 1260 442C1244 458 1222 466 1198 466C1174 466 1152 458 1134 442C1118 426 1110 406 1110 382C1110 358 1118 338 1134 324Z" class="figure"/>
    
</svg>