<svg width="1600" height="1024" viewBox="0 0 1600 1024" fill="none" xmlns="http://www.w3.org/2000/svg">
  <rect width="1600" height="1024" fill="#F7F1E7"/>
  <style>
    .shell { stroke: rgba(127,117,102,0.16); stroke-width: 1.5; fill: none; }
    .orbit { stroke: rgba(127,117,102,0.08); stroke-width: 1.15; fill: none; }
    .orbit.soft, .latitude.soft { stroke-opacity: 0.58; }
    .axis, .latitude { stroke: rgba(127,117,102,0.05); stroke-width: 1; fill: none; }
    .focus { fill: rgba(255,249,241,0.74); }
    .figure, .detail, .organ, .accent { fill: none; stroke-linecap: round; stroke-linejoin: round; }
    .figure { stroke: rgba(49,42,35,0.3); stroke-width: 2.2; }
    .detail { stroke: rgba(105,93,78,0.12); stroke-width: 1.4; }
    .organ { stroke: rgba(193,154,86,0.22); stroke-width: 1.7; }
    .accent { stroke: rgba(193,154,86,0.84); stroke-width: 2; }
  </style>
  <rect x="264" y="78" width="1072" height="70" rx="35" fill="rgba(255,252,247,0.65)" stroke="rgba(218,206,188,0.62)"/>
  <circle cx="302" cy="113" r="21" fill="rgba(255,252,247,0.96)" stroke="rgba(218,206,188,0.72)"/>
  <path d="M302 97V129" stroke="#C19A56" stroke-width="1.5" stroke-linecap="round"/>
  <path d="M290 107C295 102 301 100 307 100C313 100 318 102 322 107C326 111 329 116 330 122" stroke="#201E22" stroke-width="1.8" stroke-linecap="round"/>
  <text x="336" y="112" fill="#201E22" font-family="'DM Sans', Arial, sans-serif" font-size="22" font-weight="600">ChapAI</text>
  <text x="336" y="136" fill="#786C5C" font-family="'DM Sans', Arial, sans-serif" font-size="12" letter-spacing="3">NCLEX + CCRN</text>
  <text x="1126" y="117" fill="#786C5C" font-family="'DM Sans', Arial, sans-serif" font-size="15" letter-spacing="2">CCRN</text>
  <text x="1178" y="117" fill="#786C5C" font-family="'DM Sans', Arial, sans-serif" font-size="15" letter-spacing="2">NCLEX</text>
  <text x="1242" y="117" fill="#786C5C" font-family="'DM Sans', Arial, sans-serif" font-size="15" letter-spacing="2">PLANS</text>
  <rect x="1294" y="90" width="74" height="44" rx="22" fill="rgba(255,252,247,0.95)" stroke="rgba(218,206,188,0.72)"/>
  <text x="1317" y="117" fill="#201E22" font-family="'DM Sans', Arial, sans-serif" font-size="16" font-weight="700">START</text>

  <text x="300" y="206" fill="#786C5C" font-family="'DM Sans', Arial, sans-serif" font-size="14" font-weight="700" letter-spacing="4">HERO CONCEPT 16</text>
  <text x="300" y="336" fill="#201E22" font-family="Georgia, 'Times New Roman', serif" font-size="96" letter-spacing="-4">The clinical edge for ICU nurses and test-takers.</text>
  <text x="300" y="644" fill="#786C5C" font-family="'DM Sans', Arial, sans-serif" font-size="22">Original questions, AI rationale, and a cleaner clinical path for nurses.</text>
  <rect x="300" y="694" width="184" height="54" rx="27" fill="#5A7F88"/>
  <text x="336" y="728" fill="#F7F1E6" font-family="'DM Sans', Arial, sans-serif" font-size="22" font-weight="700">Choose plan</text>
  <rect x="498" y="694" width="168" height="54" rx="27" fill="rgba(255,252,247,0.92)" stroke="rgba(218,206,188,0.62)"/>
  <text x="539" y="728" fill="#201E22" font-family="'DM Sans', Arial, sans-serif" font-size="22" font-weight="600">Try free</text>
  <path d="M300 792H836" stroke="rgba(214,203,188,0.72)"/>
  <text x="300" y="822" fill="#786C5C" font-family="'DM Sans', Arial, sans-serif" font-size="13" letter-spacing="4">AI REVIEW + ORIGINAL QUESTIONS</text>
  <text x="564" y="822" fill="rgba(102,113,118,0.78)" font-family="'DM Sans', Arial, sans-serif" font-size="13">Cleaner rationale, better visuals, direct package paths.</text>
  <text x="300" y="904" fill="#786C5C" font-family="'DM Sans', Arial, sans-serif" font-size="14" letter-spacing="3">CURRENT BUILD</text>
  <text x="300" y="938" fill="#201E22" font-family="'DM Sans', Arial, sans-serif" font-size="34" font-weight="700">435 live CCRN questions</text>
  <text x="594" y="904" fill="#786C5C" font-family="'DM Sans', Arial, sans-serif" font-size="14" letter-spacing="3">REVIEW STYLE</text>
  <text x="594" y="938" fill="#201E22" font-family="'DM Sans', Arial, sans-serif" font-size="34" font-weight="700">Trend-first bedside reasoning</text>
  
      <circle cx="1076" cy="498" r="388" class="shell"/>
      <ellipse cx="1076" cy="498" rx="272" ry="388" class="orbit"/>
      <ellipse cx="1116" cy="498" rx="194" ry="388" class="orbit soft"/>
      <path d="M1076 110V886" class="axis"/>
      <path d="M824 390C915 352 999 334 1076 334C1154 334 1232 352 1320 390" class="latitude"/>
      <path d="M806 548C906 515 996 499 1076 499C1158 499 1247 515 1343 548" class="latitude soft"/>
      <path d="M822 704C911 678 998 664 1082 664C1163 664 1244 677 1326 704" class="latitude soft"/>
    
  <ellipse cx="1068" cy="500" rx="214" ry="432" class="focus"/>
  
    <path d="M1068 200C1092 196 1114 202 1132 219C1149 235 1157 256 1156 283C1155 309 1146 331 1129 350C1112 370 1100 392 1094 417" class="figure"/>
    <path d="M1092 417C1108 466 1116 519 1115 576C1114 632 1116 686 1122 738" class="figure"/>
    <path d="M1075 418C1064 472 1046 523 1022 571C997 620 974 675 954 736" class="figure"/>
    <path d="M1086 202V742" class="accent"/>
    <path d="M1070 246C1046 280 1018 311 984 339C950 366 914 390 876 411" class="figure"/>
    <path d="M1093 235C1123 228 1151 216 1179 199C1207 182 1234 163 1260 142" class="figure"/>
    <path d="M1082 282C1106 283 1128 292 1146 308C1164 325 1176 347 1182 374" class="detail"/>
    <path d="M1075 336C1101 343 1124 357 1143 377C1162 397 1174 419 1180 443" class="detail"/>
    <path d="M1104 402C1122 399 1138 405 1152 417C1165 430 1174 445 1179 465" class="organ"/>
  
</svg>