<svg width="1600" height="520" viewBox="0 0 1600 520" fill="none" xmlns="http://www.w3.org/2000/svg"><defs><radialGradient id="paper-wash" cx="0" cy="0" r="1" gradientUnits="userSpaceOnUse" gradientTransform="translate(1184 197.6) rotate(90) scale(249.6 249.6)"><stop offset="0" stop-color="#fffdf8"/><stop offset="0.5" stop-color="#F1E8D9"/><stop offset="1" stop-color="#FBF7F0"/></radialGradient><radialGradient id="core-wash" cx="0" cy="0" r="1" gradientUnits="userSpaceOnUse" gradientTransform="translate(1248 218.4) rotate(90) scale(135.20000000000002 135.20000000000002)"><stop offset="0" stop-color="#FFFDF8" stop-opacity="0.96"/><stop offset="0.56" stop-color="#E7D8C1" stop-opacity="0.52"/><stop offset="1" stop-color="#E7D8C1" stop-opacity="0"/></radialGradient></defs><rect width="1600" height="520" fill="#FBF7F0"/><rect x="24" y="24" width="1552" height="472" rx="28" fill="url(#paper-wash)" stroke="rgba(210,193,170,0.4)"/><rect x="42" y="42" width="1516" height="434" rx="34" fill="rgba(255,252,247,0.9)" stroke="rgba(212,197,173,0.52)"/><text x="112" y="164" fill="#1F1F21" font-family="'Source Serif 4', Georgia, serif" font-size="70" font-weight="600" letter-spacing="-3">ChapAI</text><text x="112" y="226" fill="#756B60" font-family="'DM Sans', Arial, sans-serif" font-size="18" font-weight="700" letter-spacing="5">NCLEX + CCRN / CLEANER CLINICAL PREP</text><text x="112" y="298" fill="#1F1F21" font-family="'DM Sans', Arial, sans-serif" font-size="48" font-weight="500" letter-spacing="-3">Original questions. Sharper clinical review.</text><text x="112" y="354" fill="#756B60" font-family="'DM Sans', Arial, sans-serif" font-size="25">AI tutor, visual rationale, and a faster route into the right plan.</text><path d="M706 184C862 132 1012 110 1156 118C1318 126 1462 172 1588 256C1674 312 1744 380 1798 460" stroke="rgba(101,120,126,0.18)" stroke-width="1.24" fill="none" stroke-linecap="round"/><path d="M690 336C842 286 994 266 1146 276C1308 286 1456 332 1592 414C1676 466 1744 530 1796 608" stroke="rgba(101,120,126,0.1)" stroke-width="1.06" fill="none" stroke-linecap="round"/><path d="M714 514C862 476 1008 462 1152 472C1300 482 1438 520 1566 586C1652 630 1720 688 1772 760" stroke="rgba(101,120,126,0.18)" stroke-width="1.18" fill="none" stroke-linecap="round"/><path d="M1018 86C1036 222 1054 362 1072 506C1090 650 1122 800 1168 954" stroke="rgba(101,120,126,0.08)" stroke-width="1.02" fill="none" stroke-linecap="round"/><path d="M1184 72C1190 212 1202 354 1220 500C1238 648 1270 800 1316 956" stroke="rgba(101,120,126,0.16)" stroke-width="1.12" fill="none" stroke-linecap="round"/><path d="M990 80C1106 42 1230 36 1362 62C1478 86 1568 140 1632 224C1696 308 1724 408 1716 524C1708 638 1666 732 1590 806C1514 880 1412 930 1284 956C1156 982 1044 976 948 938C852 900 780 838 732 752C684 666 664 566 672 452C680 338 714 248 774 180C834 112 906 78 990 80Z" fill="url(#core-wash)" opacity="0.82"/><path d="M1186 94C1082 100 1000 142 940 220C880 298 856 392 868 502C880 610 922 696 994 760C1066 824 1162 864 1282 880C1402 856 1498 808 1570 736C1642 664 1680 578 1684 478C1688 380 1660 296 1600 226C1540 156 1458 110 1354 90C1298 80 1242 82 1186 94Z" stroke="rgba(31,31,29,0.88)" stroke-width="2.9" fill="none" stroke-linecap="round" stroke-linejoin="round"/><path d="M1274 104C1260 172 1254 240 1256 308C1258 378 1268 452 1284 530C1300 610 1308 684 1308 752C1308 818 1298 882 1278 942" stroke="#C89B5B" stroke-width="2.06" fill="none" stroke-linecap="round"/><path d="M1110 158C1036 158 980 188 942 248C906 306 894 376 906 458C918 536 950 604 1002 662" stroke="rgba(73,96,102,0.58)" stroke-width="1.68" fill="none" stroke-linecap="round"/><path d="M1154 312C1102 324 1068 354 1052 402C1038 448 1044 498 1070 552C1096 604 1130 644 1172 672" stroke="rgba(73,96,102,0.58)" stroke-width="1.68" fill="none" stroke-linecap="round"/><path d="M1446 158C1520 158 1576 188 1614 248C1650 306 1662 376 1650 458C1638 536 1606 604 1554 662" stroke="rgba(73,96,102,0.58)" stroke-width="1.68" fill="none" stroke-linecap="round"/><path d="M1278 520C1352 492 1418 444 1476 376C1534 306 1576 230 1602 148" stroke="#5E818A" stroke-width="1.82" fill="none" stroke-linecap="round"/><path d="M1278 520C1204 492 1138 444 1080 376C1022 306 980 230 954 148" stroke="#5E818A" stroke-width="1.82" fill="none" stroke-linecap="round"/></svg>