<svg width="1600" height="520" viewBox="0 0 1600 520" fill="none" xmlns="http://www.w3.org/2000/svg">
  <rect width="1600" height="520" fill="#FBF7F0"/>
  <defs>
    <radialGradient id="page-wash" cx="0" cy="0" r="1" gradientUnits="userSpaceOnUse" gradientTransform="translate(1216 187.2) rotate(90) scale(218.4 218.4)">
      <stop offset="0" stop-color="#fffdf8"/>
      <stop offset="0.62" stop-color="#F3EBDD"/>
      <stop offset="1" stop-color="#F3EBDD"/>
    </radialGradient>
    <radialGradient id="medical-bleed" cx="0" cy="0" r="1" gradientUnits="userSpaceOnUse" gradientTransform="translate(1184 176.8) rotate(90) scale(145.60000000000002 145.60000000000002)">
      <stop offset="0" stop-color="rgba(255,253,248,0.96)"/>
      <stop offset="0.58" stop-color="rgba(233,220,199,0.52)"/>
      <stop offset="1" stop-color="rgba(233,220,199,0)"/>
    </radialGradient>
  </defs>
  <rect x="26" y="26" width="1548" height="468" rx="28" fill="url(#page-wash)" stroke="rgba(199,184,160,0.36)"/>
  
    <rect x="42" y="42" width="1516" height="434" rx="34" fill="rgba(255,252,247,0.88)" stroke="rgba(212,197,173,0.52)"/>
    <text x="116" y="174" fill="#201F21" font-family="'Source Serif 4', Georgia, serif" font-size="72" font-weight="600" letter-spacing="-3">ChapAI</text>
    <text x="116" y="234" fill="#7A7064" font-family="'DM Sans', Arial, sans-serif" font-size="18" font-weight="700" letter-spacing="5">NCLEX + CCRN / CLEANER CLINICAL PREP</text>
    <text x="116" y="312" fill="#201F21" font-family="'DM Sans', Arial, sans-serif" font-size="50" font-weight="500" letter-spacing="-3">Original questions. Elite rationale.</text>
    <text x="116" y="368" fill="#7A7064" font-family="'DM Sans', Arial, sans-serif" font-size="26">AI tutor, visual guidance, and a faster path into the right plan.</text>
    
    <path d="M958.08 113.68C1009.92 83.44 1080.12 67.24 1168.68 69.4C1246.44 71.56 1305.8400000000001 95.32 1345.8 140.68C1383.6 183.88 1401.96 237.88000000000002 1398.72 302.68C1395.48 366.40000000000003 1373.88 419.32000000000005 1333.92 460.36C1293.96 500.32000000000005 1246.44 524.08 1191.3600000000001 531.6400000000001C1137.3600000000001 539.2 1087.68 532.72 1041.24 510.04C994.8 487.36 959.16 452.8 934.32 405.28000000000003C909.48 357.76 900.84 303.76 908.4 243.28C914.88 182.8 931.08 139.60000000000002 958.08 113.68Z" fill="url(#medical-bleed)" opacity="0.9"/>
    <path d="M971.04 127.72C1021.8 101.80000000000001 1086.6 88.84 1166.52 91C1239.96 93.16 1296.12 115.84 1333.92 157.96C1369.56 197.92000000000002 1386.8400000000001 247.60000000000002 1383.6 307C1380.3600000000001 366.40000000000003 1359.8400000000001 416.08000000000004 1322.04 453.88000000000005C1284.24 491.68 1238.88 514.36 1185.96 523" stroke="rgba(31,31,29,0.84)" stroke-width="1.4040000000000001" fill="none" stroke-linecap="round" stroke-linejoin="round"/>
    <path d="M991.56 163.36C1019.64 142.84 1050.96 132.04000000000002 1084.44 130.96C1123.32 129.88 1156.8 141.76 1184.88 166.60000000000002" stroke="rgba(31,31,29,0.78)" stroke-width="1.1880000000000002" fill="none" stroke-linecap="round"/>
    <path d="M1032.6 217.36C1056.3600000000001 196.84 1084.44 187.12 1116.84 188.2C1152.48 189.28 1182.72 203.32000000000002 1207.56 230.32000000000002" stroke="rgba(31,31,29,0.76)" stroke-width="1.1340000000000001" fill="none" stroke-linecap="round"/>
    <path d="M1095.24 270.28C1068.24 300.52 1050.96 332.92 1043.4 367.48" stroke="#567C85" stroke-width="0.9990000000000001" fill="none" stroke-linecap="round"/>
    <path d="M1124.4 280C1131.96 311.32000000000005 1148.16 342.64000000000004 1174.08 373.96000000000004" stroke="#C49758" stroke-width="0.9990000000000001" fill="none" stroke-linecap="round"/>
    <path d="M1192.44 295.12C1215.12 273.52 1242.12 260.56 1272.3600000000001 255.16000000000003C1308 248.68 1338.24 253 1364.16 268.12" stroke="#567C85" stroke-width="1.053" fill="none" stroke-linecap="round"/>
    <path d="M1121.16 296.20000000000005C1123.32 366.40000000000003 1134.12 427.96000000000004 1154.64 480.88000000000005" stroke="#C49758" stroke-width="1.08" fill="none" stroke-linecap="round"/>
    <path d="M1127.64 344.8C1107.12 369.64000000000004 1090.92 398.8 1080.12 432.28000000000003" stroke="#567C85" stroke-width="0.918" fill="none" stroke-linecap="round"/>
    <path d="M1144.92 352.36C1169.76 372.88 1192.44 399.88 1211.88 434.44" stroke="#567C85" stroke-width="0.918" fill="none" stroke-linecap="round"/>
    <circle cx="1127.64" cy="344.8" r="3.7800000000000002" fill="#FBF7F0" stroke="#C49758" stroke-width="0.648"/>
  
  
</svg>