<svg width="1600" height="520" viewBox="0 0 1600 520" fill="none" xmlns="http://www.w3.org/2000/svg">
  <defs>
    <radialGradient id="paper-wash" cx="0" cy="0" r="1" gradientUnits="userSpaceOnUse" gradientTransform="translate(1180 404) rotate(90) scale(420 420)">
      <stop offset="0" stop-color="#FFFDF8" />
      <stop offset="0.46" stop-color="#F2EBDD" />
      <stop offset="1" stop-color="#FBF7F0" />
    </radialGradient>
    <radialGradient id="bleed-wash" cx="0" cy="0" r="1" gradientUnits="userSpaceOnUse" gradientTransform="translate(1260 430) rotate(90) scale(340 340)">
      <stop offset="0" stop-color="#fffaf2" stop-opacity="0.98" />
      <stop offset="0.5" stop-color="#E9DBC7" stop-opacity="0.56" />
      <stop offset="1" stop-color="#E9DBC7" stop-opacity="0" />
    </radialGradient>
  </defs>
  <rect width="1600" height="520" fill="#FBF7F0" />
  
    <rect x="42" y="42" width="1516" height="434" rx="34" fill="rgba(255,252,247,0.9)" stroke="rgba(212,197,173,0.52)"/>
    <text x="112" y="164" fill="#1F1F21" font-family="'Source Serif 4', Georgia, serif" font-size="70" font-weight="600" letter-spacing="-3">ChapAI</text>
    <text x="112" y="224" fill="#766D61" font-family="'DM Sans', Arial, sans-serif" font-size="18" font-weight="700" letter-spacing="5">NCLEX + CCRN / CLEANER CLINICAL PREP</text>
    <text x="112" y="294" fill="#1F1F21" font-family="'DM Sans', Arial, sans-serif" font-size="48" font-weight="500" letter-spacing="-3">Original questions. Better bedside reasoning.</text>
    <text x="112" y="350" fill="#766D61" font-family="'DM Sans', Arial, sans-serif" font-size="25">AI tutor, visual rationale, and a calmer package path.</text>
    
    <path d="M786 174C920 130 1066 112 1224 122C1372 132 1514 174 1650 248C1734 294 1810 356 1878 434" stroke="rgba(96,110,114,0.16)" stroke-width="1.24" fill="none" stroke-linecap="round"/>
    <path d="M742 338C882 306 1018 298 1152 312C1290 326 1420 362 1542 420C1658 476 1764 560 1860 672" stroke="rgba(96,110,114,0.1)" stroke-width="1.06" fill="none" stroke-linecap="round"/>
    <path d="M770 574C910 544 1046 540 1178 554C1312 568 1440 604 1562 662C1676 716 1782 802 1880 922" stroke="rgba(96,110,114,0.14)" stroke-width="1.16" fill="none" stroke-linecap="round"/>
    <path d="M1028 92C1062 250 1088 410 1106 572C1120 734 1126 892 1122 1048" stroke="rgba(96,110,114,0.08)" stroke-width="1.02" fill="none" stroke-linecap="round"/>
    <path d="M1224 82C1224 238 1228 398 1236 560C1246 722 1264 886 1290 1048" stroke="rgba(96,110,114,0.14)" stroke-width="1.04" fill="none" stroke-linecap="round"/>
    <path d="M1466 132C1424 292 1384 446 1346 594C1308 744 1282 896 1268 1048" stroke="rgba(96,110,114,0.08)" stroke-width="1.02" fill="none" stroke-linecap="round"/>
  
    
    <path d="M1000 172C1096 136 1208 120 1336 126C1468 132 1580 164 1674 222C1768 280 1832 360 1866 462C1900 562 1894 668 1848 780C1800 892 1720 980 1608 1044C1496 1108 1368 1140 1224 1138C1088 1136 972 1106 876 1048C780 990 710 912 668 814C628 716 620 612 646 504C672 396 724 306 802 236C858 186 924 164 1000 172Z" fill="url(#bleed-wash)" opacity="0.9"/>
    <path d="M1058 168C1124 152 1200 144 1288 146C1400 148 1494 170 1570 212C1650 254 1704 312 1734 386C1764 458 1768 546 1748 650C1726 754 1678 842 1602 916C1526 990 1434 1042 1326 1072C1218 1102 1114 1106 1014 1084C918 1062 842 1014 786 940C730 866 702 780 702 682C702 578 720 482 758 394C796 306 852 240 926 196C968 174 1012 164 1058 168Z" stroke="rgba(24,22,20,0.9)" stroke-width="2.9" fill="none" stroke-linecap="round" stroke-linejoin="round"/>
    <path d="M1262 166C1248 262 1254 370 1262 490C1270 614 1270 732 1260 844C1252 936 1250 1012 1262 1072" stroke="#C59B5E" stroke-width="2.08" fill="none" stroke-linecap="round"/>
    <path d="M1106 202C1048 212 998 236 956 276C918 314 898 360 896 414C894 468 908 518 938 564" stroke="rgba(46,42,38,0.58)" stroke-width="1.58" fill="none" stroke-linecap="round"/>
    <path d="M1144 236C1082 246 1030 272 988 314C950 354 932 400 934 452C938 504 956 554 988 602" stroke="rgba(46,42,38,0.56)" stroke-width="1.56" fill="none" stroke-linecap="round"/>
    <path d="M1184 274C1124 284 1076 308 1040 348C1008 386 996 430 1002 480C1010 530 1032 576 1068 620" stroke="rgba(46,42,38,0.54)" stroke-width="1.54" fill="none" stroke-linecap="round"/>
    <path d="M1212 326C1158 336 1118 358 1092 394C1068 428 1062 468 1072 512C1082 556 1104 592 1138 622" stroke="rgba(46,42,38,0.52)" stroke-width="1.52" fill="none" stroke-linecap="round"/>
    <path d="M1222 394C1178 402 1148 418 1132 442C1118 466 1118 494 1132 526C1148 558 1170 584 1200 604" stroke="rgba(46,42,38,0.5)" stroke-width="1.48" fill="none" stroke-linecap="round"/>
    <path d="M1358 202C1416 212 1466 236 1508 276C1546 314 1566 360 1568 414C1570 468 1556 518 1526 564" stroke="rgba(46,42,38,0.58)" stroke-width="1.58" fill="none" stroke-linecap="round"/>
    <path d="M1320 236C1382 246 1434 272 1476 314C1514 354 1532 400 1530 452C1526 504 1508 554 1476 602" stroke="rgba(46,42,38,0.56)" stroke-width="1.56" fill="none" stroke-linecap="round"/>
    <path d="M1280 274C1340 284 1388 308 1424 348C1456 386 1468 430 1462 480C1454 530 1432 576 1396 620" stroke="rgba(46,42,38,0.54)" stroke-width="1.54" fill="none" stroke-linecap="round"/>
    <path d="M1252 326C1306 336 1346 358 1372 394C1396 428 1402 468 1392 512C1382 556 1360 592 1326 622" stroke="rgba(46,42,38,0.52)" stroke-width="1.52" fill="none" stroke-linecap="round"/>
    <path d="M1242 394C1286 402 1316 418 1332 442C1346 466 1346 494 1332 526C1316 558 1294 584 1264 604" stroke="rgba(46,42,38,0.5)" stroke-width="1.48" fill="none" stroke-linecap="round"/>
    <path d="M1030 1040C964 1064 902 1100 844 1148" stroke="rgba(31,31,29,0.3)" stroke-width="1.12" fill="none" stroke-linecap="round"/>
    <path d="M1496 1030C1564 1054 1634 1092 1706 1144" stroke="rgba(31,31,29,0.3)" stroke-width="1.12" fill="none" stroke-linecap="round"/>
  
  
</svg>