<svg width="1600" height="520" viewBox="0 0 1600 520" fill="none" xmlns="http://www.w3.org/2000/svg">
  <rect width="1600" height="520" fill="#FBF7F0"/>
  <defs>
    <radialGradient id="page-wash" cx="0" cy="0" r="1" gradientUnits="userSpaceOnUse" gradientTransform="translate(1216 187.2) rotate(90) scale(218.4 218.4)">
      <stop offset="0" stop-color="#fffdf8"/>
      <stop offset="0.62" stop-color="#F3EBDD"/>
      <stop offset="1" stop-color="#F3EBDD"/>
    </radialGradient>
    <radialGradient id="medical-bleed" cx="0" cy="0" r="1" gradientUnits="userSpaceOnUse" gradientTransform="translate(1184 176.8) rotate(90) scale(145.60000000000002 145.60000000000002)">
      <stop offset="0" stop-color="rgba(255,253,248,0.96)"/>
      <stop offset="0.58" stop-color="rgba(233,220,199,0.52)"/>
      <stop offset="1" stop-color="rgba(233,220,199,0)"/>
    </radialGradient>
  </defs>
  <rect x="26" y="26" width="1548" height="468" rx="28" fill="url(#page-wash)" stroke="rgba(199,184,160,0.36)"/>
  
    <rect x="42" y="42" width="1516" height="434" rx="34" fill="rgba(255,252,247,0.88)" stroke="rgba(212,197,173,0.52)"/>
    <text x="116" y="174" fill="#201F21" font-family="'Source Serif 4', Georgia, serif" font-size="72" font-weight="600" letter-spacing="-3">ChapAI</text>
    <text x="116" y="234" fill="#7A7064" font-family="'DM Sans', Arial, sans-serif" font-size="18" font-weight="700" letter-spacing="5">NCLEX + CCRN / CLEANER CLINICAL PREP</text>
    <text x="116" y="312" fill="#201F21" font-family="'DM Sans', Arial, sans-serif" font-size="50" font-weight="500" letter-spacing="-3">Original questions. Elite rationale.</text>
    <text x="116" y="368" fill="#7A7064" font-family="'DM Sans', Arial, sans-serif" font-size="26">AI tutor, visual guidance, and a faster path into the right plan.</text>
    
    <path d="M1066.08 116.92C1043.4 82.36 1009.92 65.08 971.04 68.32C933.24 71.56 905.16 95.32 888.96 132.04000000000002C873.84 166.60000000000002 873.84 204.4 886.8 245.44C900.84 287.56 928.92 326.44 973.2 363.16C1017.48 399.88 1057.44 431.20000000000005 1092 456.04C1123.32 436.6 1163.28 407.44 1210.8 367.48C1259.4 327.52000000000004 1290.72 287.56 1304.76 247.60000000000002C1319.88 206.56 1318.8 169.84 1302.6 137.44C1284.24 103.96000000000001 1251.8400000000001 81.28 1205.4 73.72C1160.04 66.16 1113.6 80.2 1066.08 116.92Z" fill="url(#medical-bleed)" opacity="0.88"/>
    <path d="M1066.08 128.8C1043.4 101.80000000000001 1015.32 89.92 982.92 93.16C951.6 96.4 927.84 115.84 914.88 145C903 175.24 903 208.72 914.88 245.44C926.76 282.16 952.68 317.8 993.72 350.20000000000005C1034.76 382.6 1067.16 408.52000000000004 1090.92 429.04C1116.84 412.84000000000003 1149.24 385.84000000000003 1188.12 348.04C1227 310.24 1250.76 274.6 1261.56 242.20000000000002C1272.3600000000001 208.72 1271.28 177.4 1257.24 148.24C1242.12 119.08000000000001 1215.12 98.56 1177.32 93.16C1139.52 87.76 1103.88 99.64 1066.08 128.8Z" stroke="rgba(31,31,29,0.86)" stroke-width="1.35" fill="none" stroke-linejoin="round"/>
    <path d="M1092 141.76V373.96000000000004" stroke="#567C85" stroke-width="1.1340000000000001" stroke-linecap="round"/>
    <path d="M1092 161.2C1068.24 148.24 1048.8 148.24 1031.52 157.96" stroke="#C49758" stroke-width="0.9720000000000001" stroke-linecap="round"/>
    <path d="M1092 161.2C1116.84 148.24 1138.44 147.16000000000003 1158.96 155.8" stroke="#C49758" stroke-width="0.9720000000000001" stroke-linecap="round"/>
    <path d="M1092 203.32000000000002C1057.44 211.96 1028.28 229.24 1003.44 256.24" stroke="#567C85" stroke-width="0.9720000000000001" stroke-linecap="round"/>
    <path d="M1092 203.32000000000002C1125.48 214.12 1154.64 231.4 1180.56 259.48" stroke="#567C85" stroke-width="0.9720000000000001" stroke-linecap="round"/>
    <path d="M1092 263.8C1066.08 289.72 1047.72 319.96000000000004 1038 355.6" stroke="#C49758" stroke-width="0.9720000000000001" stroke-linecap="round"/>
    <path d="M1092 263.8C1119 290.8 1141.68 319.96000000000004 1160.04 355.6" stroke="#C49758" stroke-width="0.9720000000000001" stroke-linecap="round"/>
    <circle cx="1092" cy="203.32000000000002" r="4.32" fill="#FBF7F0" stroke="#567C85" stroke-width="0.648"/>
  
  
</svg>