<svg width="1500" height="560" viewBox="0 0 1500 560" fill="none" xmlns="http://www.w3.org/2000/svg">
  <rect width="1500" height="560" fill="#FBF7F0"/>
  <rect x="22" y="22" width="1456" height="516" rx="32" fill="url(#headerWash)" stroke="rgba(208,196,177,0.58)"/>
  <defs>
    <radialGradient id="headerWash" cx="0" cy="0" r="1" gradientUnits="userSpaceOnUse" gradientTransform="translate(1040 120) rotate(120) scale(860 860)">
      <stop offset="0" stop-color="#fffdf8" stop-opacity="0.98"/>
      <stop offset="0.62" stop-color="#f4ebdb" stop-opacity="0.84"/>
      <stop offset="1" stop-color="#efe4d3" stop-opacity="0.92"/>
    </radialGradient>
  </defs>
  <text x="96" y="116" fill="#1E222B" font-family="Source Serif 4, Georgia, serif" font-size="34" font-weight="600">ChapAI</text>
  <text x="96" y="144" fill="#746A5D" font-family="DM Sans, Arial, sans-serif" font-size="14" letter-spacing="4">NCLEX + CCRN</text>
  <rect x="96" y="182" width="146" height="34" rx="17" fill="rgba(255,252,247,0.74)" stroke="rgba(213,202,184,0.62)"/>
  <text x="120" y="205" fill="#746A5D" font-family="DM Sans, Arial, sans-serif" font-size="13" font-weight="700" letter-spacing="2">NCLEX PATH</text>
  <text x="96" y="292" fill="#1E222B" font-family="Source Serif 4, Georgia, serif" font-size="74" font-weight="600" letter-spacing="-3">NCLEX safety review with better pattern teaching.</text>
  <text x="96" y="344" fill="#746A5D" font-family="Source Serif 4, Georgia, serif" font-size="24">Priority, delegation, pharmacology, and one cleaner next step.</text>
  <rect x="96" y="390" width="220" height="50" rx="24" fill="#537985"/>
  <text x="142" y="422" fill="white" font-family="DM Sans, Arial, sans-serif" font-size="22" font-weight="700">Try the $10 sprint</text>
  
    <circle cx="1160" cy="284" r="206" stroke="#1E222B" stroke-opacity="0.22" stroke-width="1.8"/>
    <ellipse cx="1160" cy="284" rx="161" ry="206" stroke="#537985" stroke-opacity="0.26" stroke-width="1.5"/>
    <ellipse cx="1160" cy="284" rx="119" ry="206" stroke="#537985" stroke-opacity="0.18" stroke-width="1.3"/>
    <ellipse cx="1160" cy="284" rx="185" ry="206" stroke="#537985" stroke-opacity="0.13" stroke-width="1.2"/>
    <path d="M1160 78V490" stroke="#537985" stroke-opacity="0.22" stroke-width="1.3"/>
    <path d="M1002 143.92C1030 123.32 1290 123.32 1318 143.92" stroke="#537985" stroke-opacity="0.18" stroke-width="1.18"/>
    <path d="M976 226.32C1018 201.6 1302 201.6 1344 226.32" stroke="#537985" stroke-opacity="0.22" stroke-width="1.18"/>
    <path d="M972 308.72C1004 290.18 1316 290.18 1348 308.72" stroke="#537985" stroke-opacity="0.2" stroke-width="1.18"/>
    <path d="M998 382.88C1024 370.52 1296 370.52 1322 382.88" stroke="#537985" stroke-opacity="0.16" stroke-width="1.16"/>
    <ellipse cx="1160" cy="284" rx="178" ry="206" stroke="#C49B59" stroke-opacity="0.08" stroke-width="1.1" stroke-dasharray="1 12"/>
  
    <g transform="translate(1158 284) scale(0.5) translate(-240 -260)">
      <path d="M240 78V420" stroke="#537985" stroke-opacity="0.96" stroke-width="2.4" stroke-linecap="round"/>
      <path d="M182 110C152 124 126 149 104 187C82 225 70 269 68 319C66 369 74 412 94 448C114 484 142 511 178 528" stroke="#1E222B" stroke-opacity="0.72" stroke-width="3" stroke-linecap="round" stroke-linejoin="round"/>
      <path d="M298 110C328 124 354 149 376 187C398 225 410 269 412 319C414 369 406 412 386 448C366 484 338 511 302 528" stroke="#1E222B" stroke-opacity="0.72" stroke-width="3" stroke-linecap="round" stroke-linejoin="round"/>
      <path d="M198 164C170 176 146 198 127 228C108 258 98 293 96 332C94 371 100 407 116 440C132 473 155 498 186 516" stroke="#B57D63" stroke-opacity="0.78" stroke-width="2.4" stroke-linecap="round"/>
      <path d="M282 164C310 176 334 198 353 228C372 258 382 293 384 332C386 371 380 407 364 440C348 473 325 498 294 516" stroke="#B57D63" stroke-opacity="0.78" stroke-width="2.4" stroke-linecap="round"/>
      <path d="M240 156C258 142 278 135 300 136C322 138 339 148 352 167C365 186 371 208 369 232C367 256 358 278 341 300C324 321 297 355 260 402C223 355 196 321 179 300C162 278 153 256 151 232C149 208 155 186 168 167C181 148 198 138 220 136C242 135 262 142 280 156" stroke="#B57D63" stroke-opacity="0.92" stroke-width="2.6" stroke-linecap="round" stroke-linejoin="round"/>
      <path d="M182 214C198 202 217 194 240 192C263 190 282 196 298 210" stroke="#537985" stroke-opacity="0.38" stroke-width="1.8" stroke-linecap="round"/>
      <path d="M160 262C186 248 212 242 240 242C268 242 294 248 320 262" stroke="#537985" stroke-opacity="0.42" stroke-width="1.8" stroke-linecap="round"/>
      <path d="M146 314C178 300 210 294 240 294C270 294 302 300 334 314" stroke="#537985" stroke-opacity="0.44" stroke-width="1.8" stroke-linecap="round"/>
      <path d="M148 366C178 355 209 350 240 350C271 350 302 355 332 366" stroke="#537985" stroke-opacity="0.38" stroke-width="1.7" stroke-linecap="round"/>
      <path d="M236 104C216 98 197 90 178 80C159 70 140 56 122 40" stroke="#537985" stroke-opacity="0.3" stroke-width="1.4" stroke-linecap="round"/>
      <path d="M248 104C272 96 295 84 316 68C337 52 357 34 376 14" stroke="#537985" stroke-opacity="0.3" stroke-width="1.4" stroke-linecap="round"/>
      <path d="M310 158H476" stroke="#537985" stroke-opacity="0.24" stroke-width="1.5" stroke-linecap="round"/>
      <path d="M336 300H500" stroke="#537985" stroke-opacity="0.22" stroke-width="1.5" stroke-linecap="round"/>
      <path d="M316 470H482" stroke="#537985" stroke-opacity="0.2" stroke-width="1.5" stroke-linecap="round"/>
      <circle cx="478" cy="158" r="7" fill="#FBF7F0" stroke="#B57D63" stroke-opacity="0.64" stroke-width="1.1"/>
      <circle cx="502" cy="300" r="7" fill="#FBF7F0" stroke="#B57D63" stroke-opacity="0.64" stroke-width="1.1"/>
      <circle cx="484" cy="470" r="7" fill="#FBF7F0" stroke="#537985" stroke-opacity="0.54" stroke-width="1.1"/>
    </g>
  
</svg>