<svg width="1600" height="980" viewBox="0 0 1600 980" fill="none" xmlns="http://www.w3.org/2000/svg">
  <rect width="1600" height="980" fill="#FBF7F0"/>
  <rect x="28" y="28" width="1544" height="924" rx="36" fill="url(#heroWash)" stroke="rgba(208,196,177,0.56)"/>
  <defs>
    <radialGradient id="heroWash" cx="0" cy="0" r="1" gradientUnits="userSpaceOnUse" gradientTransform="translate(1040 182) rotate(118) scale(980 980)">
      <stop offset="0" stop-color="#fffdf8" stop-opacity="0.98"/>
      <stop offset="0.55" stop-color="#f4ebdb" stop-opacity="0.82"/>
      <stop offset="1" stop-color="#efe4d3" stop-opacity="0.92"/>
    </radialGradient>
  </defs>
  <rect x="94" y="74" width="1410" height="72" rx="32" fill="rgba(255,252,247,0.78)" stroke="rgba(213,202,184,0.58)"/>
  <text x="142" y="118" fill="#1F2328" font-family="Source Serif 4, Georgia, serif" font-size="34" font-weight="600">ChapAI</text>
  <text x="142" y="146" fill="#6F665A" font-family="DM Sans, Arial, sans-serif" font-size="15" letter-spacing="4">NCLEX + CCRN</text>
  <text x="1132" y="118" fill="#6F665A" font-family="DM Sans, Arial, sans-serif" font-size="16" letter-spacing="2">CCRN</text>
  <text x="1202" y="118" fill="#6F665A" font-family="DM Sans, Arial, sans-serif" font-size="16" letter-spacing="2">NCLEX</text>
  <text x="1278" y="118" fill="#6F665A" font-family="DM Sans, Arial, sans-serif" font-size="16" letter-spacing="2">PLANS</text>
  <rect x="1394" y="92" width="110" height="42" rx="20" fill="rgba(255,252,247,0.88)" stroke="rgba(213,202,184,0.68)"/>
  <text x="1426" y="118" fill="#1F2328" font-family="DM Sans, Arial, sans-serif" font-size="18" font-weight="600">START</text>
  <text x="128" y="224" fill="#6F665A" font-family="DM Sans, Arial, sans-serif" font-size="14" letter-spacing="5">ADULT CRITICAL CARE PREP</text>
  <rect x="468" y="198" width="140" height="34" rx="17" fill="rgba(255,252,247,0.74)" stroke="rgba(213,202,184,0.62)"/>
  <text x="490" y="220" fill="#1F2328" font-family="DM Sans, Arial, sans-serif" font-size="14" font-weight="700" letter-spacing="2">PREMIUM REVIEW</text>
  <text x="128" y="356" fill="#1F2328" font-family="Source Serif 4, Georgia, serif" font-size="116" font-weight="600" letter-spacing="-6">The right side should feel expensive, not empty.</text>
  <text x="128" y="424" fill="#6F665A" font-family="Source Serif 4, Georgia, serif" font-size="22">Make the brain or heart do the visual selling instead of generic decoration.</text>
  <rect x="128" y="506" width="214" height="52" rx="26" fill="#567A84"/>
  <text x="156" y="540" fill="white" font-family="DM Sans, Arial, sans-serif" font-size="22" font-weight="700">Start the $10 sprint</text>
  <rect x="356" y="506" width="164" height="52" rx="26" fill="rgba(255,252,247,0.86)" stroke="rgba(213,202,184,0.62)"/>
  <text x="398" y="540" fill="#1F2328" font-family="DM Sans, Arial, sans-serif" font-size="22" font-weight="600">See plans</text>
  <text x="128" y="610" fill="#6F665A" font-family="DM Sans, Arial, sans-serif" font-size="13" letter-spacing="4">ORIGINAL QUESTIONS + AI TUTOR</text>
  <path d="M128 644H510" stroke="rgba(213,202,184,0.68)"/>
  <text x="128" y="700" fill="#6F665A" font-family="DM Sans, Arial, sans-serif" font-size="12" letter-spacing="3">CURRENT BUILD</text>
  <text x="128" y="730" fill="#1F2328" font-family="DM Sans, Arial, sans-serif" font-size="18" font-weight="700">492 live CCRN questions</text>
  <text x="398" y="700" fill="#6F665A" font-family="DM Sans, Arial, sans-serif" font-size="12" letter-spacing="3">EDGE</text>
  <text x="398" y="730" fill="#1F2328" font-family="DM Sans, Arial, sans-serif" font-size="18" font-weight="700">Cleaner than generic qbanks</text>
  
    <circle cx="1168" cy="514" r="396" stroke="#1F2328" stroke-opacity="0.2" stroke-width="1.8"/>
    <ellipse cx="1168" cy="514" rx="309" ry="396" stroke="#C39A63" stroke-opacity="0.24" stroke-width="1.36"/>
    <ellipse cx="1168" cy="514" rx="230" ry="396" stroke="#C39A63" stroke-opacity="0.16" stroke-width="1.18"/>
    <path d="M1168 118V910" stroke="#C39A63" stroke-opacity="0.18" stroke-width="1.16"/>
    <path d="M796 379.36C1072 331.84000000000003 1264 331.84000000000003 1540 379.36" stroke="#C39A63" stroke-opacity="0.17" stroke-width="1.1"/>
    <path d="M790 545.68C1062 512 1274 512 1546 545.68" stroke="#C39A63" stroke-opacity="0.18" stroke-width="1.1"/>
    <path d="M810 680.3199999999999C1072 656.56 1264 656.56 1526 680.3199999999999" stroke="#C39A63" stroke-opacity="0.15" stroke-width="1.06"/>
  
    <g transform="translate(1162 514) scale(1.02) translate(-120 -120)">
      <path d="M146 42V98" stroke="#C39A63" stroke-width="3" stroke-linecap="round"/>
      <path d="M146 42C160 28 176 18 194 12" stroke="#C39A63" stroke-width="2.4" stroke-linecap="round"/>
      <path d="M134 42C120 28 106 18 92 12" stroke="#C39A63" stroke-width="2.4" stroke-linecap="round"/>
      <path d="M150 72C176 54 204 46 232 48C260 50 282 64 298 90C314 116 320 144 314 174C308 204 292 228 266 246C240 264 214 286 188 312C166 288 142 268 116 250C90 232 72 210 62 184C52 158 52 132 62 106C72 80 90 62 116 52C142 42 170 48 200 70" stroke="#1F2328" stroke-width="4.4" stroke-linecap="round" stroke-linejoin="round"/>
      <path d="M98 174C120 166 142 160 166 158C190 156 214 160 238 170" stroke="#567A84" stroke-width="2.2" stroke-linecap="round"/>
      <path d="M118 218C142 208 166 204 192 206C218 208 242 218 264 236" stroke="#C39A63" stroke-width="2.1" stroke-linecap="round"/>
    </g>
  
      <path d="M1338 314H1548" stroke="rgba(86,122,132,0.2)" stroke-width="1.9"/>
      <path d="M1360 474H1560" stroke="rgba(86,122,132,0.18)" stroke-width="1.9"/>
      <path d="M1338 664H1540" stroke="rgba(86,122,132,0.16)" stroke-width="1.9"/>
</svg>