<svg width="1600" height="960" viewBox="0 0 1600 960" fill="none" xmlns="http://www.w3.org/2000/svg">
  <rect width="1600" height="960" fill="#FBF7F0"/>
  <defs>
    <radialGradient id="paper-wash" cx="0" cy="0" r="1" gradientUnits="userSpaceOnUse" gradientTransform="translate(1216 326.40000000000003) rotate(90) scale(422.4 422.4)">
      <stop offset="0" stop-color="#fffdf7"/>
      <stop offset="0.5" stop-color="#F3EBDD"/>
      <stop offset="1" stop-color="#FBF7F0"/>
    </radialGradient>
    <radialGradient id="bleed-wash" cx="0" cy="0" r="1" gradientUnits="userSpaceOnUse" gradientTransform="translate(1200 364.8) rotate(90) scale(249.60000000000002 249.60000000000002)">
      <stop offset="0" stop-color="#fffaf1" stop-opacity="0.95"/>
      <stop offset="0.5" stop-color="#E9DCCA" stop-opacity="0.58"/>
      <stop offset="1" stop-color="#E9DCCA" stop-opacity="0"/>
    </radialGradient>
  </defs>
  <rect x="26" y="26" width="1548" height="908" rx="28" fill="url(#paper-wash)" stroke="rgba(203,188,164,0.38)"/>
  
    
    <rect x="110" y="70" width="1380" height="82" rx="41" fill="rgba(255,252,247,0.84)" stroke="rgba(212,197,173,0.52)"/>
    <text x="182" y="120" fill="#1F1F21" font-family="'Source Serif 4', Georgia, serif" font-size="38" font-weight="600" letter-spacing="-2">ChapAI</text>
    <text x="1106" y="120" fill="#7A7064" font-family="'DM Sans', Arial, sans-serif" font-size="20" font-weight="600">CCRN</text>
    <text x="1190" y="120" fill="#7A7064" font-family="'DM Sans', Arial, sans-serif" font-size="20" font-weight="600">NCLEX</text>
    <text x="1284" y="120" fill="#7A7064" font-family="'DM Sans', Arial, sans-serif" font-size="20" font-weight="600">PLANS</text>
    <rect x="1348" y="90" width="114" height="44" rx="22" fill="rgba(255,250,243,0.96)" stroke="rgba(212,197,173,0.54)"/>
    <text x="1383" y="118" fill="#1F1F21" font-family="'DM Sans', Arial, sans-serif" font-size="20" font-weight="700">SPRINT</text>
  
    
    <text x="154" y="192" fill="#7A7064" font-family="'DM Sans', Arial, sans-serif" font-size="15" font-weight="700" letter-spacing="5">NEUROVASCULAR FIELD / PREMIUM MEDICAL SURFACE</text>
    <text x="154" y="282" fill="#1F1F21" font-family="'DM Sans', Arial, sans-serif" font-size="94" font-weight="500" letter-spacing="-7">Pattern-rich</text>
    <text x="154" y="372" fill="#1F1F21" font-family="'DM Sans', Arial, sans-serif" font-size="94" font-weight="500" letter-spacing="-7">medical prep,</text>
    <text x="154" y="462" fill="#1F1F21" font-family="'DM Sans', Arial, sans-serif" font-size="94" font-weight="500" letter-spacing="-7">made crisp.</text>
    <text x="154" y="546" fill="#7A7064" font-family="'DM Sans', Arial, sans-serif" font-size="30">Original questions, elite rationale, and a direct path into the right plan.</text>
    <rect x="154" y="610" width="232" height="64" rx="32" fill="#587E87"/>
    <text x="194" y="650" fill="#fff" font-family="'DM Sans', Arial, sans-serif" font-size="25" font-weight="700">Start the $10 sprint</text>
    <rect x="404" y="610" width="196" height="64" rx="32" fill="rgba(255,252,247,0.88)" stroke="rgba(194,178,154,0.62)"/>
    <text x="454" y="650" fill="#1F1F21" font-family="'DM Sans', Arial, sans-serif" font-size="24" font-weight="600">See plans</text>
    <text x="154" y="738" fill="#7A7064" font-family="'DM Sans', Arial, sans-serif" font-size="14" font-weight="700" letter-spacing="4">AI TUTOR + VISUAL RATIONALE + CLEAN CLINICAL FLOW</text>
    <path d="M154 766H654" stroke="rgba(212,197,173,0.62)"/>
  
    
    <path d="M760 212C902 134 1044 100 1188 108C1324 116 1456 154 1584 224C1668 270 1732 322 1778 380" stroke="rgba(88,126,135,0.2)" stroke-width="1.4" fill="none" stroke-linecap="round"/>
    <path d="M724 420C874 334 1030 296 1194 304C1360 312 1514 354 1656 436C1742 486 1810 544 1858 608" stroke="rgba(88,126,135,0.12)" stroke-width="1.1" fill="none" stroke-linecap="round"/>
    <path d="M814 684C946 632 1074 610 1200 618C1328 626 1450 664 1566 732C1642 776 1702 826 1746 884" stroke="rgba(88,126,135,0.18)" stroke-width="1.34" fill="none" stroke-linecap="round"/>
    <path d="M1046 84C1052 234 1064 390 1076 548C1088 706 1110 844 1142 952" stroke="rgba(88,126,135,0.1)" stroke-width="1.1" fill="none" stroke-linecap="round"/>
    <path d="M1214 66C1218 226 1228 384 1242 542C1256 700 1282 838 1318 946" stroke="rgba(88,126,135,0.18)" stroke-width="1.22" fill="none" stroke-linecap="round"/>
    <path d="M1388 88C1358 214 1328 348 1298 490C1270 632 1246 780 1228 948" stroke="rgba(88,126,135,0.1)" stroke-width="1.04" fill="none" stroke-linecap="round"/>
  
    
    <path d="M1043.68 230.56C1124.64 171.68 1240.56 140.4 1391.44 144.08C1533.12 147.76 1639.8400000000001 190.07999999999998 1709.76 263.68C1776 331.76 1807.2800000000002 409.04 1803.6 495.52000000000004C1799.92 580.1600000000001 1770.48 657.44 1715.2800000000002 727.36" fill="url(#bleed-wash)" opacity="0.82"/>
    <path d="M1109.92 291.28C1178 241.60000000000002 1268.16 217.68 1382.24 219.52C1496.3200000000002 221.36 1584.6399999999999 252.64000000000001 1647.2 313.36C1706.08 370.4 1735.52 434.8 1735.52 506.56" stroke="rgba(31,31,29,0.84)" stroke-width="2.2816" fill="none" stroke-linecap="round"/>
    <path d="M1378.56 221.36V804.64" stroke="#C59858" stroke-width="1.7848" stroke-linecap="round"/>
    <path d="M1378.56 285.76C1314.16 322.56 1266.32 364.88 1236.88 414.56" stroke="#587E87" stroke-width="1.6928" fill="none" stroke-linecap="round"/>
    <path d="M1378.56 285.76C1442.96 322.56 1492.6399999999999 364.88 1523.92 416.40000000000003" stroke="#587E87" stroke-width="1.6928" fill="none" stroke-linecap="round"/>
    <path d="M1378.56 390.64C1310.48 445.84000000000003 1264.48 506.56 1240.56 574.6400000000001" stroke="#C59858" stroke-width="1.6376000000000002" fill="none" stroke-linecap="round"/>
    <path d="M1378.56 390.64C1446.64 444 1496.3200000000002 502.88 1523.92 570.96" stroke="#C59858" stroke-width="1.6376000000000002" fill="none" stroke-linecap="round"/>
    <path d="M1378.56 517.6C1347.28 569.12 1327.04 626.1600000000001 1319.68 688.72" stroke="#587E87" stroke-width="1.5824" fill="none" stroke-linecap="round"/>
    <path d="M1378.56 517.6C1409.8400000000001 569.12 1431.92 626.1600000000001 1442.96 688.72" stroke="#587E87" stroke-width="1.5824" fill="none" stroke-linecap="round"/>
    <circle cx="1378.56" cy="390.64" r="6.6240000000000006" fill="#FBF7F0" stroke="#C59858" stroke-width="1.0120000000000002"/>
  
    <text x="154" y="842" fill="#7A7064" font-family="'DM Sans', Arial, sans-serif" font-size="14" font-weight="700" letter-spacing="4">CURRENT ANGLE</text>
    <text x="154" y="888" fill="#1F1F21" font-family="'Source Serif 4', Georgia, serif" font-size="38" font-weight="600">Neurovascular field</text>
  
</svg>