<svg width="240" height="240" viewBox="0 0 240 240" fill="none" xmlns="http://www.w3.org/2000/svg">
  <rect width="240" height="240" rx="44" fill="#F8F4EB"/>
  <circle cx="120" cy="120" r="84" stroke="#D8D2C4" stroke-width="1.1"/>
  <path d="M57 121H92L103 94L117 144L129 112H148L156 121H183" stroke="#5A7F88" stroke-width="1.8" stroke-linecap="round" stroke-linejoin="round"/>
  <path d="M119 88C105 66 76 72 72 101C68 123 86 140 119 167C152 140 170 123 166 101C162 72 133 66 119 88Z" stroke="#1F262B" stroke-width="1.45" stroke-linecap="round" stroke-linejoin="round"/>
  <path d="M98 74C104 68 111 64 119 62" stroke="#C29A56" stroke-width="1.05" stroke-linecap="round"/>
  <path d="M140 74C134 68 127 64 119 62" stroke="#C29A56" stroke-width="1.05" stroke-linecap="round"/>
</svg>
