<?xml version="1.0" encoding="UTF-8"?>
<svg width="840" height="320" viewBox="0 0 840 320" fill="none" xmlns="http://www.w3.org/2000/svg">
  <rect width="840" height="320" rx="34" fill="#F7F2E8"/>
  <rect x="18" y="18" width="804" height="284" rx="28" fill="#FBF8F2" stroke="#DCCFBD"/>
  <circle cx="128" cy="160" r="108" fill="rgba(255,255,255,0.46)"/>
  <circle cx="128" cy="160" r="92" fill="none" stroke="rgba(195,176,150,0.44)" stroke-width="1.2"/>
  <g transform="translate(32 36)">
    <rect x="0" y="0" width="220" height="248" rx="30" fill="rgba(255,252,247,0.92)" stroke="rgba(210,196,174,0.82)"/>
    <g transform="translate(6 12)">
      
      <path d="M86 61C86 61 94 44 115 44C130 44 140 52 147 63C154 52 164 44 179 44C200 44 208 61 208 61C216 72 218 85 214 98C210 112 201 121 189 128C177 136 166 147 160 160C156 169 154 181 154 193C154 196 151 198 148 198C145 198 142 196 142 193C142 181 140 169 136 160C130 147 119 136 107 128C95 121 86 112 82 98C78 85 80 72 86 61Z" fill="none" stroke="rgba(28, 26, 23, 0.94)" stroke-width="4.3" stroke-linejoin="round"/>
      <path d="M146 64C155 71 163 79 168 88C173 97 177 107 178 118C179 130 177 142 171 155" fill="none" stroke="#B9875A" stroke-width="2.6" stroke-linecap="round"/>
      <path d="M134 80C129 92 126 103 126 115C126 127 129 138 135 149" fill="none" stroke="#7A9AA1" stroke-width="2" stroke-linecap="round"/>
      <path d="M104 101H124L135 90L145 116L158 84L169 101H198" fill="none" stroke="#B9875A" stroke-width="3" stroke-linecap="round" stroke-linejoin="round"/>
      <circle cx="117" cy="92" r="4.2" fill="#FFF9F1" stroke="#B9875A" stroke-width="1.5"/>
      <circle cx="169" cy="92" r="4.2" fill="#FFF9F1" stroke="#B9875A" stroke-width="1.5"/>
    
    </g>
  </g>
  <g transform="translate(300 76)">
    <text x="0" y="20" fill="rgba(111, 98, 83, 0.78)" font-family="'DM Sans', Arial, sans-serif" font-size="13" font-weight="700" letter-spacing="4">CHAPAI CLARITY</text>
    <text x="0" y="90" fill="rgba(28, 26, 23, 0.94)" font-family="'Source Serif 4', Georgia, serif" font-size="82" font-weight="600" letter-spacing="-4">ChapAI</text>
    <text x="2" y="132" fill="rgba(111, 98, 83, 0.78)" font-family="'DM Sans', Arial, sans-serif" font-size="16" font-weight="700" letter-spacing="4">NCLEX + CCRN</text>
    <path d="M0 154H224" stroke="rgba(202,188,168,0.7)" stroke-width="1.4"/>
    <text x="0" y="188" fill="#B77B5A" font-family="'DM Sans', Arial, sans-serif" font-size="12" font-weight="800" letter-spacing="3">CORONARY</text>
    <text x="0" y="218" fill="rgba(28, 26, 23, 0.94)" font-family="'DM Sans', Arial, sans-serif" font-size="21" font-weight="500">Coronary editorial wordmark</text>
    <text x="0" y="248" fill="rgba(111, 98, 83, 0.78)" font-family="'DM Sans', Arial, sans-serif" font-size="15" font-weight="500">Heart and vessel study line</text>
  </g>
</svg>