<svg width="240" height="240" viewBox="0 0 240 240" fill="none" xmlns="http://www.w3.org/2000/svg">
  <rect width="240" height="240" rx="48" fill="#F7F3EA"/>
  <circle cx="120" cy="120" r="68" stroke="#D9D2C6" stroke-width="1.1"/>
  <path d="M120 72C141.2 72 158 88.8 158 110C158 129.2 146.8 145.6 129.4 153.2C128 166.2 123.2 176.8 120 182C116.8 176.8 112 166.2 110.6 153.2C93.2 145.6 82 129.2 82 110C82 88.8 98.8 72 120 72Z" stroke="#1F262B" stroke-width="1.8" stroke-linecap="round" stroke-linejoin="round"/>
  <path d="M96 111C105.5 101.5 111.4 96.6 120 96.6C128.6 96.6 134.5 101.5 144 111" stroke="#5E8791" stroke-width="1.3" stroke-linecap="round"/>
  <path d="M112 126C115.6 123.4 117.9 122.2 120 122.2C122.1 122.2 124.4 123.4 128 126" stroke="#C4A060" stroke-width="1.2" stroke-linecap="round"/>
  <path d="M120 96.6V154.6" stroke="#5E8791" stroke-width="1.15" stroke-linecap="round"/>
  <path d="M109 152C114.2 149.4 117.4 148.4 120 148.4C122.6 148.4 125.8 149.4 131 152" stroke="#C4A060" stroke-width="1.2" stroke-linecap="round"/>
</svg>
