<svg width="1600" height="960" viewBox="0 0 1600 960" fill="none" xmlns="http://www.w3.org/2000/svg">
  <rect width="1600" height="960" fill="#FBF7F0"/>
  <defs>
    <radialGradient id="paper-wash" cx="0" cy="0" r="1" gradientUnits="userSpaceOnUse" gradientTransform="translate(1216 326.40000000000003) rotate(90) scale(422.4 422.4)">
      <stop offset="0" stop-color="#fffdf7"/>
      <stop offset="0.5" stop-color="#F3EBDD"/>
      <stop offset="1" stop-color="#FBF7F0"/>
    </radialGradient>
    <radialGradient id="bleed-wash" cx="0" cy="0" r="1" gradientUnits="userSpaceOnUse" gradientTransform="translate(1200 364.8) rotate(90) scale(249.60000000000002 249.60000000000002)">
      <stop offset="0" stop-color="#fffaf1" stop-opacity="0.95"/>
      <stop offset="0.5" stop-color="#E9DCCA" stop-opacity="0.58"/>
      <stop offset="1" stop-color="#E9DCCA" stop-opacity="0"/>
    </radialGradient>
  </defs>
  <rect x="26" y="26" width="1548" height="908" rx="28" fill="url(#paper-wash)" stroke="rgba(203,188,164,0.38)"/>
  
    
    <rect x="110" y="70" width="1380" height="82" rx="41" fill="rgba(255,252,247,0.84)" stroke="rgba(212,197,173,0.52)"/>
    <text x="182" y="120" fill="#1F1F21" font-family="'Source Serif 4', Georgia, serif" font-size="38" font-weight="600" letter-spacing="-2">ChapAI</text>
    <text x="1106" y="120" fill="#7A7064" font-family="'DM Sans', Arial, sans-serif" font-size="20" font-weight="600">CCRN</text>
    <text x="1190" y="120" fill="#7A7064" font-family="'DM Sans', Arial, sans-serif" font-size="20" font-weight="600">NCLEX</text>
    <text x="1284" y="120" fill="#7A7064" font-family="'DM Sans', Arial, sans-serif" font-size="20" font-weight="600">PLANS</text>
    <rect x="1348" y="90" width="114" height="44" rx="22" fill="rgba(255,250,243,0.96)" stroke="rgba(212,197,173,0.54)"/>
    <text x="1383" y="118" fill="#1F1F21" font-family="'DM Sans', Arial, sans-serif" font-size="20" font-weight="700">SPRINT</text>
  
    
    <text x="154" y="192" fill="#7A7064" font-family="'DM Sans', Arial, sans-serif" font-size="15" font-weight="700" letter-spacing="5">CATH-LAB FIELD / PREMIUM MEDICAL SURFACE</text>
    <text x="154" y="282" fill="#1F1F21" font-family="'DM Sans', Arial, sans-serif" font-size="94" font-weight="500" letter-spacing="-7">Bedside signal,</text>
    <text x="154" y="372" fill="#1F1F21" font-family="'DM Sans', Arial, sans-serif" font-size="94" font-weight="500" letter-spacing="-7">minus the</text>
    <text x="154" y="462" fill="#1F1F21" font-family="'DM Sans', Arial, sans-serif" font-size="94" font-weight="500" letter-spacing="-7">busywork.</text>
    <text x="154" y="546" fill="#7A7064" font-family="'DM Sans', Arial, sans-serif" font-size="30">Original questions, elite rationale, and a direct path into the right plan.</text>
    <rect x="154" y="610" width="232" height="64" rx="32" fill="#587E87"/>
    <text x="194" y="650" fill="#fff" font-family="'DM Sans', Arial, sans-serif" font-size="25" font-weight="700">Start the $10 sprint</text>
    <rect x="404" y="610" width="196" height="64" rx="32" fill="rgba(255,252,247,0.88)" stroke="rgba(194,178,154,0.62)"/>
    <text x="454" y="650" fill="#1F1F21" font-family="'DM Sans', Arial, sans-serif" font-size="24" font-weight="600">See plans</text>
    <text x="154" y="738" fill="#7A7064" font-family="'DM Sans', Arial, sans-serif" font-size="14" font-weight="700" letter-spacing="4">AI TUTOR + VISUAL RATIONALE + CLEAN CLINICAL FLOW</text>
    <path d="M154 766H654" stroke="rgba(212,197,173,0.62)"/>
  
    
    <path d="M760 212C902 134 1044 100 1188 108C1324 116 1456 154 1584 224C1668 270 1732 322 1778 380" stroke="rgba(88,126,135,0.2)" stroke-width="1.4" fill="none" stroke-linecap="round"/>
    <path d="M724 420C874 334 1030 296 1194 304C1360 312 1514 354 1656 436C1742 486 1810 544 1858 608" stroke="rgba(88,126,135,0.12)" stroke-width="1.1" fill="none" stroke-linecap="round"/>
    <path d="M814 684C946 632 1074 610 1200 618C1328 626 1450 664 1566 732C1642 776 1702 826 1746 884" stroke="rgba(88,126,135,0.18)" stroke-width="1.34" fill="none" stroke-linecap="round"/>
    <path d="M1046 84C1052 234 1064 390 1076 548C1088 706 1110 844 1142 952" stroke="rgba(88,126,135,0.1)" stroke-width="1.1" fill="none" stroke-linecap="round"/>
    <path d="M1214 66C1218 226 1228 384 1242 542C1256 700 1282 838 1318 946" stroke="rgba(88,126,135,0.18)" stroke-width="1.22" fill="none" stroke-linecap="round"/>
    <path d="M1388 88C1358 214 1328 348 1298 490C1270 632 1246 780 1228 948" stroke="rgba(88,126,135,0.1)" stroke-width="1.04" fill="none" stroke-linecap="round"/>
  
    
    <path d="M1030.88 329.6C1146.08 256.64 1286.24 224 1453.28 231.68C1606.88 239.36 1722.08 279.68 1798.88 352.64" stroke="rgba(88,126,135,0.38)" stroke-width="2.016" fill="none" stroke-linecap="round"/>
    <path d="M1101.92 477.44H1689.44" stroke="rgba(31,31,29,0.14)" stroke-width="1.1904" stroke-dasharray="5.76 9.6"/>
    <path d="M1124.96 625.28H1702.88" stroke="rgba(31,31,29,0.14)" stroke-width="1.1904" stroke-dasharray="5.76 9.6"/>
    <path d="M1172.96 763.52H1716.32" stroke="rgba(31,31,29,0.14)" stroke-width="1.1904" stroke-dasharray="5.76 9.6"/>
    <path d="M1220.96 389.12C1286.24 348.79999999999995 1366.88 329.6 1462.88 335.36C1562.72 341.12 1645.28 375.68 1710.56 444.8" stroke="rgba(31,31,29,0.84)" stroke-width="2.3615999999999997" fill="none" stroke-linecap="round"/>
    <path d="M1470.56 325.76V840.3199999999999" stroke="#C59858" stroke-width="1.8239999999999998" stroke-linecap="round"/>
    <path d="M1220.96 790.4H1278.56L1307.3600000000001 750.0799999999999L1341.92 863.36L1384.1599999999999 686.72L1412.96 788.48H1482.08" stroke="#B67D66" stroke-width="2.0928" fill="none" stroke-linecap="round" stroke-linejoin="round"/>
    <path d="M1470.56 416C1532 406.4 1591.52 427.52 1652.96 475.52" stroke="#587E87" stroke-width="1.7472" fill="none" stroke-linecap="round"/>
    <path d="M1470.56 512C1416.8 556.16 1372.6399999999999 611.8399999999999 1340 684.8" stroke="#587E87" stroke-width="1.7472" fill="none" stroke-linecap="round"/>
    <circle cx="1307.3600000000001" cy="750.0799999999999" r="6.72" fill="#FBF7F0" stroke="#B67D66" stroke-width="1.056"/>
  
    <text x="154" y="842" fill="#7A7064" font-family="'DM Sans', Arial, sans-serif" font-size="14" font-weight="700" letter-spacing="4">CURRENT ANGLE</text>
    <text x="154" y="888" fill="#1F1F21" font-family="'Source Serif 4', Georgia, serif" font-size="38" font-weight="600">Cath-lab field</text>
  
</svg>