<svg width="1600" height="960" viewBox="0 0 1600 960" fill="none" xmlns="http://www.w3.org/2000/svg">
  <defs>
    <radialGradient id="paper-wash" cx="0" cy="0" r="1" gradientUnits="userSpaceOnUse" gradientTransform="translate(1180 404) rotate(90) scale(420 420)">
      <stop offset="0" stop-color="#FFFDF8" />
      <stop offset="0.46" stop-color="#F2EBDD" />
      <stop offset="1" stop-color="#FBF7F0" />
    </radialGradient>
    <radialGradient id="bleed-wash" cx="0" cy="0" r="1" gradientUnits="userSpaceOnUse" gradientTransform="translate(1260 430) rotate(90) scale(340 340)">
      <stop offset="0" stop-color="#fffaf2" stop-opacity="0.98" />
      <stop offset="0.5" stop-color="#E9DBC7" stop-opacity="0.56" />
      <stop offset="1" stop-color="#E9DBC7" stop-opacity="0" />
    </radialGradient>
  </defs>
  <rect width="1600" height="960" fill="#FBF7F0" />
  
    
    <rect x="108" y="68" width="1388" height="84" rx="42" fill="rgba(255,252,247,0.88)" stroke="rgba(213,198,175,0.56)"/>
    <text x="156" y="122" fill="#1F1F21" font-family="'Source Serif 4', Georgia, serif" font-size="38" font-weight="600" letter-spacing="-2">ChapAI</text>
    <text x="1170" y="120" fill="#766D61" font-family="'DM Sans', Arial, sans-serif" font-size="20" font-weight="600">CCRN</text>
    <text x="1252" y="120" fill="#766D61" font-family="'DM Sans', Arial, sans-serif" font-size="20" font-weight="600">NCLEX</text>
    <text x="1340" y="120" fill="#766D61" font-family="'DM Sans', Arial, sans-serif" font-size="20" font-weight="600">PLANS</text>
    <rect x="1388" y="88" width="102" height="44" rx="22" fill="rgba(255,250,243,0.96)" stroke="rgba(212,197,173,0.56)"/>
    <text x="1422" y="117" fill="#1F1F21" font-family="'DM Sans', Arial, sans-serif" font-size="20" font-weight="700">SPRINT</text>
  
    
    <text x="148" y="194" fill="#766D61" font-family="'DM Sans', Arial, sans-serif" font-size="15" font-weight="700" letter-spacing="4">PREMIUM MEDICAL PREP</text>
    <text x="148" y="292" fill="#1F1F21" font-family="'DM Sans', Arial, sans-serif" font-size="96" font-weight="500" letter-spacing="-7">Pattern first.</text>
    <text x="148" y="382" fill="#1F1F21" font-family="'DM Sans', Arial, sans-serif" font-size="96" font-weight="500" letter-spacing="-7">Noise out.</text>
    <text x="148" y="472" fill="#1F1F21" font-family="'DM Sans', Arial, sans-serif" font-size="96" font-weight="500" letter-spacing="-7">Study better.</text>
    <text x="148" y="554" fill="#766D61" font-family="'DM Sans', Arial, sans-serif" font-size="30">Original questions, AI-guided rationale, and a faster path into the right plan.</text>
    <rect x="148" y="618" width="236" height="64" rx="32" fill="#5A7F88"/>
    <text x="192" y="658" fill="#fff" font-family="'DM Sans', Arial, sans-serif" font-size="25" font-weight="700">Start the $10 sprint</text>
    <rect x="402" y="618" width="190" height="64" rx="32" fill="rgba(255,252,247,0.92)" stroke="rgba(203,187,162,0.62)"/>
    <text x="454" y="658" fill="#1F1F21" font-family="'DM Sans', Arial, sans-serif" font-size="24" font-weight="600">See plans</text>
    <text x="148" y="744" fill="#766D61" font-family="'DM Sans', Arial, sans-serif" font-size="14" font-weight="700" letter-spacing="4">AI TUTOR + LIVE BANK + VISUAL RATIONALE</text>
    <path d="M148 770H664" stroke="rgba(209,194,170,0.62)"/>
  
    
    <path d="M786 174C920 130 1066 112 1224 122C1372 132 1514 174 1650 248C1734 294 1810 356 1878 434" stroke="rgba(96,110,114,0.16)" stroke-width="1.24" fill="none" stroke-linecap="round"/>
    <path d="M742 338C882 306 1018 298 1152 312C1290 326 1420 362 1542 420C1658 476 1764 560 1860 672" stroke="rgba(96,110,114,0.1)" stroke-width="1.06" fill="none" stroke-linecap="round"/>
    <path d="M770 574C910 544 1046 540 1178 554C1312 568 1440 604 1562 662C1676 716 1782 802 1880 922" stroke="rgba(96,110,114,0.14)" stroke-width="1.16" fill="none" stroke-linecap="round"/>
    <path d="M1028 92C1062 250 1088 410 1106 572C1120 734 1126 892 1122 1048" stroke="rgba(96,110,114,0.08)" stroke-width="1.02" fill="none" stroke-linecap="round"/>
    <path d="M1224 82C1224 238 1228 398 1236 560C1246 722 1264 886 1290 1048" stroke="rgba(96,110,114,0.14)" stroke-width="1.04" fill="none" stroke-linecap="round"/>
    <path d="M1466 132C1424 292 1384 446 1346 594C1308 744 1282 896 1268 1048" stroke="rgba(96,110,114,0.08)" stroke-width="1.02" fill="none" stroke-linecap="round"/>
  
    
    <circle cx="1260" cy="496" r="312" fill="url(#bleed-wash)" opacity="0.9"/>
    <circle cx="1260" cy="496" r="322" stroke="rgba(90,112,120,0.18)" stroke-width="1.92"/>
    <path d="M1260 496C1206 426 1144 366 1074 316C1004 266 922 230 828 208" stroke="rgba(24,22,20,0.9)" stroke-width="2.78" fill="none" stroke-linecap="round"/>
    <path d="M1260 496C1314 426 1376 366 1446 316C1516 266 1598 230 1692 208" stroke="rgba(24,22,20,0.9)" stroke-width="2.78" fill="none" stroke-linecap="round"/>
    <path d="M1260 496C1204 564 1144 636 1080 712C1016 788 958 874 906 970" stroke="rgba(24,22,20,0.84)" stroke-width="2.42" fill="none" stroke-linecap="round"/>
    <path d="M1260 496C1316 564 1376 636 1440 712C1504 788 1562 874 1614 970" stroke="rgba(24,22,20,0.84)" stroke-width="2.42" fill="none" stroke-linecap="round"/>
    <path d="M1260 496C1260 422 1266 334 1276 232" stroke="#C59B5E" stroke-width="1.92" fill="none" stroke-linecap="round"/>
    <path d="M1260 496C1260 582 1260 674 1266 774" stroke="#C59B5E" stroke-width="1.92" fill="none" stroke-linecap="round"/>
    <circle cx="1260" cy="496" r="42" fill="#FFFDF8" stroke="rgba(24,22,20,0.18)" stroke-width="1.1"/>
  
    <text x="148" y="840" fill="#766D61" font-family="'DM Sans', Arial, sans-serif" font-size="14" font-weight="700" letter-spacing="4">CURRENT ANGLE</text>
    <text x="148" y="886" fill="#1F1F21" font-family="'Source Serif 4', Georgia, serif" font-size="38" font-weight="600">Neuron bloom</text>
  
</svg>