<svg width="1600" height="960" viewBox="0 0 1600 960" fill="none" xmlns="http://www.w3.org/2000/svg">
    <defs>
      <radialGradient id="paper-wash" cx="0" cy="0" r="1" gradientUnits="userSpaceOnUse" gradientTransform="translate(1180 420) rotate(90) scale(420 420)">
        <stop offset="0" stop-color="#FFFDF8" />
        <stop offset="0.4" stop-color="#F2EBDD" />
        <stop offset="1" stop-color="#FBF7F0" />
      </radialGradient>
      <radialGradient id="bleed-wash" cx="0" cy="0" r="1" gradientUnits="userSpaceOnUse" gradientTransform="translate(1260 446) rotate(90) scale(360 360)">
        <stop offset="0" stop-color="#fffaf2" stop-opacity="0.98" />
        <stop offset="0.52" stop-color="#E9DBC7" stop-opacity="0.56" />
        <stop offset="1" stop-color="#E9DBC7" stop-opacity="0" />
      </radialGradient>
    </defs>
    <rect width="1600" height="960" fill="#FBF7F0" />
    
    
    <rect x="108" y="68" width="1388" height="84" rx="42" fill="rgba(255,252,247,0.9)" stroke="rgba(213,198,175,0.56)"/>
    <text x="156" y="122" fill="#1F1F21" font-family="'Source Serif 4', Georgia, serif" font-size="38" font-weight="600" letter-spacing="-2">ChapAI</text>
    <text x="1170" y="120" fill="#766D61" font-family="'DM Sans', Arial, sans-serif" font-size="20" font-weight="600">CCRN</text>
    <text x="1252" y="120" fill="#766D61" font-family="'DM Sans', Arial, sans-serif" font-size="20" font-weight="600">NCLEX</text>
    <text x="1340" y="120" fill="#766D61" font-family="'DM Sans', Arial, sans-serif" font-size="20" font-weight="600">PLANS</text>
    <rect x="1388" y="88" width="102" height="44" rx="22" fill="rgba(255,250,243,0.96)" stroke="rgba(212,197,173,0.56)"/>
    <text x="1420" y="117" fill="#1F1F21" font-family="'DM Sans', Arial, sans-serif" font-size="20" font-weight="700">SPRINT</text>
  
    
    <text x="148" y="194" fill="#766D61" font-family="'DM Sans', Arial, sans-serif" font-size="15" font-weight="700" letter-spacing="4">PREMIUM MEDICAL PREP</text>
    <text x="148" y="292" fill="#1F1F21" font-family="'DM Sans', Arial, sans-serif" font-size="96" font-weight="500" letter-spacing="-7">Premium nursing</text>
    <text x="148" y="382" fill="#1F1F21" font-family="'DM Sans', Arial, sans-serif" font-size="96" font-weight="500" letter-spacing="-7">prep with</text>
    <text x="148" y="472" fill="#1F1F21" font-family="'DM Sans', Arial, sans-serif" font-size="96" font-weight="500" letter-spacing="-7">actual signal.</text>
    <text x="148" y="556" fill="#766D61" font-family="'DM Sans', Arial, sans-serif" font-size="30">Original questions, AI tutor guidance, and cleaner clinical review.</text>
    <rect x="148" y="620" width="236" height="64" rx="32" fill="#5A7F88"/>
    <text x="192" y="660" fill="#fff" font-family="'DM Sans', Arial, sans-serif" font-size="25" font-weight="700">Start the $10 sprint</text>
    <rect x="402" y="620" width="190" height="64" rx="32" fill="rgba(255,252,247,0.92)" stroke="rgba(203,187,162,0.62)"/>
    <text x="454" y="660" fill="#1F1F21" font-family="'DM Sans', Arial, sans-serif" font-size="24" font-weight="600">See plans</text>
    <text x="148" y="742" fill="#766D61" font-family="'DM Sans', Arial, sans-serif" font-size="14" font-weight="700" letter-spacing="4">AI TUTOR + LIVE BANK + VISUAL RATIONALE</text>
    <path d="M148 770H660" stroke="rgba(209,194,170,0.62)"/>
  
    
    <path d="M786 152C910 130 1044 128 1188 144C1334 160 1472 196 1602 252C1718 302 1824 372 1920 462" stroke="rgba(92,104,110,0.15)" stroke-width="1.18" fill="none" stroke-linecap="round"/>
    <path d="M748 324C882 300 1018 302 1156 320C1296 338 1430 374 1558 432C1680 488 1794 572 1900 682" stroke="rgba(92,104,110,0.1)" stroke-width="1.08" fill="none" stroke-linecap="round"/>
    <path d="M764 548C906 520 1050 522 1196 542C1340 562 1478 602 1610 666C1728 722 1840 810 1946 932" stroke="rgba(92,104,110,0.12)" stroke-width="1.12" fill="none" stroke-linecap="round"/>
    <path d="M1000 92C1034 236 1060 386 1078 542C1094 704 1102 862 1102 1014" stroke="rgba(92,104,110,0.08)" stroke-width="1.04" fill="none" stroke-linecap="round"/>
    <path d="M1214 86C1216 236 1222 386 1232 538C1244 690 1262 850 1286 1014" stroke="rgba(92,104,110,0.14)" stroke-width="1.04" fill="none" stroke-linecap="round"/>
  
    
    <path d="M990 156C1090 122 1202 112 1328 124C1458 136 1568 168 1658 220C1748 272 1812 348 1848 448C1884 550 1880 658 1836 772C1792 886 1714 978 1602 1048C1490 1116 1360 1150 1212 1152C1076 1150 960 1118 864 1058C768 996 700 914 662 812C626 708 624 602 656 496C688 390 744 304 824 238C880 190 936 164 990 156Z" fill="url(#bleed-wash)" opacity="0.95"/>
    <path d="M1064 154C1128 140 1202 134 1288 138C1404 142 1502 166 1582 210C1662 254 1718 314 1750 392C1782 470 1786 560 1762 662C1738 764 1686 854 1604 936C1522 1018 1428 1072 1320 1102C1214 1132 1110 1134 1012 1108C916 1082 838 1030 780 952C722 876 694 784 694 678C694 572 712 478 748 396C786 314 842 250 916 208C958 184 1008 166 1064 154Z" stroke="rgba(24,22,20,0.92)" stroke-width="2.8" fill="none" stroke-linecap="round" stroke-linejoin="round"/>
    <path d="M1252 160C1242 270 1246 386 1252 510C1258 636 1260 756 1252 872C1246 954 1238 1024 1224 1084" stroke="#C59B5E" stroke-width="2.06" fill="none" stroke-linecap="round"/>
    <path d="M1106 198C1046 208 994 234 950 276C912 314 890 358 884 408C878 458 890 504 920 548" stroke="rgba(46,42,38,0.58)" stroke-width="1.56" fill="none" stroke-linecap="round"/>
    <path d="M1150 228C1088 238 1036 266 996 310C958 352 940 398 942 448C946 498 964 544 998 588" stroke="rgba(46,42,38,0.56)" stroke-width="1.54" fill="none" stroke-linecap="round"/>
    <path d="M1190 264C1132 274 1086 300 1050 342C1018 380 1004 424 1008 472C1014 520 1034 564 1068 606" stroke="rgba(46,42,38,0.54)" stroke-width="1.5" fill="none" stroke-linecap="round"/>
    <path d="M1218 320C1164 330 1124 352 1098 386C1074 418 1068 454 1078 494C1088 534 1110 568 1144 596" stroke="rgba(46,42,38,0.52)" stroke-width="1.46" fill="none" stroke-linecap="round"/>
    <path d="M1230 382C1184 388 1152 402 1132 424C1112 448 1108 476 1120 508C1134 540 1158 568 1192 592" stroke="rgba(46,42,38,0.5)" stroke-width="1.42" fill="none" stroke-linecap="round"/>
    <path d="M1350 198C1410 208 1462 234 1506 276C1544 314 1566 358 1572 408C1578 458 1566 504 1536 548" stroke="rgba(46,42,38,0.58)" stroke-width="1.56" fill="none" stroke-linecap="round"/>
    <path d="M1306 228C1368 238 1420 266 1460 310C1498 352 1516 398 1514 448C1510 498 1492 544 1458 588" stroke="rgba(46,42,38,0.56)" stroke-width="1.54" fill="none" stroke-linecap="round"/>
    <path d="M1266 264C1324 274 1370 300 1406 342C1438 380 1452 424 1448 472C1442 520 1422 564 1388 606" stroke="rgba(46,42,38,0.54)" stroke-width="1.5" fill="none" stroke-linecap="round"/>
    <path d="M1238 320C1292 330 1332 352 1358 386C1382 418 1388 454 1378 494C1368 534 1346 568 1312 596" stroke="rgba(46,42,38,0.52)" stroke-width="1.46" fill="none" stroke-linecap="round"/>
    <path d="M1226 382C1272 388 1304 402 1324 424C1344 448 1348 476 1336 508C1322 540 1298 568 1264 592" stroke="rgba(46,42,38,0.5)" stroke-width="1.42" fill="none" stroke-linecap="round"/>
    <path d="M1020 688C970 740 936 796 918 856C902 912 904 968 926 1022" stroke="rgba(46,42,38,0.48)" stroke-width="1.3" fill="none" stroke-linecap="round"/>
    <path d="M1442 684C1492 734 1528 790 1548 848C1568 904 1568 958 1548 1010" stroke="rgba(46,42,38,0.48)" stroke-width="1.3" fill="none" stroke-linecap="round"/>
    <path d="M1516 266C1570 292 1618 328 1660 374" stroke="#5A7F88" stroke-width="1.38" fill="none" stroke-linecap="round"/>
    <path d="M1546 332C1592 360 1630 396 1662 438" stroke="#5A7F88" stroke-width="1.32" fill="none" stroke-linecap="round"/>
    <path d="M1570 412C1610 438 1640 470 1664 510" stroke="#5A7F88" stroke-width="1.28" fill="none" stroke-linecap="round"/>
    <path d="M1002 1036C944 1066 884 1104 824 1152" stroke="#B67F67" stroke-width="1.34" fill="none" stroke-linecap="round"/>
    <path d="M1228 1098C1254 1142 1282 1186 1312 1226" stroke="#C59B5E" stroke-width="1.46" fill="none" stroke-linecap="round"/>
  
    <text x="148" y="840" fill="#766D61" font-family="'DM Sans', Arial, sans-serif" font-size="14" font-weight="700" letter-spacing="4">CURRENT ANGLE</text>
    <text x="148" y="886" fill="#1F1F21" font-family="'Source Serif 4', Georgia, serif" font-size="38" font-weight="600">Cortical atlas</text>
  
  </svg>