<svg width="1600" height="520" viewBox="0 0 1600 520" fill="none" xmlns="http://www.w3.org/2000/svg">
  <rect width="1600" height="520" fill="#FBF7F0"/>
  <defs>
    <radialGradient id="page-wash" cx="0" cy="0" r="1" gradientUnits="userSpaceOnUse" gradientTransform="translate(1216 187.2) rotate(90) scale(218.4 218.4)">
      <stop offset="0" stop-color="#fffdf8"/>
      <stop offset="0.62" stop-color="#F3EBDD"/>
      <stop offset="1" stop-color="#F3EBDD"/>
    </radialGradient>
    <radialGradient id="medical-bleed" cx="0" cy="0" r="1" gradientUnits="userSpaceOnUse" gradientTransform="translate(1184 176.8) rotate(90) scale(145.60000000000002 145.60000000000002)">
      <stop offset="0" stop-color="rgba(255,253,248,0.96)"/>
      <stop offset="0.58" stop-color="rgba(233,220,199,0.52)"/>
      <stop offset="1" stop-color="rgba(233,220,199,0)"/>
    </radialGradient>
  </defs>
  <rect x="26" y="26" width="1548" height="468" rx="28" fill="url(#page-wash)" stroke="rgba(199,184,160,0.36)"/>
  
    <rect x="42" y="42" width="1516" height="434" rx="34" fill="rgba(255,252,247,0.88)" stroke="rgba(212,197,173,0.52)"/>
    <text x="116" y="174" fill="#201F21" font-family="'Source Serif 4', Georgia, serif" font-size="72" font-weight="600" letter-spacing="-3">ChapAI</text>
    <text x="116" y="234" fill="#7A7064" font-family="'DM Sans', Arial, sans-serif" font-size="18" font-weight="700" letter-spacing="5">NCLEX + CCRN / CLEANER CLINICAL PREP</text>
    <text x="116" y="312" fill="#201F21" font-family="'DM Sans', Arial, sans-serif" font-size="50" font-weight="500" letter-spacing="-3">Original questions. Elite rationale.</text>
    <text x="116" y="368" fill="#7A7064" font-family="'DM Sans', Arial, sans-serif" font-size="26">AI tutor, visual guidance, and a faster path into the right plan.</text>
    
    <path d="M951.6 148.24C1013.16 108.28 1084.44 88.84 1166.52 89.92C1248.6 91 1314.48 112.6 1364.16 155.8" stroke="rgba(86,124,133,0.42)" stroke-width="1.1880000000000002" fill="none" stroke-linecap="round"/>
    <path d="M981.84 216.28H1268.04" stroke="rgba(31,31,29,0.16)" stroke-width="0.756" stroke-dasharray="3.24 5.4"/>
    <path d="M975.36 290.8H1286.4" stroke="rgba(31,31,29,0.16)" stroke-width="0.756" stroke-dasharray="3.24 5.4"/>
    <path d="M991.56 365.32H1306.92" stroke="rgba(31,31,29,0.16)" stroke-width="0.756" stroke-dasharray="3.24 5.4"/>
    <path d="M1030.44 192.52C1062.84 169.84 1100.64 157.96 1144.92 157.96C1190.28 157.96 1229.16 174.16000000000003 1261.56 206.56C1293.96 238.96 1310.16 281.08000000000004 1310.16 334C1310.16 390.16 1291.8 436.6 1255.08 473.32000000000005C1218.3600000000001 510.04 1174.08 530.5600000000001 1121.16 534.8800000000001" stroke="rgba(31,31,29,0.84)" stroke-width="1.35" fill="none" stroke-linecap="round" stroke-linejoin="round"/>
    <path d="M1143.84 150.4V483.04" stroke="#AD7E65" stroke-width="1.026" stroke-linecap="round"/>
    <path d="M1035.84 399.88H1065L1080.12 375.04L1099.56 443.08000000000004L1124.4 330.76L1141.68 399.88H1174.08" stroke="#AD7E65" stroke-width="1.1880000000000002" fill="none" stroke-linecap="round" stroke-linejoin="round"/>
    <path d="M1143.84 192.52C1176.24 186.04000000000002 1208.64 195.76000000000002 1239.96 222.76000000000002" stroke="#567C85" stroke-width="1.026" fill="none" stroke-linecap="round"/>
    <path d="M1143.84 241.12C1115.76 264.88 1095.24 294.04 1082.28 328.6" stroke="#567C85" stroke-width="1.026" fill="none" stroke-linecap="round"/>
    <circle cx="1080.12" cy="375.04" r="3.7800000000000002" fill="#FBF7F0" stroke="#AD7E65" stroke-width="0.648"/>
  
  
</svg>