<svg width="1500" height="560" viewBox="0 0 1500 560" fill="none" xmlns="http://www.w3.org/2000/svg">
  <rect width="1500" height="560" fill="#FBF7F0"/>
  <rect x="22" y="22" width="1456" height="516" rx="32" fill="url(#headerWash)" stroke="rgba(208,196,177,0.58)"/>
  <defs>
    <radialGradient id="headerWash" cx="0" cy="0" r="1" gradientUnits="userSpaceOnUse" gradientTransform="translate(1040 120) rotate(120) scale(860 860)">
      <stop offset="0" stop-color="#fffdf8" stop-opacity="0.98"/>
      <stop offset="0.62" stop-color="#f4ebdb" stop-opacity="0.84"/>
      <stop offset="1" stop-color="#efe4d3" stop-opacity="0.92"/>
    </radialGradient>
  </defs>
  <text x="96" y="116" fill="#1F2328" font-family="Source Serif 4, Georgia, serif" font-size="34" font-weight="600">ChapAI</text>
  <text x="96" y="144" fill="#6F665A" font-family="DM Sans, Arial, sans-serif" font-size="14" letter-spacing="4">NCLEX + CCRN</text>
  <rect x="96" y="182" width="146" height="34" rx="17" fill="rgba(255,252,247,0.74)" stroke="rgba(213,202,184,0.62)"/>
  <text x="120" y="205" fill="#6F665A" font-family="DM Sans, Arial, sans-serif" font-size="13" font-weight="700" letter-spacing="2">PREMIUM PREP</text>
  <text x="96" y="292" fill="#1F2328" font-family="Source Serif 4, Georgia, serif" font-size="72" font-weight="600" letter-spacing="-3">A better prep brand is easier to recommend.</text>
  <text x="96" y="344" fill="#6F665A" font-family="Source Serif 4, Georgia, serif" font-size="24">Less clutter. More confidence. Better questions.</text>
  <rect x="96" y="390" width="220" height="50" rx="24" fill="#567A84"/>
  <text x="142" y="422" fill="white" font-family="DM Sans, Arial, sans-serif" font-size="22" font-weight="700">Try the $10 sprint</text>
  
    <circle cx="1160" cy="284" r="208" stroke="#1F2328" stroke-opacity="0.2" stroke-width="1.8"/>
    <ellipse cx="1160" cy="284" rx="162" ry="208" stroke="#567A84" stroke-opacity="0.24" stroke-width="1.36"/>
    <ellipse cx="1160" cy="284" rx="121" ry="208" stroke="#567A84" stroke-opacity="0.16" stroke-width="1.18"/>
    <path d="M1160 76V492" stroke="#567A84" stroke-opacity="0.18" stroke-width="1.16"/>
    <path d="M976 213.28C1064 188.32 1256 188.32 1344 213.28" stroke="#567A84" stroke-opacity="0.17" stroke-width="1.1"/>
    <path d="M970 300.64C1054 282 1266 282 1350 300.64" stroke="#567A84" stroke-opacity="0.18" stroke-width="1.1"/>
    <path d="M990 371.36C1064 358.88 1256 358.88 1330 371.36" stroke="#567A84" stroke-opacity="0.15" stroke-width="1.06"/>
  
    <g transform="translate(1160 284) scale(0.42) translate(-120 -120)">
      <path d="M146 42V98" stroke="#567A84" stroke-width="3" stroke-linecap="round"/>
      <path d="M146 42C160 28 176 18 194 12" stroke="#567A84" stroke-width="2.4" stroke-linecap="round"/>
      <path d="M134 42C120 28 106 18 92 12" stroke="#567A84" stroke-width="2.4" stroke-linecap="round"/>
      <path d="M150 72C176 54 204 46 232 48C260 50 282 64 298 90C314 116 320 144 314 174C308 204 292 228 266 246C240 264 214 286 188 312C166 288 142 268 116 250C90 232 72 210 62 184C52 158 52 132 62 106C72 80 90 62 116 52C142 42 170 48 200 70" stroke="#1F2328" stroke-width="4.4" stroke-linecap="round" stroke-linejoin="round"/>
      <path d="M98 174C120 166 142 160 166 158C190 156 214 160 238 170" stroke="#C39A63" stroke-width="2.2" stroke-linecap="round"/>
      <path d="M118 218C142 208 166 204 192 206C218 208 242 218 264 236" stroke="#567A84" stroke-width="2.1" stroke-linecap="round"/>
    </g>
  
</svg>